<svg xmlns="http://www.w3.org/2000/svg" xmlns:xlink="http://www.w3.org/1999/xlink" id="Layer_1" viewBox="0 0 1920 1080" width="1920" height="1080"><style>.st0{clip-path:url(#SVGID_2_)}.st1{fill:#c9e1e5}.st2{fill:#9eb3b5}.st3{opacity:.6;fill:#f4f6f5}.st4{fill:#bfd5da}.st5{fill:#f4f6f5}.st6{opacity:.6;fill:#f3be1a}.st7{fill:none;stroke:#000;stroke-width:.15;stroke-miterlimit:10}.st8,.st9{opacity:.6;clip-path:url(#SVGID_2_);fill:#f4f6f5}.st9{fill:#f3be1a}</style><defs><path id="SVGID_1_" d="M2 0h1918v1082H2z"/></defs><clipPath id="SVGID_2_"><use overflow="visible" xlink:href="#SVGID_1_"/></clipPath><g class="st0"><path d="M867.7 515c-54.7-81.1-95.1-161.6-115.6-241-3.7-45.8-33.6-95.5-70.1-146.2L406 287.6c28.5 56.8 57.6 109.8 91.9 133.6 60.8 60.6 110.1 135.5 151.5 220.2L867.7 515z" class="st1"/><path d="M649.4 641.4c10 14.5 29.3 23.3 56.1 23.3 56.9-.1 126.1-40.1 154.5-89.5 13.4-23.2 15.3-44.4 7.7-60.2-.5-1-1-2-1.5-2.9-4.8-8.3-12.4-14.9-22.5-19.4-9.6-4.3-21.5-6.7-35.4-6.6-56.9.1-126.1 40.1-154.5 89.5-15 26-15.6 49.5-4.4 65.8z" class="st2"/><path d="M497.9 421.2c-34.2-23.8-63.4-76.7-91.9-133.6l275.9-159.8c36.5 50.7 66.5 100.4 70.1 146.2 19.7 76.3 57.8 153.5 109.3 231.4 1.8 2.1 3.5 4.3 4.8 6.7.5.9 1.1 1.9 1.5 2.9 7.6 15.9 5.7 37-7.7 60.2-28.4 49.3-97.6 89.4-154.5 89.5-26.8 0-46.1-8.8-56.1-23.3-2.2-3.2-4-6.8-5.2-10.5-40.2-80.5-87.9-151.7-146.2-209.7z" class="st3"/><path d="M406 287.6c6.1 8.8 14.9 16 26.2 21 12.1 5.4 27.1 8.4 44.7 8.4 72-.1 159.4-50.7 195.3-113.1 16.9-29.4 19.4-56.1 9.7-76.1-.6-1.3-1.2-2.5-1.9-3.7-11.8-20.4-37.1-33-73.1-33-72 .1-159.4 50.7-195.3 113.1-19 33.1-19.7 62.8-5.6 83.4z" class="st4"/><path d="M412 283.9c5.8 8.4 14.2 15.3 25 20.1 11.6 5.2 26 8 42.7 8 68.8-.1 152.4-48.5 186.8-108.2 16.2-28.1 18.5-53.6 9.3-72.8-.6-1.2-1.2-2.4-1.9-3.5C662.6 108 638.4 95.9 604 96c-68.8.1-152.4 48.5-186.8 108.2-18.1 31.6-18.8 60-5.2 79.7z" class="st5"/><path d="M520.4 401.5c75-.1 166.1-52.9 203.5-117.8 12.3-21.4 17.3-41.5 15.7-58.7 6.8 16.7 11.3 33.2 12.6 49.1 19.7 76.3 57.8 153.5 109.3 231.4 1.8 2.1 3.5 4.3 4.8 6.7.5.9 1.1 1.9 1.5 2.9 7.6 15.9 5.7 37-7.7 60.2-28.4 49.3-97.6 89.4-154.5 89.5-26.8 0-46.1-8.8-56.1-23.3-2.2-3.2-4-6.8-5.2-10.5-40.3-80.4-87.9-151.6-146.2-209.7-11.6-8.1-22.6-19.5-33.2-33.3 2.8 1.8 5.9 3.4 9.1 4.8 12.5 5.6 28.1 8.7 46.4 8.7z" class="st6"/></g><g class="st0"><path d="M1260.7 515c-54.7-81.1-95.1-161.6-115.6-241-3.7-45.8-33.6-95.5-70.1-146.2L799 287.6c28.5 56.8 57.6 109.8 91.9 133.6 60.8 60.6 110.1 135.5 151.5 220.2L1260.7 515z" class="st1"/><path d="M1042.4 641.4c10 14.5 29.3 23.3 56.1 23.3 56.9-.1 126.1-40.1 154.5-89.5 13.4-23.2 15.3-44.4 7.7-60.2-.5-1-1-2-1.5-2.9-4.8-8.3-12.4-14.9-22.5-19.4-9.6-4.3-21.5-6.7-35.4-6.6-56.9.1-126.1 40.1-154.5 89.5-15 26-15.6 49.5-4.4 65.8z" class="st2"/><path d="M890.9 421.2c-34.2-23.8-63.4-76.7-91.9-133.6l275.9-159.8c36.5 50.7 66.5 100.4 70.1 146.2 19.7 76.3 57.8 153.5 109.3 231.4 1.8 2.1 3.5 4.3 4.8 6.7.5.9 1.1 1.9 1.5 2.9 7.6 15.9 5.7 37-7.7 60.2-28.4 49.3-97.6 89.4-154.5 89.5-26.8 0-46.1-8.8-56.1-23.3-2.2-3.2-4-6.8-5.2-10.5-40.2-80.5-87.9-151.7-146.2-209.7z" class="st3"/><path d="M799 287.6c6.1 8.8 14.9 16 26.2 21 12.1 5.4 27.1 8.4 44.7 8.4 72-.1 159.4-50.7 195.3-113.1 16.9-29.4 19.4-56.1 9.7-76.1-.6-1.3-1.2-2.5-1.9-3.7-11.8-20.4-37.1-33-73.1-33-72 .1-159.4 50.7-195.3 113.1-19 33.1-19.7 62.8-5.6 83.4z" class="st4"/><path d="M805 283.9c5.8 8.4 14.2 15.3 25 20.1 11.6 5.2 26 8 42.7 8 68.8-.1 152.4-48.5 186.8-108.2 16.2-28.1 18.5-53.6 9.3-72.8-.6-1.2-1.2-2.4-1.9-3.5-11.3-19.5-35.5-31.6-69.9-31.5-68.8.1-152.4 48.5-186.8 108.2-18.1 31.6-18.8 60-5.2 79.7z" class="st5"/><path d="M913.4 401.5c75-.1 166.1-52.9 203.5-117.8 12.3-21.4 17.3-41.5 15.7-58.7 6.8 16.7 11.3 33.2 12.6 49.1 19.7 76.3 57.8 153.5 109.3 231.4 1.8 2.1 3.5 4.3 4.8 6.7.5.9 1.1 1.9 1.5 2.9 7.6 15.9 5.7 37-7.7 60.2-28.4 49.3-97.6 89.4-154.5 89.5-26.8 0-46.1-8.8-56.1-23.3-2.2-3.2-4-6.8-5.2-10.5-40.3-80.4-87.9-151.6-146.2-209.7-11.6-8.1-22.6-19.5-33.2-33.3 2.8 1.8 5.9 3.4 9.1 4.8 12.5 5.6 28.1 8.7 46.4 8.7z" class="st6"/></g><g class="st0"><path d="M1653.7 515c-54.7-81.1-95.1-161.6-115.6-241-3.7-45.8-33.6-95.5-70.1-146.2l-276 159.8c28.5 56.8 57.6 109.8 91.9 133.6 60.8 60.6 110.1 135.5 151.5 220.2L1653.7 515z" class="st1"/><path d="M1435.4 641.4c10 14.5 29.3 23.3 56.1 23.3 56.9-.1 126.1-40.1 154.5-89.5 13.4-23.2 15.3-44.4 7.7-60.2-.5-1-1-2-1.5-2.9-4.8-8.3-12.4-14.9-22.5-19.4-9.6-4.3-21.5-6.7-35.4-6.6-56.9.1-126.1 40.1-154.5 89.5-15 26-15.6 49.5-4.4 65.8z" class="st2"/><path d="M1283.9 421.2c-34.2-23.8-63.4-76.7-91.9-133.6l275.9-159.8c36.5 50.7 66.5 100.4 70.1 146.2 19.7 76.3 57.8 153.5 109.3 231.4 1.8 2.1 3.5 4.3 4.8 6.7.5.9 1.1 1.9 1.5 2.9 7.6 15.9 5.7 37-7.7 60.2-28.4 49.3-97.6 89.4-154.5 89.5-26.8 0-46.1-8.8-56.1-23.3-2.2-3.2-4-6.8-5.2-10.5-40.2-80.5-87.9-151.7-146.2-209.7z" class="st3"/><path d="M1192 287.6c6.1 8.8 14.9 16 26.2 21 12.1 5.4 27.1 8.4 44.7 8.4 72-.1 159.4-50.7 195.3-113.1 16.9-29.4 19.4-56.1 9.7-76.1-.6-1.3-1.2-2.5-1.9-3.7-11.8-20.4-37.1-33-73.1-33-72 .1-159.4 50.7-195.3 113.1-19 33.1-19.7 62.8-5.6 83.4z" class="st4"/><path d="M1198 283.9c5.8 8.4 14.2 15.3 25 20.1 11.6 5.2 26 8 42.7 8 68.8-.1 152.4-48.5 186.8-108.2 16.2-28.1 18.5-53.6 9.3-72.8-.6-1.2-1.2-2.4-1.9-3.5-11.3-19.5-35.5-31.6-69.9-31.5-68.8.1-152.4 48.5-186.8 108.2-18.1 31.6-18.8 60-5.2 79.7z" class="st5"/><path d="M1306.4 401.5c75-.1 166.1-52.9 203.5-117.8 12.3-21.4 17.3-41.5 15.7-58.7 6.8 16.7 11.3 33.2 12.6 49.1 19.7 76.3 57.8 153.5 109.3 231.4 1.8 2.1 3.5 4.3 4.8 6.7.5.9 1.1 1.9 1.5 2.9 7.6 15.9 5.7 37-7.7 60.2-28.4 49.3-97.6 89.4-154.5 89.5-26.8 0-46.1-8.8-56.1-23.3-2.2-3.2-4-6.8-5.2-10.5-40.3-80.4-87.9-151.6-146.2-209.7-11.6-8.1-22.6-19.5-33.2-33.3 2.8 1.8 5.9 3.4 9.1 4.8 12.5 5.6 28.1 8.7 46.4 8.7z" class="st6"/></g><g class="st0"><path d="M654.7 795c-54.7-81.1-95.1-161.6-115.6-241-3.7-45.8-33.6-95.5-70.1-146.2L193 567.6c28.5 56.8 57.6 109.8 91.9 133.6 60.8 60.6 110.1 135.5 151.5 220.2L654.7 795z" class="st1"/><path d="M436.4 921.4c10 14.5 29.3 23.3 56.1 23.3 56.9-.1 126.1-40.1 154.5-89.5 13.4-23.2 15.3-44.4 7.7-60.2-.5-1-1-2-1.5-2.9-4.8-8.3-12.4-14.9-22.5-19.4-9.6-4.3-21.5-6.7-35.4-6.6-56.9.1-126.1 40.1-154.5 89.5-15 26-15.6 49.5-4.4 65.8z" class="st2"/><path d="M284.9 701.2c-34.2-23.8-63.4-76.7-91.9-133.6l275.9-159.8c36.5 50.7 66.5 100.4 70.1 146.2 19.7 76.3 57.8 153.5 109.3 231.4 1.8 2.1 3.5 4.3 4.8 6.7.5.9 1.1 1.9 1.5 2.9 7.6 15.9 5.7 37-7.7 60.2-28.4 49.3-97.6 89.4-154.5 89.5-26.8 0-46.1-8.8-56.1-23.3-2.2-3.2-4-6.8-5.2-10.5-40.2-80.5-87.9-151.7-146.2-209.7z" class="st3"/><path d="M193 567.6c6.1 8.8 14.9 16 26.2 21 12.1 5.4 27.1 8.4 44.7 8.4 72-.1 159.4-50.7 195.3-113.1 16.9-29.4 19.4-56.1 9.7-76.1-.6-1.3-1.2-2.5-1.9-3.7-11.8-20.4-37.1-33-73.1-33-72 .1-159.4 50.7-195.3 113.1-19 33.1-19.7 62.8-5.6 83.4z" class="st4"/><path d="M199 563.9c5.8 8.4 14.2 15.3 25 20.1 11.6 5.2 26 8 42.7 8 68.8-.1 152.4-48.5 186.8-108.2 16.2-28.1 18.5-53.6 9.3-72.8-.6-1.2-1.2-2.4-1.9-3.5-11.3-19.5-35.5-31.6-69.9-31.5-68.8.1-152.4 48.5-186.8 108.2-18.1 31.6-18.8 60-5.2 79.7z" class="st5"/><path d="M307.4 681.5c75-.1 166.1-52.9 203.5-117.8 12.3-21.4 17.3-41.5 15.7-58.7 6.8 16.7 11.3 33.2 12.6 49.1 19.7 76.3 57.8 153.5 109.3 231.4 1.8 2.1 3.5 4.3 4.8 6.7.5.9 1.1 1.9 1.5 2.9 7.6 15.9 5.7 37-7.7 60.2-28.4 49.3-97.6 89.4-154.5 89.5-26.8 0-46.1-8.8-56.1-23.3-2.2-3.2-4-6.8-5.2-10.5-40.3-80.4-87.9-151.6-146.2-209.7-11.6-8.1-22.6-19.5-33.2-33.3 2.8 1.8 5.9 3.4 9.1 4.8 12.5 5.6 28.1 8.7 46.4 8.7z" class="st6"/></g><g class="st0"><path d="M1047.7 795c-54.7-81.1-95.1-161.6-115.6-241-3.7-45.8-33.6-95.5-70.1-146.2L586 567.6c28.5 56.8 57.6 109.8 91.9 133.6 60.8 60.6 110.1 135.5 151.5 220.2L1047.7 795z" class="st1"/><path d="M829.4 921.4c10 14.5 29.3 23.3 56.1 23.3 56.9-.1 126.1-40.1 154.5-89.5 13.4-23.2 15.3-44.4 7.7-60.2-.5-1-1-2-1.5-2.9-4.8-8.3-12.4-14.9-22.5-19.4-9.6-4.3-21.5-6.7-35.4-6.6-56.9.1-126.1 40.1-154.5 89.5-15 26-15.6 49.5-4.4 65.8z" class="st2"/><path d="M677.9 701.2c-34.2-23.8-63.4-76.7-91.9-133.6l275.9-159.8c36.5 50.7 66.5 100.4 70.1 146.2 19.7 76.3 57.8 153.5 109.3 231.4 1.8 2.1 3.5 4.3 4.8 6.7.5.9 1.1 1.9 1.5 2.9 7.6 15.9 5.7 37-7.7 60.2-28.4 49.3-97.6 89.4-154.5 89.5-26.8 0-46.1-8.8-56.1-23.3-2.2-3.2-4-6.8-5.2-10.5-40.2-80.5-87.9-151.7-146.2-209.7z" class="st3"/><path d="M586 567.6c6.1 8.8 14.9 16 26.2 21 12.1 5.4 27.1 8.4 44.7 8.4 72-.1 159.4-50.7 195.3-113.1 16.9-29.4 19.4-56.1 9.7-76.1-.6-1.3-1.2-2.5-1.9-3.7-11.8-20.4-37.1-33-73.1-33-72 .1-159.4 50.7-195.3 113.1-19 33.1-19.7 62.8-5.6 83.4z" class="st4"/><path d="M592 563.9c5.8 8.4 14.2 15.3 25 20.1 11.6 5.2 26 8 42.7 8 68.8-.1 152.4-48.5 186.8-108.2 16.2-28.1 18.5-53.6 9.3-72.8-.6-1.2-1.2-2.4-1.9-3.5-11.3-19.5-35.5-31.6-69.9-31.5-68.8.1-152.4 48.5-186.8 108.2-18.1 31.6-18.8 60-5.2 79.7z" class="st5"/><path d="M700.4 681.5c75-.1 166.1-52.9 203.5-117.8 12.3-21.4 17.3-41.5 15.7-58.7 6.8 16.7 11.3 33.2 12.6 49.1 19.7 76.3 57.8 153.5 109.3 231.4 1.8 2.1 3.5 4.3 4.8 6.7.5.9 1.1 1.9 1.5 2.9 7.6 15.9 5.7 37-7.7 60.2-28.4 49.3-97.6 89.4-154.5 89.5-26.8 0-46.1-8.8-56.1-23.3-2.2-3.2-4-6.8-5.2-10.5-40.3-80.4-87.9-151.6-146.2-209.7-11.6-8.1-22.6-19.5-33.2-33.3 2.8 1.8 5.9 3.4 9.1 4.8 12.5 5.6 28.1 8.7 46.4 8.7z" class="st6"/></g><g class="st0"><path d="M1440.7 795c-54.7-81.1-95.1-161.6-115.6-241-3.7-45.8-33.6-95.5-70.1-146.2L979 567.6c28.5 56.8 57.6 109.8 91.9 133.6 60.8 60.6 110.1 135.5 151.5 220.2L1440.7 795z" class="st1"/><path d="M1222.4 921.4c10 14.5 29.3 23.3 56.1 23.3 56.9-.1 126.1-40.1 154.5-89.5 13.4-23.2 15.3-44.4 7.7-60.2-.5-1-1-2-1.5-2.9-4.8-8.3-12.4-14.9-22.5-19.4-9.6-4.3-21.5-6.7-35.4-6.6-56.9.1-126.1 40.1-154.5 89.5-15 26-15.6 49.5-4.4 65.8z" class="st2"/><path d="M1070.9 701.2c-34.2-23.8-63.4-76.7-91.9-133.6l275.9-159.8c36.5 50.7 66.5 100.4 70.1 146.2 19.7 76.3 57.8 153.5 109.3 231.4 1.8 2.1 3.5 4.3 4.8 6.7.5.9 1.1 1.9 1.5 2.9 7.6 15.9 5.7 37-7.7 60.2-28.4 49.3-97.6 89.4-154.5 89.5-26.8 0-46.1-8.8-56.1-23.3-2.2-3.2-4-6.8-5.2-10.5-40.2-80.5-87.9-151.7-146.2-209.7z" class="st3"/><path d="M979 567.6c6.1 8.8 14.9 16 26.2 21 12.1 5.4 27.1 8.4 44.7 8.4 72-.1 159.4-50.7 195.3-113.1 16.9-29.4 19.4-56.1 9.7-76.1-.6-1.3-1.2-2.5-1.9-3.7-11.8-20.4-37.1-33-73.1-33-72 .1-159.4 50.7-195.3 113.1-19 33.1-19.7 62.8-5.6 83.4z" class="st4"/><path d="M985 563.9c5.8 8.4 14.2 15.3 25 20.1 11.6 5.2 26 8 42.7 8 68.8-.1 152.4-48.5 186.8-108.2 16.2-28.1 18.5-53.6 9.3-72.8-.6-1.2-1.2-2.4-1.9-3.5-11.3-19.5-35.5-31.6-69.9-31.5-68.8.1-152.4 48.5-186.8 108.2-18.1 31.6-18.8 60-5.2 79.7z" class="st5"/><path d="M1093.4 681.5c75-.1 166.1-52.9 203.5-117.8 12.3-21.4 17.3-41.5 15.7-58.7 6.8 16.7 11.3 33.2 12.6 49.1 19.7 76.3 57.8 153.5 109.3 231.4 1.8 2.1 3.5 4.3 4.8 6.7.5.9 1.1 1.9 1.5 2.9 7.6 15.9 5.7 37-7.7 60.2-28.4 49.3-97.6 89.4-154.5 89.5-26.8 0-46.1-8.8-56.1-23.3-2.2-3.2-4-6.8-5.2-10.5-40.3-80.4-87.9-151.6-146.2-209.7-11.6-8.1-22.6-19.5-33.2-33.3 2.8 1.8 5.9 3.4 9.1 4.8 12.5 5.6 28.1 8.7 46.4 8.7z" class="st6"/></g><g class="st0"><path d="M1833.7 795c-54.7-81.1-95.1-161.6-115.6-241-3.7-45.8-33.6-95.5-70.1-146.2l-276 159.8c28.5 56.8 57.6 109.8 91.9 133.6 60.8 60.6 110.1 135.5 151.5 220.2L1833.7 795z" class="st1"/><path d="M1615.4 921.4c10 14.5 29.3 23.3 56.1 23.3 56.9-.1 126.1-40.1 154.5-89.5 13.4-23.2 15.3-44.4 7.7-60.2-.5-1-1-2-1.5-2.9-4.8-8.3-12.4-14.9-22.5-19.4-9.6-4.3-21.5-6.7-35.4-6.6-56.9.1-126.1 40.1-154.5 89.5-15 26-15.6 49.5-4.4 65.8z" class="st2"/><path d="M1463.9 701.2c-34.2-23.8-63.4-76.7-91.9-133.6l275.9-159.8c36.5 50.7 66.5 100.4 70.1 146.2 19.7 76.3 57.8 153.5 109.3 231.4 1.8 2.1 3.5 4.3 4.8 6.7.5.9 1.1 1.9 1.5 2.9 7.6 15.9 5.7 37-7.7 60.2-28.4 49.3-97.6 89.4-154.5 89.5-26.8 0-46.1-8.8-56.1-23.3-2.2-3.2-4-6.8-5.2-10.5-40.2-80.5-87.9-151.7-146.2-209.7z" class="st3"/><path d="M1372 567.6c6.1 8.8 14.9 16 26.2 21 12.1 5.4 27.1 8.4 44.7 8.4 72-.1 159.4-50.7 195.3-113.1 16.9-29.4 19.4-56.1 9.7-76.1-.6-1.3-1.2-2.5-1.9-3.7-11.8-20.4-37.1-33-73.1-33-72 .1-159.4 50.7-195.3 113.1-19 33.1-19.7 62.8-5.6 83.4z" class="st4"/><path d="M1378 563.9c5.8 8.4 14.2 15.3 25 20.1 11.6 5.2 26 8 42.7 8 68.8-.1 152.4-48.5 186.8-108.2 16.2-28.1 18.5-53.6 9.3-72.8-.6-1.2-1.2-2.4-1.9-3.5-11.3-19.5-35.5-31.6-69.9-31.5-68.8.1-152.4 48.5-186.8 108.2-18.1 31.6-18.8 60-5.2 79.7z" class="st5"/><path d="M1486.4 681.5c75-.1 166.1-52.9 203.5-117.8 12.3-21.4 17.3-41.5 15.7-58.7 6.8 16.7 11.3 33.2 12.6 49.1 19.7 76.3 57.8 153.5 109.3 231.4 1.8 2.1 3.5 4.3 4.8 6.7.5.9 1.1 1.9 1.5 2.9 7.6 15.9 5.7 37-7.7 60.2-28.4 49.3-97.6 89.4-154.5 89.5-26.8 0-46.1-8.8-56.1-23.3-2.2-3.2-4-6.8-5.2-10.5-40.3-80.4-87.9-151.6-146.2-209.7-11.6-8.1-22.6-19.5-33.2-33.3 2.8 1.8 5.9 3.4 9.1 4.8 12.5 5.6 28.1 8.7 46.4 8.7z" class="st6"/></g><path d="M878.1 697.3c-.4-1.5-.8-2.9-1.2-4.4.4 1.5.8 3 1.2 4.4z" class="st8"/><path d="M876.9 692.9c-.3-.9-.5-1.7-.8-2.6.3.9.5 1.8.8 2.6z" class="st9"/><g class="st0"><path d="M430.7 1077c-54.7-81.1-95.1-161.6-115.6-241-3.7-45.8-33.6-95.5-70.1-146.2L-31 849.6c28.5 56.8 57.6 109.8 91.9 133.6 60.8 60.6 110.1 135.5 151.5 220.2L430.7 1077z" class="st1"/><path d="M212.4 1203.4c10 14.5 29.3 23.3 56.1 23.3 56.9-.1 126.1-40.1 154.5-89.5 13.4-23.2 15.3-44.4 7.7-60.2-.5-1-1-2-1.5-2.9-4.8-8.3-12.4-14.9-22.5-19.4-9.6-4.3-21.5-6.7-35.4-6.6-56.9.1-126.1 40.1-154.5 89.5-15 26-15.6 49.5-4.4 65.8z" class="st2"/><path d="M60.9 983.2C26.7 959.4-2.5 906.4-31 849.6l275.9-159.8c36.5 50.7 66.5 100.4 70.1 146.2 19.7 76.3 57.8 153.5 109.3 231.4 1.8 2.1 3.5 4.3 4.8 6.7.5.9 1.1 1.9 1.5 2.9 7.6 15.9 5.7 37-7.7 60.2-28.4 49.3-97.6 89.4-154.5 89.5-26.8 0-46.1-8.8-56.1-23.3-2.2-3.2-4-6.8-5.2-10.5-40.2-80.5-87.9-151.7-146.2-209.7z" class="st3"/><path d="M-31 849.6c6.1 8.8 14.9 16 26.2 21C7.4 876 22.4 879 39.9 879c72-.1 159.4-50.7 195.3-113.1 16.9-29.4 19.4-56.1 9.7-76.1-.6-1.3-1.2-2.5-1.9-3.7-11.8-20.4-37.1-33-73.1-33-72 .1-159.4 50.7-195.3 113.1-19 33.1-19.7 62.8-5.6 83.4z" class="st4"/><path d="M-25 845.9c5.8 8.4 14.2 15.3 25 20.1 11.6 5.2 26 8 42.7 8 68.8-.1 152.4-48.5 186.8-108.2 16.2-28.1 18.5-53.6 9.3-72.8-.6-1.2-1.2-2.4-1.9-3.5-11.3-19.5-35.5-31.6-69.9-31.5-68.8.1-152.4 48.5-186.8 108.2-18.1 31.6-18.8 60-5.2 79.7z" class="st5"/><path d="M83.4 963.5c75-.1 166.1-52.9 203.5-117.8 12.3-21.4 17.3-41.5 15.7-58.7 6.8 16.7 11.3 33.2 12.6 49.1 19.7 76.3 57.8 153.5 109.3 231.4 1.8 2.1 3.5 4.3 4.8 6.7.5.9 1.1 1.9 1.5 2.9 7.6 15.9 5.7 37-7.7 60.2-28.4 49.3-97.6 89.4-154.5 89.5-26.8 0-46.1-8.8-56.1-23.3-2.2-3.2-4-6.8-5.2-10.5-40.3-80.4-87.9-151.6-146.2-209.7-11.6-8.1-22.6-19.5-33.2-33.3 2.8 1.8 5.9 3.4 9.1 4.8 12.5 5.6 28.1 8.7 46.4 8.7z" class="st6"/></g><g class="st0"><path d="M837.7 1077c-54.7-81.1-95.1-161.6-115.6-241-3.7-45.8-33.6-95.5-70.1-146.2L376 849.6c28.5 56.8 57.6 109.8 91.9 133.6 60.8 60.6 110.1 135.5 151.5 220.2L837.7 1077z" class="st1"/><path d="M619.4 1203.4c10 14.5 29.3 23.3 56.1 23.3 56.9-.1 126.1-40.1 154.5-89.5 13.4-23.2 15.3-44.4 7.7-60.2-.5-1-1-2-1.5-2.9-4.8-8.3-12.4-14.9-22.5-19.4-9.6-4.3-21.5-6.7-35.4-6.6-56.9.1-126.1 40.1-154.5 89.5-15 26-15.6 49.5-4.4 65.8z" class="st2"/><path d="M467.9 983.2c-34.2-23.8-63.4-76.7-91.9-133.6l275.9-159.8c36.5 50.7 66.5 100.4 70.1 146.2 19.7 76.3 57.8 153.5 109.3 231.4 1.8 2.1 3.5 4.3 4.8 6.7.5.9 1.1 1.9 1.5 2.9 7.6 15.9 5.7 37-7.7 60.2-28.4 49.3-97.6 89.4-154.5 89.5-26.8 0-46.1-8.8-56.1-23.3-2.2-3.2-4-6.8-5.2-10.5-40.2-80.5-87.9-151.7-146.2-209.7z" class="st3"/><path d="M376 849.6c6.1 8.8 14.9 16 26.2 21 12.1 5.4 27.1 8.4 44.7 8.4 72-.1 159.4-50.7 195.3-113.1 16.9-29.4 19.4-56.1 9.7-76.1-.6-1.3-1.2-2.5-1.9-3.7-11.8-20.4-37.1-33-73.1-33-72 .1-159.4 50.7-195.3 113.1-19 33.1-19.7 62.8-5.6 83.4z" class="st4"/><path d="M382 845.9c5.8 8.4 14.2 15.3 25 20.1 11.6 5.2 26 8 42.7 8 68.8-.1 152.4-48.5 186.8-108.2 16.2-28.1 18.5-53.6 9.3-72.8-.6-1.2-1.2-2.4-1.9-3.5-11.3-19.5-35.5-31.6-69.9-31.5-68.8.1-152.4 48.5-186.8 108.2-18.1 31.6-18.8 60-5.2 79.7z" class="st5"/><path d="M490.4 963.5c75-.1 166.1-52.9 203.5-117.8 12.3-21.4 17.3-41.5 15.7-58.7 6.8 16.7 11.3 33.2 12.6 49.1 19.7 76.3 57.8 153.5 109.3 231.4 1.8 2.1 3.5 4.3 4.8 6.7.5.9 1.1 1.9 1.5 2.9 7.6 15.9 5.7 37-7.7 60.2-28.4 49.3-97.6 89.4-154.5 89.5-26.8 0-46.1-8.8-56.1-23.3-2.2-3.2-4-6.8-5.2-10.5-40.3-80.4-87.9-151.6-146.2-209.7-11.6-8.1-22.6-19.5-33.2-33.3 2.8 1.8 5.9 3.4 9.1 4.8 12.5 5.6 28.1 8.7 46.4 8.7z" class="st6"/></g><g class="st0"><path d="M1230.7 1077c-54.7-81.1-95.1-161.6-115.6-241-3.7-45.8-33.6-95.5-70.1-146.2L769 849.6c28.5 56.8 57.6 109.8 91.9 133.6 60.8 60.6 110.1 135.5 151.5 220.2l218.3-126.4z" class="st1"/><path d="M1012.4 1203.4c10 14.5 29.3 23.3 56.1 23.3 56.9-.1 126.1-40.1 154.5-89.5 13.4-23.2 15.3-44.4 7.7-60.2-.5-1-1-2-1.5-2.9-4.8-8.3-12.4-14.9-22.5-19.4-9.6-4.3-21.5-6.7-35.4-6.6-56.9.1-126.1 40.1-154.5 89.5-15 26-15.6 49.5-4.4 65.8z" class="st2"/><path d="M860.9 983.2c-34.2-23.8-63.4-76.7-91.9-133.6l275.9-159.8c36.5 50.7 66.5 100.4 70.1 146.2 19.7 76.3 57.8 153.5 109.3 231.4 1.8 2.1 3.5 4.3 4.8 6.7.5.9 1.1 1.9 1.5 2.9 7.6 15.9 5.7 37-7.7 60.2-28.4 49.3-97.6 89.4-154.5 89.5-26.8 0-46.1-8.8-56.1-23.3-2.2-3.2-4-6.8-5.2-10.5-40.2-80.5-87.9-151.7-146.2-209.7z" class="st3"/><path d="M769 849.6c6.1 8.8 14.9 16 26.2 21 12.1 5.4 27.1 8.4 44.7 8.4 72-.1 159.4-50.7 195.3-113.1 16.9-29.4 19.4-56.1 9.7-76.1-.6-1.3-1.2-2.5-1.9-3.7-11.8-20.4-37.1-33-73.1-33-72 .1-159.4 50.7-195.3 113.1-19 33.1-19.7 62.8-5.6 83.4z" class="st4"/><path d="M775 845.9c5.8 8.4 14.2 15.3 25 20.1 11.6 5.2 26 8 42.7 8 68.8-.1 152.4-48.5 186.8-108.2 16.2-28.1 18.5-53.6 9.3-72.8-.6-1.2-1.2-2.4-1.9-3.5-11.3-19.5-35.5-31.6-69.9-31.5-68.8.1-152.4 48.5-186.8 108.2-18.1 31.6-18.8 60-5.2 79.7z" class="st5"/><path d="M883.4 963.5c75-.1 166.1-52.9 203.5-117.8 12.3-21.4 17.3-41.5 15.7-58.7 6.8 16.7 11.3 33.2 12.6 49.1 19.7 76.3 57.8 153.5 109.3 231.4 1.8 2.1 3.5 4.3 4.8 6.7.5.9 1.1 1.9 1.5 2.9 7.6 15.9 5.7 37-7.7 60.2-28.4 49.3-97.6 89.4-154.5 89.5-26.8 0-46.1-8.8-56.1-23.3-2.2-3.2-4-6.8-5.2-10.5-40.3-80.4-87.9-151.6-146.2-209.7-11.6-8.1-22.6-19.5-33.2-33.3 2.8 1.8 5.9 3.4 9.1 4.8 12.5 5.6 28.1 8.7 46.4 8.7z" class="st6"/></g><g class="st0"><path d="M1623.7 1077c-54.7-81.1-95.1-161.6-115.6-241-3.7-45.8-33.6-95.5-70.1-146.2l-276 159.8c28.5 56.8 57.6 109.8 91.9 133.6 60.8 60.6 110.1 135.5 151.5 220.2l218.3-126.4z" class="st1"/><path d="M1405.4 1203.4c10 14.5 29.3 23.3 56.1 23.3 56.9-.1 126.1-40.1 154.5-89.5 13.4-23.2 15.3-44.4 7.7-60.2-.5-1-1-2-1.5-2.9-4.8-8.3-12.4-14.9-22.5-19.4-9.6-4.3-21.5-6.7-35.4-6.6-56.9.1-126.1 40.1-154.5 89.5-15 26-15.6 49.5-4.4 65.8z" class="st2"/><path d="M1253.9 983.2c-34.2-23.8-63.4-76.7-91.9-133.6l275.9-159.8c36.5 50.7 66.5 100.4 70.1 146.2 19.7 76.3 57.8 153.5 109.3 231.4 1.8 2.1 3.5 4.3 4.8 6.7.5.9 1.1 1.9 1.5 2.9 7.6 15.9 5.7 37-7.7 60.2-28.4 49.3-97.6 89.4-154.5 89.5-26.8 0-46.1-8.8-56.1-23.3-2.2-3.2-4-6.8-5.2-10.5-40.2-80.5-87.9-151.7-146.2-209.7z" class="st3"/><path d="M1162 849.6c6.1 8.8 14.9 16 26.2 21 12.1 5.4 27.1 8.4 44.7 8.4 72-.1 159.4-50.7 195.3-113.1 16.9-29.4 19.4-56.1 9.7-76.1-.6-1.3-1.2-2.5-1.9-3.7-11.8-20.4-37.1-33-73.1-33-72 .1-159.4 50.7-195.3 113.1-19 33.1-19.7 62.8-5.6 83.4z" class="st4"/><path d="M1168 845.9c5.8 8.4 14.2 15.3 25 20.1 11.6 5.2 26 8 42.7 8 68.8-.1 152.4-48.5 186.8-108.2 16.2-28.1 18.5-53.6 9.3-72.8-.6-1.2-1.2-2.4-1.9-3.5-11.3-19.5-35.5-31.6-69.9-31.5-68.8.1-152.4 48.5-186.8 108.2-18.1 31.6-18.8 60-5.2 79.7z" class="st5"/><path d="M1276.4 963.5c75-.1 166.1-52.9 203.5-117.8 12.3-21.4 17.3-41.5 15.7-58.7 6.8 16.7 11.3 33.2 12.6 49.1 19.7 76.3 57.8 153.5 109.3 231.4 1.8 2.1 3.5 4.3 4.8 6.7.5.9 1.1 1.9 1.5 2.9 7.6 15.9 5.7 37-7.7 60.2-28.4 49.3-97.6 89.4-154.5 89.5-26.8 0-46.1-8.8-56.1-23.3-2.2-3.2-4-6.8-5.2-10.5-40.3-80.4-87.9-151.6-146.2-209.7-11.6-8.1-22.6-19.5-33.2-33.3 2.8 1.8 5.9 3.4 9.1 4.8 12.5 5.6 28.1 8.7 46.4 8.7z" class="st6"/></g><g class="st0"><path d="M2016.7 1077c-54.7-81.1-95.1-161.6-115.6-241-3.7-45.8-33.6-95.5-70.1-146.2l-276 159.8c28.5 56.8 57.6 109.8 91.9 133.6 60.8 60.6 110.1 135.5 151.5 220.2l218.3-126.4z" class="st1"/><path d="M1798.4 1203.4c10 14.5 29.3 23.3 56.1 23.3 56.9-.1 126.1-40.1 154.5-89.5 13.4-23.2 15.3-44.4 7.7-60.2-.5-1-1-2-1.5-2.9-4.8-8.3-12.4-14.9-22.5-19.4-9.6-4.3-21.5-6.7-35.4-6.6-56.9.1-126.1 40.1-154.5 89.5-15 26-15.6 49.5-4.4 65.8z" class="st2"/><path d="M1646.9 983.2c-34.2-23.8-63.4-76.7-91.9-133.6l275.9-159.8c36.5 50.7 66.5 100.4 70.1 146.2 19.7 76.3 57.8 153.5 109.3 231.4 1.8 2.1 3.5 4.3 4.8 6.7.5.9 1.1 1.9 1.5 2.9 7.6 15.9 5.7 37-7.7 60.2-28.4 49.3-97.6 89.4-154.5 89.5-26.8 0-46.1-8.8-56.1-23.3-2.2-3.2-4-6.8-5.2-10.5-40.2-80.5-87.9-151.7-146.2-209.7z" class="st3"/><path d="M1555 849.6c6.1 8.8 14.9 16 26.2 21 12.1 5.4 27.1 8.4 44.7 8.4 72-.1 159.4-50.7 195.3-113.1 16.9-29.4 19.4-56.1 9.7-76.1-.6-1.3-1.2-2.5-1.9-3.7-11.8-20.4-37.1-33-73.1-33-72 .1-159.4 50.7-195.3 113.1-19 33.1-19.7 62.8-5.6 83.4z" class="st4"/><path d="M1561 845.9c5.8 8.4 14.2 15.3 25 20.1 11.6 5.2 26 8 42.7 8 68.8-.1 152.4-48.5 186.8-108.2 16.2-28.1 18.5-53.6 9.3-72.8-.6-1.2-1.2-2.4-1.9-3.5-11.3-19.5-35.5-31.6-69.9-31.5-68.8.1-152.4 48.5-186.8 108.2-18.1 31.6-18.8 60-5.2 79.7z" class="st5"/><path d="M1669.4 963.5c75-.1 166.1-52.9 203.5-117.8 12.3-21.4 17.3-41.5 15.7-58.7 6.8 16.7 11.3 33.2 12.6 49.1 19.7 76.3 57.8 153.5 109.3 231.4 1.8 2.1 3.5 4.3 4.8 6.7.5.9 1.1 1.9 1.5 2.9 7.6 15.9 5.7 37-7.7 60.2-28.4 49.3-97.6 89.4-154.5 89.5-26.8 0-46.1-8.8-56.1-23.3-2.2-3.2-4-6.8-5.2-10.5-40.3-80.4-87.9-151.6-146.2-209.7-11.6-8.1-22.6-19.5-33.2-33.3 2.8 1.8 5.9 3.4 9.1 4.8 12.5 5.6 28.1 8.7 46.4 8.7z" class="st6"/></g><path d="M1047.1 947.3c-.4-1.5-.8-2.9-1.2-4.4.4 1.5.8 3 1.2 4.4zm-263.5 160.6c.7.7 1.5 1.4 2.2 2.1-.7-.7-1.5-1.4-2.2-2.1zm6.5 5.7c.6.5 1.1.9 1.7 1.4-.6-.4-1.2-.9-1.7-1.4zm260.5-149.2c-.1-.8-.2-1.6-.4-2.4.2.8.3 1.6.4 2.4zm-273.7 136.7c1 1 1.9 2 2.9 3-1-1-2-2-2.9-3zm272.3-144.6c-.2-.8-.3-1.7-.5-2.5.2.8.4 1.7.5 2.5z" class="st8"/><path d="M1050.2 962c-.3-1.8-.6-3.7-1-5.5.4 1.8.7 3.7 1 5.5zm-258.5 153c1.8 1.5 3.7 2.9 5.6 4.2-1.9-1.3-3.7-2.7-5.6-4.2zm259.8-143c-.2-2.5-.5-5.1-.9-7.6.4 2.6.7 5.1.9 7.6zm-2.8-18c-.5-2.2-1-4.4-1.6-6.7.6 2.3 1.2 4.5 1.6 6.7zm-2.8-11.1c-.3-.9-.5-1.7-.8-2.6.3.9.5 1.8.8 2.6zm-266.1 161.2l3.8 3.8c-1.3-1.3-2.6-2.5-3.8-3.8zm-4.7-5c.6.7 1.2 1.3 1.8 2-.6-.7-1.2-1.3-1.8-2zm10.7 10.8c1.4 1.3 2.8 2.5 4.2 3.7-1.4-1.1-2.8-2.4-4.2-3.7z" class="st9"/></svg>