<svg xmlns="http://www.w3.org/2000/svg" id="Layer_1" viewBox="0 0 1000 1000" width="1000" height="1000"><style>.st0{fill:#231f20}.st1{fill:#303030}.st2{fill:none}.st3{fill:#596ab2}.st4{fill:#fff}.st5{fill:#413e38}.st6{fill:#596bb2}.st7{fill:#535353}.st8{fill:#8bd0d0}.st9{fill:#95999a}.st10{fill:#535453}</style><path d="M176 748.6h18.6c3.1 0 4.6 1.5 4.6 4.6v15.2c0 3.4-1.5 4.6-4.6 4.6h-65.9c-3.4 0-4.6-1.5-4.6-4.6v-15.2c0-3.4 1.5-4.6 4.6-4.6H147l61.9-181.3c1.2-3.1 3.1-4.3 6.2-4.3h30c3.1 0 5 1.2 6.2 4.3l62.5 181.3h21c3.4 0 4.6 1.5 4.6 4.6v15.2c0 3.4-1.5 4.6-4.6 4.6h-77.7c-3.1 0-4.6-1.5-4.6-4.6v-15.2c0-3.4 1.5-4.6 4.6-4.6h19.2l-14.5-41.8h-71.5L176 748.6zm20.5-65H255l-29.1-91-29.4 91zm244.4-13.3c0-14.9-2.5-30-26.9-30-19.5 0-25.4 8.7-27.8 19.8-.6 2.8-1.9 4.6-4.6 4.6h-19.8c-3.1 0-4.6-1.5-4.3-4.6 1.9-32.2 29.7-43.6 61.6-43.6 44.2 0 55.4 23.5 55.4 50.7v81.4h13.3c3.1 0 4.6 1.5 4.6 4.6v15.2c0 3.4-1.5 4.6-4.6 4.6h-36.5c-3.1 0-4.3-1.5-4.6-4.6l-2.2-14.2c-11.1 15.2-26.3 22.6-48.3 22.6-23.5 0-45.8-10.8-45.8-43.6 0-50.1 56-51.4 90.7-52v-10.9zm.6 32.2c-25.1.3-58.5.3-58.5 27.5 0 14.5 8 21.3 24.4 21.3 22.9 0 34-13.3 34-25.1v-23.7zM729 562.9c3.1 0 4.6 1.5 4.6 4.6v14.9c0 3.1-.9 5.9-2.8 8.4L614.5 748.9h94.7l-1.9-22c-.3-3.4 1.2-4.6 4.3-4.6h18.3c3.1 0 4.6 1.5 4.6 4.6v61c0 3.4-1.5 4.6-4.6 4.6h-17.3c-3.1 0-4.6-1.2-4.3-4.6l.9-14.9H577.7c-3.4 0-4.6-1.5-4.6-4.6v-14.9c0-3.1.9-5.9 2.8-8.4l115-158.1h-86.3l1.5 24.8c.3 3.4-1.2 4.6-4.3 4.6h-18.9c-3.1 0-4.6-1.5-4.6-4.6v-44.2c0-3.1 1.5-4.6 4.6-4.6H729zm146.6 205.5c0 3.4-1.5 4.6-4.6 4.6H760.8c-3.1 0-4.6-1.5-4.6-4.6v-17.9c0-3.1.9-5.9 2.8-8.4l77-97.5h-51.4l.6 16.4c.3 3.4-1.2 4.6-4.3 4.6h-17c-3.1 0-4.6-1.5-4.6-4.6v-36.5c0-3.1 1.5-4.6 4.6-4.6H870c3.1 0 4.6 1.5 4.6 4.6v17.3c0 3.1-.9 5.9-2.8 8.4L793 748.9h57.2l-.6-19.5c-.3-3.4 1.2-4.6 4.3-4.6h17.3c3.1 0 4.6 1.2 4.6 4.6l-.2 39zM181 197.6c11.2 0 22.3 2.7 31.3 7.6 1.4.8 1.9 1.5 1.9 3v19.3c0 1.5-.8 2.2-2.2 2.2h-8.4c-1.5 0-2.2-.6-2.1-2.2l.5-10.5c-5.5-3.8-13.3-6.3-21.1-6.3-21.9 0-28.8 17.2-28.8 38.4 0 22.5 7.9 41.5 31.3 41.5 8.1 0 14.8-1.6 18.7-4.8l-.6-10.5c-.1-1.6.6-2.2 2.1-2.2h8.5c1.5 0 2.2.6 2.2 2.2v19c0 1.5 0 2.1-1.5 2.8-6.8 3.3-17.5 6.4-30.1 6.4-34 0-48.7-21.1-48.7-52.2.1-40 25.7-53.7 47-53.7zm102 29.7c1.6.6 1.8 1.2 1.8 2.7v20.2c0 1.6-.8 2.2-2.2 2.2h-9.7c-1.5 0-2.2-.6-2.1-2.2l.6-8.7c-.8-.1-1.8-.1-2.6-.1-9 0-15.9 7.8-15.9 20.7v28h16.5c1.5 0 2.2.8 2.2 2.2v7.3c0 1.6-.8 2.2-2.2 2.2h-41.2c-1.5 0-2.2-.8-2.2-2.2v-7.3c0-1.6.8-2.2 2.2-2.2h7.9V240H228c-1.5 0-2.2-.8-2.2-2.2V230c0-1.6.6-2.2 2.2-2.2h19.8c1.5 0 2.2.8 2.5 2.2l1.7 10.6c3-7.2 10.6-14.5 21.4-14.5 3.3 0 8.3.8 9.6 1.2zm8.1 37.5c0-19.8 10.8-38.7 34.3-38.7 22.9 0 29.2 18.7 29.2 34.9 0 1.3 0 3.3-.1 5.1s-.5 2.4-2.7 2.4h-44.1c.9 12.7 5 22.6 21.1 22.6 6.7 0 11.5-1.5 16.9-3.9 1.5-.8 2.4-.3 3 1.2l2.8 6.9c.6 1.5 0 2.2-1.3 3-5.2 2.8-14.4 5.4-24.7 5.4-24.8.1-34.4-16.1-34.4-38.9zm47.9-7.3c.2-9-2.4-18.7-14.7-18.7-13 0-16.2 10.8-16.5 18.7H339zm50.1 20.4c0 8.4 1.2 13.3 9 13.3 3.9 0 6.4-.9 9.1-2.1 1.2-.5 1.8-.3 2.4 1.2l2.7 6.9c.6 1.5 0 2.2-1.3 3-4.2 2.1-11.4 3.6-17.1 3.6-21.6 0-21.6-14.5-21.6-27.6v-36.1h-8.5c-1.5 0-2.2-.8-2.2-2.2V230c0-1.6.8-2.2 2.2-2.2h8.5v-20.2c0-1.5.6-2.2 2.2-2.2h12.3c1.5 0 2.2.8 2.2 2.2v20.2h15.1c1.5 0 2.2.8 2.2 2.2v7.8c0 1.6-.8 2.2-2.2 2.2H389v37.9zm26.2-13.1c0-19.8 10.8-38.7 34.3-38.7 22.9 0 29.2 18.7 29.2 34.9 0 1.3 0 3.3-.1 5.1s-.5 2.4-2.7 2.4h-44c.9 12.7 5 22.6 21.1 22.6 6.7 0 11.5-1.5 16.9-3.9 1.5-.8 2.4-.3 3 1.2l2.8 6.9c.6 1.5 0 2.2-1.3 3-5.2 2.8-14.4 5.4-24.7 5.4-24.9.1-34.5-16.1-34.5-38.9zm47.9-7.3c.2-9-2.4-18.7-14.7-18.7-13 0-16.2 10.8-16.5 18.7h31.2zM131.6 415.6c0-1 .5-1.5 1.5-1.5h5.2v-52h-5.2c-1 0-1.5-.5-1.5-1.5v-5c0-1.1.4-1.5 1.5-1.5 6.4-.3 15.5-.6 21.3-.6 17.2 0 26 5.8 26 18.6 0 9-5 15.7-12.1 19l11.7 23h6.2c1 0 1.5.5 1.5 1.5v4.9c0 1.1-.5 1.5-1.5 1.5H173c-1.1 0-1.7-.4-2.2-1.3l-13.6-26.9h-2c-2.4 0-4-.1-5.7-.3v20.6h6.3c1 0 1.5.5 1.5 1.5v4.9c0 1.1-.4 1.5-1.5 1.5h-22.7c-1 0-1.5-.4-1.5-1.5v-4.9zm17.9-29.7c.8.1 1.5.1 2.3.1 10.6 0 17.1-4.1 17.1-12.8 0-9.5-7.7-11.4-15.8-11.4h-3.6v24.1zm64.4-14.5c7.8 0 22.5 2.4 22.5 24.5 0 18.7-10.8 27.3-24.1 27.3-13.6 0-22.1-8.2-22.1-25.2 0-21.1 14.1-26.6 23.7-26.6zm10.8 25.9c0-11.2-3.1-17.7-11.7-17.7-8.3 0-11.5 6.5-11.5 16.2 0 8.9 1.7 19.2 11.7 19.2 8.2 0 11.5-6.2 11.5-17.7zm70.6 16.8c1 0 1.5.5 1.5 1.5v4.9c0 1.1-.5 1.5-1.5 1.5h-11.2c-1 0-1.3-.5-1.5-1.5l-.9-5.6c-4.5 5.8-10.2 8.3-16.8 8.3-10.8 0-16.2-5.7-16.2-17v-25.5h-5.3c-1 0-1.5-.5-1.5-1.5V374c0-1.1.4-1.5 1.5-1.5h15c1 0 1.5.5 1.5 1.5v29.2c0 7.1.7 11.1 8.6 11.1 6.3 0 11.2-4.9 11.2-9.8v-23.8h-6.3c-1 0-1.5-.5-1.5-1.5V374c0-1.1.5-1.5 1.5-1.5h16c1 0 1.5.5 1.5 1.5v40.1h4.4zm7-40.1c0-1 .4-1.5 1.5-1.5h13.6c1 0 1.4.5 1.6 1.5l.9 5.8c4.1-6.2 10.1-8.4 16-8.4 10.1 0 15.5 5.7 15.5 17v25.7h5.8c1 0 1.5.5 1.5 1.5v4.9c0 1.1-.5 1.5-1.5 1.5h-21.8c-1 0-1.5-.5-1.5-1.5v-4.9c0-1.1.5-1.5 1.5-1.5h4.8v-20.7c0-7.1-.7-12.1-8.6-12.1-6.3 0-11.2 4.9-11.2 9.8v23h6.2c1.1 0 1.5.5 1.5 1.5v4.9c0 1.1-.5 1.5-1.5 1.5h-22.7c-1 0-1.5-.5-1.5-1.5v-4.9c0-1.1.5-1.5 1.5-1.5h5.3v-33.4h-5.4c-1.1 0-1.5-.3-1.5-1.4V374zM414 414.1c1 0 1.5.5 1.5 1.5v4.9c0 1.1-.5 1.5-1.5 1.5h-11.3c-1 0-1.4-.5-1.5-1.5l-.8-5.9c-3.6 6.1-9.5 8.6-16.3 8.6-12.8 0-20.4-7.9-20.4-24.5 0-19.3 9.9-27.3 22-27.3 6.4 0 10.9 2.9 12.8 5.6v-21.3h-5.3c-1 0-1.5-.5-1.5-1.5v-5.3c0-1.1.4-1.5 1.5-1.5h15c1 0 1.5.4 1.5 1.5v65.2h4.3zm-15.5-28.5s-3.7-5.4-11.1-5.4c-7 0-12.4 4.2-12.4 16.8 0 8.9 1.3 17.5 11.8 17.5 5.7 0 11.7-4.1 11.7-11.3v-17.6z" class="st0"/><path d="M950 50v900H50V50h900m50-50H0v1000h1000V0z" class="st0"/></svg>