<svg xmlns="http://www.w3.org/2000/svg" id="Layer_1" viewBox="0 0 1000 1000" width="1000" height="1000"><style>.st0{fill:#231f20}.st1{fill:#303030}.st2{fill:none}.st3{fill:#596ab2}.st4{fill:#fff}.st5{fill:#413e38}.st6{fill:#596bb2}.st7{fill:#535353}.st8{fill:#8bd0d0}.st9{fill:#95999a}.st10{fill:#535453}</style><path d="M145.3 268.8h6.2c1 0 1.5.5 1.5 1.5v5c0 1.1-.5 1.5-1.5 1.5h-21.9c-1.1 0-1.5-.5-1.5-1.5v-5c0-1.1.5-1.5 1.5-1.5h6.1l20.6-60.4c.4-1 1-1.4 2.1-1.4h10c1 0 1.6.4 2.1 1.4l20.8 60.4h7c1.1 0 1.5.5 1.5 1.5v5c0 1.1-.5 1.5-1.5 1.5h-25.9c-1 0-1.5-.5-1.5-1.5v-5c0-1.1.5-1.5 1.5-1.5h6.4l-4.8-13.9h-24l-4.7 13.9zm6.8-21.6h19.5l-9.7-30.3-9.8 30.3zm81.3-4.4c0-4.9-.8-10-9-10-6.5 0-8.4 2.9-9.3 6.6-.2.9-.6 1.5-1.5 1.5H207c-1 0-1.5-.5-1.4-1.5.6-10.7 9.9-14.5 20.5-14.5 14.7 0 18.4 7.8 18.4 16.9v27.1h4.4c1 0 1.5.5 1.5 1.5v5c0 1.1-.5 1.5-1.5 1.5h-12.2c-1 0-1.4-.5-1.5-1.5l-.7-4.7c-3.7 5-8.8 7.5-16.1 7.5-7.8 0-15.2-3.6-15.2-14.5 0-16.7 18.6-17.1 30.2-17.3v-3.6zm.2 10.7c-8.3.1-19.5.1-19.5 9.2 0 4.8 2.7 7.1 8.1 7.1 7.6 0 11.3-4.4 11.3-8.3v-8zm44.6 16.9c0-1.1.5-1.5 1.5-1.5h5.5v-53.5h-5.4c-1 0-1.5-.5-1.5-1.5v-5.3c0-1.1.4-1.6 1.5-1.6 4.9-.2 16-.5 21.9-.5 17 0 26 6 26 16.5 0 8.3-6.3 14-11.9 16.3 10.8 1.8 16.3 8.5 16.3 17.2 0 11.8-9.6 19.4-23.7 20.3-4.4.3-8.7.3-14.2.3h-14.4c-1 0-1.5-.4-1.5-1.5v-5.2zm18.6-34.4h3.9c9.6 0 15.2-3 15.2-10.6 0-8.4-6-10.6-14.3-10.6h-4.8V236zm0 33h4.6c10.9 0 19.1-2.7 19.1-12.9 0-8-6.1-11.6-16.3-11.6h-7.4V269zm71.7-26.2c0-4.9-.8-10-9-10-6.5 0-8.4 2.9-9.3 6.6-.2.9-.6 1.5-1.5 1.5h-6.6c-1 0-1.5-.5-1.4-1.5.6-10.7 9.9-14.5 20.5-14.5 14.7 0 18.4 7.8 18.4 16.9v27.1h4.4c1 0 1.5.5 1.5 1.5v5c0 1.1-.5 1.5-1.5 1.5h-12.2c-1 0-1.4-.5-1.5-1.5l-.7-4.7c-3.7 5-8.8 7.5-16.1 7.5-7.8 0-15.2-3.6-15.2-14.5 0-16.7 18.6-17.1 30.2-17.3v-3.6zm.2 10.7c-8.3.1-19.5.1-19.5 9.2 0 4.8 2.7 7.1 8.1 7.1 7.6 0 11.3-4.4 11.3-8.3v-8zm77.2-48.2c7.7 0 15.3 1.9 21.5 5.3.9.5 1.3 1 1.3 2.1V226c0 1-.5 1.5-1.5 1.5h-5.8c-1 0-1.5-.4-1.4-1.5l.3-7.2c-3.8-2.6-9.2-4.3-14.5-4.3-15 0-19.8 11.8-19.8 26.4 0 15.4 5.5 28.5 21.5 28.5 5.6 0 10.2-1.1 12.9-3.3l-.4-7.2c-.1-1.1.4-1.5 1.4-1.5h5.9c1 0 1.5.4 1.5 1.5V272c0 1 0 1.4-1 2-4.6 2.3-12 4.4-20.7 4.4-23.4 0-33.5-14.5-33.5-35.8.1-28 17.7-37.3 32.3-37.3zm58 64.2c4.5 0 7.6-1.3 10.8-2.8 1-.4 1.8-.1 2.2.9l1.9 4.5c.4 1 .1 1.6-.8 2.2-2.9 1.8-8.2 3.8-15.9 3.8-17.4 0-24.4-10.9-24.4-26.5 0-14.8 7.4-26.9 24.4-26.9 13.2 0 18.1 8.3 18.1 17.9 0 1.2-.7 1.3-1.8 1.3h-6.2c-1 0-1.6-.2-1.8-1.5-.3-5.5-2.9-9.1-9.2-9.1-8.3 0-11.9 5.8-11.9 17.3.1 10.8 3.6 18.9 14.6 18.9zm104.4-29.4c0 25.9-15.8 36.9-38.4 36.9h-21.4c-1 0-1.5-.5-1.5-1.5v-5c0-1.1.5-1.5 1.5-1.5h5.4v-53.5h-5.4c-1 0-1.5-.5-1.5-1.5v-5.3c0-1.1.4-1.5 1.5-1.5 6.6-.3 15.4-.6 22.2-.6 15.1-.2 37.6 2.8 37.6 33.5zM572 215h-6.6v54h6.8c15.6 0 23.8-11.2 23.8-27 0-18.1-7.4-27-24-27zm96.2 53.8c1 0 1.5.5 1.5 1.5v5c0 1.1-.5 1.5-1.5 1.5h-11.6c-1 0-1.4-.5-1.5-1.5l-.8-6.1c-3.7 6.3-9.8 8.9-16.8 8.9-13.2 0-21-8.1-21-25.2 0-19.9 10.2-28.1 22.7-28.1 6.6 0 11.2 3 13.2 5.8v-21.9h-5.5c-1 0-1.5-.5-1.5-1.5v-5.5c0-1.1.4-1.5 1.5-1.5h15.4c1 0 1.5.4 1.5 1.5v67.2h4.4zm-16-29.3s-3.8-5.6-11.4-5.6c-7.2 0-12.8 4.3-12.8 17.3 0 9.2 1.3 18 12.2 18 5.9 0 12.1-4.2 12.1-11.6v-18.1zm63.9-2.3h15.3l-.4-5.3c-.1-1.1.4-1.5 1.4-1.5h5.8c1 0 1.5.5 1.5 1.5v18.2c0 1-.5 1.5-1.5 1.5h-5.8c-1 0-1.5-.4-1.4-1.5l.3-4.9h-15.2v23.7h23.6l-.4-7.3c-.1-1.1.4-1.5 1.4-1.5h5.8c1 0 1.5.5 1.5 1.5v13.8c0 1.1-.4 1.5-1.5 1.5h-47.4c-1.1 0-1.5-.5-1.5-1.5v-5c0-1.1.5-1.5 1.5-1.5h5.5v-53.5h-5.5c-1 0-1.5-.5-1.5-1.5v-5.3c0-1.1.5-1.5 1.5-1.5h45.3c1.1 0 1.5.5 1.5 1.5v13.8c0 1.1-.5 1.5-1.5 1.5h-5.8c-1 0-1.5-.4-1.4-1.5l.4-7.1h-21.5v21.9zm38.1 14.2c0-13.6 7.4-26.6 23.6-26.6 15.8 0 20.1 12.9 20.1 24 0 .9 0 2.3-.1 3.5-.1 1.2-.3 1.6-1.9 1.6h-30.3c.6 8.8 3.4 15.6 14.5 15.6 4.6 0 7.9-1 11.6-2.7 1-.5 1.6-.2 2.1.8l2 4.7c.4 1 0 1.5-.9 2.1-3.6 2-9.9 3.7-17 3.7-17.1.1-23.7-11-23.7-26.7zm32.8-5c.1-6.2-1.6-12.9-10.1-12.9-9 0-11.1 7.4-11.3 12.9H787zM150.6 360.3H167l-.4-5.3c-.1-1.1.4-1.5 1.4-1.5h5.8c1 0 1.5.5 1.5 1.5v18.2c0 1-.5 1.5-1.5 1.5H168c-1 0-1.5-.4-1.4-1.5l.3-4.9h-16.3v24.1h10.6c1 0 1.5.5 1.5 1.5v5c0 1.1-.5 1.5-1.5 1.5h-27.6c-1 0-1.5-.5-1.5-1.5v-5c0-1.1.5-1.5 1.5-1.5h5.5V339h-5.5c-1 0-1.5-.5-1.5-1.5v-5.3c0-1.1.5-1.5 1.5-1.5H180c1 0 1.5.5 1.5 1.5V346c0 1.1-.5 1.5-1.5 1.5h-5.8c-1 0-1.5-.4-1.4-1.5l.4-7.1h-22.6v21.4zm54.5 32.1H216c1.1 0 1.5.5 1.5 1.5v5c0 1.1-.5 1.5-1.5 1.5h-28.8c-1 0-1.5-.5-1.5-1.5v-5c0-1.1.5-1.5 1.5-1.5h6.4v-34.5h-6.4c-1 0-1.5-.5-1.5-1.5v-5.3c0-1.1.5-1.5 1.5-1.5h6.4v-10c0-8.4 2.4-17.2 15.8-17.2 5.4 0 10.2 1.8 12.1 2.6.9.4 1.1.9.8 2l-1.5 5.1c-.3.8-.8 1.1-1.8.7-.9-.4-4-1.9-7.3-1.9-6.1 0-6.5 3.7-6.5 11.1v7.5h12.5c1 0 1.5.5 1.5 1.5v5.3c0 1.1-.5 1.5-1.5 1.5h-12.5v34.6zm98.5 1.6c0 1-.4 1.6-1.4 2.2-5.8 3.1-15.4 5.7-23.2 5.7-24.4 0-33.5-16.1-33.5-36.4 0-27.1 17.6-36.6 32.2-36.6 7.9 0 15.8 2 21.4 5.5.9.5 1.4 1.2 1.4 2.3v12.9c0 1-.5 1.5-1.5 1.5h-5.9c-1 0-1.5-.4-1.4-1.5l.3-6.9c-2.6-1.9-7.6-4.6-14.4-4.6-15 0-19.8 12.3-19.8 25.9 0 15.3 5.4 28.8 21.5 28.8 5.9 0 9.8-1 13.6-3.6v-12.6h-6.6c-1 0-1.5-.5-1.5-1.5V370c0-1.1.4-1.5 1.5-1.5H309c1 0 1.5.5 1.5 1.5v5.1c0 1.1-.5 1.5-1.5 1.5h-5.5V394zm59.5.6c0 2-.1 7.7-.5 12.3-1 11.3-8.1 18.4-22.8 18.4-8.1 0-14.3-2-16.9-3.1-1-.4-1.1-1-.8-2.1l1.9-5.5c.3-1 1-1.2 2.1-.8 2.3.9 7.2 2.6 12.6 2.6 8.3 0 13-3.1 13-14v-8c-3.1 5-8.5 7.4-15.2 7.4-12.4 0-20.1-8.7-20.1-25.2 0-20.2 10.3-28.1 22.1-28.1 6.6 0 11.5 2.8 14.9 6.7l1-4c.3-1 .8-1.5 1.9-1.5h12.6c1 0 1.5.5 1.5 1.5v5.4c0 1.1-.5 1.5-1.5 1.5h-5.7v36.5zM351.6 363s-3.8-5.5-11.4-5.5c-6.6 0-12.3 4.2-12.3 17.2 0 10.4 1.9 18.2 12 18.2 5.6 0 11.6-4.2 11.6-11.6V363zm63-2.8h31.2V339h-5.5c-1 0-1.5-.5-1.5-1.5v-5.3c0-1.1.5-1.5 1.5-1.5h22.5c1 0 1.5.5 1.5 1.5v5.3c0 1.1-.5 1.5-1.5 1.5h-5.5v53.5h5.5c1 0 1.5.5 1.5 1.5v5c0 1.1-.5 1.5-1.5 1.5h-22.5c-1 0-1.5-.5-1.5-1.5v-5c0-1.1.5-1.5 1.5-1.5h5.5V369h-31.2v23.4h5.5c1 0 1.5.5 1.5 1.5v5c0 1.1-.5 1.5-1.5 1.5h-22.5c-1 0-1.5-.5-1.5-1.5v-5c0-1.1.5-1.5 1.5-1.5h5.5V339h-5.5c-1 0-1.5-.5-1.5-1.5v-5.3c0-1.1.5-1.5 1.5-1.5h22.5c1 0 1.5.5 1.5 1.5v5.3c0 1.1-.5 1.5-1.5 1.5h-5.5v21.2zm55.9-34.9c0-1 .4-1.5 1.5-1.5h15.6c1 0 1.5.4 1.5 1.5V357c4.1-6.1 9.9-8.5 16-8.5 10.4 0 16 5.9 16 17.5v26.5h6.1c1 0 1.5.5 1.5 1.5v5c0 1.1-.5 1.5-1.5 1.5h-22.6c-1 0-1.5-.5-1.5-1.5v-5c0-1.1.5-1.5 1.5-1.5h4.9v-21.3c0-7.3-.7-12.5-8.9-12.5-6.5 0-11.5 5-11.5 10.1v23.7h6.3c1.1 0 1.5.5 1.5 1.5v5c0 1.1-.4 1.5-1.5 1.5H472c-1 0-1.5-.5-1.5-1.5v-5c0-1.1.5-1.5 1.5-1.5h5.6v-60.3H472c-1 0-1.5-.4-1.5-1.5v-5.4zm102.9 67.1h5.5c1 0 1.5.5 1.5 1.5v5c0 1.1-.5 1.5-1.5 1.5h-22.5c-1 0-1.5-.5-1.5-1.5v-5c0-1.1.5-1.5 1.5-1.5h5.5V339h-5.5c-1 0-1.5-.5-1.5-1.5v-5.3c0-1.1.5-1.5 1.5-1.5h22.5c1 0 1.5.5 1.5 1.5v5.3c0 1.1-.5 1.5-1.5 1.5h-5.5v53.4zm32.4 0h6.5c1 0 1.5.4 1.5 1.5v5c0 1-.5 1.5-1.5 1.5h-24.5c-1 0-1.5-.4-1.5-1.5v-5c0-1 .5-1.5 1.5-1.5h6.5V358h-5.6c-1 0-1.5-.4-1.5-1.5v-5.4c0-1 .5-1.5 1.5-1.5h15.6c1.1 0 1.5.5 1.5 1.5v41.3zm-14.5-57.2c0 4.1 2.7 7.3 7.3 7.3 4.5 0 7.4-3.2 7.4-7.3 0-4.2-2.8-7.4-7.4-7.4-4.5-.1-7.3 3.1-7.3 7.4zm55.4 3.8h-5.5c-1 0-1.5-.5-1.5-1.5v-5.3c0-1.1.5-1.5 1.5-1.5h22.5c1 0 1.5.5 1.5 1.5v5.3c0 1.1-.5 1.5-1.5 1.5h-5.5v65.9c0 11.2-4.1 20.4-18.8 20.4-4.9 0-9.3-1-11.6-2.2-1-.5-.8-1.1-.5-2l1.9-5.4c.3-1 .8-1.4 1.9-1 1.3.5 3.6 1.3 7.2 1.3 5.7 0 8.5-3 8.5-11.6V339zm43.8 65.8c0 11.3-4 20.5-18.2 20.5-5.2 0-10.2-1.1-12.4-2.2-1-.5-1.2-1-.8-2.1l2.1-5.7c.4-1 .9-1.2 2-.8 1.1.4 3.9 1.2 7.2 1.2 5.8 0 8.7-3.7 8.7-12.1V358h-5.6c-1 0-1.5-.5-1.5-1.5v-5.4c0-1.1.4-1.5 1.5-1.5H689c1 0 1.5.5 1.5 1.5v53.7zm-7.1-77.1c4.6 0 7.4 3.2 7.4 7.4 0 4.1-2.9 7.3-7.4 7.3-4.6 0-7.3-3.2-7.3-7.3 0-4.2 2.8-7.4 7.3-7.4zm58.9 33.3h5.4l19.2-22h-5.5c-1 0-1.5-.5-1.5-1.5v-5.3c0-1.1.4-1.5 1.5-1.5h21c1 0 1.5.5 1.5 1.5v5.5c0 1-.5 1.5-1.5 1.5h-5.3L756.8 363l20.5 29.5h6.7c1 0 1.5.5 1.5 1.5v5c0 1.1-.5 1.5-1.5 1.5h-13.2c-1 0-1.9-.4-2.5-1.2l-20.7-29.9h-5.3v23h5.5c1 0 1.5.5 1.5 1.5v5c0 1.1-.5 1.5-1.5 1.5h-22.5c-1 0-1.5-.5-1.5-1.5v-5c0-1.1.5-1.5 1.5-1.5h5.5V339h-5.5c-1 0-1.5-.5-1.5-1.5v-5.3c0-1.1.5-1.5 1.5-1.5h22.5c1 0 1.5.5 1.5 1.5v5.3c0 1.1-.5 1.5-1.5 1.5h-5.5v22zm67 5.4h5.3l16-15.7c.8-.8 1.6-1.1 2.7-1.1h8c1 0 1.5.5 1.5 1.5v5.4c0 1.1-.5 1.5-1.5 1.5H835l-11.3 11 14.1 23.4h6.1c1 0 1.5.5 1.5 1.5v5c0 1.1-.5 1.5-1.5 1.5h-13.3c-1.1 0-1.8-.4-2.4-1.3l-15.4-24.9h-3.4v18.1h5.5c1 0 1.5.5 1.5 1.5v5c0 1.1-.5 1.5-1.5 1.5h-22.5c-1 0-1.5-.5-1.5-1.5v-5c0-1.1.5-1.5 1.5-1.5h5.5v-60.4h-5.6c-1 0-1.5-.5-1.5-1.5v-5.3c0-1 .4-1.5 1.5-1.5h15.6c1 0 1.5.5 1.5 1.5v41.3zM150.6 516h21.5l-.4-7.2c-.1-1.1.4-1.5 1.4-1.5h5.8c1 0 1.5.5 1.5 1.5v20.3c0 1.1-.5 1.5-1.5 1.5h-5.8c-1 0-1.5-.4-1.4-1.5l.3-4.9h-38.4c-1.1 0-1.5-.5-1.5-1.5v-5c0-1.1.5-1.5 1.5-1.5h5.5v-53.5h-5.5c-1 0-1.5-.5-1.5-1.5v-5.3c0-1.1.5-1.5 1.5-1.5h24.5c1 0 1.5.5 1.5 1.5v5.3c0 1.1-.5 1.5-1.5 1.5h-7.5V516zm52.6 0h6.5c1 0 1.5.5 1.5 1.5v5c0 1.1-.5 1.5-1.5 1.5h-24.5c-1 0-1.5-.5-1.5-1.5v-5c0-1.1.5-1.5 1.5-1.5h6.5v-60.3h-5.6c-1 0-1.5-.5-1.5-1.5v-5.4c0-1.1.4-1.5 1.5-1.5h15.6c1 0 1.5.4 1.5 1.5V516zm71.9 8.2c-1 0-1.8-.4-2.2-1.4l-20-50.8v44h6.5c1 0 1.5.5 1.5 1.5v5c0 1.1-.4 1.5-1.5 1.5h-20.9c-1 0-1.5-.5-1.5-1.5v-5c0-1.1.5-1.5 1.5-1.5h5.5v-53.5h-5.5c-1 0-1.5-.5-1.5-1.5v-5.3c0-1.1.5-1.5 1.5-1.5h18c1 0 1.8.4 2.1 1.4l21.2 55.3 21.7-55.3c.3-1 1-1.4 2.1-1.4h17.2c1 0 1.5.5 1.5 1.5v5.3c0 1.1-.5 1.5-1.5 1.5h-5.5V516h5.5c1 0 1.5.5 1.5 1.5v5c0 1.1-.4 1.5-1.5 1.5h-22.7c-1 0-1.5-.5-1.5-1.5v-5c0-1.1.5-1.5 1.5-1.5h6.2v-44L284 522.7c-.4 1-1.1 1.4-2.2 1.4h-6.7zm54-49.5c0-1 .4-1.5 1.5-1.5h14.1c1 0 1.4.5 1.5 1.5l.8 6c3.6-5.9 9.5-8.7 15.6-8.7 7.4 0 12.4 3.1 14.6 9.1 4-6.5 10.1-9.1 16.2-9.1 10.4 0 16 5.9 16 17.5V516h5.9c1 0 1.5.5 1.5 1.5v5c0 1.1-.5 1.5-1.5 1.5h-22.7c-1 0-1.5-.5-1.5-1.5v-5c0-1.1.5-1.5 1.5-1.5h5.3v-21.3c0-7.3-.7-12.5-8.9-12.5-6.1 0-10.4 4.3-10.4 9V516h4.9c1 0 1.5.5 1.5 1.5v5c0 1.1-.5 1.5-1.5 1.5h-21.1c-1 0-1.5-.5-1.5-1.5v-5c0-1.1.5-1.5 1.5-1.5h4.6v-21.3c0-7.3-.7-12.5-8.9-12.5-6.5 0-10.5 5-10.5 10.1V516h6.3c1.1 0 1.5.5 1.5 1.5v5c0 1.1-.5 1.5-1.5 1.5h-23.3c-1 0-1.5-.5-1.5-1.5v-5c0-1.1.5-1.5 1.5-1.5h5.5v-34.4h-5.6c-1 0-1.5-.4-1.5-1.5v-5.4zm176.4 47.9c0 1-.5 1.5-1.5 1.5h-7.5c-1 0-1.9-.4-2.4-1.2l-34.9-51.6V516h8.5c1 0 1.5.5 1.5 1.5v5c0 1.1-.5 1.5-1.5 1.5h-23c-1 0-1.5-.5-1.5-1.5v-5c0-1.1.5-1.5 1.5-1.5h5.5v-53.5h-5.5c-1 0-1.5-.5-1.5-1.5v-5.3c0-1.1.5-1.5 1.5-1.5h15.1c1 0 1.8.4 2.4 1.3l34.3 52.1v-45.1H491c-1 0-1.5-.5-1.5-1.5v-5.3c0-1.1.5-1.5 1.5-1.5h20c1 0 1.5.5 1.5 1.5v5.3c0 1.1-.5 1.5-1.5 1.5h-5.5v60.1zm12.7-47.9c0-1 .4-1.5 1.5-1.5h14c1 0 1.4.5 1.6 1.5l.9 6c4.2-6.4 10.4-8.7 16.5-8.7 10.4 0 16 5.9 16 17.5V516h6c1 0 1.5.5 1.5 1.5v5c0 1.1-.5 1.5-1.5 1.5h-22.5c-1 0-1.5-.5-1.5-1.5v-5c0-1.1.5-1.5 1.5-1.5h4.9v-21.3c0-7.3-.7-12.5-8.9-12.5-6.5 0-11.5 5-11.5 10.1V516h6.4c1.1 0 1.5.5 1.5 1.5v5c0 1.1-.5 1.5-1.5 1.5h-23.4c-1 0-1.5-.5-1.5-1.5v-5c0-1.1.5-1.5 1.5-1.5h5.5v-34.4h-5.6c-1.1 0-1.5-.3-1.5-1.4v-5.5zm116.7-22.2c10.7 0 30.4 3.8 30.4 34.5 0 25.6-14.3 38.4-32.5 38.4-18.7 0-29.9-11.9-29.9-35.5 0-29.1 18.8-37.4 32-37.4zm17.5 36.4c0-15.4-4.7-27.4-18.7-27.4-13.8 0-18.4 11.6-18.4 24.7 0 12.5 2.2 29.5 18.7 29.5 13.5 0 18.4-11.2 18.4-26.8zm45.3-16.9c8 0 23.2 2.5 23.2 25.2 0 19.3-11.1 28.1-24.8 28.1-14 0-22.8-8.4-22.8-26 0-21.6 14.6-27.3 24.4-27.3zm11.2 26.7c0-11.5-3.2-18.2-12.1-18.2-8.5 0-11.8 6.7-11.8 16.7 0 9.2 1.8 19.8 12.1 19.8 8.4-.1 11.8-6.4 11.8-18.3zm40.3 18.9c0-1 .5-1.5 1.5-1.5h5.4v-53.6h-5.4c-1 0-1.5-.5-1.5-1.5v-5.1c0-1 .4-1.5 1.5-1.5 6.6-.3 15.6-.6 21.5-.6 17.7 0 27.4 6.5 27.4 20.1 0 13.8-9.5 22.6-24.9 22.6-2.5 0-5.4-.1-7.1-.3V516h8.5c1 0 1.5.5 1.5 1.5v5c0 1.1-.5 1.5-1.5 1.5h-25.4c-1 0-1.5-.4-1.5-1.5v-4.9zm18.5-29.6c.9.1 2.2.1 4.7.1 9 0 15.5-3.3 15.5-13.7s-8.1-12.3-16.5-12.3h-3.7V488zm44.8-6.4h-5.6c-1 0-1.5-.5-1.5-1.5v-5.4c0-1.1.4-1.5 1.5-1.5h14c1 0 1.3.5 1.5 1.5l1 6.2c3.3-5.6 9.2-8.9 16.2-8.9 12.4 0 20.2 8.1 20.2 24.6 0 20.9-10.4 28.7-22.5 28.7-6 0-10.4-1.9-13.4-4.3v18.5h10.9c1.1 0 1.5.5 1.5 1.5v5.1c0 1.1-.5 1.5-1.5 1.5H807c-1 0-1.5-.5-1.5-1.5v-5c0-1.1.5-1.5 1.5-1.5h5.5v-58zm11.5 30.9s4.4 4.3 11.7 4.3c7.3 0 12.5-4.1 12.5-17.8 0-9.2-1.3-17.5-12-17.5-6 0-12.2 3.9-12.2 11.3v19.7zm-659.6 63.6c10.7 0 30.4 3.9 30.4 34.6 0 17.9-7 29.3-17.3 34.7 1.4 5.3 5.6 10.2 9.4 13.5.8.7.8 1.3.2 2.2l-2.4 2.9c-.6.8-1.2.8-2.3.3-6.2-3.2-14.1-8-17.7-15.3-.8 0-1.6.1-2.5.1-18.7 0-29.9-11.8-29.9-35.4.1-29.2 18.9-37.6 32.1-37.6zm17.5 36.5c0-15.4-4.7-27.5-18.7-27.5-13.8 0-18.4 11.7-18.4 24.8 0 12.5 2.2 29.4 18.7 29.4 13.5 0 18.4-11.1 18.4-26.7zm73.8 50.8c1 0 1.5.5 1.5 1.5v4.9c0 1.1-.4 1.5-1.5 1.5h-15.4c-1 0-1.5-.5-1.5-1.5v-28.6c-3.3 5.3-9.2 7.7-15.7 7.7-12.4 0-20.2-8.5-20.2-25.2 0-19.5 10.2-28.1 22.7-28.1 6.6 0 12.2 3 14.8 6.9l1-4.2c.3-1 .6-1.5 1.6-1.5h12.9c1 0 1.5.5 1.5 1.5v5.4c0 1.1-.5 1.5-1.5 1.5h-5.7v58.2h5.5zm-17-53.1s-3.8-5.5-11.4-5.5c-7.2 0-12.8 4.7-12.8 16.8 0 9.6 1.3 18.5 12.1 18.5 6.5 0 12.2-4.4 12.2-11.8v-18zm44.5 30.9c0-1 .5-1.5 1.5-1.5h5.4v-53.6h-5.4c-1 0-1.5-.5-1.5-1.5v-5.1c0-1.1.4-1.5 1.5-1.5 6.6-.3 16-.6 21.9-.6 17.7 0 26.8 6 26.8 19.2 0 9.3-5.1 16.2-12.5 19.6l12 23.7h6.4c1 0 1.5.5 1.5 1.5v5c0 1.1-.5 1.5-1.5 1.5h-13.6c-1.1 0-1.8-.4-2.3-1.3l-14-27.7h-2.1c-2.5 0-4.1-.1-5.9-.3v21.2h6.5c1 0 1.5.5 1.5 1.5v5c0 1.1-.4 1.5-1.5 1.5h-23.4c-1 0-1.5-.4-1.5-1.5v-5.1zm18.4-30.6c.8.1 1.5.1 2.4.1 10.9 0 17.6-4.2 17.6-13.2 0-9.8-7.9-11.7-16.3-11.7h-3.7v24.8zm82.8-14.1c1.1.4 1.2.8 1.2 1.9v13.9c0 1.1-.5 1.5-1.5 1.5h-6.7c-1 0-1.5-.4-1.4-1.5l.4-6c-.5-.1-1.2-.1-1.8-.1-6.2 0-10.9 5.4-10.9 14.2v19.3H375c1 0 1.5.5 1.5 1.5v5c0 1.1-.5 1.5-1.5 1.5h-28.3c-1 0-1.5-.5-1.5-1.5v-5c0-1.1.5-1.5 1.5-1.5h5.5v-34.4h-5.6c-1 0-1.5-.5-1.5-1.5v-5.4c0-1.1.4-1.5 1.5-1.5h13.6c1 0 1.5.5 1.8 1.5l1.1 7.3c2.1-4.9 7.3-10 14.7-10 2.3-.1 5.7.5 6.6.8zm69.5-18.2c1.1.3 1.4.8 1.4 1.9v14.2c0 1-.5 1.5-1.5 1.5H448c-1 0-1.5-.4-1.4-1.5l.3-6.9c-2.1-1.2-5.6-2.5-9.3-2.5-6.4 0-11 3.3-11 9.1 0 6 3.6 9.2 12.1 12.4 8.7 3.3 20 7.3 20 20.9 0 13.5-8.9 21.6-24.7 21.6-7.2 0-14-1.6-17.3-2.7-1.1-.3-1.4-.8-1.4-1.9V628c0-1.1.5-1.5 1.5-1.5h5.8c1 0 1.5.4 1.4 1.5l-.4 8.5c1.6 1.5 6.2 3.4 10.9 3.4 6.6 0 12.8-2.3 12.8-10.4 0-7.3-5.6-10.5-13.6-13.2-9.2-3.1-18.2-7.4-18.2-19.6 0-11.6 8.2-20.8 23.3-20.8 6.4.2 12.4 1.6 15.1 2.4zm47.1 19.2c1.1.3 1.4.7 1.4 1.9v10.9c0 1-.5 1.5-1.5 1.5h-6c-1 0-1.5-.4-1.3-1.5l.5-5.3c-1.8-.9-4.2-1.6-6.8-1.6-4.5 0-8.2 1.3-8.2 5.8 0 10.9 26.1 4.5 26.1 23.3 0 10.3-7.5 16.6-20.8 16.6-6 0-11.8-1.3-14.5-2.1-1.1-.3-1.3-.8-1.3-2v-10.9c0-1 .5-1.5 1.5-1.5h6c1 0 1.5.4 1.4 1.5l-.3 5.4c1.6 1.2 4.6 2.1 7.9 2.1 4.8 0 9.2-1.2 9.2-6.5 0-12.3-25.6-4.4-25.6-23.5 0-8.7 7-15.9 19.7-15.9 5.5-.1 10.3 1.1 12.6 1.8zm44.1 50.3c-1.1 0-1.5-.5-1.5-1.5v-5c0-1.1.4-1.5 1.5-1.5h8.4v-53.6h-13.9l.5 8c.1 1.1-.4 1.5-1.4 1.5h-6.3c-1 0-1.5-.5-1.5-1.5v-14.7c0-1 .5-1.5 1.5-1.5h53.9c1 0 1.5.5 1.5 1.5v14.7c0 1-.5 1.5-1.5 1.5H580c-1 0-1.5-.4-1.4-1.5l.5-8h-13.9v53.6h8.5c1 0 1.5.5 1.5 1.5v5c0 1.1-.5 1.5-1.5 1.5h-28.6zm65.3-16.6c0 5.8.8 9.2 6.2 9.2 2.7 0 4.4-.6 6.3-1.4.8-.3 1.2-.2 1.6.8l1.9 4.7c.4 1 0 1.5-.9 2.1-2.9 1.4-7.8 2.5-11.7 2.5-14.8 0-14.8-10-14.8-19v-24.8h-6c-1 0-1.5-.5-1.5-1.5v-5.4c0-1.1.5-1.5 1.5-1.5h5.9V583c0-1 .4-1.5 1.5-1.5h8.4c1 0 1.5.5 1.5 1.5v13.9h10.4c1 0 1.5.5 1.5 1.5v5.4c0 1.1-.5 1.5-1.5 1.5h-10.4v25.9zm59.2-12.7c0 12.1 1.5 21.2 16 21.2 13.1 0 16.9-8.2 16.9-20.9v-32.7H697c-1 0-1.5-.5-1.5-1.5v-5.3c0-1.1.5-1.5 1.5-1.5h20.8c1 0 1.5.5 1.5 1.5v5.3c0 1.1-.5 1.5-1.5 1.5h-5.5V621c0 13.9-5.4 28-27.1 28-21.3 0-27.2-9.8-27.2-26.9v-35.9h-5.5c-1 0-1.5-.5-1.5-1.5v-5.3c0-1.1.5-1.5 1.5-1.5H675c1 0 1.5.5 1.5 1.5v5.3c0 1.1-.5 1.5-1.5 1.5h-5.5v32.3zm107.3 21.1c1 0 1.5.5 1.5 1.5v5c0 1.1-.5 1.5-1.5 1.5h-11.5c-1 0-1.3-.5-1.5-1.5l-.9-5.8c-4.6 6-10.5 8.5-17.3 8.5-11.1 0-16.7-5.9-16.7-17.5V605h-5.5c-1 0-1.5-.5-1.5-1.5v-5.4c0-1.1.4-1.5 1.5-1.5H739c1 0 1.5.5 1.5 1.5v30.1c0 7.3.7 11.4 8.9 11.4 6.5 0 11.5-5 11.5-10.1V605h-6.5c-1 0-1.5-.5-1.5-1.5v-5.4c0-1.1.5-1.5 1.5-1.5h16.5c1 0 1.5.5 1.5 1.5v41.3h4.5zm-640.5 70.2H130c-1 0-1.5-.5-1.5-1.5V703c0-1 .5-1.5 1.5-1.5h26.2c1 0 1.5.5 1.5 1.5v5.3c0 1-.5 1.5-1.5 1.5h-6.3l14.6 49.3 16.7-49.3h-6.6c-1 0-1.5-.5-1.5-1.5V703c0-1 .5-1.5 1.5-1.5h21.7c1 0 1.5.5 1.5 1.5v5.3c0 1-.5 1.5-1.5 1.5h-5.5l-21.1 60.1c-.4 1-1 1.4-2.1 1.4h-10c-1 0-1.6-.4-2.1-1.4l-19.1-60.1zm90.9 50.1l10.8-31.1h-5.3c-1 0-1.5-.5-1.5-1.5v-5.4c0-1.1.5-1.5 1.5-1.5h15c1.6 0 2.5 1.5 1.9 3.1L232.1 770c-.3 1-1 1.4-2.1 1.4h-8.9c-1 0-1.6-.4-2.1-1.4l-14.1-41.1h-5.2c-1 0-1.5-.5-1.5-1.5V722c0-1.1.5-1.5 1.5-1.5h13.5c1 0 1.6.4 2 1.4l12.1 38zm52.6-50.1h-5.4c-1 0-1.5-.5-1.5-1.5V703c0-1 .5-1.5 1.5-1.5h25.7c1 0 1.5.5 1.5 1.5v5.3c0 1-.5 1.5-1.5 1.5H293l11 47.9 15-54.8c.3-1 .8-1.4 2-1.4h8.4c1 0 1.6.4 2 1.4l14.9 55.1 11.8-48.2h-6.8c-1 0-1.5-.5-1.5-1.5V703c0-1 .5-1.5 1.5-1.5H373c1 0 1.5.5 1.5 1.5v5.3c0 1-.5 1.5-1.5 1.5h-5.5l-15.9 60c-.3 1.1-.8 1.5-2 1.5h-9.7c-1 0-1.6-.4-2-1.4l-14.4-51.3-13.8 51.3c-.3 1-.9 1.4-2 1.4h-11.3c-1 0-1.6-.4-2-1.5l-14.5-60zm121.6 48.9l10.2-36.9c.3-1 .9-1.4 2-1.4h8.2c1.1 0 1.6.4 2 1.4l10.5 37.1 9.2-30.1h-4.9c-1 0-1.5-.5-1.5-1.5v-5.4c0-1.1.5-1.5 1.5-1.5h13.2c1.8 0 2.5 1.3 2.1 2.8L439.8 770c-.3 1-.9 1.4-2 1.4h-9.3c-1 0-1.6-.4-2-1.5l-9.8-36.4-10.2 36.5c-.3 1-.9 1.4-2 1.4h-9.3c-1 0-1.6-.4-2-1.4L382 728.8h-5.4c-1 0-1.5-.5-1.5-1.5v-5.4c0-1.1.5-1.5 1.5-1.5h13.5c1 0 1.6.4 2 1.5l9.4 36.8zm99.3 4.6c1.1 0 1.5.5 1.5 1.5v4.9c0 1.1-.5 1.5-1.5 1.5h-22.5c-1 0-1.5-.5-1.5-1.5v-4.9c0-1 .5-1.5 1.5-1.5h5.5l20.1-26.8-19.6-26.8h-5.6c-1 0-1.5-.5-1.5-1.5V703c0-1.1.5-1.5 1.5-1.5h25.7c1 0 1.5.5 1.5 1.5v5.3c0 1.1-.5 1.5-1.5 1.5h-6.3l13.3 18.5 13.5-18.5h-5.8c-1 0-1.5-.5-1.5-1.5V703c0-1.1.5-1.5 1.5-1.5H541c1 0 1.5.5 1.5 1.5v5.3c0 1.1-.5 1.5-1.5 1.5h-5.4l-19.1 24.9 20.5 28.6h6.3c1 0 1.5.5 1.5 1.5v4.9c0 1-.5 1.5-1.5 1.5h-27c-1 0-1.5-.5-1.5-1.5v-4.9c0-1 .5-1.5 1.5-1.5h6.6l-14-19.7-14.6 19.7h6.5zm98.7-36c0 1-.5 1.5-1.5 1.5h-6.2l-11.5 15.5 11.6 19h7.1c1 0 1.5.5 1.5 1.5v5c0 1.1-.5 1.5-1.5 1.5h-13.5c-1 0-1.8-.4-2.4-1.3L573 752.9l-7.5 10.3h5.7c1 0 1.5.5 1.5 1.5v5c0 1.1-.5 1.5-1.5 1.5h-21.3c-1.1 0-1.5-.5-1.5-1.5v-5c0-1.1.5-1.5 1.5-1.5h5.4l13.1-17.4-10.3-17h-6.6c-1 0-1.5-.5-1.5-1.5v-5.4c0-1.1.5-1.5 1.5-1.5h12.9c1 0 1.8.4 2.3 1.3l9.1 16 6.6-8.9h-3.8c-1 0-1.5-.5-1.5-1.5v-5.4c0-1.1.5-1.5 1.5-1.5h19.6c1.1 0 1.5.4 1.5 1.5v5.4zm31.9-17.5H626c-1 0-1.5-.5-1.5-1.5V703c0-1 .5-1.5 1.5-1.5h26.2c1 0 1.5.5 1.5 1.5v5.3c0 1-.5 1.5-1.5 1.5h-7.3l14.8 25.3 14.7-25.3h-6.9c-1.1 0-1.5-.5-1.5-1.5V703c0-1 .5-1.5 1.5-1.5h21.7c1 0 1.5.5 1.5 1.5v5.3c0 1-.5 1.5-1.5 1.5h-5.5l-20.1 33.8v19.8h5.5c1 0 1.5.5 1.5 1.5v4.9c0 1.1-.5 1.5-1.5 1.5h-22.5c-1 0-1.5-.5-1.5-1.5v-4.9c0-1.1.5-1.5 1.5-1.5h5.5V745l-20.7-35.2z" class="st0"/><path d="M713.7 759.3l10.7-30.5h-5.3c-1 0-1.5-.5-1.5-1.5v-5.4c0-1.1.5-1.5 1.5-1.5h15c1.6 0 2.5 1.5 1.9 3.1L714 781c-3.3 8.4-6.3 15-17.6 15-4.7 0-9.5-1.3-11.4-2.3-1-.5-1-.9-.7-2l1.8-5c.3-1 .9-1.2 2-.9 2.8.9 5 1.6 8.1 1.6 4 0 5.8-1.3 8.3-8.2l2.6-6.8-15.7-43.7h-5.1c-1 0-1.5-.5-1.5-1.5v-5.4c0-1.1.5-1.5 1.5-1.5h13.5c1 0 1.6.4 2 1.4l11.9 37.6zm100.1-57.9c1 0 1.5.5 1.5 1.5v4.9c0 1-.3 2-.9 2.8l-38.7 52.6h31.5l-.6-7.3c-.1-1.1.4-1.5 1.4-1.5h6.1c1 0 1.5.5 1.5 1.5v20.3c0 1.1-.5 1.5-1.5 1.5h-5.8c-1 0-1.5-.4-1.4-1.5l.3-4.9h-43.8c-1.1 0-1.5-.5-1.5-1.5v-4.9c0-1 .3-2 .9-2.8l38.3-52.6h-28.7l.5 8.2c.1 1.1-.4 1.5-1.4 1.5h-6.3c-1 0-1.5-.5-1.5-1.5V703c0-1 .5-1.5 1.5-1.5h48.6zm48.8 68.4c0 1.1-.5 1.5-1.5 1.5h-36.7c-1 0-1.5-.5-1.5-1.5v-6c0-1 .3-2 .9-2.8l25.6-32.4h-17.1l.2 5.5c.1 1.1-.4 1.5-1.4 1.5h-5.7c-1 0-1.5-.5-1.5-1.5v-12.2c0-1 .5-1.5 1.5-1.5h35.3c1 0 1.5.5 1.5 1.5v5.8c0 1-.3 2-.9 2.8L835 763.4h19.1l-.2-6.5c-.1-1.1.4-1.5 1.4-1.5h5.8c1 0 1.5.4 1.5 1.5v12.9z" class="st0"/></svg>