<svg xmlns="http://www.w3.org/2000/svg" xmlns:xlink="http://www.w3.org/1999/xlink" viewBox="0 0 2000 1402.2" width="2000" height="1402.2"><style>.st0{clip-path:url(#SVGID_2_)}.st1{fill:#fff}.st2{fill:#010101}.st3{fill:#7e2829}.st4{fill:#984334}.st5{fill:#f5825a}.st6{fill:#fea}.st7{fill:#423e38}.st8{fill:none}.st9{fill:#8b735b}.st10{fill:#d5563d}.st11{fill:#505251}.st12{fill:#fffef9}.st13{fill:#423f3d}.st14{fill:#eebb75}.st15{fill:#bc8d5a}.st16{fill:#bcc7c2}.st17{fill:#888988}.st18{fill:#b08b6c}.st19{fill:#474441}.st20{fill:#ea6849}.st21{fill:#f8a16c}</style><g id="Layer_1"><defs><path id="SVGID_1_" d="M0-5.5h2000v1405.4H0z"/></defs><clipPath id="SVGID_2_"><use overflow="visible" xlink:href="#SVGID_1_"/></clipPath><g class="st0"><path d="M1001.5 1068.5v1214.9" class="st1"/><path d="M1001.5 2062.6l1043.5-929v220.8l-1043.5 929z" class="st2"/><path d="M1001.5 1844.7l1043.5-929v220.8l-1043.5 929z" class="st1"/><path d="M1001.5 1626.8l1043.5-929v220.7l-1043.5 929.1z" class="st1"/><path d="M1001.5 1408.9l1043.5-929v220.7l-1043.5 929.1z" class="st1"/><path d="M1001.5 1191L2045 261.9v220.8l-1043.5 929.1z" class="st1"/><path d="M1001.5 973.1L2045 44v220.8l-1043.5 929.1z" class="st1"/><path d="M1001.5 755.2L2045-173.9V46.9L1001.5 976zm0 95.4v1214.9m0-220.8l1043.5-929v220.8l-1043.5 929z" class="st1"/><path d="M1001.5 1626.8l1043.5-929v220.7l-1043.5 929.1z" class="st1"/><path d="M1001.5 1408.9l1043.5-929v220.7l-1043.5 929.1z" class="st1"/><path d="M1001.5 1191L2045 261.9v220.8l-1043.5 929.1z" class="st1"/><path d="M1001.5 973.1L2045 44v220.8l-1043.5 929.1z" class="st1"/><path d="M1001.5 755.2L2045-173.9V46.9L1001.5 976z" class="st1"/><path d="M1001.5 537.3L2045-391.8V-171L1001.5 758zm0 95.4v1214.9" class="st1"/><path d="M1001.5 1626.8l1043.5-929v220.7l-1043.5 929.1z" class="st2"/><path d="M1001.5 1408.9l1043.5-929v220.7l-1043.5 929.1z" class="st1"/><path d="M1001.5 1191L2045 261.9v220.8l-1043.5 929.1z" class="st1"/><path d="M1001.5 973.1L2045 44v220.8l-1043.5 929.1z" class="st1"/><path d="M1001.5 755.2L2045-173.9V46.9L1001.5 976z" class="st1"/><path d="M1001.5 537.3L2045-391.8V-171L1001.5 758z" class="st1"/><path d="M1001.5 319.4L2045-609.7v220.8l-1043.5 929zm0 95.4v1214.9m0-220.8l1043.5-929v220.7l-1043.5 929.1z" class="st1"/><path d="M1001.5 1191L2045 261.9v220.8l-1043.5 929.1z" class="st1"/><path d="M1001.5 973.1L2045 44v220.8l-1043.5 929.1z" class="st1"/><path d="M1001.5 755.2L2045-173.9V46.9L1001.5 976z" class="st1"/><path d="M1001.5 537.3L2045-391.8V-171L1001.5 758z" class="st1"/><path d="M1001.5 319.4L2045-609.7v220.8l-1043.5 929z" class="st1"/><path d="M1001.5 101.4l1043.5-929v220.8l-1043.5 929zm0 95.5v1214.9" class="st1"/><path d="M1001.5 1191L2045 261.9v220.8l-1043.5 929.1z" class="st2"/><path d="M1001.5 973.1L2045 44v220.8l-1043.5 929.1z" class="st1"/><path d="M1001.5 755.2L2045-173.9V46.9L1001.5 976z" class="st2"/><path d="M1001.5 537.3L2045-391.8V-171L1001.5 758z" class="st1"/><path d="M1001.5 319.4L2045-609.7v220.8l-1043.5 929z" class="st2"/><path d="M1001.5 101.4l1043.5-929v220.8l-1043.5 929z" class="st1"/><path d="M1001.5-116.5l1043.5-929v220.8l-1043.5 929z" class="st2"/><path d="M1001.5 1068.5v1214.9" class="st1"/><path d="M1001.5 2062.6L-42 1133.6v220.8l1043.5 929z" class="st2"/><path d="M1001.5 1844.7L-42 915.7v220.8l1043.5 929z" class="st1"/><path d="M1001.5 1626.8L-42 697.8v220.7l1043.5 929.1z" class="st1"/><path d="M1001.5 1408.9L-42 479.9v220.7l1043.5 929.1z" class="st1"/><path d="M1001.5 1191L-42 261.9v220.8l1043.5 929.1z" class="st1"/><path d="M1001.5 973.1L-42 44v220.8l1043.5 929.1z" class="st1"/><path d="M1001.5 755.2L-42-173.9V46.9L1001.5 976zm0 95.4v1214.9m0-220.8L-42 915.7v220.8l1043.5 929z" class="st1"/><path d="M1001.5 1626.8L-42 697.8v220.7l1043.5 929.1z" class="st1"/><path d="M1001.5 1408.9L-42 479.9v220.7l1043.5 929.1z" class="st1"/><path d="M1001.5 1191L-42 261.9v220.8l1043.5 929.1z" class="st1"/><path d="M1001.5 973.1L-42 44v220.8l1043.5 929.1z" class="st1"/><path d="M1001.5 755.2L-42-173.9V46.9L1001.5 976z" class="st1"/><path d="M1001.5 537.3L-42-391.8V-171l1043.5 929zm0 95.4v1214.9" class="st1"/><path d="M1001.5 1626.8L-42 697.8v220.7l1043.5 929.1z" class="st2"/><path d="M1001.5 1408.9L-42 479.9v220.7l1043.5 929.1z" class="st1"/><path d="M1001.5 1191L-42 261.9v220.8l1043.5 929.1z" class="st1"/><path d="M1001.5 973.1L-42 44v220.8l1043.5 929.1z" class="st1"/><path d="M1001.5 755.2L-42-173.9V46.9L1001.5 976z" class="st1"/><path d="M1001.5 537.3L-42-391.8V-171l1043.5 929z" class="st1"/><path d="M1001.5 319.4L-42-609.7v220.8l1043.5 929zm0 95.4v1214.9m0-220.8L-42 479.9v220.7l1043.5 929.1z" class="st1"/><path d="M1001.5 1191L-42 261.9v220.8l1043.5 929.1z" class="st1"/><path d="M1001.5 973.1L-42 44v220.8l1043.5 929.1z" class="st1"/><path d="M1001.5 755.2L-42-173.9V46.9L1001.5 976z" class="st1"/><path d="M1001.5 537.3L-42-391.8V-171l1043.5 929z" class="st1"/><path d="M1001.5 319.4L-42-609.7v220.8l1043.5 929z" class="st1"/><path d="M1001.5 101.4L-42-827.6v220.8l1043.5 929zm0 95.5v1214.9" class="st1"/><path d="M1001.5 1191L-42 261.9v220.8l1043.5 929.1z" class="st2"/><path d="M1001.5 973.1L-42 44v220.8l1043.5 929.1z" class="st1"/><path d="M1001.5 755.2L-42-173.9V46.9L1001.5 976z" class="st2"/><path d="M1001.5 537.3L-42-391.8V-171l1043.5 929z" class="st1"/><path d="M1001.5 319.4L-42-609.7v220.8l1043.5 929z" class="st2"/><path d="M1001.5 101.4L-42-827.6v220.8l1043.5 929z" class="st1"/><path d="M1001.5-116.5L-42-1045.5v220.8l1043.5 929z" class="st2"/></g><g class="st0"><path d="M916.2 1011.7l21.2 35.3 165.9-13 40.2-52.2v-83.3l51.5-29.7-7.6-81.1 12.7-73.3-53.8-5.6-58.6-99.1-44.7-14.3-96.6 70.3-47.5 17.7-38.7 59.3L879 868.6z" class="st3"/><path d="M885.8 762.2l11.8 65.8 28.3 18.5s52.5-27.1 52.5-28.9c0-1.8 46.5-26.6 47-28 .5-1.4 7.7 6.8 7.7 6.8s-.9 33.4 0 31.6c.9-1.8 6.8-35.7 6.8-35.7s-1.4-26.6 0-28.4c1.4-1.8 9.4 1.4 9.4 1.4v29.4l4.3 7.7-4.3 11.7s15.9 15.4 16.8 14.9c.9-.5 29.3 10.8 29.3 10.8s19.9-4.1 19.4-5.9c-.5-1.8 11.7-20.8 11.7-20.8l26.7-7.9 23.5 4.3 3.5-36.1-10.7-6.5v-14.7l-56.6-26.5 22.5-6.9h-59.5l-17.4-25.9-50.6 23.4-58-9.4-33.6 3.7 54.3 7.7s-10.5 4.3-10.2 2.2 29.7 7.6 29.7 7.6l-57.2-5.4s36.8 10 37.5 9.1c.7-1 62.3 4.6 62.8 3.6.5-1 46.3-2.3 46.3-2.3l-31.7 18.3-18.2-6.4-24.7-1.6-119.1 18.8z" class="st4"/><path d="M1008.1 831.7l-46.7 10.2 54.3 2.8s3.6-14 2.8-13c-.9 1-10.4 0-10.4 0z" class="st4"/><path d="M1053.5 753l-4.3 12.2s-1.4 11.4 0 11c1.4-.4 66.6 36.1 66.6 36.1s-9.9 13.8-9.9 14.2-13.5 4-13.5 4l-34.6-22.1s-15.2-3-14.2-5.3-4.8 1.1-4.8 1.1l10.3 9.8 34.9 21.3 11.3 4.4 19.4-5.9s3.2-23.8 5.4-23.2 6.3 2.4 6.3 2.4l26.7-7.9-15.6-36.8 5.9-9.7h22.1l-28.4-22.1-24.4-10.8-20.8-3.1-16.2-3.7s-27.6-21.2-26.3-21.8c1.3-.6-25.1 21.8-25.1 21.8l-25 1.9s34.3 4.3 35.6 4 62.9 4.3 62.9 4.3l-2.2 7.5-42.1 16.4z" class="st5"/><path d="M917.7 871c.5-1 12.3 11.1 12.3 10.1s18 1.7 18.2 0c.2-1.7 12.1-8.1 12.1-8.1s14.9 1 16.1 1c1.2 0 13.7 11.1 13.7 11.1l21.7 38.6 23.4-1.5 5.4-6.9-3.5-20.4s-3.8-8.6-4-9.6c-.1-1 3.9-13.2 4-14.3.1-1.2 5-5.1 5-5.1h7.8s5 23.9 4.7 24.6c-.2.7-2 21.4-2 21.4s17.5 5.2 17.5 4.4c0-.7 22.6-39.9 22.6-39.9l16-2.7 4.4 3.7 18-11.6s-9.8-3.4-9.8-5.2c0-1.7 3.7-8.1 3.7-8.1l-8.4-7.8-28.8 2.9-31.5 5.9-29.3 4.2h-10.6l-13-6.4-46 4.4-39.7 15.3z" class="st4"/><path d="M925 893.3l8 6.4 6.4 61.2 86.6 12.6s4.7-10.2 3.7-9.9c-1 .3-33.2-5.4-33.2-6.4s-19.2-7.9-19.1-8.6c.1-.7 3.3-8.4 3.3-8.4l64.2 7.6s22.4 3.9 21.4 4.4c-1 .5-18.1 13.5-19 13.3s53.4 14 53.4 14l20.6 2.3s3.7-36.8 3.6-36.2c-.1.6-52.7 4.2-52.7 4.2l-3.4-3s56.7-6.9 56.8-7.9l5-49.9-65 42.8-2.5 3.6s-2.7-7-3.4-7.5c-.7-.5-9.9.7-9.9.7s-1.4 15.3-1.4 14.5-6.9-2.3-6.9-2.1c0 .2-1.7-7.3-1.7-7.3l-14.3 1.7s-10.8.1-11.3 0-9.4-6.3-9.4-6.3l-38.3-26.5s-28.6-8.7-28.9-9.4-12.6.1-12.6.1zm12.4 107.1c0-.2 39-14.2 38.9-14.7-.1-.5 94.7 2.7 94.4 1.7s37.9 3.4 37.9 3.4-37.2 23.1-37.9 22.4-89.3 8.9-89.3 8.9-43.1.6-43.1 0-.9-21.7-.9-21.7z" class="st4"/><path d="M919.4 693.7l-38.7 54.1 12.7 120.4 39.5 31.4s7.4 163 6.7 158.1-6.7 35.9-6.7 35.9-33.5 66.9-35.5 64.9-78.3 56.9-78.3 56.9l-83.6 93.7s-36.8 29.4-37.5 27.4c-.7-2-19.4 4.7-19.4 4.7s59.6-137.8 59.6-141.2c0-3.3-4.7-98.4-4.7-98.4l-14.1.7-12-15 15.4-11.4s7-72.3 7.4-73.5c.4-1.2 37.8-9.7 37.8-9.7l4.4-22.9 50.3-6.8 4.8-53.9-13.3-82.9-19.6-62.2-11.7-2-9.3-6-44.6 53.9-115.8 61.9-30.2-7.2-33-49.9s31.4-90.1 31.8-91.3c.4-1.2 10.1-23.3 10.5-24.5.4-1.2 17.3-16.9 17.7-18.1.4-1.2 22.5-52.7 22.5-52.7l26.9-51.5 4.4-37.8 24.9-61.5 21.3-37.4 20.5-18.5 38.2-15.5 47.1-8.2 34.2-5.6s116.4-34.4 116.4-34.5c0-.1-.3 4.7-.3 4.7L917.3 387l-4.6 55.6 6.6 162v89.1z"/><path d="M944.4 156.8l27.3 6.2 22.6 9.9-18.7-1.3-15.7 19.2 2.6 63.2 24.6 66.7 18.2 30 32.9 31.3 22.4 4.8 89.9-6.9-9.3 25.5-69.3 7-30-17.3-34-31.6-23.3-38.6-27.5-72.2-10.8-48.2z" class="st3"/><path d="M1150.5 146.8l-27.5 32.7-5 28.3 4.5 13.6 43.2-32.8 10-38.2z" class="st6"/><path d="M1075.9 368.6l-15.3 18.2 11.3 19.8s13.9 2.6 14.2 1.3c.3-1.3 25.2-8.3 25.2-8.3h28.3l10.8-19.7-18.5-7.2-56-4.1z" class="st4"/><path d="M1183.4 253.1c-.5-3.6 0-87.1 0-87.1l-13.9-48.4-16.5-25.2 16.5 58.2-23.2 22.2-22.4 42.8-11.1 47.4v12.4l2.6 34.5 8.5 43.3s5.9 17 8 19.6c2.1 2.6 18.5 7.2 18.5 7.2l16-12.4s10.8-49.5 10.8-52c0-2.7 6.2-62.5 6.2-62.5zm-223.5-62.3l2.7 63.2 24.6 66.7 18.2 30 32.9 31.3 22.4 4.8 15.3-18.2 6.4-21.1V285l7.9-8-5.1-4.4-9.3-.5s5.9-4.8 6.5-7.7c.6-2.9-3.8-21.1-3.8-21.1l-8.8 16.6-21.3-46-28.4-29.4-25.7-11.8-18.7-1.3-15.8 19.4z"/><path d="M989.7 65.1l48.5-17.5 44.3-3.1 39.1 17.5 31.4 30.4 7.8 25.2-32.5-3z" class="st3"/><path d="M966.9 89.9l22.8-24.8 53.6-9.7h35.1s38.6 16.4 39.1 14.9c.5-1.5 28.8 31.9 28.8 31.9l14.4 15.5 8.8 33-20.1 5.2-21.1 26.8-10.3 25.2 6 7.7-8 32.5-3.1 14.9v12.4l-13.4 9.8-14.4-12.4-9.3-.5-20.1-40.2s-81.9-67-84-69c-2.1-2.1-18 18-18.5 16.5s-9.3-19.6-8.8-22.7c.5-3.1 8.2-47.4 8.2-47.4l14.3-19.6z" class="st5"/><path d="M985.6 84.2l-25.7 24.7 23.6 15.4 18.2 10.5 12.8 14.3 53-25.3 20.1-4.6 22.2 37.1 6.9-4-17.8-42.4 25.1-13.7-12.7-24.4-32.9-16.4-33 4.6z" class="st6"/><path d="M966.9 107.2l52 30 105.1-41-45.6-40.8z" class="st1"/><path d="M1169.5 156.3l6.7 37.1v23.7l-6.7-8.2v9.8l-29.9 25.2 32-18.5 4.5 24.2-3.1 17.5-3.6-10.3s-6.4 17.7-6.4 18c0 .3 6.4-3.8 6.4-3.8s3.1 40.6 3.1 39.3 7.1-59.2 7.1-59.2V181l-10.1-24.7z" class="st7"/><path d="M1130.8 265.8c1.3-1 13.4-10.9 14.7-11.8 1.3-1 14.2-2.9 14.2-2.9l-3 7.3-8.5 10.5-17.4-3.1zM1017 277.1c1.4-.2 14.3-3 15.7-3.3 1.4-.2 14.2 1.4 14.2 1.4l-3.7 3.3-9.5 3.9-16.7-5.3z" class="st1"/><path d="M1115.2 270.9h8.8l4.3-1.9 2.6 5.1s-5.4 3.1-5.2 3c.1-.1-10.5-6.2-10.5-6.2z" class="st8"/><path d="M1128.3 280.8l2.5 10.2-2.5 13.1h11.3l2.1-14-6.7 2.4z" class="st9"/><path d="M1154.1 279.5s-14.6 35.8-14.5 34.8c.1-1-11.4-10.2-11.4-10.2l13.4-14.1 12.5-10.5z" class="st7"/><path d="M1072.7 191.4c1.3-.6 12.1-15.3 12.1-15.3l11.5 2.9 6.4 8.9 5.1-2.2 7.3-9.6 17.2-5.9-17.2 25.7 1.3 25.5h6.1l-3.7 16.2-3.6-2.1-5.1 2.1 5.9 10.4-10-5.8s1 20.4 1 19.5c0-1 6 1.3 6 1.3s-7.6 3.8-7.9 4.8c-.3 1-12.5-.6-13.1-1.6-.6-1-5.7-24.6-5.7-24.6s-9.3 19.2-10.9 18.5-10.5-18.2-10.5-18.2l14.9-8.6s-15.5-16.2-29.4-30.8c-11.2-11.7-21.3-22.4-21.6-22.8-.6-1 28.3 11.2 28.3 11.2l23.6 35.1 7.8-2.2s9.6 19.5 9.6 18.5v-38.6l-25.4-12.3z" class="st10"/><path d="M1090.2 277.1c.8.7-7.9 8-7.9 8h32.9s-2.6-9.1-2.3-9.8-22.7 1.8-22.7 1.8z" class="st3"/><path d="M1075.9 368.6s19.2 29.1 20.9 29.1 23.8-2.9 23.8-2.9l11.3-22.2-16.7-87.6h-32.9v62.5l-6.4 21.1z" class="st5"/><path d="M1093.5 290.4s3.2 39.3 3.4 38c.2-1.3 11.3 2 11.3 0s-6.4-38-6.4-38l-6.7-5.3-1.6 5.3z" class="st6"/><path d="M977.2 182.8c-.3 1 10.2 55.9 10.2 55.9l8.3 7.7-13.7 3.5 2.2-5.4-13.1-15.6-4.9-16.1-3.1-10.2 3.7-15.5 10.4-4.3z" class="st9"/><path d="M983.9 293.9c-.3-1.6-14.1-44.1-14.1-44.1s-3.6-33.2-3.6-37.2 18 31.8 18 31.8l-9 13.1 9 1.3s-2.6 21.1-1.3 20.8c1.3-.3 34.2 10.9 34.2 10.9l-11.5-9.6 27.1 7.3 21.4-12.4 5.1 1.3-30.7 15.4 13.3 4.5s-16.1 12.3-15.2 13.3c1 .9 37 21.4 37 21.4l-15 17.6.6 17.6 15.1 15.5-16.6-9.6-7.4-22.2 3.2-16-11.5-3.5s-19.8-19.7-19.8-20.7c.2-1.2-28.3-16.5-28.3-16.5z" class="st7"/><path d="M1012.4 247.3l14.3 8v-6.7z" class="st8"/><path d="M1045.4 262l21.2 13.1 5.3-6.6-12-.5zm19.1 17.2s2.8 3.7 3.1 5.8c.3 2.1-9.9 8.8-8.9 10.1s10.2-2.7 10.2-2.7 10.2 17.4 10.2 16.4v-16.4l-7.2-7.4v-5.5l-7.4-.3z" class="st7"/><path d="M975.3 257.5l4.2 8.9 4.8-7.6z" class="st8"/><path d="M979.8 279.5l51.5 21.3-1-3.5 11.6-.3-13.3 10.9-15-3.1-14.4-14.3-17.3-3-2.1-8z" class="st9"/><path d="M1025 294.1c-.5-.7 7.8-5.9 7.8-5.9l-27.1-7.3 11.5 9.6 7.8 3.6z" class="st9"/><path d="M963.3 269l.5 4.1 7.7 65.6 36.4 24.8-23.3-38.6z" class="st3"/><path d="M972.1 310.7s20.4 42.4 20.2 42.3-16-10.9-16-10.9l-4.2-31.4z" class="st4"/><path d="M970.9 333.2l-3.1.9-1.5 28 33.3 26.3 39.1 14 13.7-1.2-10.5-6.1-34-31.6-36.4-24.8z"/><path d="M979.8 372.8l33.3 74.9 17.3 29.5 34.1 28.7 29 6.3 17.9-7.4 28.3-9.9 17.3-22.4 2.7-17.4 39.8-1.1-2.9-26.4-8.4-31.7s-29.3-9.2-28.5-7.4c.7 1.8-27.3 29-27.3 29l-53.3.4-50.9-29.4-48.4-15.7z" class="st3"/><path d="M970.9 342.2l1.2 20.5s11.3 10.5 12.1 9.9-2-15.2-2-15.2l17.7 6.1-29-21.3z" class="st11"/><path d="M1166.4 367.5v9.5l21.8 18.9 8.4 31.7s-31.7-31.6-33-29.9c-1.3 1.7-18.3 64.6-18.3 64.6l11.7 10.1V483c0-3.1-26.2.5-26.2.5s-10.8-13.2-11.2-14.5 17.2-45.7 17.2-45.7l-31.2 54.1 9.7 11.9-11.3 2.6-7.1-15.8 28.5-46.3-8.4 1.9-28.6 25.5 15.5-29-35.1-8.4-21.4-17.2 5-1.3 19.5 11.2 69.3-7 9.3-25.5 15.9-12.5z"/><path d="M921.3 388.4l42-15.7 12 5-3.2 16.1-47.3 12.1z" class="st8"/><path d="M919.4 408.3c.3-1.2 61-5.2 60.3-5.8-.6-.6 0-18.7 0-18.7l-6.7-16.3-51.7 21-1.9 19.8z" class="st8"/><path d="M916.8 420.5c0-1.3 45.1 13.8 46.5 12.5 1.4-1.3 10.6-12.5 10.6-12.5l5.9 35.2-16.5 7.5-50.4-20.7v34.1l50.4 26.6-43.9 101.3v89.2h13.2l114.8-81.5 9.5 13.9 11.9-11.6 53.1 96.4 19.7 11.6h52.6l-40.1-57.6-85.3-89.8 24.6-63-29-6.3-34.1-28.7-17.3-29.5-33.3-74.9-13.5-10.7-48.8 24.7-.6 33.8z" class="st4"/><path d="M1000 437.6l13.4 39.5-9.3 5.4 34.2 13.3 11 60.8-20.8 61.2s-59.6 37.1-60.5 35.5c-.8-1.7-42.1-44.6-42.1-44.6l10.8-30.9s43.5-45 43-47.5-16.4-32.1-16.4-32.1 14.9-13.3 16.5-14.6-31.5-14.6-31.5-14.6l7.6-8.8 7.4 3 16.5-7.5 20.2-18.1z" class="st5"/><path d="M999.6 388.4s40.2 90.9 39.3 89.2c-.8-1.7 1.3-18.4 0-20s-39.3-69.2-39.3-69.2zm35.6 29.2s25 66.3 25.4 64.6c.4-1.7 3.9-4.6 3.9-4.6s.5 16.1 0 14.1c-.5-2 17.4-15.8 17.4-15.8l6.5-19s-19.4 22.8-19.4 20.7-10.4-30.9-10.4-30.9 3.2 29.2 3.3 27.5c-.1-1.5-26.7-56.6-26.7-56.6zm18.3 102.2l5 115.9-26.3 54.2-20 20-86.3-7.1 82 13.3 50.6-23.4s7.5-86.3 7.5-87.6c0-1.3-2.1-78.4-2.1-78.4l-10.4-6.9zm81.9 199c-2.6-1.5-56-6.7-56-8s-18.8-14.2-18.8-14.2l15.3 22.1h59.5z"/><path d="M1093.5 512.1l-24.6 63 85.3 89.8s16.2-48.8 15.3-50.2-29.8-119.9-29.8-119.9l-46.2 17.3z" class="st5"/><path d="M1105.5 512.1l-26.2 50.3 33.5 44.4s24.8 19.6 24.8 18.2 23.3-8.9 23.3-8.9l-25.7-70.7v-44.7L1120 512h-14.5z" class="st6"/><path d="M1188.2 395.9l6-7.5 8.5 9.3 8.7 39.9v17.2l-12-.9-2.8-26.4z" class="st9"/><path d="M1251.2 425.8l-48.5-28.1 8.7 39.9v17.2l39.8 46 15.3-8.9z" class="st6"/><path d="M1341 133.1l-138.3 264.6 41.2 23.9L1374 153l-12.7-15.8z" class="st11"/><path d="M1225.3 397.7c-.6-1.7 119.3-247.5 119.3-247.5l16.6-13-15.4-3.1-134.5 260.8 4.5 7.5 9.5-4.7z" class="st12"/><path d="M1238.1 386.8c1.1-2.5 7.2 1 7.2 1l111.5-226-5-5.6-50.3 94.8-63.4 135.8z" class="st12"/><path d="M1220.9 408.3l10-5.8 11.4 5.8s-4.9 11.2-4.3 9.9-17.1-9.9-17.1-9.9zm30.9-26.1l-9.5 20.2 11.1-10.1zm7.4-13.6l1.2 9.4 12.3-25.3-1.8-8.1zm17.4-34.9l1.8 7.7 9.9-22.8-2-5.7zm16.6-33.4l1.8 6.9 13.9-27.7-3.3-7.4zm17.5-37.4c0 1.2 2.7 6.1 2.7 6.1l17.2-34.4-4.8-3.9-15.1 32.2zm23.5-45.8l2.7 3.6 21.7-56zm-209.4 376.6s16.8 26.7 17.7 24.3c.8-2.4 18.6-1.9 18.6-1.9l-10.6 51.1 19 40.4 14.5 11.1-14.5 33.4v14.7l33.2 20.6 31.9 17.7 31.9-21 26.3-30.7 27.7-56.8-14.3-15.9s-16.4-15.3-17.7-15.8c-1.3-.5-7.1 2-7.1 2s-5.9-11.9-7.1-13.5l-1.3-1.6-13.9-3.4-5-34 12.3-48.7-9.4-11.3s15.5-46.6 15.5-47.9-15.5-19.3-15.5-19.3l-25.6-23.1s-15.5-15.8-15.5-14.6c0 1.2-56.3 5.8-56.3 5.8l-2.7 17.4-17.3 22.4 1.6 20.5-18 32.5v9.8l12.8 10.9-11.2 24.9z"/><path d="M1126.5 554.3l8.5 8.7 4.9-18.2 10.1-7.5 27.3 8.9 25.4 1.1 12 10.9-3.3 30.8 3.3 2.7-6 18.5 7.6 7.8-4.9 17.5 4.9 9.3-4.9 7.9v23.7l4.9-3.3v-17.7c0-.8 5.9-11.5 5.7-12.3-.2-.8-4.6-7.9-4.3-8.7.3-.8 6-17.2 5.7-18-.3-.8-6.5-18-6.5-18l5.1.5-1.6-39 9.5-13.4-5.2-13.6-18.5 5.2-6.4-8.2-37.2 7.6-16.4-4.9-9.3 9.6-4.1 5.1-.3 6.5-6 .5z" class="st7"/><path d="M1145.4 508.2c0-1.1 18-13.4 18-13.4l22.1 9.8 6.6-3.8 25.8 21.8h6s9.7 23.7 10.7 22.9c1-.8 13-25.3 12.2-25.8s-13.1-7.5-13.3-7.7c-.2-.1-11.6 5.1-11.6 5.1l-5.8-3.3 1.5-11.4-23.4-18.3-51.3 14.5 2.5 9.6z" class="st7"/><path d="M1196.6 473l-2.4 11.2-48.8 18v-7.4z" class="st9"/><path d="M1202.7 474.4l-57.3 20.4 2.4-3 47.1-21.5z" class="st6"/><path d="M1161 470.3c-.9-.5-1.8 12.3-1.8 12.3l27.8-12.3 7.1-4.1 13.9 8.2 11.5 13.3 16.1 7.2 18.3 17.3-7.1 30.2 15.8-32.8-12.8-16.4-12.5-3.3-15.3-12.3-14-8.1-6.1-3.4-8.7-3.2-12.8 7.4H1161z" class="st7"/><path d="M1163.9 505.2l-17.2 6.9s-21.3 39.1-20.2 38.3c1.1-.8 0 3.8 0 3.8l6-.3.3-6.5 13.4-14.7 16.4 4.9 37.2-7.6-13.4-8.8s-10.1 2.6-10.1 1.3-6.8-9-6.8-9l-5.6-8.3z" class="st9"/><path d="M1162.2 518.7c.4-1.3 7.3-5.1 7.3-5.1v-12.7h-6.3l-5.9 8.9 4.9 8.9z" class="st6"/><path d="M1232.3 514.3l-3.7 7.3s5.2 12.6 6 11.8c.8-.9 6-10.3 6.2-11.1.2-.9-8.5-8-8.5-8z" class="st9"/><path d="M1162 672.7l14.8 10.7h13.1s17.1-24.2 16.5-24.2-2.4-35.3-2.8-36.2c-.4-.9-18.6-12.2-19.4-13.3-.8-1.1 11.7-16.9 12.4-17.6s-1.7-30.8-1.7-30.8 8.2 4.1 7.8 3.2c-.4-.9 1.1-9.2 1.1-9.2l-16.5-2.8h-21.4l-21.4-6.9-13.7 50.2 34.3 12.4-6.9 56.7 3.8 7.8z" class="st7"/><path d="M1161 576.5s-2.3 17.6-1.8 16.9c.6-.6 9.1 11.1 9.2 9.8.1-1.3 3.5-9 3.5-9l-10.9-17.7zm13 40.9c0-.2 20.6 38.8 20.2 39.4s-2.5 19.1-2.5 18.2c0-.9 11.6-18 10.9-18.8-.6-.9-10.7-31.1-10.7-31.1l-17.9-7.7z"/><path d="M1133.9 584s8.4 2.7 9 2.1c.6-.6 4.9-17.1 4.9-17.1l13.2 10.9s20.9-4.4 21.1-5.5c.2-1.1 1.1-5.4 1.1-5.4l11.7-7.7 7.8 3.2 1.1-9.2-16.5-2.8h-21.4s-21.8-4.6-21.4-6.9c.3-2.3-10.6 38.4-10.6 38.4z" class="st9"/><path d="M1147 552.1v7.3s6.7 3.8 6.2 3.6c-.5-.3-.3-10.4 0-10.9s-6.2 0-6.2 0z" class="st6"/><path d="M1196.6 592.1l-24.6 2.2-7 13.9 19.1 1.5zm-4.6 33l12.4 8.8-.9-10.9-19.4-13.3zm-13.9 0c-.6-1.2-14.6-4.7-14.6-4.7l-5.4 44.5 3.9 7.8s5.5 4 5.2 3.8c-.2-.2 13.6-14.9 13.6-14.9l12.6.7.8-5.4-16.1-31.8z" class="st9"/><path d="M1241.9 578s-1.3 55.9-1.9 54.8-5.8-41.1-5.2-41.8c.4-.6 7.1-13 7.1-13z" class="st7"/><path d="M1004.8 509.9l25.3 47-50.6 52.8-63.3-34.5 13.1-46.6z" class="st6"/><path d="M1251.2 425.8l49 29 35 13 19.6 5.3 26.7 21.8 15.4 38.7 19.6 91.6-8.7 50 13.9 96.5s.4 8.2 0 7.8c-.4-.4 7.5 5.7 7.5 5.7l-4.5 12.3-.4 14.7 25.6 33.9-2.6 75.3-1.1 54.9-24.1 18.8s-32.7 10.2-33.9 10.5-40.3-36.1-40.3-36.1l-53.1-30.9-24.1-33.9-11.4-38.4s-6.3-33.1-5.9-34.2c.4-1.1-19.3 44.4-19.3 44.4l-3.7 38h29l5.4 7.1 9.8-3.4 13.5 16.6s6.8 36.9 4.9 36.5c-1.9-.4 7.6 4.4 7.6 4.4s2.9 29.5 3.3 29.9c.4.4-11.4 6-11.4 6l8.2 27-9.2 7.5 15.5 105.2-6.3 10.9s-27.6 12.1-28.2 10.3c-.6-1.7 25.3 77.6 25.3 75.9s-52.9 15.5-52.9 15.5l-18.4-46.6-24.1-33.9-53.5-58.1-29.9-120.7 11.5-115.5 40.2-18.4 9.9-103.3s86.1-120.7 87.4-123 0-16.7 0-19.3-7.5-4.7-7.5-4.7 9.7-5.6 10.3-5.9c.6-.3-4.3-84.7-4.3-84.7l-15.3-104z"/><path d="M1186.6 690l-1.3 8.1s14.4 16.9 14.8 16.3c.4-.6 28.5-12.2 28.5-12.2s-28.9 24-28.1 23.3c.9-.6 30.8-15 31.3-15.9s11.1-14.6 11.1-15.2-31.1 7.9-30 7.5c1.1-.4-12.9 1.7-12.9 1.7l-11.7-7.1-1.7-6.5z" class="st7"/><path d="M1211.4 676.5l36.9-2.7-48.2 30s11-.7 12.9-1.7 46.5-32.8 46.5-32.8l-43.2 4-4.9 3.2zm-17.2 46l-3.6-2.3-14.5 27-2.2 15h8.9l46.9-25.7s22-26.1 21.8-27.2c-.2-1.1 16.7-28.3 16.5-29.1-.2-.9-4.9-5.1-4.9-5.1s-18.6 31.7-18.6 31-18.8 22.3-18.8 22.3-19.7 18-20.3 17.8c-.6-.2-22.5 11.6-22.5 11.6s-1.6-2.1-2.2-2.8c-.6-.6.9-9 .9-9l12.6-23.5z" class="st9"/><path d="M1252.9 620.4s-2.4 33.1-2.4 32.2c0-.9 6.1 6.7 6.1 6.7v-10.9c-.1-1.6-3.7-28-3.7-28z" class="st7"/><path d="M1268.2 680.2l4.4-17.5s-1.9-9.2-2.2-9.2c-.3 0-9.7-1.7-9.7-1.7l2.2 5.7h4.5l.1 6.4-4.3 11.2 5 5.1z" class="st6"/><path d="M1287.9 684l-16.9-28.6 1.6 7.2-4.4 17.5-16.5 29.1-21.8 27.2-46.9 25.7s41.6-13.4 41.6-14.2c0-.8 29.2-17.7 29.8-18s18.3-29.2 18.3-29.2l-13.9 33.1 17.7-25.1s-13.8 32.4-13.3 32c.5-.5 17.6-26.2 17.6-26.2s-14.8 31.6-14 31.3 18.2-24.7 18.2-24.7-14 31.8-13.8 31.3c.2-.5 19.1-27.9 19.1-27.9l-14.3 29.8s19.7-15.2 19.9-15.9c.2-.6 15.6-39.2 15.6-39.6v-10.6s-12.2-4.1-12-4.9-9.1-12.4-9.1-12.4l-4.3 1.6 1.8 11.5z" class="st13"/><path d="M1234 797.3l11.4-6.1 1.8-5.1zm-8.6-4l2.3 1.7 15.2-11.9-2.3-1.4zm-7.2-3.6l3.7 2 14.2-12.1-2.1-1.2zm-7.1-4.6l3 2.6 16.3-12.5-2.5-1zm-5.9-4.2l3 2.1s15.5-11.4 16-11.6c.5-.2-2.3-.9-2.3-.9l-16.7 10.4zm-5.7-4.1l2.6 2.5 14.8-11.1-2.8-.9zm-5.9-4.3s3.8 2.2 3.4 2 6.6-5.8 6.6-5.8h-3.5l-6.5 3.8zm-6.2-5.2l3.1 3.2 4.5-3.2z" class="st7"/><path d="M1292.4 494.8c1.5-.3 12.6 19.5 12.6 19.5s-6.4-1.2-7.5-2.2c-1.1-.9-9.1-11.3-9.1-11.3l-15.7 5.5-4-5.5 23.7-6zm58.9 42c0 1.5 4 24.4 4 24.4s-4.3 4.8-4 4.7-4-5-3.7-5.9c.3-.9 0-15.7 0-15.7l3.7-7.5zm-69.7 8.7s15.2 36 15.9 33.9c.8-2.2-5.7-27.4-5.7-28-.1-.7-10.2-5.9-10.2-5.9zm-4.8 112.1c1-2.1 12.7-17.8 12.7-17.8l-8 27-4.7-9.2zm20.7-.2c-.5-1.2 20.4-13.9 20.4-13.9l11.1-3.7s-6.7-3.9-8.5-4.9c-1.8-1-3.6-2.1-3.6-2.1s8.1-27 8.7-29.6c.6-2.6 15.7-27.9 15.7-27.9l-8 37.3s.6 27.5.9 27.2c.3-.3 15.4 2.8 15.4 2.8l26.2-7.4-18.4 10.6 15 11.6-23.4-8.3-15.4-1.2s3.6 30 3 27.2c-.6-2.8-11.1-23.3-11.1-23.3l-28 5.6zm47 19.1l-6.5 6.5 17.3 20.7zm31.5 102.8c.9-3.8 10.8-51.6 10.8-51.6s16.7 62.2 16.7 60-27.1 2.1-27.5.7c-.4-1.4 0-9.1 0-9.1z" class="st13"/><path d="M1421.7 790l2.8-4.5-13.4-4.2H1371s8 4.6 7.5 4.3c-.5-.3 29.3-1.5 29.3-1.5l13.9 5.9zm2.6 22s-1.7 18.1-2 17.1-17.6-25.1-17.8-26.7-12.7-7.7-12.7-7.7l32.6 43.6 2-23.4-2.1-2.9z" class="st6"/><path d="M1239.9 801.6l13.6 30.4 18.8 51.7s16-2.3 16-3.1-23.2-28.8-23.2-29.6-5.9-19.9-5.9-19.9l39.2 48.4s23-7.4 22.1-8.2c-.9-.8-23.9-54.9-23.9-54.9l14.6-77.5-7.3-8.4-11.2 22.9-26.3 30.7-26.5 17.5z" class="st3"/><path d="M1345.4 858.4c-.5-1.3-41.9-77.5-41.9-77.5l-14.4 40 22.3 54.3s18-6.4 18.5-7.2c.5-.7 15.5-9.6 15.5-9.6z" class="st4"/><path d="M1307.7 725.6c.5.4 48.9 55.4 48.9 55.4l33 19.1-2.9 15.3-15.7 19.9-25.6 23.2-41.9-77.5 4.2-55.4z" class="st5"/><path d="M1338.3 778.4l11.4 18.9 21.3 5.1 15.8 13 2.8-15.3z" class="st4"/><path d="M1371 835.2c1.6-.5 15.7-19.9 15.7-19.9l-28.6-23.6-8.4 5.6 21.3 37.9z" class="st3"/><path d="M1272.3 886.4h16.8l4.6 25.5 51.7 38s14.8 25 15 23.9-52.2-37.4-52.2-37.4l-23.7-23.9-12.2-26.1zm26.2-6.9l32.9 42.5s-24.7-40.2-23.9-41c.8-.8 28.5-11.2 28.5-11.2s43.6 61.2 43.8 60.3c.3-.9-34.4-66.1-34.4-66.1l37.4-39.2s8 7.4 6.8 6.6c-1.2-.8-4 13.4-4 13.4s40.2 47.7 40.8 46.5c.6-1.2-4.2-41.3-4.4-42-.3-.8-35.3-33.9-35.3-33.9l-15.7 19.9-25.6 23.2-15.5 9.7-9.2 3.3-9.2 3.9-13 4.1z" class="st13"/><path d="M1214.8 928.5v7c0-.9-48.7 5.5-48.7 5.5l44.3-14.6 4.4 2.1z" class="st7"/><path d="M1211.6 944.5v5.8S1176 966.9 1176 966v15.7l-6.7-1.7v-14.6s4.7-9.9 5-10.8c.2-.8 37.3-10.1 37.3-10.1z" class="st14"/><path d="M1183.6 978.9l-7.6 2.9v-15.7l9.1-3.7zm47.2-48.8v30.1h5.9v-21.5l14-3h23l5.2 5.3 8.2 93h8.2l-6.2-23.9-6.1-73.2-6.1-8.4z" class="st7"/><path d="M1231.8 921.3c.5-.2 26 1.4 25.7 1.1-.2-.4-12.9 3.4-12.9 3.4h-14.4l1.6-4.5z" class="st11"/><path d="M1245.1 918c.6-.4 8.9 0 8.9 0l3.5 4.3-25.7-1.1 13.3-3.2zm-10.1 12l5.6 3.7s35.5-.1 35.6-1.2c.1-1.1.7-7.4 0-7.7-.7-.4-22.5 1-22.5 1L1235 930zm-1 43.2c.6-.8 10-6 10-6l13.7 79.5s-10.6 6.5-10.8 4.9c0-.4-1.1-6.9-2.6-15.9-3.8-23-10.3-62.5-10.3-62.5z" class="st14"/><path d="M1239.5 1048.4c0-.5 4.4-14.4 4.4-14.4l2.9 17.5-7.3-3.1z" class="st9"/><path d="M1234 973.2l-10-3.5s7.9-5.7 8.8-5.1c.9.6 11.2 2.5 11.2 2.5l-10 6.1z" class="st15"/><path d="M1217.3 975.8l-4.8 5.4 8.4.6s7.6 53.1 7.4 52.2c-.2-.8-4 .8-4.4 0s-8.1-50.1-8.1-50.1l-103.5 6.9-11.7 32.4 29.1 24.7s101-8.5 100.4-9.6c-.6-1.1-.6 7.3-.6 7.3h6.5s2.6-4.8 2.4-6c-.2-1.3-9.5-62.9-9.5-63.8.1-.9-11.6 0-11.6 0z" class="st9"/><path d="M1049.8 1000.4c0-.9 62.6-9.5 62.6-9.5l-11.7 32.4 29.1 24.7s-72.3 11.5-72.5 10.3c-.2-1.3-7.5-57.9-7.5-57.9z" class="st14"/><path d="M1049.8 1000.4l-13.6-7.3s-73.6 13.8-72.2 13.8-5.1 11-5.1 11l10.8 58.2s12.3 12.2 12.7 11.4 66.3-14 66.3-14.9c0-.9 8.6-14.3 8.6-14.3l-7.5-57.9z" class="st16"/><path d="M1035.1 1009.2c.6-1.3 14.7-8.9 14.7-8.9l7.6 57.9s-4.3 8.9-4.5 8.2c-.2-.6-12.1-9.1-12.3-9.9-.3-.8-5.5-47.3-5.5-47.3zm-83.6 8.7s9.5 58.3 10.2 57.9c.6-.4 14.9.9 14.7 0-.2-.9-10.8-57.9-10.8-57.9h-14.1z" class="st17"/><path d="M976.3 1075.7s5.6 4.3 5.6 3.6c0-.7 64.7-13.3 64.3-14-.5-.7 2.3-2.4 2.3-2.4l4.3 3.5-4.1 6-66.3 14.9-12.7-11.4 6.6-.2z" class="st17"/><path d="M951.5 1017.9l-91.3 25.2s42.4 15.6 42.7 15.3c.3-.3-37.4 39.3-37.4 39.3l96.2-21.9-10.2-57.9z" class="st14"/><path d="M893.7 367.8c0-.7-63.3-275.1-63.3-275.1l-25.1-3.4s-19.1 13.2-18.7 14.4 65.8 285.6 66.3 284.7c.4-1 25.9 10.9 25.9 10.9l14.9-31.5z" class="st11"/><path d="M800.6 1059.4s6.9 56.5 6.9 55.4c0-1.1 57.9-17.2 57.9-17.2l37.4-39.3-42.7-15.3-59.5 16.4z" class="st9"/><path d="M812.3 491.9c0-1 44.2-86.1 44.2-86.1l23.7-31.2 43.4-12.6-42.6 58.4s-36.6 77.6-36.6 76.4c0-1.2-12.5-16.1-12.5-16.1l-19.6 11.2z" class="st6"/><path d="M793.4 542.3c0-1.1 18.9-50.4 18.9-50.4l19.7-11.1 12.5 16.1-16.9 41.4-34.2 4z" class="st15"/><path d="M762.2 1098.2c-.1-1-2.5-47.7-2.5-47.7l15.4 11.3 2.1 39 4.7 20.3s-6.5 10.2-6.6 9.7c-.1-.5-6.2-23.5-6.1-23.9.2-.3-7-8.7-7-8.7z" class="st7"/><path d="M800.7 556.9c0-1.2-7.2-14.6-7.2-14.6l34.2-3.9 2.4 16.5-29.4 2z" class="st9"/><path d="M923.7 362.1l16.1 5.4-22.9 10.8-30.6 51.2-23.7 43.3-18.1 41.5-2.4 5.5v9.3h-6.4l-5.7 25.8-2.4-16.5 16.9-41.4 36.6-76.5z" class="st9"/><path d="M908.7 437.6c.7-.7 2.9-17.9 2.5-19.2-.3-1.3-12.2-10.2-12.2-10.2l-6.9 11.6 16.6 17.8z" class="st7"/><path d="M809.6 98.3l-8.5 7.6s60.7 282.7 61 282.6c.4-.1-9.2 0-9.2 0L793 105.8l8.9-9.5 7.7 2z" class="st12"/><path d="M825.3 100l-10.6 11 8.5 6.6 8.5 52.6s7.2 3.6 6.8 0c-.4-3.6-10.8-57.5-10.8-57.5l-5.3-4.7 5.3-3.8-2.4-4.2z"/><path d="M871.1 372.8c.8-1.4 4.2-9.3 4.2-9.3L825 114.2l-10.3-3.2 56.4 261.8z" class="st12"/><path d="M755.9 1033.4s1.8 21.2 2.4 20.9 8.3 10.2 8.3 10.2l9.5-2.8s6.4-2.6 6.4-2.9-7.9-26.9-7.9-26.9-10.3 4.1-10.4 3.6-8.3-2.1-8.3-2.1z" class="st18"/><path d="M856.5 249l5.6 3 5.9 34.4s-6-2.4-5.8-3c.3-.6-5.7-34.4-5.7-34.4zm8.9 42.7l5.2 2.4 6.6 33.4-5.9-4.6zm8.6 39.6l5 3.7 4.7 23.9-6.5-3zm-19.1 2.9c.8 0 5 2.8 5 2.8l6.8 30.5-5.9-4.8-5.9-28.5zm-7.7-31.6c0 .6 5 25 5 25l6.4 3.8-5.7-27-5.7-1.8zM836 250.4l8.3 36s6.4 3.6 6 2.8c-.4-.8-6.8-34.4-7.1-35-.4-.6-7.2-3.8-7.2-3.8zm9-53.7c1.4 1 5.3 27.8 5.3 27.8l7.8 5.2-7.8-33H845z"/><path d="M730.8 618v24.6s12.5 38.6 12.9 37.1c.4-1.5-4.5-35.9-4.5-35.9s7.6 24.6 7.9 23.5c.4-1.1-4.9-34.8-4.9-34.8s9.5 25.7 9.5 24.2-4.5-34.1-4.5-34.1 9.8 27.3 9.8 26.3-1.9-26-1.9-26 8.7 26.2 8.7 26c0-.2-2.6-22.6-2.6-22.6s9.5 23.9 9.5 22.6v-22.6s6.4 29.9 6.8 28.8c.4-1.1 0-21.9 0-21.9s10.6 33.3 9.3 31.8-4-28.8-4-28.8 11.3 43.1 10.8 41.6-4-28.9-4-28.9l17.8 65.6 43.2 24.9 6.8-31.7-1.5-19.7-5.6 3.3-1.2 27.5s-5.7 11.2-6.1 9.7c-.4-1.5-31.1-20.8-31.1-20.8L790 597.9 730.8 618z" class="st11"/><path d="M808.4 597.9v-5.3l-12.5-3.4-65.1 28.8v17.8l4.9 4.5 50.3-25.5 25.7 92.9-21.9-109.8 7.9-4.6 10.7 4.6z" class="st9"/><path d="M735 622.5s2.6 11.4 2.3 10.2c-.4-1.1 48.8-20.8 49.2-21.9.4-1.1 0-11.7 0-11.7L735 622.5z" class="st6"/><path d="M797.4 561.6c.4 1.1-1.5 27.6-1.5 27.6l6.1 1.7v-23.6l23.8-2.6 4.2-9.7-29.4 2-3.2 4.6z" class="st11"/><path d="M808.4 592.6l17.4-28-23.8 2.7v23.6z" class="st15"/><path d="M963.3 433l10.6-12.6 5.9 35.2-16.5 7.5-50.4-20.6 3.9-22z" class="st3"/><path d="M919.4 693.7s6.1-5.3 6.5-6.1c.4-.7.8-72.8 1.8-74.4 1.1-1.6.9-12.4 1.2-13.2.3-.7 8.1-2 8.3-2.8.2-.7-1.2-13-1.2-13s16.5-3.9 16.7-4.5c.2-.5 9.7-18 9.7-18l16.7-14 6.2-22.4-22-27.4-5.1-25.1-9.9-4.1 7.6-8.8-3.5-18.3-21.6-8.7-4.9 9.4s-14.2 40.2-13 34.1c1.1-6.1-26.9 1.1-26.9 1.1s-23.3 13.8-23.3 14.1c0 .3-20.5 37.4-20.5 37.4l-35.4 86.8 19.1 60.4 93.5 17.5z"/><path d="M917.1 476.2l4.2 1.5 13.3-37.3z" class="st7"/><path d="M881.4 484.5l6.3-3.6 10.2 4.5 47.5-7.4 3.1 3.9 5.6 7v13.3S942 492 941.7 491.9c-.3-.1-49.7-1.8-49.7-1.8l-10.6-5.6z" class="st9"/><path d="M892.1 490.1l33.8-3.4 22.7-4.9 5.6 7.1v13.3l-12.4-10.4z" class="st8"/><path d="M864.8 494.2l10.3-5.2 16 6.8 19.5-1.2 29.2.3 1 15z" class="st9"/><path d="M860.5 504.8c.2-.5 4.3-10.6 4.3-10.6L898 501l42.8 8.8 7.5 50.4s-10.9-45.9-10.9-46.4S939 562 939 562l6.7 2.5s-7.9 4.5-9.2 3.7c-1.2-.8-1.9-47.4-2-47.8-.2-.5-23-7.7-23-7.7l-32.3-1.2-18.7-6.7z" class="st19"/><path d="M854.3 507.1l-3.9 7 14.4 1.4L876 522l47.2 17.9s10.8-10.4 10.5-11c-.3-.6-2.4-4.2-2.4-4.2l-23.2-8h-30.2s-15.3-8.8-15.6-9c-.5-.3-8-.6-8-.6z" class="st9"/><path d="M850.4 514.1s-7.9 14.3-7.5 13.5 10.1-3.3 10.1-3.3l10.2.6 9.3 8.3s51.7 21.8 51.5 21c-.2-.8-.9-14.4-.9-14.4l-46-15-12.3-9.3-14.4-1.4z" class="st19"/><path d="M838.7 537.4l13.5-10 14.5 8.3 48.2 21.2-9.3 9.7-18.4-3.2-31.8-19.7-5.9-5.3z" class="st9"/><path d="M855.4 543.7l1.8 22.9-9.2 2.5-5.1 6.1-10.7-1.1v-9.5l6.5-27.2 10.8 1z" class="st8"/><path d="M799.1 624.6l6.9 33.9 13.8 31.8 13.4 17.3s4.5-1.4 4.6-1.9c.2-.5 3.5-18.7 3.5-18.7l-9.1 9.9-11.4-15.2-12.2-23.8 1-11 12.6 14.7 22.4 23.2 15.8-2 11.8-9.7v-7l-15.2 13h-12.5L822.6 657l-1.1-15.5 12.5 14.6 13.4.6 22.4-20.6-7.2-46.9s-9.1 10.5-9.1 9.9c0-.7-.5-21.6-.5-21.6l-5.1-8.3-5.1 6.1-10.7-1.1 1 27.5-16.8 35.8s2.2-39.5 2.6-40.3c.4-.8 10.3-20.8 10.3-20.8l-14.4 19.5-9.5 23.1s2.9 16 2.6 15.5-5-13-5-13l-3.8 3.1z" class="st7"/><path d="M832.2 574.1l10.7 1.1 5.1-6.1 9.2-2.5-1.8-22.9-5.9-5.3-10.8-1-6.5 27.2z" class="st7"/><path d="M821.1 633.9c.2-.5 1.1-27.2 1.4-28.2.3-1 9.6-18.9 9.6-18.9V574l10.7 1.1 5.1-6.1 5.1 8.3.5 21.6 9.1-9.9 6.8 44.1s-16 3.8-15.9 3.1c.2-.6-10.2-14.2-10.2-14.2l-4.7-3.8-8.7 4-1.5 10.4-7.3 1.3zm-12.6-12.3c-.2-.6.8-5.6.8-5.6l6.6-3.8.4 25.3 5.7 9.4.7 10.3-2.3 2.4-11.9-38zm-9 5l2.5-1.4 4.7 14.6 2 18.1z" class="st9"/><path d="M904.4 569.1l-5.5 6.1 7.6 3.4-2.1 25.6s8.1-15.5 8.4-16.2c.3-.7 3.3-12.8 3.3-12.8l-11.7-6.1zM892 585.2l-1.8 10.2-6.5-1.8z" class="st19"/><path d="M879 610.4c.2.7 1.2 5.5 1.2 5.5s23.3 4.9 24.2 3.9c.9-.9 6.9-.5 7.2-1.9.2-1.4 4.6-16.6 4.6-16.6s-10.4 12.9-10.4 12.2c0-.7-22.4-1.5-22.4-1.5l-4.4-1.6zm2.6 21.5c.7-.2-4.8 30.5-4.8 30.5l19.2-12.9s15.1-12.6 15.3-13.6c.2-.9 4.8-14.1 4.8-14.1l-6.5 5.5-8.5.7v12l-17.5 10.9-2-19z" class="st19"/><path d="M769.8 733.2c.9-.2 24.2 25.4 24.2 25.4s6.1-1.7 5.1-2.9c-1.1-1.2-29.3-22.5-29.3-22.5zm32.1 18.7c0-.7 3.2-2.3 3.2-2.3l-28.4-28.9 25.2 31.2zm8.8-3.9c-.7-1.4 3.5-3.5 3.5-3.5L794 723.8l16.7 24.2zm9.2-5.3l8.1-3.3-13.8-9.6 6.9 9.6-14.4-10.5z" class="st9"/><path d="M806.7 776.2l13.6 56.2 36.9 64.8v5.3s-13.5-4.9-13.5-6.6-19.7-49.2-19.7-49.2l2.1 26.3 21.7 58.3 3.9 14.4 2.7 7.8-26.4-11.2 23.7 16.8 24 8.2-47.7-11.9 49.8 24.6-49.8-18 29.2 18v37.8s34.1 12.6 33.7 11-2.9-34-2.9-34 24 7 22.9 4.5-3.6-30.8-3.6-30.8l25.4 4.5-27.5-12.3s-3.3-20.5-4.5-21.7-28.1-29.1-28.4-30.4-12.2-55-12.2-55l-36.5-30.4-16.9-47z" class="st7"/><path d="M833.9 835.9c.9.6 13.7 35.8 13.4 34.5-.3-1.2 16.5 17.3 18.4 16.8s-8.5-31.1-8.5-31.1l-23.3-20.2zm62.6 107.7s8.1 20.8 6.4 19.9c-1.7-.9-39.7-10.3-40.3-12.8-.6-2.5-30.5-70.6-30.5-72.2v-10l11.7 27.4 9.8 21.5 42.9 26.2z" class="st9"/><path d="M907.3 968.5l-2.8 4.9-60.5-19.8s32.8 5.3 33.8 5.9c.9.5 29.5 9 29.5 9zm-50.1 16.8l31.2 14.4s.6 7.5.5 6.5c-.1-1-31.7-14.4-31.7-14.4v-6.5z" class="st6"/><path d="M789.1 973.4c.9 0 8.1 4.7 8.1 4.7l25.5-2.3v-7.9l-33.6 5.5zm-11.8 3.2c.9-.3 21.7 10.6 23.3 10.6 1.6 0 6.9 11.5 6.9 11.5l-.8 19.2s5.4-12.1 5.4-13.3v-14.3l-8.6-5-21.3-12.3-4.9 3.6z" class="st15"/><path d="M777.3 990.9c0-1.6-.2-9.1 0-9.4.2-.4 4.9-2.8 4.9-2.8l-4.9-2-3.2 1.6s-1.2 18.4-1 17.3c.2-1.2 4.2-4.7 4.2-4.7z" class="st7"/><path d="M741.8 1018.4c.1-.5 0-10 0-10l12.6-6.8 29.7-4.9 5.6 15.8 1.7 20.9-3.7.6-5.5-32-25.9 3.2-11.5 5.4-3 7.8z" class="st15"/><path d="M788.6 1045.9c0-.8-.8-12-.8-12l3.7-.6 1.1 11.8-4 .8zm-52.9 13.3c.2.5 1.5 23.9 1.5 23.9l-4.1 2.4s-2.7-5.6-2.9-6.5c-.2-.9 0-12.1 0-12.1l5.5-7.7zm-13.8 24.6l-1.9 4.9 4.7 4.1h7.2s4.3 2.3 5.3 1.7c1-.7 10.5-9 10.5-9v9.1l-4.8 9.4-8-7.7s-12.5 1-12.7.5c-.2-.5-6.2-6.1-6.2-6.1l.7-5.2 5.2-1.7z" class="st7"/><path d="M741.8 1097.1l-4.6-2.7s6.5-9.9 6.5-10.7c0-.8-1-60.6-1-60.6l5 25v37.4l-1.7 8.4-4.2 3.2z" class="st15"/><path d="M751.2 1036.8c.2.5 6.8 58.6 7.1 61.1s.4.5.3 2.5c-.2 2 .2 2.3-.2 2s-3.8 10.4-4.3 11.2c-.5.9-2.9-76.8-2.9-76.8z" class="st7"/><path d="M753.7 1176.7c0-1.2 4.9-11.7 4.9-11.7l-2.7-73-1.9 21.7-.3 63z" class="st15"/><path d="M737.2 1107.5s4.7 92.6 4.5 92.6c-.2 0 10.4-17.9 10.4-17.9l-4.3-50.3-3.1-9.7s-1.3 24.6-1.3 23.9-6.2-38.6-6.2-38.6zm12.5 87.9v4.7l8.6-4.7 42.4-2.9zm-11.3 22.5c.5-.5 9.5-4 11.4-4.8 1.8-.8 34.9-6.3 34.9-6.3l-34.1 3-12.2 8.1z" class="st7"/><path d="M827.6 408.3l-13.7 12.2-18 6.8s10.6 2.4 10.8 2.3c.3 0 23.3-4.3 23.3-4.3l8.7 7.8-4.6 6.6-13-2.1-12.6 12.3-23.9 18.7s-3.3 39.1-3 38.5c.3-.6-6.2-15.6-6.2-18.1s4.6-40 4.6-40l1.2-6.8-8.5 10.3 3.1-9.7-16 15.8 7.5-17-18.5 21.1 9.5-19.9s-18.5 19.4-18 18.5c.5-.9 11.6-20.6 11.6-20.6l-16.9 17 6.3-15.7s-15.6 14.4-15.1 13.7 8.9-15.9 8.9-15.9l-22.6 24.6-14.7 29.7-6.9 25.4V551l18 1.4-18 4.4 26.3 7.7-32.7 4.5-21.8 35.5-14.9 30.1-2.8 28.6-8.8 6.6-17.3 6.2 2.1-16.3 20.6-39.5 15.6-26.7 21.8-31v-5.6h-6.2l2.6-25.2 7.1-17.6 31.7-68.3s24.6-18.5 24.8-19.2c.3-.7 88.6-18.3 88.6-18.3z" class="st11"/><path d="M841.7 405.9l-27.8 14.6-14.4-7.3-17 9.8 17 12.4-10.9 9.6-11.8-4.6-6.9-10.8-34.9 3.5-24.1 26.1L693 497l-9.6 40.4 4.8 21.4-10.5-17.6 4.8-27.2s20.6-52.5 21.2-55.6 10.5-16.7 10.5-16.7l20.7-18 36.3-14 44.4-7.9 26.1 4.1z" class="st6"/><path d="M807.7 433.1h5.2s-28.7 33.6-29.9 33.3c-1.2-.2 0-5.2 0-5.2l24.7-28.1z"/><path d="M821.1 429.5c1 .6 7.4 3.5 7.4 3.5l-7.4 4.5-12.6 12.3-8.5-1.8 21.1-18.5zM622.9 666.6s6.9 2.5 7.3 2.1 4.5-3.3 4.5-4.7 3.5-23.9 4-25.1c.5-1.2 21.1-42.8 21.5-43.8s25.6-29.8 25.6-29.8l-6.9-2.8-21.8 31-23.2 48-11 25.1zm1.9 12.7v9l-20.3 15.9-10.9 20.6-6.6 22 16.8-3.1s22.7-15.9 23.2-16.6c.5-.7 1.4 5 1.4 5l-60.6 67s-8.8 19.4-9.5 18.7-3.3-7.8-3.3-7.8 30.5-67.7 30.8-68.6c.2-.9 9.5-33.6 9.5-33.6l17.3-20.1 12.2-8.4z" class="st6"/><path d="M626.2 693.3l-1.4-5-17.7 9.9-12.1 15.7-11.1 38.3-25.6 65.5 26.3 43.3s29.6 8.5 29.6 7.1 94.4-57.5 94.4-57.5l-73.8 35.7s-31.9 5.9-31.9 5c0-.9-11.1-2-11.1-2v-3.9l55.8-31.9 22.5-23.4 14.2-2.6-14.9-12.8 2.8 9-11.4-5.4 5 10.8-12.5-8.8s6.6 14 5.9 13.3c-.7-.7-14.3-8.3-14.3-8.3l5.3 13-11.1-8.3 3.8 12.5-9.3-7.3 3.9 14.2-12.5-9.5s3.1 15.4 3.5 14.7c.5-.7-9.5-9.7-9.5-9.7s4 14.9 4 14c0-.9-10.6-9.2-10.6-9.2l4.3 13-11.8-11.1 2.8 15.6-6.2-7.8s-.5 10.6-.2 9.7c.2-.9-4.7 2.4-4.7 2.4l-4.7-4.7-10.9 4v-5h-3.3l-11.1-13.3 6.2-15.1 62.2-69.8-1.3-5.7-6.5 5.2-33.4 15.4 5.7-22 10.4-16.3 16.3-10.9z" class="st7"/><path d="M629.5 677.9l1.6 18.4 2.3 25.6 1.3 5.7 19.6 27.9 14.9 19.2 14.9 12.8s32.2 14 32.2 13.3 27-17.3 27.4-18.2c.5-.9 27.4-30.6 27.4-30.6l-22-35.9-17.5-40-3-29.3-99.1 31.1z" class="st3"/><path d="M676.2 690.5l-45 5.9-1.7-18.5 89.2-26.5 2.2 88-36.7 48.1-14.9-12.8-34.6-47.1z" class="st4"/><path d="M634.3 679.3v6l16.8-3 62.2-22.1-71.9 17zm82.6-10.6v36.2l-46.7 39.3-17.6 7.7-13.7-18.7z" class="st5"/><path d="M730.8 750.8l1.7 13.3s-22 12.7-21.1 12.2c.8-.6 19.4-25.5 19.4-25.5zm-32 42.9c-.3-.1 36.5-21.4 36.5-21.4l-20.6 21.4-6.2 4.1-9.7-4.1z" class="st4"/><path d="M947.5 826.4c-.7-1.3-61.6-64.3-61.6-64.3l69.5-21.4s46.5-2 47.4-3.6c1-1.6 26.4 0 26.4 0l7.8 10.2s-7 4-6.8 3.9c.2-.1-11.5-7.3-11.5-7.3s-14.5 14.9-13.5 14.9 13.3 35 13.3 35l-40.1 23.7-14.7 8.9h-16.2z" class="st5"/><path d="M963.9 776.2c-.7-1.8-13.5-22.4-13-24.4.5-2.1 43.4-13.3 43.4-13.3l10.5 10.9-1.3 17.5 15 27.1s-7.4 4.9-6.9 4.1c.5-.8-15.6-28.3-15.6-28.3l-32.1 6.4z" class="st6"/><path d="M1089.8 841.3c-2.7-1.6-32.5-9.6-32.5-9.6h-46l-6.6 13.1h10.9l66.9 1.7 7.3-5.2zm-128.4 19.6l17.1 8.6 15.8 13.1 14.9 29.3 25.9-3.5-8.4-31.7 6.3-8.1 4-2.8-1.9-3.4-13.1 2.7-12.5-2-8.1-9.3zm76.9-.2c.7-.7 16.7 3.2 16.7 3.2s20.7-2.6 20.7-3.3 9.1-3.8 9.1-4.6-2.2-4.4-2.2-4.4l-21 4.7-23.3 4.4zm-73.1 97.9c-1-2.2-32.2-59-32.2-59l4.7-6.5s31.7 2 32 1.2c.2-.7 37.2 29.3 37.2 29.3l-5.2 10.1 12.6 1.6 22.8 4.5 6 5.2s-33-3.7-33.5-5.4c-.5-1.7-26.6-.5-27.1-1.7s-9.4-9.8-10.1-10.1-8.4 8.9-8.4 8.9v14c0-1 24 9.8 24 9.8l39.8 8.8-1.8 4.1-86.6-12.6 25.8-2.2zm175.8-74.4c-.1.1-10.4 4.7-10.4 4.7s-1.8 18.5-1.7 17.3-9.8-3.2-9.8-3.2l-14.9 11.1-19.4 5.1-9.4 12.4-12.3 3.8 4.4-10s20.2-12.8 20.2-13.5c0-.7 34.2-27.7 34.2-27.7h19.1zm-91.2 63.4l9.4-7.7 66.4-1-56.8 7.9z" class="st5"/><path d="M1059.2 957.4l32 19.7 9.5 2.5 20.6 2.3 2.3-22.7s-19.1-.1-19.4-1.8-7.9-7.3-7.9-7.3l-37.1 7.3z" class="st4"/><path d="M983.2 998.2c-.2-.7-6.8-12.6-6.8-12.6l40.5.9s2.7 15.2 2.4 13.8c-.2-1.3-36.1-2.1-36.1-2.1z" class="st5"/><path d="M678.7 1341.3L646 1451.1s5.8 0 15.7-.1c55.7-.4 241-1.8 241.2-3.8.3-2.4 64.9-114.8 63.7-118-1.3-3.1 27.8-37 27.8-37l40.8 7.9 45 62.1s37 94.4 34.6 94.4 115.1 0 116.1-3.1c1.1-3.1 26.8-151 26.8-151l-12.6-38.7-18.4-46.6-24.1-33.9-53.5-58.1-19.1-77.2-72.5 10.3-8.6 14.3-66.3 14.9-6-11.7h-14.7l-27.4 9.6-1.3 8.4-35.5 64.9-78.3 56.9-83.6 93.7-37.5 27.4-19.6 4.6z" class="st3"/><path d="M917.7 1287.1c-.4-2.5-37.1 70.2-37.1 70.2v31l4.1 59.8-223.1 2.7 36.5-114.4 37.5-27.4 83.6-93.7 41-27.5h33.3l-20.8-11.3L890 1164l48.8 56.3s19.4 35.9 17.7 34.7c-1.8-1.2-30.6-27.1-30.6-27.1l-27.1-27.9 7.7 27.9 15.3 29.4-4.1 29.8z" class="st4"/><path d="M733.7 1324l14.1 34.7s.9 26.5 0 24.7c-.9-1.8-26.8 67.5-26.8 67.5h40.6l27.1-30.4 5.3-11.8s52.4-40 53-41.8c.6-1.8 74.8-109.5 74.8-109.5l-10.8-17.7-33.4-33h23l-1.8-6.7-22.4-12.1h-16.2l-41 27.5-83.6 93.7-1.9 14.9z" class="st20"/><path d="M744.6 1334l16.9 27.7-5.3 23.6-35.3 65.7 17.5-.6s37.2-63.9 36.9-65.2c-.3-1.3 18.3-5.1 18.3-5.1s11.9 3.2 11.9 2.2 34.7-27 34.7-27l55.9-88.6s8.1-14.2 11.5-20.6c3.4-6.4-38.9-33.8-38.9-33.8l8.9-5.6h17.6c-.5 0-5.6-6.7-5.6-6.7l-15.2-7.5-18.6 3.8 4.5 10.4H844l-29.5 20.8-59.3 80-10.6 26.5z" class="st21"/><path d="M897.5 1158.6l39.9 18.1 9 15.8-51.2-22.5-5.2-6z" class="st20"/><path d="M910.9 1134.3s60.3-36.3 61.9-37.2c1.7-.9 79.9-13.3 79.9-13.3s28.8-7.7 30.5-7.7h55.8l14.7 54.3-29.9 9.3 17 9.8 28.8-1.8 10.1 11-19.2 5.5s10.5 6 9.2 5.3 15.1-5.3 15.1-5.3l17.7 19.2s-80.8 56.7-80.8 55-20.9 5.1-20.9 5.1 25.4-32.7 25.9-33.8 25.9-29.3 25.9-29.3l-22.7 5.1-29.1 42.8-57.5-21.4-70.4 36.6-26.5-50.8-9-15.9s-10.2-25.8-10.2-27.4-21.7-5.3-21.7-5.3l5.4-9.8z" class="st4"/><path d="M951.8 1120.5c2.5-2.3 31.2-25.3 31.2-25.3l63.2-7.8-2.4 100.5v12.1s-5.7 6.1-8.8 3.2c-3.1-2.8-36.1-39.3-36.1-39.3h-29.3l-17.8-43.4zm112.3 27.6c.6 2.3-14.4 48.2-14.4 48.2l11 10.4 30.2 17.4s12.1-5.7 12.1-6.2 31.6-46.7 31.6-46.7l3.9 5.5 22-12.6 19.2-5.5-10.1-11-28.8 1.8s-27.3 34.2-26.1 32.5-14-23.3-14-23.3l-24.2-11-12.4.5z" class="st20"/><path d="M1140.2 1456.5c-.6-2.3-16.9-52-16.9-52v-41.1l39.4-53 28.2-106.3 18.7-10.8 17 23.9 18.4 46.6 12.6 38.7 71.4 60.4 20.8 87.9c0-.1-208.2 10.8-209.6 5.7z" class="st4"/><path d="M1297.9 1248.2l31.1 114.6-71.4-60.4-12.6-38.7z"/><path d="M1202.4 1211.8c.3 0 15 17.5 15 17.5l42.8 90.2 7.9 63.7-10.5 47.9-8.6 26.9s-79.7 1.5-79.3 0c.4-1.5-11.4-68-11.4-68s-23.4-42-21.7-44.2c1.6-2.2 3.1-14.5 4.3-20.1 1.1-5.6 33.8-78.9 34.4-82.2s6.8-22 7.3-23.7 19.8-8 19.8-8zm-66 0c-.2-2.4 51.7-41.6 51.7-41.6h-11.4l-50 39.4 9.7 2.2zm-3.5 12.4c.8-1.8 20.2-9.5 21.9-12.4 1.7-2.8 40-31.1 38.8-31.5-1.3-.4-26.6 13-26.6 13l-34.1 30.9z" class="st20"/><path d="M1279.2 1040.2l16 105.5-10.8 11.4-21.5-6.2 5.1 8.8 11.1 3.7s19.3-5.6 19.3-7.5c.1-1.9 4.4-10.2 4.4-10.2L1283 1034l-3.8 6.2zm11.2-58.4s3 23.4 3.4 22.2c.4-1.2 5.4-1.2 4.8-2-.6-.8-3.2-20.8-3.2-20.8l-5 .6zm-120.7 72.5l-6.4 44.4 14.3 19.2v34.6s15.3 19.5 16.1 17.6c.8-1.8.7-66.9 0-68.4s-8.5-7.5-8.5-7.5l48.9-22.6-38 4.4-19.9-24.2-6.5 2.5z" class="st7"/><path d="M1173 1098.7h6.7v59.9h10.7c.2 0-5.3-72.3-5.3-73.4s11.6-3.4 11.6-3.4l19.9-5.8s-14.1-2.9-14.4-4-8.7-13.7-8.7-13.7l-7.1-6.8-10.5.2-2.9 47z" class="st14"/><path d="M771.3 545.6l5.5 34.2 13 18.1-29-17.7 12.8 18.9-35.4-20.5 15-3.4-17.9-10.3 36 8z" class="st7"/><path d="M1040.5 211.8l9.8-9.4s21.3 22.4 21.6 22.7c.3.3-7.2 16.7-7.2 16.7l-16.3-27.8-7.9-2.2zm218.9 237.4l4.9 11.7 37 17.3s-9.3 8.6-8.3 7.7c.9-.9 24.4 0 24.4 0l-2.8-9.3 28.4 7.6 24.7 26.4 19.1 48.4 5.2 27.2v26.5l6.8-20.6-6.8-46.6-19.4-42.9-28.1-23.5-32.1-13.6-53-16.3zm132 327.6c.9-1.2 9.7 3.3 9.2 1.7s-13.8-50.7-13.8-50.7l4.6 49zm42.1 131s-28.8-79.5-29-79.7-33.5-25.7-33.5-25.7l32.4 44.8 7.7 25.2 22.4 35.4zm-337.8-171.4l-32.6 22.2 37.6 33.4 34.7 13.1 2.2-36.8 5.9-9.7-24.3-20.1zm-161.1-296s-14.2 38.2-13.3 37.3c.9-.9 8.3.9 8.3 0s13-31.5 13-31.5l-8-5.8zm1.1 40.5c.5-.2 9.8 0 9.8 0l1.9 2.6s-21.3 3.8-21.5 3.2 9.8-5.8 9.8-5.8zm-31.3 18.5c.7-.6 3.3-1.5 3.6-2.5.3-1 31.2 1.2 31.2 1.2l1.6 11.7s-39.4-7.4-39.4-7.7c.1-.3 3-2.7 3-2.7zm-41.2 12.2c-.1.6 13.9 13.2 13.9 13.2v3.4l37.9 13.1 14.2-12.6-39.5-9.9-8.4 2.7-15.3-8.2-2.8-1.7zm9.1 36c.5-.4 5.3-4 5.3-4l30.4 14.2s-3 7.6-3 6.7-32.8-13.6-32.6-14.1c.1-.3-.1-2.8-.1-2.8zm-38.2 33.7l5.9-3.4 9.3-.8-7.6 6.3-7.6-.7z" class="st6"/><path d="M785 1050.6l12.2 79.8s9.4-.3 9.4-1.9c0-1.7.8-13.6.8-13.6l-6.9-55.4-1.9-12.5-13.6 3.6z" class="st15"/><path d="M774.5 1050.6H785l12.2 79.8s-11.4 1.1-11.4 0-11.3-79.8-11.3-79.8z" class="st9"/><path d="M1035.1 1300l28-16.6 12.6-35.2 25-20.1 26-18.6-26 33.8-19.8 11.5-11 32zm-40.8-7.8l-27.8-39.9-16.8-11.5 6.7 14.3z"/></g></g></svg>