<svg xmlns="http://www.w3.org/2000/svg" id="Layer_1" viewBox="0 0 1000 1000" width="1000" height="1000"><style>.st0{fill:#231f20}.st1{fill:#303030}.st2{fill:none}.st3{fill:#596ab2}.st4{fill:#fff}.st5{fill:#413e38}.st6{fill:#596bb2}.st7{fill:#535353}.st8{fill:#8bd0d0}.st9{fill:#95999a}.st10{fill:#535453}</style><path d="M2.8 214.2h57.7v204.1H2.8z" class="st4"/><path d="M66.4 424.2H-3.1V208.4h69.4v215.8zM8.7 412.4h46V220.1h-46v192.3z" class="st7"/><path d="M2.8 532.8h57.7v204.1H2.8z" class="st4"/><path d="M66.4 742.7H-3.1V526.9h69.4v215.8zM8.7 730.9h46V538.6h-46v192.3z" class="st7"/><path d="M292.9 933.5h101v57.2h-101z" class="st4"/><path d="M399.8 996.6H287v-69h112.7v69zm-101-11.8h89.3v-45.5h-89.3v45.5z" class="st7"/><path d="M643.2 933.5h101v57.2h-101z" class="st4"/><path d="M750.1 996.6H637.3v-69H750v69zm-101-11.8h89.3v-45.5h-89.3v45.5z" class="st7"/><path d="M964.4 933.5H72.5c-6.6 0-12-5.4-12-12V29.6c0-6.6 5.4-12 12-12h891.9c6.6 0 12 5.4 12 12v891.9c0 6.6-5.4 12-12 12z" class="st8"/><path d="M964.4 951.1h-892c-16.3 0-29.5-13.2-29.5-29.5v-892C42.9 13.2 56.1 0 72.4 0h892C980.7 0 994 13.2 994 29.5v892c0 16.3-13.3 29.6-29.6 29.6zM78.1 915.9h880.7V35.2H78.1v880.7z" class="st7"/><path d="M518.4 504.8c-79.3 0-143.8-64.5-143.8-143.8s64.5-143.8 143.8-143.8S662.2 281.7 662.2 361s-64.5 143.8-143.8 143.8zm0-228.9c-47 0-85.2 38.2-85.2 85.2s38.2 85.2 85.2 85.2 85.2-38.2 85.2-85.2-38.2-85.2-85.2-85.2z" class="st7"/><path d="M489.1 475.5h58.6v259.7h-58.6z" class="st7"/><path d="M426.8 532.1H610v58.6H426.8z" class="st7"/><circle cx="822.1" cy="637.5" r="47.7" class="st4"/><path d="M822.1 691.1c-29.5 0-53.6-24-53.6-53.6 0-29.5 24-53.6 53.6-53.6s53.6 24 53.6 53.6-24 53.6-53.6 53.6zm0-95.4c-23.1 0-41.8 18.8-41.8 41.8 0 23.1 18.8 41.8 41.8 41.8 23.1 0 41.8-18.8 41.8-41.8.1-23-18.7-41.8-41.8-41.8z" class="st7"/><circle cx="822.1" cy="313.3" r="47.7" class="st4"/><path d="M822.1 366.9c-29.5 0-53.6-24-53.6-53.6 0-29.5 24-53.6 53.6-53.6s53.6 24 53.6 53.6-24 53.6-53.6 53.6zm0-95.4c-23.1 0-41.8 18.8-41.8 41.8 0 23.1 18.8 41.8 41.8 41.8 23.1 0 41.8-18.8 41.8-41.8.1-23-18.7-41.8-41.8-41.8z" class="st7"/><path d="M810 329.2h24.3v289.4H810z" class="st9"/><path d="M840.1 624.5h-36V323.4h36v301.1zm-24.2-11.7h12.5V335.1h-12.5v277.7z" class="st7"/><circle cx="175" cy="131.6" r="25.4" class="st4"/><path d="M175 162.9c-17.3 0-31.3-14-31.3-31.3s14-31.3 31.3-31.3 31.3 14 31.3 31.3-14.1 31.3-31.3 31.3zm0-50.9c-10.8 0-19.6 8.8-19.6 19.6s8.8 19.6 19.6 19.6 19.6-8.8 19.6-19.6S185.8 112 175 112z" class="st7"/><circle cx="175" cy="820.3" r="25.4" class="st4"/><path d="M175 851.6c-17.3 0-31.3-14-31.3-31.3s14-31.3 31.3-31.3 31.3 14 31.3 31.3-14.1 31.3-31.3 31.3zm0-50.9c-10.8 0-19.6 8.8-19.6 19.6s8.8 19.6 19.6 19.6 19.6-8.8 19.6-19.6-8.8-19.6-19.6-19.6z" class="st7"/><circle cx="861.5" cy="820.3" r="25.4" class="st4"/><path d="M861.5 851.6c-17.3 0-31.3-14-31.3-31.3s14-31.3 31.3-31.3 31.3 14 31.3 31.3-14 31.3-31.3 31.3zm0-50.9c-10.8 0-19.6 8.8-19.6 19.6s8.8 19.6 19.6 19.6 19.6-8.8 19.6-19.6-8.8-19.6-19.6-19.6z" class="st7"/><circle cx="861.5" cy="131.6" r="25.4" class="st4"/><path d="M861.5 162.9c-17.3 0-31.3-14-31.3-31.3s14-31.3 31.3-31.3 31.3 14 31.3 31.3-14 31.3-31.3 31.3zm0-50.9c-10.8 0-19.6 8.8-19.6 19.6s8.8 19.6 19.6 19.6 19.6-8.8 19.6-19.6-8.8-19.6-19.6-19.6z" class="st7"/></svg>