<svg xmlns="http://www.w3.org/2000/svg" id="Layer_1" viewBox="0 0 1000 1000" width="1000" height="1000"><style>.st0{fill:#231f20}.st1{fill:#303030}.st2{fill:none}.st3{fill:#596ab2}.st4{fill:#fff}.st5{fill:#413e38}.st6{fill:#596bb2}.st7{fill:#535353}.st8{fill:#8bd0d0}.st9{fill:#95999a}.st10{fill:#535453}</style><path d="M174.5 200.1l27.6 70.7h-10.4l-7.7-21.3h-29.9l-7.9 21.3h-9.6l27.5-70.7h10.4zm6.5 41.5l-11.8-33h-.2l-12 33h24zm72 29c-1.5.9-3.5 1.3-6 1.3-2.2 0-3.9-.6-5.2-1.8s-1.9-3.2-1.9-6c-2.3 2.8-5 4.8-8.1 6-3.1 1.2-6.4 1.8-9.9 1.8-2.3 0-4.5-.3-6.6-.8-2.1-.5-3.9-1.4-5.4-2.5-1.5-1.1-2.7-2.6-3.6-4.4-.9-1.8-1.3-4-1.3-6.6 0-2.9.5-5.3 1.5-7.1 1-1.8 2.3-3.3 3.9-4.5 1.6-1.2 3.5-2 5.5-2.6 2.1-.6 4.2-1.1 6.4-1.5 2.3-.5 4.5-.8 6.6-1 2.1-.2 3.9-.6 5.5-1s2.8-1.1 3.8-1.9c.9-.8 1.4-2 1.4-3.6 0-1.8-.3-3.3-1-4.5-.7-1.1-1.6-2-2.7-2.6-1.1-.6-2.3-1-3.7-1.2-1.4-.2-2.7-.3-4-.3-3.6 0-6.5.7-8.9 2-2.4 1.4-3.7 3.9-3.9 7.7H207c.1-3.2.8-5.8 2-8s2.8-3.9 4.8-5.3 4.2-2.3 6.8-2.9c2.5-.6 5.3-.9 8.2-.9 2.3 0 4.6.2 6.9.5 2.3.3 4.3 1 6.2 2s3.3 2.5 4.5 4.3c1.1 1.8 1.7 4.2 1.7 7.2v26.3c0 2 .1 3.4.3 4.3.2.9 1 1.4 2.3 1.4.7 0 1.6-.1 2.6-.4v6.6zm-13.7-26.2c-1.1.8-2.4 1.4-4.2 1.7-1.7.4-3.5.7-5.4.9-1.9.2-3.8.5-5.7.8-1.9.3-3.6.8-5.1 1.4-1.5.7-2.8 1.6-3.7 2.8-1 1.2-1.4 2.9-1.4 5 0 1.4.3 2.5.8 3.5.6 1 1.3 1.7 2.2 2.3.9.6 1.9 1 3.1 1.3 1.2.3 2.4.4 3.8.4 2.8 0 5.1-.4 7.1-1.1 2-.8 3.6-1.7 4.9-2.9 1.3-1.2 2.2-2.4 2.8-3.7.6-1.3.9-2.6.9-3.8v-8.6zm76.1-44.3h4.9c1.7 0 3.5.1 5.2.3 1.7.2 3.3.4 4.8.7 1.5.3 2.8.8 3.8 1.5 2.3 1.4 4.3 3.3 5.9 5.7 1.6 2.4 2.4 5.4 2.4 9 0 3.8-.9 7-2.7 9.8-1.8 2.7-4.4 4.8-7.8 6.1v.2c4.4.9 7.7 2.9 10 5.9 2.3 3 3.5 6.7 3.5 11.1 0 2.6-.5 5.1-1.4 7.5-.9 2.4-2.3 4.6-4.1 6.5-1.8 1.9-4.1 3.4-6.7 4.6-2.7 1.2-5.8 1.7-9.3 1.7h-34.2V200h25.7zm2.5 30.4c5.3 0 9.2-.9 11.5-2.8 2.3-1.9 3.5-4.7 3.5-8.5 0-2.5-.4-4.5-1.2-5.9-.8-1.5-1.9-2.6-3.3-3.4-1.4-.8-3-1.3-4.8-1.5-1.8-.2-3.7-.3-5.8-.3H299v22.5h18.9zm4.8 32.4c4.2 0 7.4-1.1 9.8-3.4 2.3-2.2 3.5-5.3 3.5-9.3 0-2.3-.4-4.2-1.3-5.7s-2-2.7-3.4-3.6c-1.4-.9-3.1-1.5-4.9-1.9-1.8-.4-3.8-.5-5.7-.5h-21.5V263h23.5zm78.8 7.7c-1.5.9-3.5 1.3-6 1.3-2.2 0-3.9-.6-5.2-1.8s-1.9-3.2-1.9-6c-2.3 2.8-5 4.8-8.1 6-3.1 1.2-6.4 1.8-9.9 1.8-2.3 0-4.5-.3-6.6-.8-2.1-.5-3.9-1.4-5.4-2.5-1.5-1.1-2.7-2.6-3.6-4.4-.9-1.8-1.3-4-1.3-6.6 0-2.9.5-5.3 1.5-7.1 1-1.8 2.3-3.3 3.9-4.5 1.6-1.2 3.5-2 5.5-2.6 2.1-.6 4.2-1.1 6.4-1.5 2.3-.5 4.5-.8 6.6-1 2.1-.2 3.9-.6 5.5-1s2.8-1.1 3.8-1.9c.9-.8 1.4-2 1.4-3.6 0-1.8-.3-3.3-1-4.5-.7-1.1-1.6-2-2.7-2.6s-2.3-1-3.7-1.2c-1.4-.2-2.7-.3-4-.3-3.6 0-6.5.7-8.9 2-2.4 1.4-3.7 3.9-3.9 7.7h-8.4c.1-3.2.8-5.8 2-8s2.8-3.9 4.8-5.3 4.2-2.3 6.8-2.9c2.5-.6 5.3-.9 8.2-.9 2.3 0 4.6.2 6.9.5 2.3.3 4.3 1 6.2 2 1.8 1 3.3 2.5 4.5 4.3 1.1 1.8 1.7 4.2 1.7 7.2v26.3c0 2 .1 3.4.3 4.3.2.9 1 1.4 2.3 1.4.7 0 1.6-.1 2.6-.4v6.6zm-13.7-26.2c-1.1.8-2.4 1.4-4.2 1.7-1.7.4-3.5.7-5.4.9-1.9.2-3.8.5-5.7.8-1.9.3-3.6.8-5.1 1.4-1.5.7-2.8 1.6-3.7 2.8-1 1.2-1.4 2.9-1.4 5 0 1.4.3 2.5.8 3.5.6 1 1.3 1.7 2.2 2.3.9.6 1.9 1 3.1 1.3 1.2.3 2.4.4 3.8.4 2.8 0 5.1-.4 7.1-1.1s3.6-1.7 4.9-2.9c1.3-1.2 2.2-2.4 2.8-3.7s.9-2.6.9-3.8v-8.6zm93.1-34.3c-3.6-2.5-7.9-3.8-12.8-3.8-4.2 0-7.8.8-10.8 2.4-3 1.6-5.5 3.7-7.4 6.4-1.9 2.7-3.4 5.7-4.3 9.2-.9 3.4-1.4 7-1.4 10.7 0 4 .5 7.8 1.4 11.4.9 3.6 2.4 6.7 4.3 9.4s4.4 4.8 7.5 6.4c3 1.6 6.7 2.4 10.9 2.4 3.1 0 5.9-.5 8.3-1.5 2.4-1 4.5-2.4 6.2-4.3 1.7-1.8 3.1-4 4.1-6.5 1-2.5 1.6-5.2 1.8-8.1h9.4c-.9 8.9-4 15.8-9.2 20.8-5.2 4.9-12.3 7.4-21.4 7.4-5.5 0-10.3-.9-14.4-2.8s-7.5-4.5-10.2-7.8c-2.7-3.3-4.7-7.2-6.1-11.7-1.4-4.5-2-9.3-2-14.5s.7-10 2.2-14.5c1.5-4.5 3.6-8.5 6.4-11.8 2.8-3.4 6.3-6 10.5-8 4.2-1.9 9-2.9 14.4-2.9 3.7 0 7.2.5 10.5 1.5s6.2 2.4 8.8 4.4c2.6 1.9 4.7 4.3 6.4 7.2 1.7 2.9 2.8 6.2 3.4 9.9H488c-1.1-5-3.5-8.8-7.1-11.3zm58 18.4c-2.1-1.8-4.9-2.7-8.5-2.7-3 0-5.6.6-7.6 1.7s-3.7 2.6-4.9 4.5c-1.2 1.8-2.1 4-2.6 6.4-.5 2.4-.8 4.9-.8 7.5 0 2.4.3 4.7.8 6.9.6 2.2 1.4 4.2 2.6 6 1.2 1.7 2.7 3.2 4.7 4.2 1.9 1.1 4.2 1.6 6.8 1.6 4.2 0 7.4-1.1 9.8-3.3 2.3-2.2 3.8-5.2 4.3-9.2h8.6c-.9 6.3-3.3 11.2-7.1 14.7-3.8 3.4-9 5.1-15.5 5.1-3.9 0-7.3-.6-10.3-1.9-3-1.3-5.5-3-7.5-5.3s-3.5-5.1-4.6-8.3c-1-3.2-1.5-6.7-1.5-10.5s.5-7.4 1.5-10.7c1-3.3 2.5-6.2 4.5-8.7 2-2.5 4.5-4.4 7.6-5.8 3-1.4 6.6-2.1 10.6-2.1 2.9 0 5.6.3 8.2 1 2.5.7 4.8 1.8 6.7 3.2 1.9 1.5 3.5 3.3 4.8 5.5 1.3 2.2 2 4.8 2.4 7.9h-8.7c-.8-3.4-2.2-5.9-4.3-7.7zm75.7-28.4c10.9 0 19.3 2.8 25.1 8.3 5.9 5.5 8.8 14 8.8 25.3 0 5.9-.7 11.2-2 15.8-1.3 4.6-3.4 8.4-6.1 11.6-2.8 3.1-6.3 5.5-10.6 7.2-4.3 1.7-9.4 2.5-15.2 2.5h-24.3v-70.7h24.3zm.8 62.8c1.1 0 2.4-.1 4-.2 1.6-.2 3.3-.6 5-1.2 1.8-.6 3.5-1.5 5.3-2.7 1.7-1.2 3.3-2.8 4.7-4.9 1.4-2 2.5-4.6 3.4-7.7.9-3.1 1.3-6.8 1.3-11.1 0-4.2-.4-8-1.2-11.3-.8-3.3-2.2-6.2-4.1-8.5-1.9-2.3-4.3-4.1-7.3-5.3-3-1.2-6.6-1.8-11-1.8h-15.8V263h15.7zm80.6 7.9v-6.9h-.2c-1.4 2.8-3.6 4.9-6.5 6.1-3 1.3-6.2 1.9-9.8 1.9-4 0-7.4-.7-10.3-2.2-2.9-1.5-5.4-3.4-7.3-5.8-1.9-2.4-3.4-5.3-4.4-8.5-1-3.2-1.5-6.7-1.5-10.3 0-3.6.5-7.1 1.4-10.3 1-3.2 2.4-6.1 4.4-8.5 1.9-2.4 4.4-4.3 7.3-5.7 2.9-1.4 6.4-2.1 10.2-2.1 1.3 0 2.7.1 4.3.4 1.5.3 3 .7 4.6 1.3 1.5.6 3 1.5 4.3 2.5 1.4 1 2.5 2.3 3.4 3.8h.2v-26.3h8.4v70.7H696zm-30.2-18.2c.6 2.3 1.6 4.3 2.9 6.1 1.3 1.8 2.9 3.2 4.9 4.3 2 1.1 4.4 1.6 7.1 1.6 2.8 0 5.2-.6 7.2-1.7s3.6-2.6 4.8-4.4c1.3-1.8 2.2-3.9 2.7-6.2.6-2.3.8-4.7.8-7 0-2.5-.3-4.9-.9-7.3-.6-2.3-1.5-4.4-2.8-6.2-1.3-1.8-3-3.2-5-4.3-2-1.1-4.5-1.6-7.4-1.6-2.8 0-5.2.6-7.2 1.7s-3.6 2.6-4.8 4.5c-1.2 1.8-2 4-2.6 6.3-.5 2.4-.8 4.8-.8 7.3.1 2.3.4 4.7 1.1 6.9zm129.3-52.5v7.9h-39.4v22.5h36.7v7.9h-36.7v24.5h39.7v7.9h-49.1v-70.7h48.8zm46.5 67.4c-3.8 2.9-8.6 4.4-14.5 4.4-4.1 0-7.6-.7-10.6-2s-5.5-3.2-7.6-5.5c-2-2.4-3.6-5.2-4.6-8.5-1-3.3-1.6-6.9-1.7-10.8 0-3.9.6-7.5 1.8-10.7 1.2-3.2 2.9-6 5-8.4 2.1-2.4 4.7-4.2 7.6-5.5 2.9-1.3 6.2-2 9.7-2 4.6 0 8.3.9 11.3 2.8s5.4 4.3 7.2 7.2c1.8 2.9 3.1 6.1 3.8 9.5s1 6.7.8 9.8h-38.3c-.1 2.2.2 4.4.8 6.4.6 2 1.6 3.8 2.9 5.3 1.3 1.6 3 2.8 5 3.7 2 .9 4.5 1.4 7.2 1.4 3.6 0 6.5-.8 8.8-2.5 2.3-1.6 3.8-4.2 4.5-7.5h8.3c-1.1 5.7-3.5 10-7.4 12.9zm-2-32.8c-.8-1.8-1.8-3.3-3.1-4.6s-2.8-2.3-4.6-3.1c-1.8-.8-3.7-1.1-5.8-1.1-2.2 0-4.1.4-5.9 1.1-1.7.8-3.2 1.8-4.5 3.1-1.3 1.3-2.2 2.9-3 4.6-.7 1.7-1.2 3.6-1.3 5.6h29.4c0-2-.4-3.8-1.2-5.6zm-648.3 84.2v7.9h-37v22.5h32.5v7.9h-32.5v32.4h-9.4v-70.7h46.4zm3.9 26.9v-7.4h8.6v-7.6c0-4.2 1.2-7.3 3.6-9.5 2.4-2.1 5.9-3.2 10.5-3.2.8 0 1.7.1 2.7.2 1 .1 1.9.3 2.7.6v7.3c-.7-.3-1.5-.4-2.4-.5-.9-.1-1.7-.1-2.4-.1-2 0-3.6.4-4.8 1.2-1.1.8-1.7 2.3-1.7 4.6v7.1h9.9v7.4H212v43.8h-8.4v-43.8h-8.4zm105.9 43c-4.1 1.6-8.2 2.4-12.4 2.4-5.3 0-10-1-14.2-2.9s-7.7-4.6-10.6-7.9c-2.9-3.3-5.1-7.1-6.6-11.4-1.5-4.3-2.3-8.7-2.3-13.4 0-5.1.7-10 2.1-14.7 1.4-4.7 3.5-8.7 6.3-12.2s6.3-6.3 10.5-8.4c4.2-2.1 9.1-3.1 14.7-3.1 3.8 0 7.4.4 10.8 1.3 3.4.9 6.4 2.3 9.1 4.2 2.7 1.9 4.9 4.3 6.7 7.3 1.8 2.9 3.1 6.5 3.7 10.6h-9.4c-.5-2.7-1.3-5-2.6-7-1.3-1.9-2.8-3.5-4.7-4.8-1.8-1.3-3.9-2.2-6.3-2.8-2.3-.6-4.8-.9-7.5-.9-4.3 0-8 .9-11 2.6-3.1 1.7-5.6 4-7.5 6.8-1.9 2.8-3.4 6-4.3 9.6-.9 3.6-1.4 7.3-1.4 11s.5 7.2 1.6 10.6c1.1 3.4 2.6 6.4 4.7 9 2 2.6 4.6 4.7 7.6 6.2 3 1.6 6.5 2.3 10.4 2.3 3.7 0 7-.6 9.8-1.8s5.2-2.8 7.2-4.9c1.9-2.1 3.4-4.5 4.4-7.3 1-2.8 1.4-5.8 1.3-9.1h-22.6v-7.9h31v37.2h-5.9l-2.5-8.8c-2.6 3.9-6 6.5-10.1 8.2zm69.6 15.3c-3.8 4.2-9.8 6.2-18 6.2-2.4 0-4.8-.3-7.3-.8s-4.7-1.4-6.7-2.6c-2-1.2-3.7-2.7-5-4.7-1.3-1.9-2-4.3-2.2-7h8.4c.1 1.5.5 2.8 1.4 3.9.9 1.1 2 1.9 3.3 2.6 1.3.7 2.7 1.1 4.2 1.4 1.5.3 3 .4 4.4.4 2.8 0 5.1-.5 7-1.4 1.9-1 3.5-2.3 4.8-4 1.3-1.7 2.2-3.7 2.7-6.1s.8-5 .8-7.8v-3.4h-.2c-1.5 3.2-3.6 5.5-6.6 7-2.9 1.5-6.1 2.2-9.4 2.2-3.8 0-7.2-.7-10-2.1-2.8-1.4-5.2-3.2-7.1-5.6-1.9-2.3-3.4-5.1-4.3-8.2-1-3.1-1.4-6.5-1.4-10 0-3 .4-6.2 1.2-9.4.8-3.2 2.1-6.1 4-8.7 1.8-2.6 4.3-4.8 7.3-6.4 3-1.7 6.8-2.5 11.2-2.5 3.2 0 6.2.7 8.9 2.1 2.7 1.4 4.8 3.5 6.3 6.4h.1v-7.3h7.9v46.8c0 8.5-1.9 14.8-5.7 19zM360 381c1.9-1.2 3.5-2.7 4.7-4.6 1.2-1.9 2.1-4 2.6-6.4.6-2.4.8-4.8.8-7.1 0-2.2-.3-4.5-.8-6.6-.5-2.2-1.4-4.1-2.5-5.9-1.2-1.7-2.7-3.2-4.5-4.2-1.8-1.1-4.1-1.6-6.7-1.6-2.7 0-5 .5-6.9 1.5-1.9 1-3.5 2.4-4.7 4.1-1.2 1.7-2.1 3.7-2.7 5.9-.6 2.2-.8 4.6-.8 7 0 2.3.2 4.6.7 6.9.5 2.3 1.3 4.4 2.4 6.3 1.1 1.9 2.6 3.4 4.5 4.6 1.8 1.2 4.2 1.7 6.9 1.7s5-.4 7-1.6zm67.4-62.1v30.4h37.2v-30.4h9.4v70.7h-9.4v-32.4h-37.2v32.4H418v-70.7h9.4zm69.1 0v27h.2c.7-1.6 1.6-2.9 2.8-4 1.2-1.1 2.5-2 4-2.7s3-1.2 4.7-1.5c1.6-.3 3.2-.5 4.7-.5 3.4 0 6.2.5 8.4 1.4 2.2.9 4.1 2.2 5.4 3.9 1.4 1.7 2.4 3.6 2.9 5.9.6 2.3.8 4.8.8 7.6v33.7H522V355c0-3.2-.9-5.7-2.8-7.5-1.8-1.8-4.4-2.8-7.6-2.8-2.6 0-4.8.4-6.7 1.2-1.9.8-3.4 1.9-4.7 3.4-1.3 1.5-2.2 3.2-2.8 5.1-.6 1.9-.9 4.1-.9 6.4v28.9h-8.4V319h8.4zm85.4 0v70.7h-9.4v-70.7h9.4zm14.9 10.3v-10.3h8.4v10.3h-8.4zm8.4 9.2v51.2h-8.4v-51.2h8.4zm76.9 40.6c-.7 2.3-1.8 4.4-3.5 6.2-1.6 1.8-3.8 3.3-6.4 4.4-2.7 1.1-6 1.6-9.9 1.6-6.6 0-11.7-1.7-15.2-5.2-3.6-3.5-5.3-8.6-5.3-15.3v-4.4h9.4v3c0 2 .2 3.9.5 5.6.3 1.7.9 3.2 1.7 4.5.8 1.3 2 2.2 3.5 2.9 1.5.7 3.4 1 5.7 1 4.3 0 7.2-1.2 8.9-3.5 1.6-2.3 2.4-5.4 2.4-9.3v-51.7h9.4V372c-.2 2.4-.5 4.7-1.2 7zm20.7 27c-2.2 2.1-5.2 3.1-9 3.1-1.5 0-2.9-.1-4.3-.4v-7.2c.3.1.6.1.8.1s.5.1.7.1h1.8c1.8 0 3.1-.5 3.8-1.5.7-1 1-2.9 1-5.5v-56.2h8.4V396c.1 4.6-1 7.9-3.2 10zm-5.1-76.8v-10.3h8.4v10.3h-8.4zm59.8-10.3v35.2l35.8-35.2h12.2l-29.8 28.5 31 42.2h-11.9l-25.5-35.7-11.8 11v24.8h-9.4V319h9.4zm64.1 0v41.9l23.4-22.4h11.3L836 357l21.8 32.6h-10.7l-17.5-26.7-7.9 7.3v19.4h-8.4v-70.7h8.3zM154.3 437.7v62.8h37.4v7.9h-46.8v-70.7h9.4zm53.1 0v70.7H199v-70.7h8.4zm55.1 0l22.3 59.4 22.4-59.4H320v70.7h-8.9v-58.8h-.2l-22.1 58.8h-8l-22.1-58.8h-.2v58.8h-8.9v-70.7h12.9zm79.7 19.5v7.5h.2c3.8-5.8 9.3-8.7 16.5-8.7 3.2 0 6 .7 8.6 2 2.6 1.3 4.4 3.6 5.4 6.7 1.7-2.8 4-4.9 6.8-6.4s5.9-2.3 9.3-2.3c2.6 0 4.9.3 7 .8 2.1.6 3.9 1.4 5.3 2.6 1.5 1.2 2.6 2.7 3.5 4.6.8 1.9 1.2 4.1 1.2 6.8v37.5h-8.4v-33.6c0-1.6-.1-3.1-.4-4.5-.3-1.4-.8-2.6-1.5-3.6s-1.7-1.8-3-2.4c-1.3-.6-3-.9-5-.9-4.2 0-7.4 1.2-9.8 3.6s-3.6 5.5-3.6 9.5v31.9h-8.4v-33.6c0-1.6-.1-3.2-.4-4.6s-.8-2.6-1.5-3.6-1.7-1.8-2.9-2.4c-1.2-.6-2.8-.8-4.7-.8-2.4 0-4.5.5-6.3 1.5-1.8 1-3.2 2.2-4.3 3.6-1.1 1.4-1.9 2.8-2.4 4.3s-.7 2.7-.7 3.7v31.9h-8.4v-51.2h7.9zm115.3-19.5l37.2 57.3h.2v-57.3h8.9v70.7h-10.3l-36.9-56.7h-.2v56.7h-8.9v-70.7h10zm68.1 19.5v8.1h.2c3.5-6.2 9-9.3 16.6-9.3 3.4 0 6.2.5 8.4 1.4 2.2.9 4.1 2.2 5.4 3.9 1.4 1.7 2.4 3.6 2.9 5.9.6 2.3.8 4.8.8 7.6v33.7h-8.4v-34.6c0-3.2-.9-5.7-2.8-7.5-1.8-1.8-4.4-2.8-7.6-2.8-2.6 0-4.8.4-6.7 1.2-1.9.8-3.4 1.9-4.7 3.4-1.3 1.5-2.2 3.2-2.8 5.1-.6 1.9-.9 4.1-.9 6.4v28.9h-8.4v-51.2h8zm74.2 2c1.4-4.5 3.5-8.4 6.4-11.8 2.8-3.4 6.4-6.2 10.6-8.2 4.2-2 9.1-3.1 14.8-3.1s10.5 1 14.8 3.1c4.2 2 7.8 4.8 10.6 8.2 2.8 3.4 5 7.4 6.4 11.8 1.4 4.5 2.1 9.1 2.1 13.9 0 4.8-.7 9.5-2.1 13.9-1.4 4.5-3.5 8.4-6.4 11.8s-6.4 6.2-10.6 8.2c-4.2 2-9.1 3-14.8 3s-10.5-1-14.8-3c-4.2-2-7.8-4.7-10.6-8.2s-5-7.4-6.4-11.8c-1.4-4.5-2.1-9.1-2.1-13.9 0-4.9.7-9.5 2.1-13.9zm8.7 24.4c.9 3.5 2.4 6.6 4.4 9.4 2 2.8 4.5 5 7.6 6.7 3.1 1.7 6.8 2.5 11.1 2.5s8-.8 11.1-2.5c3.1-1.7 5.6-3.9 7.6-6.7 2-2.8 3.4-5.9 4.4-9.4s1.4-7 1.4-10.5-.5-7.1-1.4-10.5c-.9-3.5-2.4-6.6-4.4-9.4s-4.5-5-7.6-6.7c-3.1-1.7-6.8-2.5-11.1-2.5s-8 .8-11.1 2.5c-3.1 1.7-5.6 3.9-7.6 6.7s-3.4 5.9-4.4 9.4c-.9 3.5-1.4 7-1.4 10.5s.5 7 1.4 10.5zm65.8-11.3c1.1-3.3 2.6-6.1 4.8-8.5 2.1-2.4 4.7-4.3 7.8-5.7s6.7-2.1 10.7-2.1c4.1 0 7.7.7 10.7 2.1 3.1 1.4 5.7 3.3 7.8 5.7 2.1 2.4 3.7 5.2 4.8 8.5 1.1 3.3 1.6 6.8 1.6 10.5s-.5 7.3-1.6 10.5-2.6 6.1-4.8 8.5c-2.1 2.4-4.7 4.3-7.8 5.6-3.1 1.4-6.6 2-10.7 2-4 0-7.6-.7-10.7-2s-5.7-3.2-7.8-5.6c-2.1-2.4-3.7-5.2-4.8-8.5-1.1-3.2-1.6-6.7-1.6-10.5s.6-7.2 1.6-10.5zm8.6 18.8c.8 2.4 2 4.4 3.4 6 1.5 1.6 3.2 2.9 5.1 3.7 1.9.9 4 1.3 6.2 1.3s4.2-.4 6.2-1.3c1.9-.9 3.6-2.1 5.1-3.7 1.5-1.6 2.6-3.6 3.4-6 .8-2.4 1.2-5.2 1.2-8.3 0-3.1-.4-5.9-1.2-8.3-.8-2.4-2-4.4-3.4-6.1-1.5-1.6-3.2-2.9-5.1-3.8-1.9-.9-4-1.3-6.2-1.3s-4.2.4-6.2 1.3c-1.9.9-3.6 2.1-5.1 3.8-1.5 1.7-2.6 3.7-3.4 6.1-.8 2.4-1.2 5.2-1.2 8.3 0 3.2.4 5.9 1.2 8.3zm109.3-53.4c7.1 0 12.5 1.8 16.2 5.5 3.7 3.7 5.5 8.8 5.5 15.4s-1.8 11.7-5.5 15.4c-3.7 3.7-9.1 5.5-16.2 5.4h-21.6v28.9h-9.4v-70.7h31zm-3.1 33.9c5.3.1 9.3-1 11.7-3.3 2.5-2.2 3.7-5.5 3.7-9.7 0-4.2-1.2-7.4-3.7-9.7-2.5-2.2-6.4-3.3-11.7-3.3h-18.4v25.9h18.4zm43.6-14.4v6.9h.2c1.4-2.8 3.6-4.9 6.5-6.2s6.2-1.9 9.8-1.9c4 0 7.4.7 10.3 2.2 2.9 1.5 5.4 3.4 7.3 5.9 1.9 2.5 3.4 5.3 4.4 8.6 1 3.2 1.5 6.7 1.5 10.3 0 3.6-.5 7.1-1.4 10.3-1 3.2-2.4 6.1-4.4 8.5-1.9 2.4-4.4 4.3-7.3 5.7-2.9 1.4-6.4 2.1-10.2 2.1-1.3 0-2.7-.1-4.2-.4s-3.1-.7-4.6-1.3c-1.5-.6-3-1.4-4.3-2.4-1.4-1-2.5-2.3-3.4-3.8h-.2V528h-8.4v-70.7h8.4zm30.3 18.2c-.6-2.3-1.6-4.3-2.9-6.1-1.3-1.8-2.9-3.2-5-4.3-2-1.1-4.4-1.6-7.1-1.6-2.8 0-5.2.6-7.2 1.7s-3.6 2.6-4.9 4.4c-1.3 1.8-2.2 3.9-2.7 6.2-.6 2.3-.8 4.7-.8 7 0 2.5.3 4.9.9 7.3.6 2.3 1.5 4.4 2.8 6.2 1.3 1.8 3 3.2 5 4.3 2 1.1 4.5 1.6 7.4 1.6s5.3-.6 7.3-1.7c1.9-1.1 3.5-2.6 4.7-4.5 1.2-1.8 2-4 2.6-6.3.5-2.4.8-4.8.8-7.3 0-2.3-.3-4.6-.9-6.9zM191.7 624.6c-4.8 2.8-10.4 4.2-16.9 4.2-5.6 0-10.5-1-14.8-3-4.2-2-7.8-4.7-10.6-8.2-2.8-3.4-5-7.4-6.4-11.8-1.4-4.5-2.1-9.1-2.1-13.9 0-4.8.7-9.5 2.1-13.9 1.4-4.5 3.5-8.4 6.4-11.8 2.8-3.4 6.4-6.2 10.6-8.2 4.2-2 9.1-3.1 14.8-3.1 5.6 0 10.5 1 14.8 3.1 4.2 2 7.8 4.8 10.6 8.2 2.8 3.4 5 7.4 6.4 11.8 1.4 4.5 2.1 9.1 2.1 13.9 0 5.4-.9 10.6-2.7 15.4-1.8 4.9-4.5 9.1-8 12.7l9.3 7.3-4.8 5.9-10.8-8.6zm-.6-10.1c2.8-2.8 4.8-6.2 6.1-10.1s2-8.2 2-12.5c0-3.6-.5-7.1-1.4-10.5-.9-3.5-2.4-6.6-4.4-9.4-2-2.8-4.5-5-7.6-6.7-3.1-1.7-6.8-2.5-11.1-2.5s-8 .8-11.1 2.5c-3.1 1.7-5.6 3.9-7.6 6.7-2 2.8-3.4 5.9-4.4 9.4-.9 3.5-1.4 7-1.4 10.5 0 3.6.5 7.1 1.4 10.5.9 3.5 2.4 6.6 4.4 9.4 2 2.8 4.5 5 7.6 6.7 3.1 1.7 6.8 2.5 11.1 2.5 3.4 0 6.6-.7 9.8-2l-7.8-6.2 4.9-5.7 9.5 7.4zm65 32.2v-26.4h-.2c-1.4 2.8-3.6 4.9-6.5 6.1-3 1.3-6.2 1.9-9.8 1.9-4 0-7.4-.7-10.3-2.2-2.9-1.5-5.4-3.4-7.3-5.8-1.9-2.4-3.4-5.3-4.4-8.5-1-3.2-1.5-6.7-1.5-10.3 0-3.6.5-7.1 1.4-10.3 1-3.2 2.4-6.1 4.4-8.5 1.9-2.4 4.4-4.3 7.3-5.7 2.9-1.4 6.4-2.1 10.2-2.1 1.3 0 2.7.1 4.3.4 1.5.3 3 .7 4.6 1.3 1.5.6 3 1.5 4.3 2.5 1.4 1 2.5 2.3 3.4 3.8h.2V576h8.4v70.7h-8.5zM225.8 609c.6 2.3 1.6 4.3 2.9 6.1 1.3 1.8 2.9 3.2 5 4.3 2 1.1 4.4 1.6 7.1 1.6 2.8 0 5.2-.6 7.2-1.7s3.6-2.6 4.9-4.4c1.3-1.8 2.2-3.9 2.7-6.2.6-2.3.8-4.7.8-7 0-2.5-.3-4.9-.9-7.3-.6-2.3-1.5-4.4-2.8-6.2-1.3-1.8-3-3.2-5-4.3-2-1.1-4.5-1.6-7.4-1.6-2.8 0-5.2.6-7.2 1.7s-3.6 2.6-4.8 4.5c-1.2 1.8-2 4-2.6 6.3-.5 2.4-.8 4.8-.8 7.3 0 2.3.3 4.7.9 6.9zm113.8-52.5c6.7 0 12 1.7 15.8 4.9 3.8 3.3 5.7 7.8 5.7 13.6 0 4.3-1 8.1-2.9 11.3-1.9 3.2-5.1 5.4-9.4 6.6v.2c2 .4 3.7 1.1 5 2 1.3.9 2.3 2 3.1 3.3.8 1.3 1.3 2.7 1.7 4.3s.6 3.2.8 5c.1 1.7.2 3.5.3 5.2.1 1.8.2 3.5.5 5.2.3 1.7.6 3.4 1.1 4.9.5 1.6 1.2 2.9 2.2 4.1H353c-.7-.7-1.1-1.7-1.3-3-.2-1.3-.4-2.7-.4-4.2-.1-1.5-.1-3.2-.2-5-.1-1.8-.3-3.5-.6-5.2-.3-1.7-.6-3.3-1-4.9s-1-2.9-1.9-4.1-2-2.1-3.4-2.8c-1.4-.7-3.2-1-5.5-1h-23v30.2h-9.4v-70.7h33.3zm2 32.1c2-.3 3.7-1 5.2-1.9 1.5-1 2.7-2.2 3.6-3.9.9-1.6 1.3-3.7 1.3-6.3 0-3.6-1-6.5-3-8.7-2-2.2-5.2-3.4-9.6-3.4h-23.4v24.7h19.6c2.2 0 4.3-.2 6.3-.5zm38.8-12.6v10.8h.2c2-4.2 4.6-7.2 7.5-9.2 3-2 6.7-2.9 11.3-2.8v8.9c-3.4 0-6.2.5-8.6 1.4-2.4.9-4.3 2.3-5.7 4.1-1.5 1.8-2.5 3.9-3.2 6.5-.7 2.5-1 5.5-1 8.8v22.8h-8.4V576h7.9zm89.6-9.8c-3.1-2.3-7.1-3.4-12-3.4-2 0-3.9.2-5.8.6-1.9.4-3.6 1.1-5.1 2-1.5.9-2.7 2.2-3.6 3.7-.9 1.6-1.3 3.5-1.3 5.8 0 2.2.6 3.9 1.9 5.3 1.3 1.4 3 2.5 5.1 3.3 2.1.9 4.6 1.6 7.3 2.1 2.7.6 5.5 1.2 8.3 1.8 2.8.7 5.6 1.4 8.3 2.3 2.7.9 5.1 2.1 7.3 3.6 2.1 1.5 3.9 3.4 5.1 5.7 1.3 2.3 1.9 5.2 1.9 8.7 0 3.8-.8 7-2.5 9.7-1.7 2.7-3.8 4.9-6.5 6.5-2.6 1.7-5.6 2.9-8.9 3.7-3.3.8-6.5 1.1-9.8 1.1-4 0-7.7-.5-11.2-1.5-3.5-1-6.6-2.5-9.3-4.5-2.7-2-4.8-4.6-6.3-7.7-1.6-3.1-2.3-6.8-2.3-11.1h8.9c0 3 .6 5.5 1.7 7.7 1.2 2.1 2.7 3.9 4.6 5.3s4.1 2.4 6.6 3.1c2.5.7 5.1 1 7.7 1 2.1 0 4.2-.2 6.4-.6 2.1-.4 4.1-1.1 5.8-2 1.7-1 3.1-2.3 4.2-3.9s1.6-3.8 1.6-6.3c0-2.4-.6-4.4-1.9-5.9-1.3-1.5-3-2.8-5.1-3.7-2.1-1-4.6-1.7-7.3-2.3-2.7-.6-5.5-1.2-8.3-1.8-2.8-.6-5.6-1.4-8.3-2.2-2.7-.8-5.1-1.9-7.3-3.3-2.1-1.4-3.9-3.1-5.1-5.2-1.3-2.1-1.9-4.8-1.9-8.1 0-3.6.7-6.6 2.2-9.3 1.5-2.6 3.4-4.8 5.8-6.4 2.4-1.7 5.1-2.9 8.2-3.8 3.1-.8 6.2-1.2 9.5-1.2 3.6 0 7 .4 10.1 1.3 3.1.9 5.8 2.2 8.2 4.1 2.3 1.8 4.2 4.2 5.5 7 1.4 2.8 2.1 6.2 2.2 10h-8.9c-.7-5.3-2.5-9-5.7-11.2zm33.9 49.6c.8 1.3 1.8 2.3 3.1 3.1 1.3.8 2.7 1.3 4.4 1.6 1.6.3 3.3.5 5 .5 1.3 0 2.7-.1 4.2-.3 1.5-.2 2.8-.6 4-1.1 1.2-.5 2.2-1.3 3-2.3.8-1 1.2-2.3 1.2-3.9 0-2.2-.8-3.8-2.5-5-1.7-1.1-3.7-2-6.2-2.7-2.5-.7-5.2-1.3-8.1-1.9-2.9-.6-5.6-1.4-8.1-2.4s-4.5-2.5-6.2-4.3c-1.7-1.8-2.5-4.4-2.5-7.7 0-2.6.6-4.8 1.7-6.6 1.2-1.8 2.6-3.3 4.5-4.5 1.8-1.2 3.9-2 6.1-2.6 2.3-.6 4.5-.8 6.8-.8 2.9 0 5.6.2 8 .7 2.4.5 4.6 1.4 6.5 2.6 1.9 1.2 3.4 2.9 4.5 5s1.8 4.7 2 7.8h-8.4c-.1-1.6-.6-3-1.3-4.1-.7-1.1-1.7-2-2.8-2.6-1.1-.7-2.4-1.1-3.7-1.4-1.4-.3-2.7-.4-4.1-.4-1.3 0-2.5.1-3.8.3-1.3.2-2.5.5-3.5 1-1.1.5-1.9 1.2-2.6 2-.7.8-1 1.9-1 3.2 0 1.5.5 2.7 1.5 3.6 1 1 2.3 1.8 3.9 2.4s3.4 1.2 5.3 1.6c2 .4 4 .9 5.9 1.3 2.1.5 4.2 1 6.2 1.7s3.8 1.5 5.3 2.6 2.8 2.5 3.8 4.1c1 1.7 1.4 3.7 1.4 6.1 0 3.1-.6 5.7-1.9 7.7-1.3 2-3 3.7-5 4.9-2.1 1.3-4.4 2.1-7 2.6-2.6.5-5.2.7-7.8.7-2.8 0-5.5-.3-8.1-.9-2.6-.6-4.9-1.6-6.8-2.9-2-1.4-3.6-3.1-4.8-5.3-1.2-2.2-1.8-4.9-2-8.1h8.4c.2 1.8.7 3.4 1.5 4.7zm64.4-51.4v-7.9h56.5v7.9h-23.6v62.8h-9.4v-62.8h-23.5zm84.8 11.6v7.4h-10.2v31.8c0 1 .1 1.8.2 2.4.2.6.5 1.1.9 1.4.5.3 1.1.5 1.9.6.8.1 1.9.1 3.2.1h3.9v7.4h-6.4c-2.2 0-4-.1-5.6-.4-1.6-.3-2.8-.8-3.8-1.6s-1.7-1.9-2.1-3.4c-.5-1.5-.7-3.4-.7-5.7v-32.6h-8.7V576h8.7v-15.3h8.4V576h10.3zm87.5 46c-4.8 4.5-11.7 6.8-20.6 6.8-9.1 0-16.2-2.2-21.3-6.5-5.1-4.3-7.7-11.2-7.7-20.6v-45.1h9.4v45.1c0 6.3 1.7 11.1 5 14.4 3.4 3.3 8.2 4.9 14.6 4.9 6 0 10.6-1.6 13.7-4.9 3.1-3.3 4.7-8.1 4.7-14.4v-45.1h9.4v45.1c0 9-2.4 15.8-7.2 20.3zm55.3 5.2v-8.1h-.2c-1.8 3.2-4.1 5.5-6.8 7-2.8 1.5-6 2.2-9.8 2.2-3.4 0-6.2-.4-8.4-1.3s-4.1-2.2-5.4-3.8c-1.4-1.6-2.4-3.6-2.9-5.9-.6-2.3-.8-4.8-.8-7.6V576h8.4v34.7c0 3.2.9 5.7 2.8 7.5 1.8 1.8 4.4 2.8 7.6 2.8 2.6 0 4.8-.4 6.7-1.2s3.4-1.9 4.7-3.4c1.3-1.5 2.2-3.2 2.8-5.1.6-1.9.9-4.1.9-6.4V576h8.4v51.2h-8zM162 746l-24.8-70.7h10.1l20.2 61.3h.2l20.4-61.3h9.8L172.7 746H162zm56 0l-19-51.2h9.4l14.4 42.7h.2l14-42.7h8.8L227.1 746H218zm118.4 0l-16.1-59.4h-.2L303.8 746H294l-18.1-70.7h9.6l13.9 58.8h.2l15.8-58.8h10.2l15.6 58.8h.2l14.4-58.8h9.4l-19 70.7h-9.8zm78.1 0l-10.4-40.7h-.2L393.6 746h-9.1L368 694.8h9.3l11.6 41.9h.2l10.3-41.9h9.2l10.7 41.9h.2l11.5-41.9h8.7L423.4 746h-8.9zm55.7-70.7h11.3l17.6 27.6 18.4-27.6H528l-23.4 34.4 24.8 36.3H518l-19-29.2-19.6 29.2h-10.5l24.6-36.3-23.3-34.4zm61.5 19.5h10.8l12.3 17.9 12.8-17.9h10.1L560 718.4l19.8 27.6H569l-14.3-21.2-14.2 21.2h-10.2l19.2-26.9-17.8-24.3zM645.1 746h-9.4v-28.9l-27.3-41.8h11.2l21.2 33.7 20.7-33.7h10.7l-27 41.8V746zm53.7 6.8c-1 2.5-2 4.6-2.9 6.3-1 1.7-2 3.1-3.2 4.2-1.2 1.1-2.4 1.9-3.9 2.4-1.4.5-3.1.7-4.9.7-1 0-2-.1-3-.2s-1.9-.4-2.9-.7v-7.7c.7.3 1.6.6 2.5.8 1 .2 1.8.3 2.4.3 1.7 0 3.2-.4 4.3-1.2 1.2-.8 2-2 2.6-3.5l3.5-8.6-20.3-50.9h9.5l14.9 41.9h.2l14.4-41.9h8.9l-22.1 58.1zm96.7-69.6h-40.6v-7.9h51.7v7.9L762.7 738h45v7.9h-56.2V738l44-54.8zm47.4 19H814v-7.4h39.8v5.7l-31.3 38h32.7v7.4H812v-6.4l30.9-37.3z" class="st0"/></svg>