<svg xmlns="http://www.w3.org/2000/svg" id="Layer_1" viewBox="0 0 1000 1000" width="1000" height="1000"><style>.st0{fill:#231f20}.st1{fill:#303030}.st2{fill:none}.st3{fill:#596ab2}.st4{fill:#fff}.st5{fill:#413e38}.st6{fill:#596bb2}.st7{fill:#535353}.st8{fill:#8bd0d0}.st9{fill:#95999a}.st10{fill:#535453}</style><path d="M950 50v900H50V50h900m50-50H0v1000h1000V0z" class="st0"/><path d="M174.9 281.6v-38.8h-46.8v38.8h-10.6v-85.3h10.6v36.9h46.8v-36.9h10.6v85.3h-10.6zm78.4-18.2c-1.8 10.9-12.8 18.8-26.4 18.8-17.9 0-29.2-12.5-29.2-32.2s11.3-32.7 28.7-32.7c17 0 27.7 12 27.7 31.3v4h-45.7v.6c0 12.1 7.4 20 18.8 20 8 0 14.2-3.8 16-9.7h10.1zm-45-19.1h35c-.2-10.8-7.1-18-17.1-18-10 0-17.2 7.3-17.9 18zm57.1-51.7h10.3v89h-10.3v-89zm53.3 89h-10.4l-23.5-63.7h10.8l17.8 52.6h.2l17.9-52.6h10.7l-23.5 63.7zm82.6-18.2c-1.8 10.9-12.8 18.8-26.4 18.8-17.9 0-29.2-12.5-29.2-32.2s11.3-32.7 28.7-32.7c17 0 27.7 12 27.7 31.3v4h-45.7v.6c0 12.1 7.4 20 18.8 20 8 0 14.2-3.8 16-9.7h10.1zm-44.9-19.1h35c-.2-10.8-7.1-18-17.1-18-10 0-17.2 7.3-17.9 18zm70.1-40.8v14.4H439v8.5h-12.4v38.2c0 5.8 2.5 8.5 7.9 8.5 1.2 0 3.7-.2 4.4-.3v8.7c-1.2.3-4.2.5-6.6.5-11.5 0-16-4.8-16-17v-38.6h-8.9v-8.5h8.9v-14.4h10.2zm23.1-2.4c0-3.6 3-6.5 6.5-6.5 3.6 0 6.5 2.9 6.5 6.5 0 3.5-2.9 6.5-6.5 6.5s-6.5-3-6.5-6.5zm1.3 16.8h10.3v63.7h-10.3v-63.7zm67.4 20.7c-1.3-6.8-7-12.2-16.5-12.2-11.1 0-18.7 9.2-18.7 23.3 0 14.5 7.7 23.3 18.8 23.3 8.9 0 14.8-4.1 16.5-11.8h10.1c-1.7 12.4-12.2 21-26.7 21-17.5 0-29.2-12.4-29.2-32.4 0-19.6 11.6-32.4 29.1-32.4 15.8 0 25.4 10.2 26.7 21.3h-10.1zm17.2 24.8c0-10.9 8.4-17.4 23.9-18.3l17.8-1.1v-5.3c0-7.9-5.2-12.3-14.6-12.3-7.4 0-12.9 3.8-14.1 9.8h-9.9c.3-10.8 10.8-19 24.1-19 15.1 0 24.8 8 24.8 20.6v43.7h-9.7v-11h-.2c-3.6 7.1-11.6 11.6-20.5 11.6-13 0-21.6-7.4-21.6-18.7zm41.7-6.1v-5.1l-16.7 1.1c-9.6.6-14.5 4.1-14.5 10.2 0 5.9 5.1 9.7 13.2 9.7 10.4 0 18-6.7 18-15.9zm54.2 24.3v-85.3h10.3l46.7 66.9h.5v-66.9h10.5v85.3h-10.3l-46.7-66.7h-.5v66.7h-10.5zm135.8-18.2c-1.8 10.9-12.8 18.8-26.4 18.8-17.9 0-29.2-12.5-29.2-32.2s11.3-32.7 28.7-32.7c17 0 27.7 12 27.7 31.3v4h-45.7v.6c0 12.1 7.4 20 18.8 20 8 0 14.2-3.8 16-9.7h10.1zm-45-19.1h35c-.2-10.8-7.1-18-17.1-18-10 0-17.2 7.3-17.9 18zm108.5 37.3H821V271h-.2c-4 7.3-10.5 11.1-20.3 11.1-13.9 0-22-9-22-23.5v-40.8h10.3v39.1c0 10.5 4.9 16.1 14.9 16.1 10.5 0 16.8-7.2 16.8-18.1v-37h10.3v63.7zm66.4-18.2c-1.8 10.9-12.8 18.8-26.4 18.8-17.9 0-29.2-12.5-29.2-32.2s11.3-32.7 28.7-32.7c17 0 27.7 12 27.7 31.3v4h-45.7v.6c0 12.1 7.4 20 18.8 20 8 0 14.2-3.8 16-9.7h10.1zm-45-19.1h35c-.2-10.8-7.1-18-17.1-18-10 0-17.2 7.3-17.9 18zM124.8 401.6H116v-70.5h27c13.6 0 22.5 8.3 22.5 21 0 9.8-5.3 17.4-14.2 20.2l16.3 29.2h-10.3l-15.1-27.9h-17.3v28zm0-35.7h17.3c9 0 14.2-4.9 14.2-13.5 0-8.4-5.5-13.5-14.6-13.5h-16.9v27zm93.9 20.6c-1.5 9-10.6 15.5-21.8 15.5-14.8 0-24.1-10.3-24.1-26.6s9.4-27 23.7-27c14.1 0 22.9 9.9 22.9 25.8v3.3h-37.8v.5c0 10 6.2 16.5 15.5 16.5 6.6 0 11.7-3.1 13.2-8.1h8.4zm-37.1-15.7h29c-.2-8.9-5.9-14.9-14.2-14.9-8.3 0-14.2 6-14.8 14.9zm46.2 35.1h8.8c1.7 4.9 7 8.1 13.7 8.1 9.2 0 14.8-5.3 14.8-13.3v-8.3h-.2c-3.3 5.7-9.5 9-16.9 9-13.3 0-22.3-10.6-22.3-26.5 0-16.1 8.9-26.6 22.5-26.6 7.4 0 13.6 3.3 17.1 9h.1v-8.5h8.1v51.6c0 12.5-9.2 20.9-23.7 20.9-11.3.1-20.5-6.4-22-15.4zm37.3-30.9c0-11.3-6.2-19-15.5-19-9.2 0-15.2 7.5-15.2 19s6 18.9 15.2 18.9c9.2.1 15.5-7.6 15.5-18.9zm62.9 26.6h-8v-8.7h-.2c-3.3 6.1-8.7 9.2-16.7 9.2-11.5 0-18.2-7.4-18.2-19.4V349h8.5v32.3c0 8.6 4.1 13.3 12.3 13.3 8.6 0 13.9-6 13.9-15V349h8.5v52.6zm12-73.6h8.5v73.5H340V328zm18.1 58.6c0-9 6.9-14.4 19.7-15.1l14.7-.9v-4.4c0-6.5-4.3-10.2-12.1-10.2-6.1 0-10.6 3.1-11.7 8.1h-8.2c.2-8.9 8.9-15.7 19.9-15.7 12.5 0 20.5 6.6 20.5 17v36.1h-8.1v-9.1h-.2c-3 5.9-9.6 9.6-16.9 9.6-10.5 0-17.6-6.1-17.6-15.4zm34.5-5.1v-4.2l-13.8.9c-7.9.5-12 3.4-12 8.4 0 4.9 4.2 8.1 10.9 8.1 8.6 0 14.9-5.6 14.9-13.2zm19.8-32.6h8v8.5h.2c1.6-5.5 6.6-9 12.7-9 1.5 0 2.8.1 3.5.3v8.3c-.7-.2-2.5-.5-4.6-.5-6.8 0-11.3 5-11.3 12.4v32.6h-8.5v-52.6zM214.9 554.4l88.7 227.1h-33.4l-24.8-68.4h-96L124 781.4H93.1l88.4-227.1h33.4zm21 133.2l-37.8-105.9h-.6L159 687.6h76.9zm231.2 93.2c-4.7 2.8-11.1 4.1-19.4 4.1-7 0-12.6-2-16.7-5.9-4.1-3.9-6.2-10.3-6.2-19.2-7.4 8.9-16.1 15.3-25.9 19.2-9.9 3.9-20.5 5.9-32 5.9-7.4 0-14.5-.8-21.1-2.5s-12.5-4.3-17.3-8c-4.9-3.6-8.7-8.3-11.6-14.2-2.9-5.8-4.3-12.9-4.3-21.1 0-9.3 1.6-17 4.8-22.9 3.2-5.9 7.4-10.8 12.6-14.5 5.2-3.7 11.1-6.5 17.8-8.4s13.5-3.5 20.5-4.8c7.4-1.5 14.5-2.6 21.1-3.3 6.7-.7 12.6-1.8 17.6-3.2 5.1-1.4 9.1-3.4 12.1-6s4.5-6.5 4.5-11.6c0-5.9-1.1-10.7-3.3-14.3-2.2-3.6-5.1-6.4-8.6-8.3-3.5-1.9-7.4-3.2-11.8-3.8-4.3-.6-8.6-1-12.9-1-11.4 0-21 2.2-28.6 6.5-7.6 4.3-11.8 12.6-12.4 24.6h-27c.4-10.2 2.5-18.8 6.4-25.8s8.9-12.7 15.3-17c6.4-4.3 13.6-7.5 21.8-9.4 8.2-1.9 16.9-2.9 26.2-2.9 7.4 0 14.8.5 22.1 1.6 7.3 1.1 13.9 3.2 19.9 6.5 5.9 3.3 10.7 7.9 14.3 13.8 3.6 5.9 5.4 13.6 5.4 23.2v84.4c0 6.3.4 11 1.1 14 .7 3 3.2 4.4 7.5 4.4 2.3 0 5.1-.4 8.3-1.3v21.2zm-43.9-84.3c-3.4 2.5-7.8 4.4-13.4 5.5-5.5 1.2-11.3 2.1-17.3 2.8-6 .7-12.1 1.6-18.3 2.5-6.2.9-11.7 2.5-16.5 4.6-4.9 2.1-8.9 5.1-11.9 9-3.1 3.9-4.6 9.2-4.6 16 0 4.4.9 8.2 2.7 11.2 1.8 3.1 4.1 5.5 7 7.4 2.9 1.9 6.2 3.3 10 4.1 3.8.8 7.8 1.3 12.1 1.3 8.9 0 16.5-1.2 22.9-3.6 6.4-2.4 11.6-5.5 15.6-9.2 4-3.7 7-7.7 8.9-12 1.9-4.3 2.9-8.4 2.9-12.2v-27.4zm285.2-116.7H578.1v-25.4h166v25.4L603.2 756h144.7v25.4H567.2V756l141.2-176.2zm152.4 61.1h-92.9V617h127.8v18.4L795.2 757.6h104.9v23.8H761.5v-20.7l99.3-119.8z" class="st0"/></svg>