<svg xmlns="http://www.w3.org/2000/svg" width="6in" height="6in" viewBox="0 0 432 432"><path fill="#fff" stroke="#000" stroke-miterlimit="10" stroke-width="22.19" d="M185.8 43.2c-91.7 0-166.1 54.9-166.1 122.5 0 44 31.5 82.6 78.8 104.2h.2c13.8 7-4.3 28.8-4.3 28.8 17.5-3.4 77-10.6 91.4-10.6 91.7 0 166.1-54.9 166.1-122.5S277.5 43.2 185.8 43.2z"/><path fill="none" stroke="#000" stroke-miterlimit="10" stroke-width="11.1" d="M97.6 220h178.6"/><path fill="#fff" stroke="#000" stroke-miterlimit="10" stroke-width="22.19" d="M285.7 194c69.9 0 126.6 41.8 126.6 93.4 0 33.5-24 62.9-60 79.4h-.2c-10.6 5.3 3.3 21.9 3.3 21.9-13.4-2.6-58.7-8.1-69.7-8.1-69.9 0-126.5-41.8-126.5-93.3S215.8 194 285.7 194z"/><path fill="none" stroke="#000" stroke-miterlimit="10" stroke-width="11.1" d="M97.6 122h178.6M97.6 171h178.6"/><path fill="none" stroke="#000" stroke-miterlimit="10" stroke-width="8.44" d="M214.8 328.7h136m-136-74.6h136m-136 37.3h136"/></svg>