<?xml version="1.0" encoding="utf-8"?>
<!-- Generator: Adobe Illustrator 22.0.1, SVG Export Plug-In . SVG Version: 6.00 Build 0)  -->
<svg version="1.1" id="Layer_1" xmlns="http://www.w3.org/2000/svg" xmlns:xlink="http://www.w3.org/1999/xlink" x="0px" y="0px"
	 viewBox="0 0 432 432" style="enable-background:new 0 0 432 432;" xml:space="preserve">
<style type="text/css">
	.st0{stroke:#231F20;stroke-width:3.0878;stroke-miterlimit:10;}
	.st1{fill:#231F20;}
	.st2{fill:#FFFFFF;stroke:#FFFFFF;stroke-width:3.0878;stroke-miterlimit:10;}
	.st3{fill:#E2E1E2;}
	.st4{fill:none;stroke:#231F20;stroke-width:16.7351;stroke-linecap:round;stroke-miterlimit:10;}
	.st5{fill:none;}
	.st6{fill:#FFFFFF;}
	.st7{fill:#FFFFFF;stroke:#000000;stroke-width:22.1902;stroke-miterlimit:10;}
	.st8{fill:none;stroke:#000000;stroke-width:11.0951;stroke-miterlimit:10;}
	.st9{fill:none;stroke:#000000;stroke-width:8.4445;stroke-miterlimit:10;}
	.st10{clip-path:url(#SVGID_2_);}
	.st11{fill:#9E7266;}
	.st12{fill:#8AD0D1;}
	.st13{fill:#5D4D46;}
	.st14{fill:#DF8433;}
	.st15{fill:#E4B79F;}
	.st16{fill:#9B5A57;}
	.st17{fill:#F2CEBB;}
	.st18{fill:#F8FBF9;}
	.st19{fill:#E57675;}
	.st20{clip-path:url(#SVGID_4_);}
	.st21{fill:#2E3192;}
	.st22{fill:#ED1C24;}
	.st23{fill:#E7C186;}
	.st24{fill:#C9A976;}
	.st25{clip-path:url(#SVGID_6_);}
	.st26{fill:#EC008C;}
	.st27{fill:#D7D6D2;}
	.st28{fill:#E4BB73;}
	.st29{clip-path:url(#SVGID_8_);}
	.st30{fill:#F26522;}
	.st31{fill:#C699C5;}
	.st32{fill:#3C2415;}
	.st33{fill:#8B5E3C;}
	.st34{clip-path:url(#SVGID_10_);}
	.st35{fill:#65C1E3;}
	.st36{clip-path:url(#SVGID_12_);}
</style>
<g>
	<path d="M387.9,142.6c-1.3-2.4-4.6-4.5-7.3-5.3c-16.9-5.1-33.9-9.8-50.9-14.5c-4.3-1.2-8.7-1.4-12.9-0.4l0-0.1l-39.9,10.5
		c-5.3,1.1-10.5,2.3-15.8,3.4c-4.4,0.9-7.5,3.4-9.3,7.6c-2.2,5.1-4.5,10.1-6.7,15.2c-1.2,2.7-2.4,5.5-3.7,8.2c11.1,1,15,6.2,16.4,10
		c3.8-5.6,7.6-11.3,11.5-16.9c0.6-0.9,1.5-2,2.4-2.2c10.4-2.3,20.7-4.9,31.1-6.8c0.2,12-0.1,25.1-0.2,30.5c0.1,0,0.2,0,0.3,0
		c1.2,5.1,3.3,10.1,3.5,15.3c0.4,11.1-0.2,22.3-0.4,33.5c0,0.4-0.1,0.8-0.3,1.2l58.6-15.4c0.5-10.8,0.6-21.7-0.8-32.5
		c-1.2-9.4-3.1-18.7-4.8-28.2c5.2,1.7,11.2,1.7,15.1,8c4.7,7.6,9.9,14.9,15.1,22.2c3.8-6,11.5-8.1,17-8.9
		C400.2,165.5,394.2,154,387.9,142.6z"/>
	<path d="M306.4,175.1l-15.3,8.6c0,0-5.8,2.5-6.2,1.6c-5.4-12-11.2-23.9-15.8-36.2c-4-11-11.4-18-21.9-22.2c-4.3-1.7-8.7-2-13.1-1.2
		c-0.8,0.2-1.8,0.5-2.9,0.6c-0.8,0.2-1.6,0.4-2.3,0.7c-12.6,4.9-26.9,32.3-26.9,32.3c-1.6,9.5-3.6,18.8-4.8,28.2
		c-1.3,10.8-1.3,21.6-0.8,32.5l58.6,15.4c-0.1-0.4-0.3-0.8-0.3-1.2c-0.3-11.2-0.8-22.4-0.4-33.5c0.2-5.1,2.3-10.2,3.5-15.3
		c0.4,0,0.8,0.1,1.2,0.1c2.2,4.9,4.4,9.8,6.6,14.8c1.8,4.2,4.9,6.6,9.3,7.5c5.4,1.1,16.2-6.6,16.2-6.6s16.3-10.4,18.3-12.4
		C311.4,186.7,306.4,175.1,306.4,175.1z"/>
	<path d="M257.8,68.9c14.5,0,26.2,11.6,26.2,26.1c0,14.6-11.8,26.3-26.4,26.2c-14.5-0.1-26-11.7-26-26.3
		C231.7,80.4,243.3,68.9,257.8,68.9z"/>
	<path d="M40.8,98.7c0,14.5,11.5,26.1,26,26.2c14.5,0.1,26.2-11.5,26.3-26c0.1-14.7-11.5-26.3-26.2-26.4
		C52.5,72.5,40.8,84.2,40.8,98.7z"/>
	<path d="M317.5,173.5c-0.7,0.2-1.5,0.2-2.3-0.1c-0.6-0.2-1.5,0.3-2.3,0.5c-2.8,0.8-5.6,1.6-8.4,2.4c-1.3,2.7-1.9,7.4,3.4,12.9
		c3.2-1.5,6.4-3,9.5-4.8c0.3-0.2,0.6-0.3,0.9-0.4C323.9,177.3,320.7,174.6,317.5,173.5z"/>
	<path d="M94.3,270.9c-6.9,4.3-13.4,8.3-19.8,12.4c-0.6,0.4-0.9,1.9-0.7,2.7c1.3,5.8,2.7,11.6,4.3,17.3c0.6,1.9,1.8,3.8,3.1,5.3
		c12.3,13.7,24.8,27.3,37.2,40.9c5.1,5.5,12.2,6.1,17.3,1.6c5-4.5,5.2-11.8,0.2-17.3c-11-12.2-22.2-24.2-33.1-36.5
		c-1.6-1.8-2.9-4.3-3.5-6.7C97.4,284.2,96,277.8,94.3,270.9z"/>
	<path d="M65.5,288.2c-8.7,3.8-17.2,7.5-25.6,11.3c-0.8,0.4-1.5,1.6-1.8,2.6c-3.7,14.3-7.3,28.5-10.8,42.8
		c-1.5,6.3,2.3,12.4,8.4,14.1c6.2,1.6,12.6-1.8,14.3-8c5.3-20.5,10.4-41.1,15.5-61.6C65.6,289.1,65.5,288.8,65.5,288.2z"/>
	<path d="M30.9,203.2c4.9-4.5,9.8-9.1,14.6-13.7c1-0.9,1.7-2.6,1.7-4c0.3-7.7,0.4-15.5,0.6-23.2c0.3-8.9,3.4-16.9,7.6-24.6
		c1.3-2.4,3.1-3.6,6.1-3.4c6.9,0.4,13.8,0.6,20.7,0.8c4.7,0.2,7.3,2.7,8.3,7.3c3.8,17.7,7.8,35.3,11.6,53c0.4,1.9,24,96.2,22.5,98
		c-10.6,12.7-27.4-33-32-29.4c-7.2,5.7-15,10.7-23.1,15.1c-13.4,7.2-27.3,13.6-41,20.4c-1,0.5-1.9,0.9-3.1,1.4c0-0.8-0.1-1.1,0-1.4
		c5.3-23.5,10.5-47.1,15.9-70.6c0.3-1.5,1.5-3,2.7-3.9c8.4-6.6,16.9-13,25.3-19.6c1-0.8,2.1-1.9,2.4-3.1c2.4-10.8,4.6-21.6,6.9-32.4
		c-0.2-0.1-0.3-0.2-0.5-0.3c-0.3,1-0.7,1.9-1,2.9c-2.7,8.2-5.4,16.5-7.9,24.8c-1,3.3-2.8,5.6-5.8,7.4c-7.3,4.4-14.5,9-21.7,13.5
		C41.5,213.4,39.9,204.7,30.9,203.2z"/>
	<path d="M23.1,210.5c2.6-2.4,5.2-4.9,7.8-7.3c9,1.5,10.6,10.1,10.8,14.8c-3,1.9-5.9,3.7-8.9,5.6c-4.3,2.7-8.7,2-11.4-1.7
		C18.6,218.3,19.3,214,23.1,210.5z"/>
	<path d="M197,230c1.2,18.1,1.9,36.1,2.7,54.2c0.1,1.7-0.6,3.7-1.6,5c-10.9,13-22,25.8-32.8,38.8c-2.3,2.7-4.2,5.8-5.7,9
		c-2.1,4.6-1,9,2.1,11.8c3.6,3.3,7.7,3.3,11.6,1c4.2-2.5,8.3-5.2,12-8.5c14-12.4,27.9-25,41.8-37.6c4.2-3.8,5.9-8.6,5.6-14.1
		c-0.4-7.1-1-14.2-1.6-21.3c-0.1-0.8,0-1.6,0-2.5c4.8,7.5,8.9,15.1,13,22.8c0.5,0.9,0.5,2,0.6,3.1c1.5,19.5,3,39,4.7,58.5
		c0.3,3.8,1.3,7.6,2.8,11.1c1.6,3.8,5,5.4,9.2,5.1c4.2-0.2,7.1-2.7,8.2-6.3c1.7-5.9,3.4-11.9,3.9-18c1.3-16.3,2-32.6,3.1-48.9
		c0.4-6.6-0.7-12.9-3.5-18.9c-5.7-12.4-11.4-24.9-17.1-37.3c-0.3-0.6-0.6-1.3-0.9-2l-58.6-15.4C196.6,223.3,196.8,226.6,197,230z"/>
	<path d="M323.8,65.4c-14.5,0-26.2,11.6-26.2,26.1c0,14.6,11.8,26.3,26.4,26.2c14.5-0.1,26-11.7,26-26.3
		C350,76.9,338.3,65.3,323.8,65.4z"/>
	<path d="M406.1,177c1.8,3.4,3.6,6.9,5.3,10.3c2.5,4.9-0.5,10.8-5.8,12.2c-3.7,1-7.3-0.5-9.9-4.3c-2.2-3.1-4.4-6.2-6.6-9.3
		C393,179.9,400.6,177.7,406.1,177z"/>
	<path d="M363.8,226.5c-1.2,18.1-1.9,36.1-2.7,54.2c-0.1,1.7,0.6,3.7,1.6,5c10.9,13,22,25.8,32.8,38.8c2.3,2.7,4.2,5.8,5.7,9
		c2.1,4.6,1,9-2.1,11.8c-3.6,3.3-7.7,3.3-11.6,1c-4.2-2.5-8.3-5.2-12-8.5c-14-12.4-27.9-25-41.8-37.6c-4.2-3.8-5.9-8.6-5.6-14.1
		c0.4-7.1,1-14.2,1.6-21.3c0.1-0.8,0-1.6,0-2.5c-4.8,7.5-8.9,15.1-13,22.8c-0.5,0.9-0.5,2-0.6,3.1c-1.5,19.5-3,39-4.7,58.5
		c-0.3,3.8-1.3,7.6-2.8,11.1c-1.6,3.8-5,5.4-9.2,5.1c-4.2-0.2-7.1-2.7-8.2-6.3c-1.7-5.9-3.4-11.9-3.9-18c-1.3-16.3-2-32.6-3.1-48.9
		c-0.4-6.6,0.7-12.9,3.5-18.9c5.7-12.4,11.4-24.9,17.1-37.3c0.3-0.6,0.6-1.3,0.9-2l58.6-15.4C364.3,219.7,364.1,223.1,363.8,226.5z"
		/>
	<path d="M246.5,190.9c0.6-0.7,1.4-1.4,2.6-1.8c0.8-0.3,1.4-1.5,2-2.3c2.3-3.1,4.6-6.1,6.9-9.2c-1.2-3.9-4.8-9.2-15.9-10.7
		c-2.1,4.1-4.1,8.3-5.9,12.6c-0.2,0.4-0.4,0.7-0.6,1.1C235.8,192.1,241.9,192.4,246.5,190.9z"/>
	<path class="st5" d="M228.9,126.9c0.8-0.2,1.6-0.4,2.3-0.7C230.4,126.4,229.7,126.6,228.9,126.9z"/>
	<path d="M231.2,126.3c1.1-0.2,2.1-0.4,2.9-0.6C233.1,125.8,232.2,126,231.2,126.3z"/>
</g>
</svg>
