<?xml version="1.0" encoding="utf-8"?>
<!-- Generator: Adobe Illustrator 22.0.1, SVG Export Plug-In . SVG Version: 6.00 Build 0)  -->
<svg version="1.1" id="Layer_1" xmlns="http://www.w3.org/2000/svg" xmlns:xlink="http://www.w3.org/1999/xlink" x="0px" y="0px"
	 viewBox="0 0 432 432" style="enable-background:new 0 0 432 432;" xml:space="preserve">
<style type="text/css">
	.st0{stroke:#231F20;stroke-width:3.0878;stroke-miterlimit:10;}
	.st1{fill:#231F20;}
	.st2{fill:#FFFFFF;stroke:#FFFFFF;stroke-width:3.0878;stroke-miterlimit:10;}
	.st3{fill:#E2E1E2;}
	.st4{fill:none;stroke:#231F20;stroke-width:16.7351;stroke-linecap:round;stroke-miterlimit:10;}
	.st5{fill:none;}
	.st6{fill:#FFFFFF;}
	.st7{fill:#FFFFFF;stroke:#000000;stroke-width:22.1902;stroke-miterlimit:10;}
	.st8{fill:none;stroke:#000000;stroke-width:11.0951;stroke-miterlimit:10;}
	.st9{fill:none;stroke:#000000;stroke-width:8.4445;stroke-miterlimit:10;}
	.st10{clip-path:url(#SVGID_2_);}
	.st11{fill:#9E7266;}
	.st12{fill:#8AD0D1;}
	.st13{fill:#5D4D46;}
	.st14{fill:#DF8433;}
	.st15{fill:#E4B79F;}
	.st16{fill:#9B5A57;}
	.st17{fill:#F2CEBB;}
	.st18{fill:#F8FBF9;}
	.st19{fill:#E57675;}
	.st20{clip-path:url(#SVGID_4_);}
	.st21{fill:#2E3192;}
	.st22{fill:#ED1C24;}
	.st23{fill:#E7C186;}
	.st24{fill:#C9A976;}
	.st25{clip-path:url(#SVGID_6_);}
	.st26{fill:#EC008C;}
	.st27{fill:#D7D6D2;}
	.st28{fill:#E4BB73;}
	.st29{clip-path:url(#SVGID_8_);}
	.st30{fill:#F26522;}
	.st31{fill:#C699C5;}
	.st32{fill:#3C2415;}
	.st33{fill:#8B5E3C;}
	.st34{clip-path:url(#SVGID_10_);}
	.st35{fill:#65C1E3;}
	.st36{clip-path:url(#SVGID_12_);}
</style>
<g>
	<path class="st0" d="M255.6,238.9c24.6-16.1,41.1-46.7,41.1-81.8c0-51.8-36.2-93.8-80.8-93.8c-44.6,0-80.8,42-80.8,93.8
		c0,35.1,16.6,65.7,41.1,81.8c-54.4,19.9-93.8,79.5-93.8,150h266.9C349.4,318.4,310,258.8,255.6,238.9z"/>
	<ellipse class="st1" cx="121.5" cy="166.7" rx="10.7" ry="29.7"/>
	<ellipse class="st1" cx="310.5" cy="166.7" rx="10.7" ry="29.7"/>
	<path class="st1" d="M216,43.1c-56.4,0-102.1,42-102.1,93.8h14.5c0-44.4,39.2-80.5,87.6-80.5s87.6,36,87.6,80.5h14.5
		C318.1,85.1,272.4,43.1,216,43.1z"/>
	<path class="st2" d="M318.1,196.3h-13.3c0,12.4-36,22.5-80.5,22.5v3.7C276.1,222.6,318.1,210.8,318.1,196.3z"/>
	<ellipse class="st2" cx="235.8" cy="220.1" rx="19.8" ry="6.4"/>
</g>
</svg>
