<?xml version="1.0" encoding="utf-8"?>
<!-- Generator: Adobe Illustrator 22.0.1, SVG Export Plug-In . SVG Version: 6.00 Build 0)  -->
<svg version="1.1" id="Layer_1" xmlns="http://www.w3.org/2000/svg" xmlns:xlink="http://www.w3.org/1999/xlink" x="0px" y="0px"
	 viewBox="0 0 432 432" style="enable-background:new 0 0 432 432;" xml:space="preserve">
<style type="text/css">
	.st0{stroke:#231F20;stroke-width:3.0878;stroke-miterlimit:10;}
	.st1{fill:#231F20;}
	.st2{fill:#FFFFFF;stroke:#FFFFFF;stroke-width:3.0878;stroke-miterlimit:10;}
	.st3{fill:#E2E1E2;}
	.st4{fill:none;stroke:#231F20;stroke-width:16.7351;stroke-linecap:round;stroke-miterlimit:10;}
	.st5{fill:none;}
	.st6{fill:#FFFFFF;}
	.st7{fill:#FFFFFF;stroke:#000000;stroke-width:22.1902;stroke-miterlimit:10;}
	.st8{fill:none;stroke:#000000;stroke-width:11.0951;stroke-miterlimit:10;}
	.st9{fill:none;stroke:#000000;stroke-width:8.4445;stroke-miterlimit:10;}
	.st10{clip-path:url(#SVGID_2_);}
	.st11{fill:#9E7266;}
	.st12{fill:#8AD0D1;}
	.st13{fill:#5D4D46;}
	.st14{fill:#DF8433;}
	.st15{fill:#E4B79F;}
	.st16{fill:#9B5A57;}
	.st17{fill:#F2CEBB;}
	.st18{fill:#F8FBF9;}
	.st19{fill:#E57675;}
	.st20{clip-path:url(#SVGID_4_);}
	.st21{fill:#2E3192;}
	.st22{fill:#ED1C24;}
	.st23{fill:#E7C186;}
	.st24{fill:#C9A976;}
	.st25{clip-path:url(#SVGID_6_);}
	.st26{fill:#EC008C;}
	.st27{fill:#D7D6D2;}
	.st28{fill:#E4BB73;}
	.st29{clip-path:url(#SVGID_8_);}
	.st30{fill:#F26522;}
	.st31{fill:#C699C5;}
	.st32{fill:#3C2415;}
	.st33{fill:#8B5E3C;}
	.st34{clip-path:url(#SVGID_10_);}
	.st35{fill:#65C1E3;}
	.st36{clip-path:url(#SVGID_12_);}
</style>
<g>
	<defs>
		<circle id="SVGID_7_" cx="217.6" cy="205.1" r="174.4"/>
	</defs>
	<clipPath id="SVGID_2_">
		<use xlink:href="#SVGID_7_"  style="overflow:visible;"/>
	</clipPath>
	<g class="st10">
		<path class="st30" d="M113.6,372.5c1.4-6.3,2.8-12.5,4.2-18.8c5-8,8.3-20,15.4-23.3c14.8-6.6,31.7-8.6,47.8-12.5
			c2.8,7.4,5.7,14.8,8.3,22.3c2.7,7.9,6.4,6.5,10.9,1.7c7.6,4.3,9.3,11,8.5,19.2c-1.4,13.4-2.3,26.8-3.4,40.2
			c-19-3.4-38.1-6.8-57.1-10.2C136.7,384.9,125.1,378.7,113.6,372.5z"/>
		<path class="st12" d="M181,317.9c-16,3.9-33,5.8-47.8,12.5c-7.2,3.2-10.4,15.2-15.4,23.3c-26-19.3-46.9-42.7-61.1-72.1
			C7.3,179.3,71.1,55.3,182.5,33.9c95.6-18.4,187.3,44.4,205.4,134.9c15.5,77.1-11.2,139.3-75.2,185.2c-2.7-13.1-3.9-26.7-8.4-39.1
			c-4.5-12.4-55.4,19.4-61.4,7.5c-4.1-8-15.7-8.2-19.5-16.4c5.6-9.1,60-69.9,70.6-76.6c6.2-3.9,7.5-17.8,8.3-27.5
			c0.6-7.4-6.7-9.7-13.7-9.5c0.5-5.5,0.8-11.1,1.5-16.6c4.4-32.8,2.9-63.3-30.2-82.4c-2.3-1.4-4.1-4.9-4.8-7.7
			c-4-17.5-16.1-26-32.5-29.2c-17.4-3.4-30.8,3.2-41.6,17.1c-6.5,8.4-13.9,16.4-22.1,23.1c-15.8,13-25.6,29.1-24.7,49.3
			c0.7,14.8,5.4,29.4,8.3,44.1c-16.1,7-20,26.8-5.1,37.9c10.6,7.9,14.2,19.2,21.8,28.2c8.4,9.8,16.9,19.8,26.9,27.9
			c6.5,5.3,10.7,10.1,9.5,18.6C190.8,307.7,185.9,312.8,181,317.9z"/>
		<path class="st31" d="M314.6,361.2c-0.6-2-1.1-4-1.7-6C313.5,357.2,314,359.2,314.6,361.2z"/>
		<path class="st30" d="M244,401.1c-5.7,0.1-11.5,0.2-17.2,0.2c-0.3-2.7-0.7-5.5-1-8.2l0.4-0.6l-0.6-0.4c-0.5-10.3-1.9-20.7-1-30.9
			c0.6-6.8,4.5-13.4,7-20c6.3,7.1,9.9,5.4,12.3-3.2c1.9-6.8,4.8-13.3,7.2-19.9c3.8-0.2,7.7-0.4,11.5-0.6
			c2.1,25.1-6.9,47.7-15.6,70.4c-1.5,4-2.3,8.3-3.3,12.5L244,401.1z"/>
		<path class="st15" d="M260.4,397.6c-3.1,0.6-6.3,1.3-9.4,1.9C254.1,398.8,257.2,398.2,260.4,397.6z"/>
		<path class="st15" d="M244,401.1l-0.4-0.9c0.7-0.1,1.3,0.1,1.6,0.7c0,0-0.6,0.3-0.6,0.3L244,401.1z"/>
		<path class="st18" d="M236.1,303c5,5,10,10,15.1,15c-2.4,6.6-5.3,13.2-7.2,19.9c-2.5,8.6-6.1,10.4-12.3,3.2
			c-15.3-20.8-16.5-20.8-31.4,0.8c-4.5,4.8-8.2,6.1-10.9-1.7c-2.5-7.5-5.5-14.8-8.3-22.3c4.9-5.1,9.8-10.2,14.7-15.2
			c6.9,5.6,13.6,15.2,20.8,15.6C222.8,318.6,229.6,308.5,236.1,303z"/>
		<path class="st30" d="M200.2,341.9c14.9-21.6,16.1-21.6,31.4-0.8c-2.4,6.7-6.4,13.2-7,20c-0.9,10.2,0.6,20.6,1,30.9
			c0,0-0.3,0.6-0.3,0.6l0.5,0.4c0.3,2.7,0.7,5.5,1,8.2c-7.2,0-14.4,0-21.5,0c1.1-13.4,2-26.8,3.4-40.2
			C209.5,352.9,207.8,346.2,200.2,341.9z"/>
		<path class="st32" d="M145,190.7c-0.8-0.2-1.6-0.4-2.4-0.6c-2.9-14.7-7.6-29.3-8.3-44.1c-0.9-20.2,8.9-36.4,24.7-49.3
			c8.2-6.7,15.6-14.7,22.1-23.1c10.8-14,24.2-20.5,41.6-17.1c16.4,3.2,28.5,11.7,32.5,29.2c0.6,2.8,2.4,6.4,4.8,7.7
			c33.1,19.2,34.6,49.6,30.2,82.4c-0.7,5.5-1,11.1-1.5,16.6c-0.6,0.3-1.3,0.5-2,0.5c-1.6-2-3.1-4-4.7-6c0.3-26.3-5.1-33-31.1-37.6
			c-6.2-1.1-12.8-0.6-19-1.9c-8.8-1.8-18.1-3.2-26.1-7c-20.6-9.8-40.5-3-48.5,18.6c-3.1,8.5-4,17.8-5.9,26.7
			C149.2,187.4,147.1,189.1,145,190.7z"/>
		<path class="st11" d="M152.8,209.4c1.2-3.2,2.4-6.3,3.7-9.5c2.1,9.6-0.7,21.3,11.8,26.6c20.4,8.6,36.6-1.7,37.8-24.2
			c1.3,3.3,2.6,6.5,3.9,9.8c-8.5,18.5-16.8,23.7-33.8,21.2C160.9,230.9,155.6,225.6,152.8,209.4z"/>
		<path class="st11" d="M229.4,221.4c1.3,0,2.5-0.1,3.8-0.1c7.4,8.6,17.2,8.7,27.3,7.4c0.8,0.8,1.6,1.7,2.5,2.5
			C246,236.3,238.3,234,229.4,221.4z"/>
		<path class="st11" d="M263,231.2c-0.8-0.8-1.6-1.7-2.5-2.5c5.5-5.4,11-10.9,16.5-16.3c0.7,0.7,1.5,1.4,2.2,2.1
			C278,224.1,272.5,229.7,263,231.2z"/>
		<path class="st27" d="M225.8,393.1l-0.5-0.4c0,0,0.3-0.6,0.3-0.6c0,0,0.6,0.4,0.6,0.4L225.8,393.1z"/>
		<path class="st33" d="M235.8,298.9c-11.6,5.8-28.2,3-39.8,0.1c0-5.6-5.1-10.8-5.1-10.8s32.9,7.7,48.5-0.1
			C235.5,293,236.2,298.7,235.8,298.9z"/>
		<path class="st11" d="M288.6,192.4c-0.6,0.3-1.3,0.5-2,0.5c0,0,0,0,0,0c-1.6-2-3.1-4-4.7-6c0.3-26.3-5.1-33-31.1-37.6
			c-6.2-1.1-12.8-0.6-19-1.9c-8.8-1.8-18.1-3.2-26.1-7c-20.6-9.8-40.5-3-48.5,18.6c-3.1,8.5-4,17.8-5.9,26.7
			c-2.1,1.7-7.9,4.6-8.7,4.4c-16.1,7-20,26.8-5.1,37.9c10.6,7.9,14.2,19.2,21.8,28.2c8.4,9.8,16.9,19.8,26.9,27.9
			c6.5,5.3,10.7,10.1,9.5,18.6c6.9,5.6,13.6,15.2,20.8,15.6c6.2,0.3,13-9.8,19.6-15.3c6.1-10.9,30.5-38.8,38.5-48.1
			c5.6-9.1,8.9-18.8,19.5-25.5c6.2-3.9,7.5-17.8,8.3-27.5C302.9,194.5,295.6,192.2,288.6,192.4z M160.7,192.9c0.3-0.4,0.6-0.7,0.9-1
			C161.3,192.2,161,192.5,160.7,192.9z M218.9,207.3c0.6,0.3,1.1,0.6,1.7,1.1C220,208,219.4,207.6,218.9,207.3z"/>
		<path class="st32" d="M314.6,361.2c0.7,4.3,1.3,8.6,2,12.9c-10.9,5.6-21.8,11.1-32.7,16.7c-7.8,2.2-15.7,4.5-23.5,6.7
			c-3.1,0.6-6.2,1.3-9.4,1.9c-1.9,0.5-3.8,1-5.7,1.5c-0.4-0.6-0.9-0.9-1.6-0.7c1.1-4.2,1.8-8.5,3.3-12.5
			c8.7-22.7,17.8-45.3,15.6-70.4c0.4-13-1.9-25.1-11.9-34.5c7.9-9.3,15.9-18.6,23.8-27.9c3.8,8.2,7.3,16.5,11.4,24.6
			c6.1,11.9,14,23,18.5,35.5c4.5,12.4,5.7,26,8.4,39.1c-0.2,0.4-0.2,0.8,0.1,1.2C313.5,357.2,314,359.2,314.6,361.2z"/>
	</g>
</g>
</svg>
