<?xml version="1.0" encoding="utf-8"?>
<!-- Generator: Adobe Illustrator 22.0.1, SVG Export Plug-In . SVG Version: 6.00 Build 0)  -->
<svg version="1.1" id="Layer_1" xmlns="http://www.w3.org/2000/svg" xmlns:xlink="http://www.w3.org/1999/xlink" x="0px" y="0px"
	 viewBox="0 0 432 432" style="enable-background:new 0 0 432 432;" xml:space="preserve">
<style type="text/css">
	.st0{stroke:#231F20;stroke-width:3.0878;stroke-miterlimit:10;}
	.st1{fill:#231F20;}
	.st2{fill:#FFFFFF;stroke:#FFFFFF;stroke-width:3.0878;stroke-miterlimit:10;}
	.st3{fill:#E2E1E2;}
	.st4{fill:none;stroke:#231F20;stroke-width:16.7351;stroke-linecap:round;stroke-miterlimit:10;}
	.st5{fill:none;}
	.st6{fill:#FFFFFF;}
	.st7{fill:#FFFFFF;stroke:#000000;stroke-width:22.1902;stroke-miterlimit:10;}
	.st8{fill:none;stroke:#000000;stroke-width:11.0951;stroke-miterlimit:10;}
	.st9{fill:none;stroke:#000000;stroke-width:8.4445;stroke-miterlimit:10;}
	.st10{clip-path:url(#SVGID_2_);}
	.st11{fill:#9E7266;}
	.st12{fill:#8AD0D1;}
	.st13{fill:#5D4D46;}
	.st14{fill:#DF8433;}
	.st15{fill:#E4B79F;}
	.st16{fill:#9B5A57;}
	.st17{fill:#F2CEBB;}
	.st18{fill:#F8FBF9;}
	.st19{fill:#E57675;}
	.st20{clip-path:url(#SVGID_4_);}
	.st21{fill:#2E3192;}
	.st22{fill:#ED1C24;}
	.st23{fill:#E7C186;}
	.st24{fill:#C9A976;}
	.st25{clip-path:url(#SVGID_6_);}
	.st26{fill:#EC008C;}
	.st27{fill:#D7D6D2;}
	.st28{fill:#E4BB73;}
	.st29{clip-path:url(#SVGID_8_);}
	.st30{fill:#F26522;}
	.st31{fill:#C699C5;}
	.st32{fill:#3C2415;}
	.st33{fill:#8B5E3C;}
	.st34{clip-path:url(#SVGID_10_);}
	.st35{fill:#65C1E3;}
	.st36{clip-path:url(#SVGID_12_);}
</style>
<g>
	<path d="M180.8,65.4c14.7,0,26.5,11.8,26.5,26.4c0,14.7-12,26.6-26.7,26.5c-14.7-0.1-26.3-11.9-26.3-26.6
		C154.3,77,166.1,65.3,180.8,65.4z"/>
	<path d="M340.4,102.4c0,14.7-11.7,26.5-26.3,26.5c-14.7,0.1-26.5-11.6-26.6-26.3C287.4,87.8,299.1,76.1,314,76
		C328.6,75.9,340.4,87.8,340.4,102.4z"/>
	<path d="M286.3,276.7c7,4.4,13.5,8.4,20,12.6c0.6,0.4,0.9,1.9,0.7,2.7c-1.3,5.9-2.7,11.8-4.4,17.5c-0.6,1.9-1.8,3.9-3.2,5.4
		c-12.5,13.8-25,27.6-37.6,41.3c-5.1,5.6-12.4,6.2-17.5,1.6c-5.1-4.6-5.2-12-0.2-17.5c11.2-12.3,22.5-24.5,33.5-36.9
		c1.7-1.9,2.9-4.4,3.6-6.8C283.2,290.2,284.6,283.7,286.3,276.7z"/>
	<path d="M315.4,294.2c8.8,3.9,17.4,7.6,25.9,11.5c0.8,0.4,1.6,1.7,1.8,2.7c3.7,14.4,7.4,28.8,10.9,43.3c1.6,6.4-2.3,12.6-8.5,14.2
		c-6.2,1.7-12.8-1.8-14.4-8.1c-5.3-20.8-10.5-41.6-15.7-62.4C315.4,295.1,315.4,294.8,315.4,294.2z"/>
	<path d="M245.8,201c-0.9-0.4-1.7-1.1-2.4-2.1c-0.5-0.8-1.8-1-2.8-1.4c-10-4.1-19.9-8.2-29.9-12.4c-1-0.4-2.3-1.1-2.7-2
		c-5.4-12.2-11.4-24.1-15.9-36.6c-4.1-11.2-11.6-18.2-22.1-22.5c-5.2-2.1-10.8-2.1-16.2-0.6c-17.2,4.8-34.4,9.6-51.5,14.7
		c-2.8,0.8-6.1,2.9-7.4,5.4c-8.2,14.9-16,30-23.8,45.2c-2.5,5,0.5,10.9,5.9,12.3c3.7,1,7.4-0.5,10.1-4.3c7.4-10.6,15.1-21,21.9-31.9
		c3.9-6.4,10-6.3,15.3-8.1c-1.7,9.6-3.6,19-4.8,28.5c-1.8,14.3-1.1,28.7-0.2,43.1c1.2,18.3,2,36.6,2.7,54.9c0.1,1.7-0.6,3.8-1.7,5.1
		c-11,13.2-22.2,26.1-33.2,39.3c-2.3,2.7-4.3,5.8-5.7,9.1c-2.1,4.6-1,9.1,2.1,12c3.7,3.3,7.8,3.4,11.8,1.1c4.3-2.5,8.4-5.3,12.1-8.6
		c14.2-12.5,28.2-25.3,42.3-38c4.2-3.8,6-8.7,5.7-14.2c-0.4-7.2-1-14.3-1.6-21.5c-0.1-0.8,0-1.7,0-2.5c4.8,7.6,9,15.3,13.1,23.1
		c0.5,0.9,0.5,2,0.6,3.1c1.6,19.7,3,39.5,4.7,59.2c0.3,3.8,1.4,7.7,2.8,11.2c1.6,3.8,5.1,5.4,9.3,5.2c4.3-0.2,7.2-2.7,8.3-6.4
		c1.8-5.9,3.4-12,3.9-18.2c1.4-16.5,2-33,3.1-49.4c0.4-6.7-0.7-13-3.5-19.1c-5.8-12.6-11.6-25.2-17.3-37.8c-0.5-1-1.1-2.2-1.1-3.3
		c-0.3-11.3-0.8-22.6-0.4-33.9c0.2-5.2,2.3-10.3,3.5-15.4c0.4,0,0.8,0.1,1.2,0.1c2.2,5,4.5,10,6.6,15c1.8,4.2,4.9,6.7,9.4,7.6
		c5.5,1.1,10.9,2.4,16.4,3.5c7.5,1.6,15.1,3.5,22.7,4.6c0.4,0.1,0.8,0.2,1.2,0.3C249.7,211.1,248.4,205.1,245.8,201z"/>
	<path d="M350.5,208.2c-5-4.6-9.9-9.2-14.8-13.9c-1-0.9-1.7-2.7-1.7-4c-0.3-7.8-0.4-15.7-0.6-23.5c-0.3-9-3.4-17.1-7.7-24.9
		c-1.3-2.4-3.2-3.6-6.2-3.5c-7,0.4-14,0.6-20.9,0.8c-4.7,0.2-7.4,2.7-8.4,7.4c-3.8,17.9-7.9,35.7-11.7,53.6c-0.4,1.9-1.2,2.4-3,2.3
		c-7.7-0.3-15.5-0.4-23.2-0.6c-2.2-0.1-4.5,0.1-6.4-0.9c2.6,4.1,3.8,10.1-7.5,13.2c2.3,0.6,3.9,1.6,5.5,3.5
		c10.7,12.8,21.6,25.6,32.4,38.4c3.9,4.6,7.2,9.9,11.9,13.6c7.3,5.7,15.2,10.9,23.3,15.2c13.6,7.3,27.6,13.8,41.5,20.6
		c1,0.5,2,0.9,3.2,1.4c0-0.8,0.1-1.1,0-1.4c-5.3-23.8-10.7-47.7-16.1-71.4c-0.3-1.5-1.5-3-2.7-4c-8.5-6.7-17.1-13.2-25.6-19.8
		c-1-0.8-2.2-1.9-2.4-3.1c-2.4-10.9-4.7-21.9-7-32.8c0.2-0.1,0.3-0.2,0.5-0.3c0.3,1,0.7,2,1,3c2.7,8.3,5.5,16.7,8,25.1
		c1,3.4,2.9,5.6,5.9,7.4c7.4,4.5,14.7,9.1,22,13.7C339.7,218.5,341.4,209.7,350.5,208.2z"/>
	<path d="M358.4,215.6c-2.6-2.5-5.3-4.9-7.9-7.4c-9.1,1.5-10.7,10.3-10.9,15c3,1.9,6,3.8,9,5.6c4.4,2.7,8.8,2,11.6-1.7
		C362.9,223.5,362.2,219.2,358.4,215.6z"/>
</g>
</svg>
