<svg xmlns="http://www.w3.org/2000/svg" width="6in" height="6in" viewBox="0 0 432 432"><path d="M180.8 65.4a26.5 26.5 0 1 1-26.5 26.3 26.4 26.4 0 0 1 26.5-26.3zm159.6 37A26.5 26.5 0 1 1 314 76a26.3 26.3 0 0 1 26.4 26.4zm-54.1 174.3c7 4.3 13.6 8.3 20 12.5.6.4.9 1.9.8 2.8-1.4 5.8-2.7 11.7-4.4 17.5a15.8 15.8 0 0 1-3.2 5.4q-18.7 20.7-37.6 41.3c-5.1 5.6-12.4 6.2-17.5 1.6s-5.2-12-.2-17.5c11.2-12.3 22.5-24.5 33.6-36.9a19.4 19.4 0 0 0 3.6-6.8c1.8-6.4 3.2-12.9 4.9-19.9zm29.1 17.5c8.8 3.9 17.4 7.6 25.9 11.5a3.8 3.8 0 0 1 1.8 2.6c3.7 14.5 7.4 28.9 10.9 43.3a11.7 11.7 0 0 1-8.5 14.3 11.6 11.6 0 0 1-14.4-8.2q-8-31.1-15.7-62.3zM245.8 201a7.7 7.7 0 0 1-2.4-2.1c-.5-.8-1.8-1-2.8-1.4l-29.8-12.4a5.5 5.5 0 0 1-2.7-1.9c-5.4-12.2-11.4-24.2-15.9-36.7S180.6 128.3 170 124a25 25 0 0 0-16.2-.6c-17.2 4.9-34.4 9.6-51.5 14.8-2.8.8-6 2.9-7.4 5.3-8.2 14.9-16.1 30.1-23.8 45.2-2.5 5 .5 10.9 5.9 12.4 3.7 1 7.4-.6 10-4.4 7.4-10.6 15.2-20.9 21.9-31.9 4-6.4 10-6.3 15.3-8.1-1.6 9.7-3.6 19.1-4.8 28.6-1.7 14.3-1.1 28.7-.1 43.1 1.2 18.3 1.9 36.6 2.7 54.9a7.8 7.8 0 0 1-1.7 5c-11 13.2-22.2 26.1-33.2 39.3a37 37 0 0 0-5.7 9c-2.1 4.7-1.1 9.1 2.1 12s7.8 3.4 11.8 1.1a78.2 78.2 0 0 0 12.1-8.6c14.2-12.5 28.2-25.3 42.3-38a16.8 16.8 0 0 0 5.6-14.2c-.4-7.2-1-14.4-1.5-21.6a20.8 20.8 0 0 1 0-2.5c4.8 7.7 9 15.4 13.1 23.1a8.1 8.1 0 0 1 .6 3.1c1.6 19.7 3 39.5 4.7 59.2a39.3 39.3 0 0 0 2.9 11.2c1.6 3.9 5.1 5.4 9.3 5.2a8.6 8.6 0 0 0 8.3-6.4c1.7-5.9 3.4-12 3.9-18.2 1.3-16.4 2-32.9 3.1-49.4a38.2 38.2 0 0 0-3.6-19.1l-17.3-37.8a7.6 7.6 0 0 1-1.1-3.2c-.3-11.3-.8-22.6-.5-33.9.2-5.2 2.3-10.3 3.6-15.5h1.2l6.6 15a12.2 12.2 0 0 0 9.4 7.6l16.5 3.5c7.5 1.6 15 3.6 22.6 4.6l1.3.3c11.3-3 10-9 7.4-13.1z"/><path d="M350.5 208.2c-5-4.6-10-9.2-14.8-13.9a6.4 6.4 0 0 1-1.8-4c-.3-7.8-.4-15.7-.6-23.5s-3.4-17.1-7.7-24.9a6 6 0 0 0-6.1-3.5c-7 .5-14 .6-21 .8-4.7.2-7.4 2.7-8.4 7.4-3.8 17.9-7.8 35.8-11.7 53.6-.4 1.9-1.2 2.4-3 2.3-7.7-.3-15.4-.4-23.1-.6-2.3-.1-4.5 0-6.5-.9 2.6 4.1 3.9 10.1-7.4 13.2a9.9 9.9 0 0 1 5.5 3.5q16 19.2 32.3 38.3c3.9 4.7 7.3 10 11.9 13.7a164.5 164.5 0 0 0 23.4 15.2c13.5 7.3 27.6 13.8 41.4 20.6l3.2 1.4v-1.4c-5.4-23.8-10.7-47.7-16.1-71.4a8 8 0 0 0-2.7-4c-8.5-6.7-17.1-13.2-25.6-19.8a6.7 6.7 0 0 1-2.5-3.1c-2.4-10.9-4.7-21.9-7-32.8l.5-.3c.3 1 .7 1.9 1 2.9 2.7 8.4 5.5 16.7 8 25.1a12.4 12.4 0 0 0 5.9 7.4l22 13.7c.1-4.7 1.8-13.5 10.9-15z"/><path d="M358.4 215.6l-7.9-7.4c-9.1 1.5-10.8 10.3-10.9 15l8.9 5.6c4.4 2.8 8.8 2.1 11.6-1.6s2.1-8-1.7-11.6z"/></svg>