<svg xmlns="http://www.w3.org/2000/svg" width="6in" height="6in" viewBox="0 0 432 432"><path fill="#e2e1e2" d="M30.5 291.7c.8-5.1 1.3-9.2 1.9-13.5 2.9 3.9 2.4 9-1.9 13.5z"/><path d="M275.3 30v34.5h-41.8V30zM201 64.6h-41.7V29.9H201z"/><path d="M357.6 348.4V67.6c0-18.6-7.5-39.7-22.6-38.2-8.1.8-16.1.1-24.2.1-1.1 0-2.2-.6-3.1.8v34.8h28.7v62.7h-241v-63h31.4V29.5H97.6c-13 .1-23.4 17.6-23.4 39.5v297.1c0 14 3.9 23.8 11 30.3 4.3 4 9.1 4.9 14.1 4.9 52.3-.1 104.7 0 157.1 0h80.8c9.8-.1 16.8-8 19.4-22.1 1.9-10.2.9-20.6 1-30.8zM95.4 365.5V146h241.4v84.5l-.2 117.9v17.1z"/><path d="M224.8 41.3v25.4c0 2.1 0 3.9 1.9 4.8 5.7 2.5 6.8 11.8 4.9 19.4s-7.4 11.4-13.1 10.8-9.9-4-12.2-10.4a18.7 18.7 0 0 1 2.4-17.8c2.1-2.8 2.6-5.6 2.6-9-.1-15.8-.1-31.5 0-47.3 0-6.8 2.5-10.7 6.8-10.6s6.7 3.9 6.7 10.8v23.9zm60.6-.2c0-8.3-.1-16.6 0-25 0-5.9 2.8-9.6 6.8-9.5s6.7 3.8 6.7 9.8v49.3c0 2.5-.2 4.8 2.3 6.1 6.1 3.1 6.2 14.1 4.1 20.1s-8.4 11.1-14.5 9.5c-11-2.9-15.3-18.1-7.7-28.4a11 11 0 0 0 2.3-7.5c-.1-8.1-.1-16.3-.1-24.4zm-135.2.4v25c0 2.1-.1 4.1 2.1 5.1 5.5 2.6 6.7 12 4.7 19.5s-7.8 11.5-13.6 10.5-9.6-4.2-11.7-10.5-1.3-12.7 2.6-17.7a12.6 12.6 0 0 0 2.4-8.6V16.5c0-5.6 2.1-9 5.7-9.8s7.7 3 7.8 8.8c.1 8.6 0 17.3 0 26z"/><path fill="none" stroke="#231f20" stroke-linecap="round" stroke-miterlimit="10" stroke-width="16.74" d="M130.5 178.8h176m-175.7 36.5h176m-176 36.5h176m-176 35.6h176m-176 36.6h176"/></svg>