<svg xmlns="http://www.w3.org/2000/svg" width="6in" height="6in" viewBox="0 0 432 432"><defs><clipPath id="a"><circle cx="217.6" cy="205.1" r="174.4" fill="none"/></clipPath></defs><g clip-path="url(#a)"><path fill="#2e3192" d="M311.4 351.8c1.5 6.3 2.9 12.6 4.3 18.9l-23 14-48.2 14.1-39.6 2.5-45.8-9.5a1.9 1.9 0 0 0-1.6-.4l-9.1-2.6-36.1-18.6c1.6-6.9 3.3-13.8 4.9-20.7 5-7.3 10-14.6 14.9-22 8 4.2 16.1 8.3 24 12.7a14.1 14.1 0 0 1 4.8 4.6c2.8 4.5 4.6 9.7 8 13.5 7.5 8.6 15.8 16.4 23.5 24.7 4.4 4.8 8.4 10.1 12.5 15.2l18.5-1.2c3-2.8 6.3-5.3 9.1-8.4 8.9-9.4 17.7-18.8 26.1-28.6 4.2-4.7 15.6-5.6 9.5-16.4-.2-.3 2.6-2.6 4.3-3.5 8-4.2 16.1-8.2 24.2-12.3z"/><path fill="#8ad0d1" d="M132.1 327.5c-4.9 7.4-9.9 14.7-14.9 22-49.6-35.1-75.6-83.3-76.2-143.9-.9-83.9 61.9-158.4 144.7-172.4 98.5-16.5 190.2 49.3 203.5 148.2 9.4 70.1-17.2 127-74.4 169.1a12.6 12.6 0 0 1-3.4 1.3l-14.8-24-30.9-16.7c-3.9-8.9-1.7-15.5 4.6-23.4 34.5-42.9 42.6-90.8 24.1-142.6C272.9 85 196.9 68.9 156.2 116c-19.7 22.7-26.8 50.5-27.2 80.2l-.3 21.5c-.9 34.9 10.1 66.3 28.1 95.7z"/><path fill="#2e3192" d="M132.1 327.5l24.7-14.1 26.3-2.7c-.2 2.9-1.4 6.3-.3 8.5 3.8 7.7 8.3 15.1 12.5 22.5 3.1 9.7 6.3 19.4 9.4 29.1.3 4.2.5 8.4.7 12.7l-.5 14.7c-4.1-5.1-8.1-10.4-12.5-15.2-7.7-8.3-16-16.1-23.5-24.7-3.4-3.8-5.2-9-8-13.5a14.1 14.1 0 0 0-4.8-4.6c-7.9-4.4-16-8.5-24-12.7zm133.6-16.4l30.9 16.7c-8.1 4.1-16.2 8.1-24.2 12.3-1.7.9-4.5 3.2-4.3 3.5 6.1 10.8-5.3 11.7-9.5 16.4-8.4 9.8-17.2 19.2-26.1 28.6-2.8 3.1-6.1 5.6-9.1 8.4.2-2.2.5-4.3.7-6.5.5-6.9.9-13.8 1.4-20.8 3.1-10.2 6.3-20.3 9.4-30.5 3.3-5.5 7.4-10.8 9.6-16.8 1.4-3.9.1-8.8 0-13.2z"/><path fill="#ed1c24" d="M224.1 390.5c-.2 2.2-.5 4.3-.7 6.5l-18.5 1.2c.2-4.9.4-9.8.5-14.7s.9-9.3 1.3-14c.5-11.3 5.6-23.5-6.7-32.2l9.4-10.5 1.5-1.6a1.8 1.8 0 0 0 .8-.9l5.1.3L229 339c-13.3 6.5-6.7 18.3-7.5 28.1z"/><path fill="#e4b79f" d="M159.1 391.8l-1.6-.4a1.9 1.9 0 0 1 1.6.4z"/><path fill="#231f20" d="M265.7 311.1l-21.2-1.9-8.8-8c.1-4.5.1-9.1.2-13.7 9.6-6.6 33.8-24.8 34.8-35 2.5-27.7-9.2-48.2-31.5-54.4-29.8-8.2-55.5-20.7-63.6-58-8.5 13.4-15.3 23.9-21.9 34.5-4.7 7.6-4 20.8-19.1 17.6-1.5-.3-3.7 2.6-5.6 4 .4-29.7 7.5-57.5 27.2-80.2 40.7-47.1 116.7-31 138.2 29.1 18.5 51.8 10.4 99.7-24.1 142.6-6.3 7.9-8.5 14.5-4.6 23.4z"/><path fill="#e7c186" d="M129 196.2c1.9-1.4 4.1-4.3 5.6-4 15.1 3.2 14.4-10 19.1-17.6 6.6-10.6 13.4-21.1 21.9-34.5 8.1 37.3 33.8 49.8 63.6 58 22.3 6.2 34 26.7 31.5 54.4-1 10.2-25.2 28.4-34.8 35-13.7 7.8-27.8 3.5-41.9 1.7-20.9-11.6-35.4-28.8-45.3-50.3a24.1 24.1 0 0 0-4.7-6.3c-5-5.1-10.2-10-15.3-14.9z"/><path fill="#231f20" d="M128.7 217.7c5.1 4.9 10.3 9.8 15.3 14.9a24.1 24.1 0 0 1 4.7 6.3c9.9 21.5 24.4 38.7 45.3 50.3l-1.2 12.1-9.7 9.4-26.3 2.7c-18-29.4-29-60.8-28.1-95.7z"/><path fill="#f8fbf9" d="M183.1 310.7l9.7-9.4h1.1l1.1-.2c6.7 6.9 17.5 10.8 16.7 23.1a1.8 1.8 0 0 1-.8.9l-1.5 1.6-9.4 10.6-4.7 4.4c-4.2-7.4-8.7-14.8-12.5-22.5-1.1-2.2.1-5.6.3-8.5z"/><path fill="#ed1c24" d="M195.3 341.7l4.7-4.4c12.3 8.7 7.2 20.9 6.7 32.2a5.3 5.3 0 0 1-2 1.3c-3.1-9.7-6.3-19.4-9.4-29.1z"/><path fill="#ed1c24" d="M204.7 370.8a5.3 5.3 0 0 0 2-1.3c-.4 4.7-.8 9.3-1.3 14-.2-4.3-.4-8.5-.7-12.7z"/><path fill="#f8fbf9" d="M235.7 301.2l8.8 8c.1 4.4 1.4 9.3 0 13.2-2.2 6-6.3 11.3-9.6 16.8l-5.9-.2-12.2-14.4c-1.7-12.9 10.4-16 16.4-23.4z"/><path fill="#ed1c24" d="M229 339l5.9.2c-3.1 10.2-6.3 20.3-9.4 30.5l-4-2.6c.8-9.8-5.8-21.6 7.5-28.1zm-7.5 28.1l4 2.6c-.5 7-.9 13.9-1.4 20.8-.9-7.8-1.7-15.6-2.6-23.4z"/><path fill="#e7c186" d="M233.2 301.2c-6 7.4-18.1 10.5-16.4 23.4l-5.1-.3c.8-12.3-10-16.2-16.7-23.1 1.5-1.2 3.4-3.7 4.6-3.4 10.1 2.8 20.1 5.6 30.2-.1.4-.2 2.2 2.2 3.4 3.5z"/><path fill="#f2cebb" d="M209.4 326.8l1.5-1.6z"/><path fill="#c9a976" d="M233.2 301.2c-1.2-1.3-3-3.7-3.4-3.5-10.1 5.7-20.1 2.9-30.2.1-1.2-.3-3.1 2.2-4.6 3.4l-1.1.2h-1.1l1.2-12.1c14.1 1.8 28.2 6.1 41.9-1.7-.1 4.6-.1 9.2-.2 13.7z"/></g></svg>