<svg xmlns="http://www.w3.org/2000/svg" width="6in" height="6in" viewBox="0 0 432 432"><defs><clipPath id="a"><circle cx="217.6" cy="205.1" r="174.4" fill="none"/></clipPath></defs><g clip-path="url(#a)"><path fill="#f26522" d="M113.6 372.5l4.2-18.9c5.1-8 8.3-20 15.5-23.2 14.8-6.7 31.7-8.6 47.7-12.5 2.8 7.4 5.8 14.8 8.3 22.3s6.4 6.4 10.9 1.7c7.6 4.3 9.3 11 8.5 19.2-1.4 13.4-2.3 26.8-3.4 40.2l-57.1-10.2z"/><path fill="#8ad0d1" d="M181 317.9c-16 3.9-32.9 5.8-47.7 12.5-7.2 3.2-10.4 15.2-15.5 23.2-26-19.2-46.9-42.7-61.1-72.1C7.3 179.3 71.1 55.3 182.5 33.9c95.6-18.4 187.2 44.4 205.4 134.9 15.5 77.1-11.2 139.3-75.1 185.2-2.7-13-3.9-26.6-8.4-39.1s-55.4 19.4-61.5 7.5c-4.1-8-15.7-8.2-19.4-16.4 5.5-9.1 59.9-69.9 70.5-76.6 6.3-4 7.5-17.9 8.3-27.5.6-7.4-6.7-9.7-13.7-9.5.5-5.5.8-11.1 1.5-16.6 4.4-32.8 2.9-63.3-30.2-82.4-2.3-1.4-4.1-4.9-4.7-7.8-4-17.5-16.1-26-32.5-29.2s-30.8 3.2-41.6 17.1A142.8 142.8 0 0 1 159 96.7c-15.8 12.9-25.6 29.1-24.7 49.3.7 14.8 5.4 29.4 8.3 44.1-16.1 7-20 26.9-5.1 37.9 10.6 7.9 14.2 19.2 21.8 28.2s17 19.8 26.9 27.9c6.6 5.3 10.8 10.1 9.5 18.6z"/><path fill="#c699c5" d="M314.6 361.2c-.6-2-1.1-4-1.7-6 .6 2 1.1 4 1.7 6z"/><path fill="#f26522" d="M244 401.1l-17.2.2c-.3-2.7-.6-5.5-1-8.2l.5-.6-.7-.4c-.4-10.4-1.9-20.8-1-31 .6-6.8 4.6-13.4 7-20 6.3 7.1 9.9 5.4 12.4-3.2 1.9-6.8 4.7-13.3 7.2-20l11.4-.6c2.2 25.1-6.9 47.7-15.6 70.4a104.3 104.3 0 0 0-3.3 12.5z"/><path fill="#e4b79f" d="M260.4 397.6l-9.4 1.9zm-16.4 3.5l-.3-.9a1.5 1.5 0 0 1 1.6.7l-.6.3z"/><path fill="#f8fbf9" d="M236.1 303l15.1 14.9c-2.5 6.7-5.3 13.2-7.2 20-2.5 8.6-6.1 10.3-12.4 3.2-15.3-20.8-16.5-20.8-31.4.8-4.5 4.7-8.2 6.1-10.9-1.7s-5.5-14.9-8.3-22.3l14.7-15.2c6.9 5.6 13.6 15.2 20.8 15.5s13.1-9.7 19.6-15.2z"/><path fill="#f26522" d="M200.2 341.9c14.9-21.6 16.1-21.6 31.4-.8-2.4 6.6-6.4 13.2-7 20-.9 10.2.6 20.6 1 30.9l-.3.7.5.4c.4 2.7.7 5.5 1 8.2h-21.5c1.1-13.4 2-26.8 3.4-40.2.8-8.2-.9-14.9-8.5-19.2z"/><path fill="#3c2415" d="M145 190.7l-2.4-.6c-2.9-14.7-7.6-29.3-8.3-44.1-.9-20.2 8.9-36.4 24.7-49.3a142.8 142.8 0 0 0 22.1-23.2c10.8-13.9 24.2-20.5 41.6-17.1s28.5 11.7 32.5 29.2c.6 2.9 2.4 6.4 4.7 7.8 33.1 19.1 34.6 49.6 30.2 82.4-.7 5.5-1 11.1-1.5 16.6a4.6 4.6 0 0 1-2 .5l-4.7-6c.3-26.3-5.1-33-31.1-37.6-6.2-1.1-12.8-.6-19-1.9-8.8-1.7-18-3.1-26-6.9-20.7-9.8-40.5-3.1-48.6 18.6-3.1 8.4-4 17.7-5.9 26.6z"/><path fill="#9e7266" d="M152.8 209.4c1.3-3.2 2.5-6.3 3.7-9.5 2.1 9.6-.7 21.3 11.8 26.6 20.4 8.6 36.6-1.7 37.8-24.2l3.9 9.7c-8.5 18.5-16.8 23.7-33.8 21.2-15.3-2.3-20.6-7.6-23.4-23.8zm76.6 12h3.7c7.5 8.6 17.3 8.6 27.4 7.4l2.5 2.5c-17 5-24.7 2.7-33.6-9.9zm33.6 9.8l-2.5-2.5 16.5-16.3 2.2 2c-1.2 9.7-6.7 15.3-16.2 16.8z"/><path fill="#d7d6d2" d="M225.8 393.1l-.5-.4.3-.7c0 .1.7.5.7.5z"/><path fill="#8b5e3c" d="M235.8 298.9c-11.6 5.8-28.3 3-39.9.1 0-5.6-5.1-10.8-5.1-10.8s32.9 7.8 48.6-.1c-3.9 4.9-3.2 10.6-3.6 10.8z"/><path fill="#9e7266" d="M288.6 192.4a4.6 4.6 0 0 1-2 .5l-4.7-6c.3-26.3-5.1-33-31.1-37.6-6.2-1.1-12.8-.6-19-1.9-8.8-1.7-18-3.1-26-6.9-20.7-9.8-40.5-3.1-48.6 18.6-3.1 8.4-4 17.7-5.9 26.6-2.1 1.7-7.9 4.6-8.7 4.4-16.1 7-20 26.9-5.1 37.9 10.6 7.9 14.2 19.2 21.8 28.2s17 19.8 26.9 27.9c6.6 5.3 10.8 10.1 9.5 18.6 6.9 5.6 13.6 15.2 20.8 15.5s13.1-9.7 19.6-15.2c6.1-10.9 30.5-38.8 38.5-48.1 5.5-9.1 8.8-18.8 19.4-25.5 6.3-4 7.5-17.9 8.3-27.5.6-7.4-6.7-9.7-13.7-9.5zm-127.9.5l.9-1zm58.2 14.4l1.7 1.1z"/><path fill="#3c2415" d="M314.6 361.2c.6 4.4 1.3 8.7 2 13l-32.7 16.7-23.5 6.7-9.4 1.9-5.7 1.4a1.5 1.5 0 0 0-1.6-.7 104.3 104.3 0 0 1 3.3-12.5c8.7-22.7 17.8-45.3 15.6-70.4.4-13-1.9-25.1-11.9-34.5l23.9-27.9c3.7 8.2 7.2 16.5 11.3 24.6 6.1 11.9 14 23 18.5 35.4s5.7 26.1 8.4 39.1a.9.9 0 0 0 .1 1.2c.6 2 1.1 4 1.7 6z"/></g></svg>