<?xml version="1.0" encoding="utf-8"?>
<!-- Generator: Adobe Illustrator 22.0.1, SVG Export Plug-In . SVG Version: 6.00 Build 0)  -->
<svg version="1.1" id="Layer_1" xmlns="http://www.w3.org/2000/svg" xmlns:xlink="http://www.w3.org/1999/xlink" x="0px" y="0px"
	 viewBox="0 0 432 432" style="enable-background:new 0 0 432 432;" xml:space="preserve">
<style type="text/css">
	.st0{stroke:#231F20;stroke-width:3.0878;stroke-miterlimit:10;}
	.st1{fill:#231F20;}
	.st2{fill:#FFFFFF;stroke:#FFFFFF;stroke-width:3.0878;stroke-miterlimit:10;}
	.st3{fill:#E2E1E2;}
	.st4{fill:none;stroke:#231F20;stroke-width:16.7351;stroke-linecap:round;stroke-miterlimit:10;}
	.st5{fill:none;}
	.st6{fill:#FFFFFF;}
	.st7{fill:#FFFFFF;stroke:#000000;stroke-width:22.1902;stroke-miterlimit:10;}
	.st8{fill:none;stroke:#000000;stroke-width:11.0951;stroke-miterlimit:10;}
	.st9{fill:none;stroke:#000000;stroke-width:8.4445;stroke-miterlimit:10;}
	.st10{clip-path:url(#SVGID_2_);}
	.st11{fill:#9E7266;}
	.st12{fill:#8AD0D1;}
	.st13{fill:#5D4D46;}
	.st14{fill:#DF8433;}
	.st15{fill:#E4B79F;}
	.st16{fill:#9B5A57;}
	.st17{fill:#F2CEBB;}
	.st18{fill:#F8FBF9;}
	.st19{fill:#E57675;}
	.st20{clip-path:url(#SVGID_4_);}
	.st21{fill:#2E3192;}
	.st22{fill:#ED1C24;}
	.st23{fill:#E7C186;}
	.st24{fill:#C9A976;}
	.st25{clip-path:url(#SVGID_6_);}
	.st26{fill:#EC008C;}
	.st27{fill:#D7D6D2;}
	.st28{fill:#E4BB73;}
	.st29{clip-path:url(#SVGID_8_);}
	.st30{fill:#F26522;}
	.st31{fill:#C699C5;}
	.st32{fill:#3C2415;}
	.st33{fill:#8B5E3C;}
	.st34{clip-path:url(#SVGID_10_);}
	.st35{fill:#65C1E3;}
	.st36{clip-path:url(#SVGID_12_);}
</style>
<g>
	<path d="M172.2,68.9c14.3,0,25.9,11.5,25.9,25.8c0,14.4-11.7,26-26.1,25.9c-14.4-0.1-25.7-11.6-25.7-25.9
		C146.4,80.3,157.9,68.9,172.2,68.9z"/>
	<path d="M270.2,98.6c0,14.3,11.4,25.8,25.7,25.9c14.3,0.1,25.9-11.3,26-25.6c0.1-14.5-11.3-26-25.9-26.1
		C281.8,72.8,270.2,84.3,270.2,98.6z"/>
	<path d="M323,268.8c-6.8,4.3-13.2,8.2-19.5,12.3c-0.6,0.4-0.9,1.8-0.7,2.6c1.3,5.7,2.6,11.5,4.2,17.1c0.5,1.9,1.8,3.8,3.1,5.3
		c12.2,13.5,24.5,26.9,36.7,40.4c5,5.5,12.1,6.1,17.1,1.6c5-4.5,5.1-11.7,0.2-17.1c-10.9-12-21.9-23.9-32.7-36
		c-1.6-1.8-2.8-4.3-3.5-6.6C326.1,282,324.7,275.7,323,268.8z"/>
	<path d="M294.6,285.9c-8.6,3.8-17,7.4-25.3,11.2c-0.8,0.4-1.5,1.6-1.8,2.6c-3.6,14.1-7.2,28.2-10.7,42.3
		c-1.5,6.3,2.2,12.3,8.3,13.9c6.1,1.6,12.5-1.8,14.1-8c5.2-20.3,10.2-40.6,15.3-60.9C294.7,286.8,294.6,286.5,294.6,285.9z"/>
	<path d="M260.4,201.9c4.8-4.5,9.7-9,14.4-13.6c1-0.9,1.6-2.6,1.7-4c0.3-7.6,0.4-15.3,0.6-22.9c0.3-8.8,3.3-16.7,7.5-24.3
		c1.3-2.4,3.1-3.5,6-3.4c6.8,0.4,13.6,0.5,20.5,0.8c4.6,0.2,7.2,2.6,8.2,7.2c3.8,17.5,7.7,34.9,11.4,52.3
		c0.4,1.8,23.7,95.1,22.2,96.9c-10.5,12.5-27.1-32.7-31.6-29.1c-7.1,5.6-14.8,10.6-22.8,14.9c-13.3,7.1-27,13.5-40.5,20.1
		c-0.9,0.5-1.9,0.9-3.1,1.4c0-0.8-0.1-1.1,0-1.4c5.2-23.3,10.4-46.5,15.7-69.8c0.3-1.4,1.5-3,2.6-3.9c8.3-6.5,16.7-12.9,25-19.4
		c1-0.8,2.1-1.9,2.4-3c2.4-10.7,4.6-21.4,6.9-32c-0.2-0.1-0.3-0.2-0.5-0.3c-0.3,1-0.6,1.9-1,2.9c-2.6,8.1-5.4,16.3-7.8,24.5
		c-1,3.3-2.8,5.5-5.7,7.3c-7.2,4.4-14.3,8.9-21.5,13.4C270.9,212,269.3,203.4,260.4,201.9z"/>
	<path d="M252.7,209.1c2.6-2.4,5.2-4.8,7.8-7.2c8.9,1.5,10.5,10,10.6,14.6c-2.9,1.8-5.8,3.7-8.8,5.5c-4.3,2.7-8.6,2-11.3-1.6
		C248.3,216.8,248.9,212.6,252.7,209.1z"/>
	<path d="M243.1,99h-35.3c-0.4,0-0.6-0.3-0.6-0.6v-2.7c0-0.4,0.3-0.6,0.6-0.6h35.3c0.4,0,0.6,0.3,0.6,0.6v2.7
		C243.7,98.7,243.5,99,243.1,99z"/>
	<path d="M242.7,77.2l-33.1,12.3c-0.3,0.1-0.7,0-0.8-0.4l-0.9-2.5c-0.1-0.3,0-0.7,0.4-0.8l33.1-12.3c0.3-0.1,0.7,0,0.8,0.4l0.9,2.5
		C243.2,76.7,243,77.1,242.7,77.2z"/>
	<path d="M242.7,116.2l-33.1-12.3c-0.3-0.1-0.7,0-0.8,0.4l-0.9,2.5c-0.1,0.3,0,0.7,0.4,0.8l33.1,12.3c0.3,0.1,0.7,0,0.8-0.4l0.9-2.5
		C243.2,116.7,243,116.3,242.7,116.2z"/>
	<path d="M70.4,179.2c-1.8,3.4-3.5,6.8-5.3,10.2c-2.5,4.8,0.5,10.6,5.7,12c3.6,1,7.3-0.5,9.8-4.2c2.1-3.1,4.3-6.1,6.5-9.2
		C83.4,182.1,75.8,179.9,70.4,179.2z"/>
	<path d="M112.1,228.1c1.2,17.8,1.9,35.7,2.7,53.6c0.1,1.6-0.6,3.7-1.6,4.9c-10.7,12.8-21.7,25.5-32.5,38.4
		c-2.2,2.7-4.2,5.7-5.6,8.8c-2.1,4.5-1,8.8,2.1,11.7c3.6,3.2,7.6,3.3,11.5,1c4.2-2.4,8.2-5.2,11.9-8.4
		c13.9-12.3,27.5-24.7,41.3-37.1c4.1-3.7,5.8-8.5,5.5-13.9c-0.4-7-1-14-1.5-21c-0.1-0.8,0-1.6,0-2.4c4.7,7.5,8.8,15,12.8,22.5
		c0.5,0.9,0.5,2,0.6,3c1.5,19.3,2.9,38.5,4.6,57.8c0.3,3.7,1.3,7.5,2.8,11c1.6,3.7,5,5.3,9.1,5.1c4.2-0.2,7-2.6,8.1-6.2
		c1.7-5.8,3.3-11.8,3.8-17.8c1.3-16.1,2-32.2,3-48.3c0.4-6.6-0.7-12.7-3.5-18.7c-5.7-12.3-11.3-24.6-16.9-36.9
		c-0.3-0.6-0.6-1.3-0.8-2l-57.9-15.2C111.7,221.4,111.9,224.8,112.1,228.1z"/>
	<path d="M220.2,193.6c-6.2-2.6-12.5-5.1-18.7-7.7c-1-0.4-2.2-1.1-2.6-1.9c-5.3-11.9-11.1-23.6-15.6-35.8c-4-10.9-11.3-17.8-21.6-22
		c-5.1-2.1-10.5-2.1-15.8-0.6c-16.8,4.7-33.6,9.4-50.3,14.4c-2.7,0.8-5.9,2.9-7.2,5.3c-6.2,11.2-12.1,22.6-18,33.9
		c5.4,0.8,13,2.9,16.8,8.8c5.1-7.2,10.3-14.5,14.9-22c3.8-6.2,9.8-6.2,14.9-7.9c-1.6,9.4-3.6,18.6-4.7,27.9
		c-1.3,10.7-1.3,21.4-0.7,32.1l57.9,15.2c-0.1-0.4-0.2-0.8-0.3-1.2c-0.3-11-0.8-22.1-0.4-33.1c0.2-5.1,2.2-10.1,3.5-15.1
		c0.4,0,0.8,0.1,1.1,0.1c2.2,4.9,4.4,9.7,6.5,14.6c1.8,4.1,4.8,6.5,9.2,7.4c5.4,1.1,10.7,2.3,16,3.4c2.9,0.6,5.8,1.3,8.7,1.9
		C212.5,200.4,216.7,195.6,220.2,193.6z"/>
	<path d="M235.8,201.3c-0.9-0.4-1.7-1-2.3-2c-0.5-0.7-1.8-1-2.7-1.4c-3.5-1.5-7-2.9-10.5-4.4c-3.4,2-7.6,6.8-6.4,17.8
		c4.5,1,9,1.9,13.5,2.6c0.4,0.1,0.8,0.2,1.2,0.3C239.5,211.2,238.3,205.3,235.8,201.3z"/>
</g>
</svg>
