<?xml version="1.0" encoding="utf-8"?>
<!-- Generator: Adobe Illustrator 22.0.1, SVG Export Plug-In . SVG Version: 6.00 Build 0)  -->
<svg version="1.1" id="Layer_1" xmlns="http://www.w3.org/2000/svg" xmlns:xlink="http://www.w3.org/1999/xlink" x="0px" y="0px"
	 viewBox="0 0 432 432" style="enable-background:new 0 0 432 432;" xml:space="preserve">
<style type="text/css">
	.st0{stroke:#231F20;stroke-width:3.0878;stroke-miterlimit:10;}
	.st1{fill:#231F20;}
	.st2{fill:#FFFFFF;stroke:#FFFFFF;stroke-width:3.0878;stroke-miterlimit:10;}
	.st3{fill:#E2E1E2;}
	.st4{fill:none;stroke:#231F20;stroke-width:16.7351;stroke-linecap:round;stroke-miterlimit:10;}
	.st5{fill:none;}
	.st6{fill:#FFFFFF;}
	.st7{fill:#FFFFFF;stroke:#000000;stroke-width:22.1902;stroke-miterlimit:10;}
	.st8{fill:none;stroke:#000000;stroke-width:11.0951;stroke-miterlimit:10;}
	.st9{fill:none;stroke:#000000;stroke-width:8.4445;stroke-miterlimit:10;}
	.st10{clip-path:url(#SVGID_2_);}
	.st11{fill:#9E7266;}
	.st12{fill:#8AD0D1;}
	.st13{fill:#5D4D46;}
	.st14{fill:#DF8433;}
	.st15{fill:#E4B79F;}
	.st16{fill:#9B5A57;}
	.st17{fill:#F2CEBB;}
	.st18{fill:#F8FBF9;}
	.st19{fill:#E57675;}
	.st20{clip-path:url(#SVGID_4_);}
	.st21{fill:#2E3192;}
	.st22{fill:#ED1C24;}
	.st23{fill:#E7C186;}
	.st24{fill:#C9A976;}
	.st25{clip-path:url(#SVGID_6_);}
	.st26{fill:#EC008C;}
	.st27{fill:#D7D6D2;}
	.st28{fill:#E4BB73;}
	.st29{clip-path:url(#SVGID_8_);}
	.st30{fill:#F26522;}
	.st31{fill:#C699C5;}
	.st32{fill:#3C2415;}
	.st33{fill:#8B5E3C;}
	.st34{clip-path:url(#SVGID_10_);}
	.st35{fill:#65C1E3;}
	.st36{clip-path:url(#SVGID_12_);}
</style>
<g>
	<defs>
		<circle id="SVGID_3_" cx="217.6" cy="205.1" r="174.4"/>
	</defs>
	<clipPath id="SVGID_2_">
		<use xlink:href="#SVGID_3_"  style="overflow:visible;"/>
	</clipPath>
	<g class="st10">
		<path class="st21" d="M311.4,351.8c1.4,6.3,2.8,12.6,4.2,18.8c-7.7,4.7-15.4,9.4-23,14.1c-16.1,4.7-32.1,9.4-48.2,14.1
			c-13.2,0.8-26.4,1.7-39.6,2.5c-15.3-3.2-30.5-6.3-45.8-9.5c-0.4-0.4-1-0.5-1.5-0.4c-3.1-0.9-6.1-1.7-9.2-2.6
			c-12-6.2-24.1-12.4-36.1-18.6c1.6-6.9,3.3-13.8,4.9-20.7c5-7.3,9.9-14.7,14.9-22c8,4.2,16.1,8.3,24,12.7c1.9,1,3.6,2.8,4.7,4.7
			c2.8,4.4,4.7,9.6,8,13.5c7.5,8.5,15.8,16.3,23.5,24.7c4.4,4.8,8.4,10.1,12.5,15.2c6.1-0.4,12.3-0.8,18.5-1.3
			c3.1-2.8,6.4-5.3,9.2-8.3c8.8-9.4,17.6-18.9,26.1-28.6c4.1-4.7,15.6-5.6,9.5-16.5c-0.2-0.3,2.6-2.6,4.3-3.4
			c8-4.2,16.1-8.2,24.2-12.3C301.5,335.8,306.5,343.8,311.4,351.8z"/>
		<path class="st12" d="M132.1,327.5c-5,7.3-9.9,14.7-14.9,22C67.6,314.4,41.6,266.2,41,205.6c-0.8-83.9,61.9-158.4,144.7-172.4
			c98.5-16.6,190.2,49.3,203.5,148.1c9.4,70.1-17.2,127-74.4,169.1c-0.9,0.7-2.2,0.9-3.3,1.3c-5-8-9.9-16-14.9-24
			c-10.3-5.6-20.6-11.2-30.9-16.8c-3.9-8.9-1.7-15.5,4.7-23.4c34.4-42.8,42.5-90.8,24-142.6C272.9,85,196.9,68.9,156.2,116
			c-19.7,22.8-26.8,50.5-27.2,80.2c-0.1,7.2-0.2,14.3-0.3,21.5c-1,34.9,10.1,66.3,28.1,95.7C148.6,318.1,140.4,322.8,132.1,327.5z"
			/>
		<path class="st21" d="M132.1,327.5c8.2-4.7,16.5-9.4,24.7-14.2c8.8-0.9,17.5-1.7,26.2-2.6c-0.1,2.9-1.3,6.2-0.2,8.5
			c3.7,7.7,8.2,15,12.4,22.5c3.1,9.7,6.3,19.3,9.4,29c0.2,4.2,0.5,8.5,0.7,12.7c-0.2,4.9-0.4,9.8-0.5,14.8
			c-4.2-5.1-8.1-10.4-12.5-15.2c-7.7-8.4-16-16.1-23.5-24.7c-3.4-3.9-5.2-9.1-8-13.5c-1.2-1.8-2.8-3.6-4.7-4.7
			C148.2,335.8,140.1,331.7,132.1,327.5z"/>
		<path class="st21" d="M265.7,311.1c10.3,5.6,20.6,11.2,30.9,16.8c-8.1,4.1-16.2,8.1-24.2,12.3c-1.7,0.9-4.4,3.2-4.3,3.4
			c6.1,10.9-5.3,11.7-9.5,16.5c-8.5,9.7-17.3,19.2-26.1,28.6c-2.8,3-6.1,5.6-9.2,8.3c0.3-2.2,0.5-4.3,0.7-6.4
			c0.5-6.9,0.9-13.9,1.4-20.8c3.1-10.2,6.2-20.3,9.4-30.5c3.3-5.6,7.4-10.8,9.6-16.8c1.4-3.9,0.1-8.8,0-13.3
			C251.6,309.8,258.6,310.4,265.7,311.1z"/>
		<path class="st22" d="M224.1,390.5c-0.2,2.1-0.5,4.3-0.7,6.4c-6.2,0.4-12.3,0.9-18.5,1.3c0.2-4.9,0.4-9.9,0.5-14.8
			c0.4-4.7,0.8-9.3,1.2-14c0.6-11.3,5.6-23.5-6.7-32.2c3.1-3.5,6.3-7,9.4-10.5c0.5-0.5,1-1.1,1.5-1.6c0.4-0.2,0.7-0.5,0.8-0.9
			c1.7,0.1,3.4,0.2,5.1,0.2c4.1,4.8,8.1,9.6,12.2,14.5c-13.3,6.5-6.7,18.3-7.5,28.1C222.4,374.9,223.2,382.7,224.1,390.5z"/>
		<path class="st15" d="M159.1,391.8c-0.5-0.1-1-0.3-1.5-0.4C158.1,391.3,158.6,391.4,159.1,391.8z"/>
		<path class="st1" d="M265.7,311.1c-7.1-0.6-14.1-1.3-21.2-1.9c-2.9-2.6-5.9-5.3-8.8-7.9c0.1-4.6,0.2-9.1,0.2-13.7
			c9.5-6.6,33.8-24.9,34.8-35.1c2.5-27.7-9.1-48.2-31.5-54.3c-29.8-8.2-55.5-20.7-63.6-58c-8.5,13.4-15.3,23.8-21.9,34.4
			c-4.7,7.6-4,20.9-19.1,17.6c-1.5-0.3-3.7,2.6-5.6,4c0.4-29.7,7.5-57.4,27.2-80.2c40.7-47.1,116.7-31,138.2,29.1
			c18.5,51.8,10.4,99.8-24,142.6C264,295.6,261.8,302.2,265.7,311.1z"/>
		<path class="st23" d="M129,196.2c1.9-1.4,4.1-4.3,5.6-4c15.1,3.3,14.3-10,19.1-17.6c6.6-10.6,13.4-21.1,21.9-34.4
			c8.1,37.3,33.8,49.8,63.6,58c22.3,6.2,34,26.7,31.5,54.3c-0.9,10.2-25.2,28.4-34.8,35c-13.7,7.8-27.9,3.5-41.9,1.7
			c-20.9-11.6-35.4-28.8-45.3-50.3c-1.1-2.3-2.9-4.5-4.7-6.3c-5-5.1-10.1-10-15.2-14.9C128.8,210.5,128.9,203.3,129,196.2z"/>
		<path class="st1" d="M128.7,217.7c5.1,5,10.2,9.8,15.2,14.9c1.8,1.9,3.6,4,4.7,6.3c9.9,21.5,24.5,38.7,45.3,50.3
			c-0.4,4-0.8,8.1-1.2,12.1c-3.2,3.1-6.5,6.3-9.7,9.4c-8.7,0.9-17.5,1.7-26.2,2.6C138.8,284,127.8,252.6,128.7,217.7z"/>
		<path class="st18" d="M183.1,310.7c3.2-3.1,6.5-6.3,9.7-9.4l1.1,0l1.1-0.2c6.7,6.9,17.5,10.8,16.7,23.2c-0.1,0.4-0.4,0.7-0.8,0.9
			c-0.5,0.5-1,1.1-1.5,1.7c-3.1,3.5-6.3,7-9.4,10.5c-1.6,1.5-3.2,3-4.7,4.4c-4.2-7.5-8.7-14.8-12.4-22.5
			C181.7,317,182.9,313.6,183.1,310.7z"/>
		<path class="st22" d="M195.3,341.7c1.6-1.5,3.2-3,4.7-4.4c12.3,8.6,7.2,20.9,6.7,32.2c-0.5,0.6-1.2,1-2,1.3
			C201.6,361.1,198.4,351.4,195.3,341.7z"/>
		<path class="st22" d="M204.7,370.8c0.8-0.2,1.4-0.7,2-1.3c-0.4,4.7-0.8,9.3-1.2,14C205.2,379.2,205,375,204.7,370.8z"/>
		<path class="st18" d="M235.7,301.2c2.9,2.6,5.9,5.3,8.8,7.9c0.1,4.5,1.4,9.4,0,13.3c-2.2,6-6.3,11.2-9.6,16.8
			c-2-0.1-3.9-0.1-5.9-0.2c-4.1-4.8-8.1-9.6-12.2-14.5c-1.8-12.8,10.3-16,16.3-23.4C234,301.2,234.8,301.2,235.7,301.2z"/>
		<path class="st22" d="M229,339c2,0.1,3.9,0.1,5.9,0.2c-3.1,10.2-6.2,20.3-9.4,30.5c-1.3-0.9-2.7-1.7-4-2.6
			C222.3,357.3,215.7,345.5,229,339z"/>
		<path class="st22" d="M221.5,367.1c1.3,0.9,2.7,1.7,4,2.6c-0.5,6.9-0.9,13.9-1.4,20.8C223.2,382.7,222.4,374.9,221.5,367.1z"/>
		<path class="st23" d="M233.2,301.2c-6,7.4-18.1,10.5-16.3,23.4c-1.7-0.1-3.4-0.1-5.1-0.2c0.8-12.3-10-16.3-16.7-23.2
			c1.5-1.2,3.4-3.7,4.6-3.4c10.1,2.8,20.1,5.6,30.2-0.1C230.2,297.5,232,299.9,233.2,301.2z"/>
		<path class="st17" d="M209.4,326.8c0.5-0.6,1-1.1,1.5-1.7C210.4,325.8,209.9,326.3,209.4,326.8z"/>
		<path class="st24" d="M233.2,301.2c-1.1-1.2-3-3.7-3.3-3.5c-10.1,5.7-20.1,2.9-30.2,0.1c-1.1-0.3-3,2.2-4.6,3.4l-1.1,0.2l-1.1,0
			c0.4-4,0.8-8.1,1.2-12.1c14.1,1.8,28.3,6.1,41.9-1.7c-0.1,4.6-0.2,9.1-0.3,13.7C234.8,301.2,234,301.2,233.2,301.2z"/>
	</g>
</g>
</svg>
