<svg xmlns="http://www.w3.org/2000/svg" width="6in" height="6in" viewBox="0 0 432 432"><path d="M387.9 142.6c-1.3-2.4-4.6-4.5-7.3-5.3-16.9-5.1-33.9-9.8-50.9-14.5a24.6 24.6 0 0 0-12.9-.4l-39.9 10.5-15.8 3.4a11.9 11.9 0 0 0-9.2 7.6c-2.2 5.1-4.5 10.2-6.7 15.2-1.2 2.8-2.5 5.5-3.7 8.2 11.1 1 15 6.2 16.4 10 3.8-5.6 7.6-11.3 11.5-16.9.6-.9 1.5-2 2.4-2.2 10.3-2.3 20.7-4.9 31.1-6.8.1 12-.1 25.1-.2 30.5h.3c1.2 5 3.3 10.1 3.5 15.2.4 11.2-.2 22.4-.4 33.5a3.5 3.5 0 0 1-.3 1.3l58.6-15.5a194.9 194.9 0 0 0-.7-32.4c-1.2-9.4-3.2-18.7-4.8-28.2 5.2 1.7 11.2 1.6 15.1 7.9s9.9 15 15.1 22.3c3.9-6 11.5-8.2 17-8.9-5.9-11.6-11.9-23.1-18.2-34.5z"/><path d="M306.4 175.1l-15.4 8.6s-5.8 2.5-6.2 1.6c-5.3-12-11.2-23.9-15.7-36.2s-11.4-18-21.9-22.2a24.4 24.4 0 0 0-13.1-1.3 17.7 17.7 0 0 1-2.9.7l-2.3.6c-12.7 5-27 32.3-27 32.3-1.6 9.5-3.5 18.8-4.7 28.2a195.8 195.8 0 0 0-.8 32.5l58.6 15.4a5 5 0 0 1-.2-1.2c-.3-11.2-.8-22.4-.5-33.5.2-5.2 2.3-10.2 3.5-15.3h1.2l6.6 14.8a12.2 12.2 0 0 0 9.3 7.5c5.4 1.1 16.2-6.6 16.2-6.6s16.3-10.4 18.3-12.4-3-13.5-3-13.5zM257.8 68.9a26.2 26.2 0 1 1-26.2 26 26.2 26.2 0 0 1 26.2-26zm-217 29.8a26.2 26.2 0 1 0 26.1-26.1 26.1 26.1 0 0 0-26.1 26.1z"/><path d="M317.5 173.5a4 4 0 0 1-2.4-.1 6.3 6.3 0 0 0-2.2.5l-8.4 2.5c-1.3 2.7-1.9 7.3 3.4 12.9 3.2-1.5 6.4-3.1 9.5-4.8l.8-.4c5.7-6.8 2.5-9.5-.7-10.6zM94.3 270.9c-6.9 4.3-13.4 8.2-19.8 12.4a3 3 0 0 0-.7 2.7c1.3 5.8 2.6 11.6 4.3 17.3a15.7 15.7 0 0 0 3.1 5.3l37.2 40.9c5.1 5.5 12.2 6.1 17.3 1.6s5.2-11.9.2-17.4q-16.7-18.1-33.2-36.4a19.1 19.1 0 0 1-3.5-6.8c-1.8-6.3-3.2-12.7-4.9-19.6zm-28.8 17.3l-25.6 11.3a4.8 4.8 0 0 0-1.8 2.7c-3.6 14.2-7.3 28.5-10.7 42.8a11.5 11.5 0 0 0 8.4 14 11.4 11.4 0 0 0 14.2-8c5.3-20.5 10.4-41.1 15.5-61.6a4.7 4.7 0 0 0 0-1.2z"/><path d="M30.9 203.2l14.6-13.7a5.9 5.9 0 0 0 1.7-4c.4-7.7.4-15.5.7-23.2s3.3-16.9 7.5-24.6a5.8 5.8 0 0 1 6.1-3.4c6.9.4 13.8.5 20.7.7 4.7.2 7.3 2.7 8.3 7.4 3.8 17.6 7.8 35.3 11.6 52.9.4 1.9 24 96.2 22.4 98.1-10.6 12.6-27.4-33.1-32-29.5A152.9 152.9 0 0 1 69.4 279c-13.4 7.2-27.2 13.6-40.9 20.4l-3.2 1.3a4.2 4.2 0 0 1 .1-1.3c5.2-23.6 10.5-47.1 15.9-70.7a7.7 7.7 0 0 1 2.6-3.9l25.3-19.6a5.3 5.3 0 0 0 2.4-3c2.5-10.8 4.7-21.6 7-32.4l-.5-.3c-.3 1-.7 1.9-1 2.9-2.6 8.3-5.4 16.5-7.9 24.8a12.4 12.4 0 0 1-5.8 7.3L41.7 218c-.2-4.6-1.8-13.3-10.8-14.8z"/><path d="M23.1 210.5l7.8-7.3c9 1.5 10.6 10.2 10.8 14.8l-8.9 5.6c-4.3 2.7-8.7 2-11.4-1.6s-2.1-8 1.7-11.5zM197 230c1.3 18.1 2 36.2 2.7 54.2a7.3 7.3 0 0 1-1.6 5c-10.9 13-22 25.8-32.8 38.8a40.3 40.3 0 0 0-5.7 9c-2.1 4.6-1 9 2.1 11.8s7.8 3.3 11.6 1.1a78.7 78.7 0 0 0 12-8.5c14.1-12.4 27.9-25 41.8-37.6a16.7 16.7 0 0 0 5.6-14c-.4-7.1-1-14.2-1.5-21.3a20.1 20.1 0 0 1-.1-2.5c4.8 7.6 9 15.2 13 22.8a6.6 6.6 0 0 1 .6 3.1c1.6 19.5 3 39 4.7 58.5a36.3 36.3 0 0 0 2.8 11.1c1.6 3.8 5 5.3 9.2 5.1a8.5 8.5 0 0 0 8.2-6.3 93 93 0 0 0 3.8-18c1.4-16.2 2-32.5 3.1-48.8a38.2 38.2 0 0 0-3.5-18.9l-17.1-37.3-.9-2-58.6-15.4zM323.8 65.4a26.2 26.2 0 1 0 26.2 26 26.1 26.1 0 0 0-26.2-26zM406.1 177c1.8 3.4 3.6 6.8 5.3 10.3s-.5 10.7-5.8 12.2c-3.7 1-7.3-.6-9.9-4.3l-6.6-9.3c3.9-6 11.5-8.2 17-8.9zm-42.3 49.5c-1.2 18-1.9 36.1-2.7 54.2a8.2 8.2 0 0 0 1.7 5c10.8 13 21.9 25.8 32.8 38.8a44.2 44.2 0 0 1 5.7 9c2 4.5 1 8.9-2.2 11.8s-7.7 3.3-11.6 1a76.1 76.1 0 0 1-12-8.4c-14-12.4-27.8-25.1-41.7-37.6a16.6 16.6 0 0 1-5.6-14.1c.4-7.1 1-14.1 1.5-21.2a20.8 20.8 0 0 0 0-2.5c-4.8 7.5-8.9 15.2-13 22.8a10 10 0 0 0-.6 3.1c-1.5 19.5-2.9 39-4.6 58.4a41.1 41.1 0 0 1-2.8 11.1c-1.6 3.8-5.1 5.4-9.3 5.2s-7.1-2.7-8.1-6.3a86.4 86.4 0 0 1-3.9-18c-1.3-16.3-2-32.6-3-48.9a38 38 0 0 1 3.4-18.8c5.8-12.5 11.5-24.9 17.2-37.4a15.4 15.4 0 0 0 .8-1.9l58.6-15.5q-.1 5.1-.6 10.2zm-117.3-35.6a5.2 5.2 0 0 1 2.5-1.8c.9-.3 1.4-1.5 2.1-2.3l6.8-9.3c-1.1-3.8-4.8-9.2-15.9-10.7-2.1 4.2-4.1 8.3-5.9 12.6a3.7 3.7 0 0 1-.5 1.1c.2 11.6 6.3 11.9 10.9 10.4z"/><path fill="none" d="M228.9 126.9l2.3-.6a9.8 9.8 0 0 0-2.3.6z"/><path d="M231.2 126.3a17.7 17.7 0 0 0 2.9-.7z"/></svg>