<svg xmlns="http://www.w3.org/2000/svg" width="6in" height="6in" viewBox="0 0 432 432"><path d="M107.4 30.7h263.5l.9.5c17.6 2.6 29.6 18.1 29.6 36.4-.3 95.5-.1 191.1-.2 286.6 0 26.9-20.2 47.1-47.1 47.1H77.9c-27.1 0-47.2-20.2-47.2-47.3q-.1-114.6 0-229.1c0-21.5 14.9-36.3 36.4-36.3H77c0-7.9-.1-15.4 0-22.9a34.2 34.2 0 0 1 12.8-27.1c5.1-4.4 11.2-6.3 17.6-7.9zM77 111.8h-9.2c-9.5 0-14 4.4-14 13.9v226.9c0 15.8 9.7 25.6 25.4 25.6h273.6a31.8 31.8 0 0 0 8.2-1c10.9-2.9 17.1-11.9 17.1-24.7V68.7c0-10.7-4.1-14.9-14.8-14.9H115c-10.8 0-14.9 4.1-14.9 14.9v271.4c0 1.4.1 2.7 0 4a11.6 11.6 0 0 1-11 10.9c-7.2.2-12.1-5-12.1-12.7V111.8z"/><path fill="#fff" d="M77 111.8v230.5c0 7.7 4.9 12.9 12.1 12.7a11.6 11.6 0 0 0 11-10.9c.1-1.3 0-2.6 0-4V68.7c0-10.8 4.1-14.9 14.9-14.9h248.3c10.7 0 14.8 4.2 14.8 14.9v283.7c0 12.8-6.2 21.8-17.1 24.7a31.8 31.8 0 0 1-8.2 1H79.2c-15.7 0-25.4-9.8-25.4-25.6V125.7c0-9.5 4.5-13.9 14-13.9zm98.4 69.4c13 0 26.1.1 39.1 0 8.5 0 13-4.4 13-12.8V89.9c0-8.2-4.5-12.8-12.6-12.9H136c-8.1.1-12.7 4.7-12.7 12.9v78.5c0 8.4 4.6 12.8 13 12.8 13.1.1 26.1 0 39.1 0zm63.5 34.8h106.7a26.4 26.4 0 0 0 4-.1c3.2-.3 5-2.2 5.3-5.4a5.8 5.8 0 0 0-5.1-6H128.4a5.6 5.6 0 0 0-5 6 5.4 5.4 0 0 0 5.2 5.5h110.3zm.6 23.2H132.1a21.7 21.7 0 0 0-3.6.1 5.5 5.5 0 0 0-5.1 5.9 5.4 5.4 0 0 0 5.2 5.5h221a5.6 5.6 0 0 0 5.3-5.4 5.7 5.7 0 0 0-5.1-6 21.4 21.4 0 0 0-3.6-.1zM302.4 355h35.4c3.9 0 7.8.1 11.6-.1a5.5 5.5 0 0 0 5.5-5.5 5.7 5.7 0 0 0-5.3-5.9h-90.3a17.9 17.9 0 0 0-4 .2c-3 .8-4.8 2.8-4.5 6.1a5.3 5.3 0 0 0 5 5.2 21.7 21.7 0 0 0 3.6.1zm-127.2 0h45.5c4.3 0 6.8-2.3 6.8-5.8s-2.6-5.8-6.9-5.8h-91.1c-3.7.2-6.1 2.4-6.2 5.7s2.4 5.9 6.4 5.9zm127.4-34.7h43.8c5.9 0 8.6-1.9 8.5-5.9s-2.7-5.7-8.4-5.7h-87.8c-1.9 0-4.5.3-5.7 1.5a8.2 8.2 0 0 0-1.9 6c.5 2.9 3 4.1 6 4.1 15.2-.1 30.4 0 45.5 0zm-127.4 0h45.6c4.2 0 6.8-2.2 6.7-5.8s-2.5-5.7-6.5-5.7h-91.1c-1.7 0-4 .6-4.8 1.8a8.2 8.2 0 0 0-1.3 5.9c.6 2.7 3 3.8 5.9 3.8 15.2-.1 30.4 0 45.5 0zm127.2-34.8h34c4.3 0 8.7.1 13-.1a5.5 5.5 0 0 0 5.5-5.5 5.8 5.8 0 0 0-5.2-5.9h-90.8a14.5 14.5 0 0 0-3.6.2c-3 .8-4.7 2.8-4.5 6a5.3 5.3 0 0 0 5 5.3 21.7 21.7 0 0 0 3.6.1zm-127.2 0h45.5c4.3 0 6.8-2.3 6.8-5.8S225 274 221 274c-30.4-.1-60.7-.1-91.1 0-1.7 0-4.1.8-5 2.1a8.1 8.1 0 0 0-.9 5.9c.7 2.8 3.2 3.5 6 3.5zm127.7-104.2h39.7c2.3 0 4.6.1 6.9-.1a5.5 5.5 0 0 0 5.4-5.7c-.1-3.2-2-5.1-5-5.7a14.3 14.3 0 0 0-2.9-.1h-88.6a13.1 13.1 0 0 0-2.8.1c-3.1.8-5 2.7-4.8 5.9s2 5.1 5.1 5.5a21.7 21.7 0 0 0 3.6.1zm.3-46.3h-36.1c-3.7 0-7.3-.2-10.9 0a5.7 5.7 0 0 0-5.5 6c.1 3.1 2.3 5.2 5.6 5.5h90a21.7 21.7 0 0 0 3.6-.2 5.6 5.6 0 0 0 4.9-6.4c-.4-3.1-2.8-5-6.8-5zm-.4-23.2h32.9c4.5 0 8.9.1 13.4-.1a5.6 5.6 0 0 0 5.8-5.6c0-3.2-2.3-5.5-5.7-5.9h-90.3a18.2 18.2 0 0 0-3.3.1c-4.5.9-6.7 6.3-3.4 9.4a9.1 9.1 0 0 0 5.8 2c14.9.2 29.9.1 44.8.1z"/><path d="M175.4 181.2c-13 0-26 .1-39.1 0-8.4 0-13-4.4-13-12.8V89.9c0-8.2 4.6-12.8 12.7-12.9h78.9c8.1.1 12.6 4.7 12.6 12.9v78.5c0 8.4-4.5 12.8-13 12.8-13 .1-26.1 0-39.1 0zm28.7-23.2v-57.6h-57.4V158zm34.8 58H128.6a5.4 5.4 0 0 1-5.2-5.5 5.6 5.6 0 0 1 5-6h221.4a5.8 5.8 0 0 1 5.1 6c-.3 3.2-2.1 5.1-5.3 5.4a26.4 26.4 0 0 1-4 .1zm.6 23.2h106.7a21.4 21.4 0 0 1 3.6.1 5.7 5.7 0 0 1 5.1 6 5.6 5.6 0 0 1-5.3 5.4h-221a5.4 5.4 0 0 1-5.2-5.5 5.5 5.5 0 0 1 5.1-5.9 21.7 21.7 0 0 1 3.6-.1zM302.4 355h-43a21.7 21.7 0 0 1-3.6-.1 5.3 5.3 0 0 1-5-5.2c-.3-3.3 1.5-5.3 4.5-6.1a17.9 17.9 0 0 1 4-.2h90.3a5.7 5.7 0 0 1 5.3 5.9 5.5 5.5 0 0 1-5.5 5.5c-3.8.2-7.7.1-11.6.1zm-127.2 0h-45.5c-4 0-6.4-2.4-6.4-5.9s2.5-5.5 6.2-5.7h91.1c4.3 0 6.9 2.2 6.9 5.8s-2.5 5.8-6.8 5.8zm127.4-34.7c-15.1 0-30.3-.1-45.5 0-3 0-5.5-1.2-6-4.1a8.2 8.2 0 0 1 1.9-6c1.2-1.2 3.8-1.5 5.7-1.5h87.8c5.7 0 8.3 1.8 8.4 5.7s-2.6 5.9-8.5 5.9zm-127.4 0c-15.1 0-30.3-.1-45.5 0-2.9 0-5.3-1.1-5.9-3.8a8.2 8.2 0 0 1 1.3-5.9c.8-1.2 3.1-1.8 4.8-1.8H221c4 0 6.4 2.3 6.5 5.7s-2.5 5.8-6.7 5.8zm127.2-34.8h-43a21.7 21.7 0 0 1-3.6-.1 5.3 5.3 0 0 1-5-5.3c-.2-3.2 1.5-5.2 4.5-6a14.5 14.5 0 0 1 3.6-.2h90.8a5.8 5.8 0 0 1 5.2 5.9 5.5 5.5 0 0 1-5.5 5.5c-4.3.2-8.7.1-13 .1zm-127.2 0H130c-2.8 0-5.3-.7-6-3.5a8.1 8.1 0 0 1 .9-5.9c.9-1.3 3.3-2.1 5-2.1 30.4-.1 60.7-.1 91.1 0 4 0 6.5 2.3 6.5 5.7s-2.5 5.8-6.8 5.8zm127.7-104.2h-43.4a21.7 21.7 0 0 1-3.6-.1c-3.1-.4-5-2.3-5.1-5.5s1.7-5.1 4.8-5.9a13.1 13.1 0 0 1 2.8-.1H347a14.3 14.3 0 0 1 2.9.1c3 .6 4.9 2.5 5 5.7a5.5 5.5 0 0 1-5.4 5.7c-2.3.2-4.6.1-6.9.1zm.3-46.3H348c4 0 6.4 1.9 6.8 5a5.6 5.6 0 0 1-4.9 6.4 21.7 21.7 0 0 1-3.6.2h-90c-3.3-.3-5.5-2.4-5.6-5.5a5.7 5.7 0 0 1 5.5-6c3.6-.2 7.2 0 10.9 0zm-.4-23.2c-14.9 0-29.9.1-44.8-.1a9.1 9.1 0 0 1-5.8-2c-3.3-3.1-1.1-8.5 3.4-9.4a18.2 18.2 0 0 1 3.3-.1h90.3c3.4.4 5.7 2.7 5.7 5.9a5.6 5.6 0 0 1-5.8 5.6c-4.5.2-8.9.1-13.4.1z"/><path fill="#fff" d="M204.1 158h-57.4v-57.6h57.4z"/></svg>