<svg xmlns="http://www.w3.org/2000/svg" width="6in" height="6in" viewBox="0 0 432 432"><path stroke="#231f20" stroke-miterlimit="10" stroke-width="3.09" d="M255.6 238.9c24.6-16.1 41.2-46.7 41.2-81.8 0-51.8-36.2-93.8-80.8-93.8s-80.8 42-80.8 93.8c0 35.1 16.6 65.7 41.2 81.8-54.4 19.9-93.8 79.5-93.8 150h266.8c0-70.5-39.4-130.1-93.8-150z"/><ellipse cx="121.5" cy="166.7" fill="#231f20" rx="10.7" ry="29.7"/><ellipse cx="310.5" cy="166.7" fill="#231f20" rx="10.7" ry="29.7"/><path fill="#231f20" d="M216 43.1c-56.4 0-102.1 42-102.1 93.9h14.5c0-44.5 39.2-80.5 87.6-80.5s87.6 36 87.6 80.5h14.5c0-51.9-45.7-93.9-102.1-93.9z"/><path fill="#fff" stroke="#fff" stroke-miterlimit="10" stroke-width="3.09" d="M318.1 196.3h-13.3c0 12.5-36 22.6-80.5 22.6v3.7c51.8 0 93.8-11.8 93.8-26.3z"/><ellipse cx="235.8" cy="220.1" fill="#fff" stroke="#fff" stroke-miterlimit="10" stroke-width="3.09" rx="19.8" ry="6.4"/></svg>