<?xml version="1.0" encoding="utf-8"?>
<!-- Generator: Adobe Illustrator 22.0.1, SVG Export Plug-In . SVG Version: 6.00 Build 0)  -->
<svg version="1.1" id="Layer_1" xmlns="http://www.w3.org/2000/svg" xmlns:xlink="http://www.w3.org/1999/xlink" x="0px" y="0px"
	 viewBox="0 0 432 432" style="enable-background:new 0 0 432 432;" xml:space="preserve">
<style type="text/css">
	.st0{stroke:#231F20;stroke-width:3.0878;stroke-miterlimit:10;}
	.st1{fill:#231F20;}
	.st2{fill:#FFFFFF;stroke:#FFFFFF;stroke-width:3.0878;stroke-miterlimit:10;}
	.st3{fill:#E2E1E2;}
	.st4{fill:none;stroke:#231F20;stroke-width:16.7351;stroke-linecap:round;stroke-miterlimit:10;}
	.st5{fill:none;}
	.st6{fill:#FFFFFF;}
	.st7{fill:#FFFFFF;stroke:#000000;stroke-width:22.1902;stroke-miterlimit:10;}
	.st8{fill:none;stroke:#000000;stroke-width:11.0951;stroke-miterlimit:10;}
	.st9{fill:none;stroke:#000000;stroke-width:8.4445;stroke-miterlimit:10;}
	.st10{clip-path:url(#SVGID_2_);}
	.st11{fill:#9E7266;}
	.st12{fill:#8AD0D1;}
	.st13{fill:#5D4D46;}
	.st14{fill:#DF8433;}
	.st15{fill:#E4B79F;}
	.st16{fill:#9B5A57;}
	.st17{fill:#F2CEBB;}
	.st18{fill:#F8FBF9;}
	.st19{fill:#E57675;}
	.st20{clip-path:url(#SVGID_4_);}
	.st21{fill:#2E3192;}
	.st22{fill:#ED1C24;}
	.st23{fill:#E7C186;}
	.st24{fill:#C9A976;}
	.st25{clip-path:url(#SVGID_6_);}
	.st26{fill:#EC008C;}
	.st27{fill:#D7D6D2;}
	.st28{fill:#E4BB73;}
	.st29{clip-path:url(#SVGID_8_);}
	.st30{fill:#F26522;}
	.st31{fill:#C699C5;}
	.st32{fill:#3C2415;}
	.st33{fill:#8B5E3C;}
	.st34{clip-path:url(#SVGID_10_);}
	.st35{fill:#65C1E3;}
	.st36{clip-path:url(#SVGID_12_);}
</style>
<g>
	<defs>
		<circle id="SVGID_5_" cx="217.6" cy="205.1" r="174.4"/>
	</defs>
	<clipPath id="SVGID_2_">
		<use xlink:href="#SVGID_5_"  style="overflow:visible;"/>
	</clipPath>
	<g class="st10">
		<path class="st26" d="M314.2,350.5c1.7,7.7,3.3,15.4,5,23.1c-5.6,3.1-11.2,6.3-16.8,9.4c-1.4,0.8-2.8,1.6-4.2,2.4
			c0,0-0.6,0.4-0.6,0.4c-1.6,0.2-3.3,0-4.7,0.5c-40.2,16-81.4,19.5-123.6,9.4c-11.3-2.7-22.4-6.4-33.6-9.6c0,0-0.7-0.5-0.7-0.5
			c-1.3-0.7-2.7-1.5-4.1-2.2c0,0-0.4-0.3-0.4-0.3c-1.4-0.7-2.9-1.4-4.3-2.1c0,0-0.5-0.3-0.5-0.3c-1.4-0.7-2.9-1.4-4.3-2.1
			c-2.6-2.5-5.3-5-7.9-7.4c1.7-6.9,3.4-13.8,5.2-20.7c3.7-15.5,13.2-24.1,29.1-26.7c7.2-1.2,13.9-4.9,20.9-7.5
			c4.2-0.3,8.4-0.6,12.6-1c3.8,9.8,7.7,19.7,12.3,31.6c6.4-7,11.6-12.2,16.2-17.9c4.2-5.1,7.6-5.9,12.2-0.5
			c5.1,6.1,10.9,11.7,17.4,18.6c4.2-12,7.7-22.1,11.2-32.1c3.8,0.5,7.5,1,11.3,1.4c4.8,1.6,9.4,3.5,14.3,4.7
			C293.2,325.1,310.2,329.3,314.2,350.5z"/>
		<path class="st27" d="M130.9,383.3c1.4,0.7,2.7,1.5,4.1,2.2C133.6,384.7,132.2,384,130.9,383.3z"/>
		<path class="st27" d="M126.2,380.9c1.4,0.7,2.9,1.4,4.3,2.1C129,382.3,127.6,381.6,126.2,380.9z"/>
		<path class="st27" d="M298.1,385.3c1.4-0.8,2.8-1.6,4.2-2.4C300.9,383.7,299.5,384.5,298.1,385.3z"/>
		<path class="st27" d="M121.4,378.4c1.4,0.7,2.9,1.4,4.3,2.1C124.2,379.9,122.8,379.2,121.4,378.4z"/>
		<path class="st12" d="M314.2,350.5c-4-21.1-20.9-25.4-38.1-29.5c-4.9-1.2-9.5-3.1-14.3-4.7c7.1-3.6,14.2-7,21.1-10.9
			c10-5.7,15.7-12.5,13.1-26c-2.3-12.2-0.2-25.3,0.5-37.9c0.9-17.8,4.1-35.6,3.2-53.3c-1.7-36.5-15.8-66.1-52.5-80.5
			c-37.6-14.7-93.1-3.3-111.3,47c-8,22.1-8.3,45-6,68.2c1.8,17.6,4.2,35.4,3.6,53c-0.7,18.5,0.1,23,16.8,31.9
			c5.9,3.2,12.2,5.7,18.4,8.5c-6.9,2.6-13.7,6.3-20.9,7.5c-15.9,2.6-25.4,11.3-29.1,26.7c-20.7-11.4-35.8-28.9-48.7-48.1
			c-40.8-60.7-38.9-143.8,6-201.1C135.6,25,238,7.4,318.2,64c96.4,68,97.6,213.7,2.2,283.1C318.5,348.5,316.3,349.4,314.2,350.5z"/>
		<path class="st17" d="M236.1,300.8c-0.2,0.4-0.3,0.8-0.5,1c-6.9,5.2-13.8,14.4-20.8,14.5c-6.6,0.1-13.3-9.4-20-14.7
			c2.1-7.4-1.2-11.1-7.8-14.7c-29.8-16.2-48.8-54.9-42.7-85c1-4.8,1.1-9.4,8.4-8.5c36.8,4.5,66.6-9.8,92.1-35
			c1.3-1.3,3.2-2.1,4.9-3.1c2.7,1.1,5.4,2.1,8,3.1c7.6,10.1,15.3,20,22.6,30.2c2.4,3.3,5.2,7.5,5,11.2c-1.3,36.5-7.9,70.5-44,90.3
			C238.5,291.7,237.8,297.2,236.1,300.8z"/>
		<path class="st15" d="M257.7,158.4c-2.7-1-5.3-2.1-8-3.1c1.8-1.6,3.5-3.3,5.3-4.9C255.9,153,256.8,155.7,257.7,158.4z"/>
		<path class="st15" d="M238,303.9c-1.3-1.2-3.4-3.7-3.8-3.5c-11.6,5.7-23,3-34.5,0.1c-1.3-0.3-3.5,2.2-5.2,3.4c0,0-1.2,0.2-1.2,0.2
			s-1.3,0-1.3,0c0.4-4.1,0.9-8.1,1.3-12.2c16.1,1.8,32.3,6.2,47.9-1.7c-0.1,4.6-0.2,9.2-0.3,13.8C239.9,304,239,304,238,303.9z"/>
		<path class="st28" d="M168.6,316.2c-6.1-2.8-12.4-5.3-18.4-8.5c-16.7-8.9-17.5-13.4-16.8-31.9c0.6-17.6-1.8-35.4-3.6-53
			c-2.3-23.2-2.1-46,6-68.2c18.2-50.3,73.8-61.6,111.3-47c36.7,14.4,50.8,44,52.5,80.5c0.8,17.7-2.3,35.5-3.2,53.3
			c-0.7,12.7-2.8,25.7-0.5,37.9c2.6,13.5-3.1,20.3-13.1,26c-6.9,3.9-14.1,7.3-21.1,10.9c-3.8-0.5-7.5-1-11.3-1.4
			c-4.8-4.7-9.5-9.4-14.3-14.1c1.7-3.7,2.3-9.2,5.1-10.7c36.1-19.8,42.7-53.8,44-90.3c0.1-3.7-2.7-7.9-5-11.2
			c-7.3-10.2-15-20.2-22.6-30.2c-0.9-2.7-1.8-5.4-2.7-8c-1.8,1.6-3.5,3.3-5.3,4.9c-1.6,1-3.5,1.8-4.9,3.1
			c-25.6,25.2-55.4,39.5-92.1,35c-7.3-0.9-7.4,3.7-8.4,8.5c-6.1,30.1,13,68.7,42.7,85c6.6,3.6,9.9,7.3,7.8,14.7
			c-4.6,4.5-9.1,9.1-13.7,13.6C176.9,315.5,172.8,315.8,168.6,316.2z"/>
		<path class="st18" d="M236.1,300.8c4.8,4.7,9.5,9.4,14.3,14.1c-3.5,10.1-7,20.1-11.2,32.1c-6.5-6.9-12.3-12.5-17.4-18.6
			c-4.6-5.5-8-4.7-12.2,0.5c-4.6,5.7-9.9,11-16.2,17.9c-4.6-11.9-8.5-21.7-12.3-31.6c4.6-4.5,9.1-9.1,13.7-13.6
			c6.7,5.3,13.4,14.8,20,14.7c7-0.1,13.9-9.3,20.8-14.5C235.9,301.6,236,301.2,236.1,300.8z"/>
	</g>
</g>
</svg>
