<svg xmlns="http://www.w3.org/2000/svg" width="6in" height="6in" viewBox="0 0 432 432"><path d="M172.2 68.9a25.9 25.9 0 1 1-25.9 25.7 25.8 25.8 0 0 1 25.9-25.7zm98 29.7A25.9 25.9 0 1 0 296 72.8a25.7 25.7 0 0 0-25.8 25.8zM323 268.8c-6.8 4.2-13.2 8.2-19.5 12.3-.6.3-.9 1.8-.7 2.6 1.3 5.7 2.6 11.5 4.3 17.1a13 13 0 0 0 3.1 5.3c12.1 13.5 24.4 26.9 36.7 40.4 5 5.4 12.1 6 17.1 1.5s5.1-11.7.1-17.1c-10.9-12-21.9-23.9-32.7-36a18.7 18.7 0 0 1-3.5-6.7c-1.8-6.2-3.2-12.5-4.9-19.4zm-28.4 17.1l-25.3 11.2a4 4 0 0 0-1.7 2.6c-3.6 14.1-7.2 28.2-10.7 42.3a11.6 11.6 0 0 0 22.4 6c5.2-20.3 10.2-40.6 15.3-60.9a4.7 4.7 0 0 0 0-1.2z"/><path d="M260.4 201.9l14.5-13.5a6.9 6.9 0 0 0 1.7-4c.3-7.6.3-15.3.6-22.9s3.3-16.7 7.5-24.3a5.8 5.8 0 0 1 6-3.4c6.8.4 13.6.5 20.4.8 4.6.1 7.2 2.6 8.2 7.2 3.8 17.5 7.7 34.9 11.5 52.3.4 1.9 23.7 95.1 22.1 96.9-10.4 12.5-27.1-32.6-31.6-29.1a156.7 156.7 0 0 1-22.8 14.9c-13.3 7.1-27 13.5-40.5 20.1l-3.1 1.4v-1.4c5.2-23.2 10.4-46.5 15.8-69.7a7 7 0 0 1 2.6-3.9l25-19.4a6.3 6.3 0 0 0 2.4-3c2.4-10.7 4.6-21.3 6.8-32l-.5-.3-.9 2.9c-2.6 8.1-5.4 16.3-7.9 24.5a11.7 11.7 0 0 1-5.7 7.2c-7.2 4.4-14.3 8.9-21.4 13.4-.2-4.6-1.8-13.2-10.7-14.7z"/><path d="M252.7 209.1l7.7-7.2c8.9 1.5 10.5 10.1 10.7 14.7l-8.8 5.5c-4.3 2.6-8.6 2-11.3-1.7s-2.1-7.8 1.7-11.3z"/><rect width="36.6" height="3.95" x="207.1" y="95" rx=".6" ry=".6"/><rect width="36.6" height="3.95" x="207.1" y="79.5" rx=".6" ry=".6" transform="rotate(-20.3 225.496 81.588)"/><rect width="36.6" height="3.95" x="207.1" y="109.9" rx=".6" ry=".6" transform="rotate(20.3 225.581 112.093)"/><path d="M70.4 179.2l-5.3 10.2c-2.5 4.8.5 10.6 5.7 12s7.3-.5 9.9-4.2 4.3-6.2 6.5-9.2c-3.8-5.9-11.4-8.1-16.8-8.8zm41.7 48.9c1.3 17.8 2 35.7 2.7 53.6a7.8 7.8 0 0 1-1.6 4.9c-10.7 12.9-21.7 25.5-32.4 38.4a35.5 35.5 0 0 0-5.6 8.8c-2.1 4.5-1.1 8.9 2 11.7a9.1 9.1 0 0 0 11.5 1 76.7 76.7 0 0 0 11.9-8.3c13.9-12.3 27.5-24.8 41.3-37.2a16.6 16.6 0 0 0 5.5-13.9c-.4-7-1-14-1.5-21a19.3 19.3 0 0 1-.1-2.4c4.8 7.5 8.9 15 12.9 22.5a10 10 0 0 1 .6 3c1.5 19.3 2.9 38.6 4.6 57.8a37 37 0 0 0 2.7 11c1.6 3.8 5 5.3 9.2 5.1a8.3 8.3 0 0 0 8-6.3 82.3 82.3 0 0 0 3.9-17.7c1.3-16.1 1.9-32.2 3-48.3a37.9 37.9 0 0 0-3.5-18.7c-5.7-12.2-11.3-24.5-16.9-36.8a16.7 16.7 0 0 1-.8-2l-57.9-15.2c.1 3.3.3 6.7.5 10z"/><path d="M220.2 193.6l-18.7-7.8a4.7 4.7 0 0 1-2.6-1.9c-5.3-11.8-11.1-23.6-15.6-35.7s-11.3-17.8-21.6-22a23.8 23.8 0 0 0-15.8-.6c-16.8 4.7-33.6 9.4-50.3 14.4-2.7.8-5.9 2.8-7.2 5.2-6.2 11.3-12.2 22.6-18 34 5.4.7 13 2.9 16.8 8.8 5.1-7.2 10.2-14.5 14.9-22s9.7-6.2 14.9-7.9c-1.6 9.4-3.6 18.6-4.7 27.9a181.3 181.3 0 0 0-.7 32.1l57.9 15.2a2.7 2.7 0 0 1-.3-1.2c-.3-11-.8-22.1-.4-33.1.1-5.1 2.2-10.1 3.4-15.1h1.2c2.1 4.9 4.3 9.7 6.5 14.6a11.7 11.7 0 0 0 9.2 7.4l16 3.5 8.7 1.9c-1.3-10.9 2.9-15.7 6.4-17.7z"/><path d="M235.8 201.3a5.6 5.6 0 0 1-2.4-2c-.5-.7-1.8-1-2.7-1.4l-10.5-4.3c-3.5 2-7.7 6.8-6.4 17.8 4.5 1 8.9 1.9 13.5 2.6l1.2.3c11-3.1 9.8-9 7.3-13z"/></svg>