<?xml version="1.0" encoding="utf-8"?>
<!-- Generator: Adobe Illustrator 22.0.1, SVG Export Plug-In . SVG Version: 6.00 Build 0)  -->
<svg version="1.1" id="Layer_1" xmlns="http://www.w3.org/2000/svg" xmlns:xlink="http://www.w3.org/1999/xlink" x="0px" y="0px"
	 viewBox="0 0 432 432" style="enable-background:new 0 0 432 432;" xml:space="preserve">
<style type="text/css">
	.st0{stroke:#231F20;stroke-width:3.0878;stroke-miterlimit:10;}
	.st1{fill:#231F20;}
	.st2{fill:#FFFFFF;stroke:#FFFFFF;stroke-width:3.0878;stroke-miterlimit:10;}
	.st3{fill:#E2E1E2;}
	.st4{fill:none;stroke:#231F20;stroke-width:16.7351;stroke-linecap:round;stroke-miterlimit:10;}
	.st5{fill:none;}
	.st6{fill:#FFFFFF;}
	.st7{fill:#FFFFFF;stroke:#000000;stroke-width:22.1902;stroke-miterlimit:10;}
	.st8{fill:none;stroke:#000000;stroke-width:11.0951;stroke-miterlimit:10;}
	.st9{fill:none;stroke:#000000;stroke-width:8.4445;stroke-miterlimit:10;}
	.st10{clip-path:url(#SVGID_2_);}
	.st11{fill:#9E7266;}
	.st12{fill:#8AD0D1;}
	.st13{fill:#5D4D46;}
	.st14{fill:#DF8433;}
	.st15{fill:#E4B79F;}
	.st16{fill:#9B5A57;}
	.st17{fill:#F2CEBB;}
	.st18{fill:#F8FBF9;}
	.st19{fill:#E57675;}
	.st20{clip-path:url(#SVGID_4_);}
	.st21{fill:#2E3192;}
	.st22{fill:#ED1C24;}
	.st23{fill:#E7C186;}
	.st24{fill:#C9A976;}
	.st25{clip-path:url(#SVGID_6_);}
	.st26{fill:#EC008C;}
	.st27{fill:#D7D6D2;}
	.st28{fill:#E4BB73;}
	.st29{clip-path:url(#SVGID_8_);}
	.st30{fill:#F26522;}
	.st31{fill:#C699C5;}
	.st32{fill:#3C2415;}
	.st33{fill:#8B5E3C;}
	.st34{clip-path:url(#SVGID_10_);}
	.st35{fill:#65C1E3;}
	.st36{clip-path:url(#SVGID_12_);}
</style>
<path class="st3" d="M30.5,291.7c0.7-5.1,1.3-9.2,1.9-13.6C35.3,282.1,34.8,287.2,30.5,291.7z"/>
<g>
	<g id="oEZ2TQ.tif_1_">
		<g>
			<path d="M275.3,30c0,11.5,0,22.9,0,34.6c-13.9,0-27.8,0-41.8,0c0-11.4,0-22.8,0-34.6C247.3,30,261.1,30,275.3,30z"/>
			<path d="M201,64.6c-14,0-27.8,0-41.7,0c0-11.6,0-22.9,0-34.7c13.8,0,27.7,0,41.7,0C201,41.3,201,52.8,201,64.6z"/>
			<path d="M357.6,348.4l0.1-117.9c0-12.1,0-23.9,0-35.6c0-42.4,0-84.8,0-127.3c0-18.6-7.5-39.7-22.6-38.2c-8,0.8-16.1,0.1-24.2,0.2
				c-1.1,0-2.2-0.6-3.1,0.8c0,11.4,0,22.7,0,34.8c9.7,0,19.3,0,28.7,0c0,21.4,0,42,0,62.7c-80.5,0-160.8,0-241.2,0c0-21,0-41.7,0-63
				c10.6,0,21,0,31.5,0c0-12,0-23.4,0-35.3c-10,0-19.6,0-29.2,0c-13,0-23.4,17.5-23.4,39.5c0,99,0,198.1,0,297.1
				c0,13.9,3.8,23.8,10.9,30.3c4.4,4,9.2,4.9,14.1,4.9c52.4-0.1,104.7,0,157.1,0c27,0,53.9,0,80.9,0c9.8,0,16.8-8,19.4-22.1
				C358.5,369,357.5,358.6,357.6,348.4z M95.4,365.5c0-73.4,0-146.5,0-219.5c80.5,0,160.8,0,241.4,0c0,28.4,0,56.3,0,84.4
				l-0.2,117.9c0,0,0,0,0,0c0,6,0,11.5,0,17.1C256,365.5,175.8,365.5,95.4,365.5z"/>
		</g>
	</g>
	<path d="M224.8,41.3c0,8.5,0,17,0,25.5c0,2,0,3.9,1.9,4.7c5.7,2.5,6.8,11.8,4.8,19.4c-1.7,6.7-7.3,11.4-13.1,10.8
		c-5.6-0.6-9.9-4-12.2-10.4c-2.4-6.5-1.3-12.7,2.4-17.8c2.1-2.8,2.6-5.6,2.6-9c-0.1-15.7,0-31.5,0-47.2c0-6.8,2.5-10.7,6.8-10.7
		c4.3,0,6.7,3.9,6.7,10.8C224.8,25.3,224.8,33.3,224.8,41.3C224.8,41.3,224.8,41.3,224.8,41.3z"/>
	<path d="M285.4,41.1c0-8.3-0.1-16.6,0-25c0.1-5.9,2.8-9.7,6.8-9.6c4,0.1,6.7,3.8,6.7,9.8c0,16.5,0,32.9,0,49.4
		c0,2.5-0.2,4.8,2.3,6.1c6.1,3.1,6.2,14.1,4.1,20.1c-2.5,7.1-8.5,11-14.5,9.5c-11.1-2.9-15.3-18.1-7.7-28.4c1.7-2.4,2.3-4.6,2.3-7.5
		C285.3,57.4,285.3,49.2,285.4,41.1C285.3,41.1,285.3,41.1,285.4,41.1z"/>
	<path d="M150.2,41.5c0,8.3,0,16.6,0,25c0,2.2-0.1,4.2,2.1,5.2c5.5,2.6,6.7,11.9,4.7,19.5c-1.9,6.9-7.8,11.5-13.6,10.5
		c-5.4-0.9-9.5-4.3-11.7-10.5c-2.2-6.5-1.3-12.7,2.6-17.7c2-2.6,2.5-5.3,2.4-8.5c-0.1-16.1-0.1-32.2,0-48.3c0-5.6,2.1-9,5.7-9.8
		c4.1-0.9,7.7,3,7.8,8.8C150.3,24.1,150.2,32.8,150.2,41.5z"/>
	<line class="st4" x1="130.5" y1="178.8" x2="306.5" y2="178.8"/>
	<line class="st4" x1="130.8" y1="215.3" x2="306.8" y2="215.3"/>
	<line class="st4" x1="130.8" y1="251.8" x2="306.8" y2="251.8"/>
	<line class="st4" x1="130.8" y1="287.4" x2="306.8" y2="287.4"/>
	<line class="st4" x1="130.8" y1="324" x2="306.8" y2="324"/>
</g>
</svg>
