<?xml version="1.0" encoding="utf-8"?>
<!-- Generator: Adobe Illustrator 22.0.1, SVG Export Plug-In . SVG Version: 6.00 Build 0)  -->
<svg version="1.1" id="Layer_1" xmlns="http://www.w3.org/2000/svg" xmlns:xlink="http://www.w3.org/1999/xlink" x="0px" y="0px"
	 viewBox="0 0 432 432" style="enable-background:new 0 0 432 432;" xml:space="preserve">
<style type="text/css">
	.st0{stroke:#231F20;stroke-width:3.0878;stroke-miterlimit:10;}
	.st1{fill:#231F20;}
	.st2{fill:#FFFFFF;stroke:#FFFFFF;stroke-width:3.0878;stroke-miterlimit:10;}
	.st3{fill:#E2E1E2;}
	.st4{fill:none;stroke:#231F20;stroke-width:16.7351;stroke-linecap:round;stroke-miterlimit:10;}
	.st5{fill:none;}
	.st6{fill:#FFFFFF;}
	.st7{fill:#FFFFFF;stroke:#000000;stroke-width:22.1902;stroke-miterlimit:10;}
	.st8{fill:none;stroke:#000000;stroke-width:11.0951;stroke-miterlimit:10;}
	.st9{fill:none;stroke:#000000;stroke-width:8.4445;stroke-miterlimit:10;}
	.st10{clip-path:url(#SVGID_2_);}
	.st11{fill:#9E7266;}
	.st12{fill:#8AD0D1;}
	.st13{fill:#5D4D46;}
	.st14{fill:#DF8433;}
	.st15{fill:#E4B79F;}
	.st16{fill:#9B5A57;}
	.st17{fill:#F2CEBB;}
	.st18{fill:#F8FBF9;}
	.st19{fill:#E57675;}
	.st20{clip-path:url(#SVGID_4_);}
	.st21{fill:#2E3192;}
	.st22{fill:#ED1C24;}
	.st23{fill:#E7C186;}
	.st24{fill:#C9A976;}
	.st25{clip-path:url(#SVGID_6_);}
	.st26{fill:#EC008C;}
	.st27{fill:#D7D6D2;}
	.st28{fill:#E4BB73;}
	.st29{clip-path:url(#SVGID_8_);}
	.st30{fill:#F26522;}
	.st31{fill:#C699C5;}
	.st32{fill:#3C2415;}
	.st33{fill:#8B5E3C;}
	.st34{clip-path:url(#SVGID_10_);}
	.st35{fill:#65C1E3;}
	.st36{clip-path:url(#SVGID_12_);}
</style>
<g>
	<path class="st7" d="M185.8,43.2c-91.7,0-166.1,54.8-166.1,122.5c0,44,31.5,82.6,78.8,104.2c0.1,0.1,0.1,0.1,0.2,0.2
		c13.8,7-4.4,28.7-4.4,28.7c17.5-3.4,77-10.6,91.4-10.6c91.7,0,166.1-54.8,166.1-122.5C351.9,98.1,277.5,43.2,185.8,43.2z"/>
	<line class="st8" x1="97.6" y1="220" x2="276.2" y2="220"/>
	<path class="st7" d="M285.7,194c69.9,0,126.6,41.8,126.6,93.3c0,33.5-24,62.9-60,79.4c-0.1,0-0.1,0.1-0.2,0.1
		c-10.5,5.3,3.3,21.9,3.3,21.9c-13.4-2.6-58.7-8.1-69.7-8.1c-69.9,0-126.6-41.8-126.6-93.3C159.2,235.8,215.8,194,285.7,194z"/>
	<line class="st8" x1="97.6" y1="122" x2="276.2" y2="122"/>
	<line class="st8" x1="97.6" y1="171" x2="276.2" y2="171"/>
	<line class="st9" x1="214.8" y1="328.7" x2="350.8" y2="328.7"/>
	<line class="st9" x1="214.8" y1="254.1" x2="350.8" y2="254.1"/>
	<line class="st9" x1="214.8" y1="291.4" x2="350.8" y2="291.4"/>
</g>
</svg>
