<svg xmlns="http://www.w3.org/2000/svg" width="6in" height="6in" viewBox="0 0 432 432"><defs><clipPath id="a"><circle cx="217.6" cy="205.1" r="174.4" fill="none"/></clipPath></defs><g clip-path="url(#a)"><path fill="#c699c5" d="M314.2 350.5c1.6 7.7 3.3 15.4 4.9 23l-16.8 9.4-4.2 2.4-.5.4c-1.6.2-3.3 0-4.7.5-40.3 16-81.5 19.5-123.6 9.4-11.4-2.7-22.4-6.4-33.6-9.6l-.8-.5-4-2.2-.4-.3-4.3-2.1-.5-.3-4.3-2.2-8-7.4c1.8-6.9 3.5-13.8 5.2-20.7 3.7-15.4 13.2-24.1 29.1-26.7 7.2-1.2 13.9-4.9 20.9-7.4l12.5-1c3.9 9.8 7.7 19.7 12.3 31.6 6.4-7 11.6-12.2 16.3-18s7.5-5.9 12.1-.4 10.9 11.7 17.4 18.6l11.2-32.1 11.3 1.4c4.8 1.6 9.5 3.5 14.3 4.7 17.2 4.1 34.2 8.3 38.2 29.5z"/><path fill="#d7d6d2" d="M130.9 383.3l4 2.2zm-4.7-2.4l4.3 2.1zm171.9 4.4l4.2-2.4zm-176.7-6.9l4.3 2.2z"/><path fill="#8ad0d1" d="M314.2 350.5c-4-21.2-21-25.4-38.2-29.5-4.8-1.2-9.5-3.1-14.3-4.7 7.1-3.6 14.2-7 21.1-10.9 10.1-5.7 15.7-12.5 13.1-26s-.2-25.3.5-37.9c.9-17.8 4.1-35.7 3.2-53.4-1.7-36.5-15.8-66.1-52.5-80.5s-93.1-3.3-111.4 47c-8 22.1-8.2 45-5.9 68.2 1.8 17.6 4.2 35.4 3.6 53s.1 23 16.8 31.9c5.9 3.1 12.2 5.6 18.4 8.5-7 2.5-13.7 6.2-20.9 7.4-15.9 2.6-25.4 11.3-29.1 26.7-20.7-11.4-35.8-28.8-48.7-48-40.7-60.7-38.9-143.9 6-201.1C135.6 25 238 7.4 318.2 64c96.4 68 97.6 213.7 2.2 283.1a46.5 46.5 0 0 1-6.2 3.4z"/><path fill="#f2cebb" d="M236.1 300.8a1.6 1.6 0 0 1-.5 1c-6.9 5.3-13.8 14.5-20.8 14.6s-13.3-9.5-20-14.8c2.1-7.4-1.2-11.1-7.8-14.7-29.8-16.2-48.8-54.9-42.7-85 .9-4.8 1-9.4 8.4-8.5 36.7 4.5 66.5-9.8 92.1-35 1.3-1.4 3.2-2.1 4.9-3.2l8 3.2c7.6 10 15.3 20 22.6 30.2 2.3 3.3 5.1 7.5 5 11.2-1.3 36.5-7.9 70.5-44 90.3-2.8 1.6-3.5 7.1-5.2 10.7z"/><path fill="#e4b79f" d="M257.7 158.4l-8-3.2 5.2-4.9c1 2.7 1.9 5.4 2.8 8.1zM238 303.9c-1.3-1.2-3.4-3.7-3.8-3.5-11.5 5.7-22.9 3-34.5.2-1.3-.4-3.5 2.1-5.2 3.3l-1.3.2H192c.4-4.1.9-8.1 1.3-12.2 16.1 1.9 32.3 6.2 47.9-1.7l-.3 13.8z"/><path fill="#df8433" d="M168.6 316.2c-6.2-2.9-12.5-5.4-18.4-8.5-16.7-8.9-17.5-13.5-16.8-31.9s-1.8-35.4-3.6-53c-2.3-23.2-2.1-46.1 5.9-68.2 18.3-50.3 73.8-61.7 111.4-47s50.8 44 52.5 80.5c.9 17.7-2.3 35.6-3.2 53.4-.7 12.6-2.8 25.7-.5 37.9s-3 20.3-13.1 26c-6.9 3.9-14 7.3-21.1 10.9l-11.3-1.4-14.3-14.1c1.7-3.6 2.4-9.1 5.2-10.7 36.1-19.8 42.7-53.8 44-90.3.1-3.7-2.7-7.9-5-11.2-7.3-10.2-15-20.2-22.6-30.2-.9-2.7-1.8-5.4-2.8-8.1l-5.2 4.9c-1.7 1.1-3.6 1.8-4.9 3.2-25.6 25.2-55.4 39.5-92.1 35-7.4-.9-7.5 3.7-8.4 8.5-6.1 30.1 12.9 68.8 42.7 85 6.6 3.6 9.9 7.3 7.8 14.7l-13.7 13.6z"/><path fill="#f8fbf9" d="M236.1 300.8l14.3 14.1-11.2 32.1c-6.5-6.9-12.2-12.5-17.4-18.6s-8-4.7-12.1.4-9.9 11-16.3 18c-4.6-11.9-8.4-21.8-12.3-31.6l13.7-13.6c6.7 5.3 13.4 14.8 20 14.8s13.9-9.3 20.8-14.6a1.6 1.6 0 0 0 .5-1z"/><path fill="#5d4d46" d="M285.1 195.2c1.6 2.2 3.3 4.3 5 6.4-2.7 7.6-5.3 15.3-7.9 22.9l-2.4-2.2c-1.4-7.7 4.6-17.8-6-22.6s-38.8 1.8-44.8 9.2.9 15.6 4.1 22.9l-4 .2c-2-3.1-4.1-6.2-5.9-9.3-4.6-7.9-9.4-8.6-14.7-.7l-4.2-10.5c-12.8-13.6-29.5-13.4-46.1-11.6-2.5.3-4.5 6-6.8 9.1l-3.9 10.2c-2.8-6.7-5.5-13.3-8.3-19.9l6.7-5.3c23.1-.9 45.6 1 66.1 13.6 2.3 1.3 7.1.9 9.4-.6 19.7-12.9 41.2-14.5 63.7-11.8z"/><path fill="#9e7266" d="M147.5 219.2l3.9-10.2c2.3 10.3-.7 22.7 12.6 28.4 21.7 9.1 39-1.8 40.3-25.9l4.2 10.5c-9.1 19.7-17.9 25.2-36.1 22.5-16.3-2.4-21.9-8.1-24.9-25.3zm81.6 12.8l4-.2c7.9 9.2 18.3 9.2 29.1 7.9l2.7 2.7c-18.1 5.4-26.3 3-35.8-10.4z"/><path fill="#9e7266" d="M264.9 242.4l-2.7-2.7 17.6-17.4 2.4 2.2c-1.3 10.3-7.1 16.2-17.3 17.9z"/></g></svg>