<?xml version="1.0" encoding="utf-8"?>
<!-- Generator: Adobe Illustrator 22.0.1, SVG Export Plug-In . SVG Version: 6.00 Build 0)  -->
<svg version="1.1" id="Layer_1" xmlns="http://www.w3.org/2000/svg" xmlns:xlink="http://www.w3.org/1999/xlink" x="0px" y="0px"
	 viewBox="0 0 432 432" style="enable-background:new 0 0 432 432;" xml:space="preserve">
<style type="text/css">
	.st0{stroke:#231F20;stroke-width:3.0878;stroke-miterlimit:10;}
	.st1{fill:#231F20;}
	.st2{fill:#FFFFFF;stroke:#FFFFFF;stroke-width:3.0878;stroke-miterlimit:10;}
	.st3{fill:#E2E1E2;}
	.st4{fill:none;stroke:#231F20;stroke-width:16.7351;stroke-linecap:round;stroke-miterlimit:10;}
	.st5{fill:none;}
	.st6{fill:#FFFFFF;}
	.st7{fill:#FFFFFF;stroke:#000000;stroke-width:22.1902;stroke-miterlimit:10;}
	.st8{fill:none;stroke:#000000;stroke-width:11.0951;stroke-miterlimit:10;}
	.st9{fill:none;stroke:#000000;stroke-width:8.4445;stroke-miterlimit:10;}
	.st10{clip-path:url(#SVGID_2_);}
	.st11{fill:#9E7266;}
	.st12{fill:#8AD0D1;}
	.st13{fill:#5D4D46;}
	.st14{fill:#DF8433;}
	.st15{fill:#E4B79F;}
	.st16{fill:#9B5A57;}
	.st17{fill:#F2CEBB;}
	.st18{fill:#F8FBF9;}
	.st19{fill:#E57675;}
	.st20{clip-path:url(#SVGID_4_);}
	.st21{fill:#2E3192;}
	.st22{fill:#ED1C24;}
	.st23{fill:#E7C186;}
	.st24{fill:#C9A976;}
	.st25{clip-path:url(#SVGID_6_);}
	.st26{fill:#EC008C;}
	.st27{fill:#D7D6D2;}
	.st28{fill:#E4BB73;}
	.st29{clip-path:url(#SVGID_8_);}
	.st30{fill:#F26522;}
	.st31{fill:#C699C5;}
	.st32{fill:#3C2415;}
	.st33{fill:#8B5E3C;}
	.st34{clip-path:url(#SVGID_10_);}
	.st35{fill:#65C1E3;}
	.st36{clip-path:url(#SVGID_12_);}
</style>
<g>
	<path d="M107.4,30.7c87.8,0,175.7,0,263.5,0c0.3,0.2,0.6,0.4,1,0.5c17.6,2.7,29.6,18.1,29.5,36.4c-0.2,95.5-0.1,191.1-0.1,286.7
		c0,26.9-20.2,47.1-47.1,47.1c-92.1,0-184.1,0-276.2,0c-27.1,0-47.3-20.2-47.3-47.3c0-76.4,0-152.7,0-229.1
		c0-21.5,14.9-36.2,36.5-36.3c3.2,0,6.4,0,9.8,0c0-7.9-0.1-15.4,0-22.9c0.1-11,4.3-20,12.8-27.2C94.9,34.2,101,32.3,107.4,30.7z
		 M77,111.8c-3.4,0-6.3,0-9.2,0c-9.6,0-14,4.4-14,13.9c0,75.6,0,151.3,0,226.9c0,15.8,9.7,25.6,25.4,25.6c91.2,0,182.4,0,273.6,0
		c2.7,0,5.6-0.3,8.2-1c10.9-2.9,17.1-12,17.1-24.7c0-94.6,0-189.2,0-283.7c0-10.7-4.1-14.9-14.9-14.9c-82.8,0-165.5,0-248.3,0
		c-10.8,0-14.9,4.1-14.9,14.9c0,90.5,0,181,0,271.4c0,1.3,0,2.7,0,4c-0.3,5.9-5.1,10.7-11,10.8C81.9,355.2,77,350,77,342.3
		c0-75.3,0-150.6,0-225.8C77,115,77,113.6,77,111.8z"/>
	<path class="st6" d="M77,111.8c0,1.9,0,3.3,0,4.7c0,75.3,0,150.6,0,225.8c0,7.7,5,12.9,12.1,12.7c5.9-0.2,10.7-5,11-10.8
		c0.1-1.3,0-2.7,0-4c0-90.5,0-181,0-271.4c0-10.8,4.1-14.9,14.9-14.9c82.8,0,165.5,0,248.3,0c10.7,0,14.9,4.1,14.9,14.9
		c0,94.6,0,189.2,0,283.7c0,12.7-6.2,21.7-17.1,24.7c-2.6,0.7-5.5,1-8.2,1c-91.2,0.1-182.4,0.1-273.6,0c-15.7,0-25.4-9.8-25.4-25.6
		c0-75.6,0-151.3,0-226.9c0-9.5,4.5-13.9,14-13.9C70.7,111.7,73.6,111.8,77,111.8z M175.4,181.2c13,0,26,0,39.1,0
		c8.5,0,13-4.5,13-12.8c0-26.2,0-52.3,0-78.5c0-8.2-4.6-12.9-12.7-12.9c-26.3,0-52.6,0-78.9,0c-8.1,0-12.7,4.7-12.7,12.9
		c0,26.2,0,52.3,0,78.5c0,8.4,4.5,12.8,13,12.8C149.4,181.3,162.4,181.2,175.4,181.2z M238.9,216c35.6,0,71.1,0,106.7,0
		c1.3,0,2.7,0.1,4-0.1c3.2-0.4,5-2.3,5.2-5.4c0.2-3-2-5.6-5.1-6c-1.1-0.1-2.2-0.1-3.3-0.1c-71.6,0-143.2,0-214.9,0
		c-1.1,0-2.2-0.1-3.3,0.1c-3.1,0.4-5.3,3-5.1,6c0.3,3.2,2.1,5.1,5.3,5.4c1.3,0.1,2.6,0.1,4,0.1C168,216,203.5,216,238.9,216z
		 M239.5,239.2c-35.8,0-71.6,0-107.4,0c-1.2,0-2.4-0.1-3.6,0.1c-3.1,0.4-5.3,2.9-5.1,5.9c0.2,3.2,2,5.1,5.2,5.5
		c1.1,0.1,2.2,0.1,3.3,0.1c71.5,0,143,0,214.5,0c1.1,0,2.2,0.1,3.3-0.1c3.2-0.4,5-2.2,5.3-5.4c0.3-3-1.9-5.6-5-6
		c-1.2-0.2-2.4-0.1-3.6-0.1C310.7,239.2,275.1,239.2,239.5,239.2z M302.4,355c11.8,0,23.6,0,35.4,0c3.9,0,7.7,0.1,11.6-0.1
		c3.2-0.1,5.4-2.5,5.5-5.6c0.1-3-2.1-5.5-5.3-5.9c-1.1-0.1-2.2-0.1-3.2-0.1c-29,0-58.1,0-87.1,0c-1.3,0-2.7-0.1-4,0.2
		c-3,0.8-4.8,2.8-4.5,6.1c0.2,3,2,4.8,5,5.3c1.2,0.2,2.4,0.1,3.6,0.1C273.8,355,288.1,355,302.4,355z M175.2,355
		c15.2,0,30.4,0,45.5,0c4.3,0,6.8-2.3,6.8-5.8c0-3.5-2.6-5.7-6.9-5.7c-30.1,0-60.2,0-90.4,0c-0.2,0-0.5,0-0.7,0
		c-3.7,0.2-6.1,2.4-6.2,5.7c-0.1,3.5,2.4,5.9,6.3,5.9C144.8,355,160,355,175.2,355z M302.6,320.3c14.6,0,29.2,0,43.7,0
		c5.9,0,8.6-1.9,8.5-5.9c-0.1-3.9-2.7-5.7-8.4-5.7c-6,0-12,0-18.1,0c-23.3,0-46.5,0-69.8,0.1c-1.9,0-4.5,0.2-5.7,1.4
		c-1.3,1.4-2.2,4.1-1.9,6c0.4,2.9,3,4.1,6,4.1C272.3,320.2,287.5,320.3,302.6,320.3z M175.2,320.3c15.2,0,30.4,0,45.5,0
		c4.3,0,6.8-2.3,6.7-5.8c-0.1-3.4-2.5-5.7-6.5-5.7c-30.4,0-60.7,0-91.1,0.1c-1.6,0-4,0.7-4.8,1.8c-1.1,1.5-1.7,4.1-1.3,5.9
		c0.6,2.7,3,3.8,5.9,3.8C144.9,320.2,160.1,320.3,175.2,320.3z M302.4,285.5c11.3,0,22.7,0,34,0c4.3,0,8.7,0.1,13-0.1
		c3.3-0.1,5.4-2.5,5.5-5.6c0.1-3-2.1-5.5-5.2-5.9c-1-0.1-1.9-0.1-2.9-0.1c-29.3,0-58.6,0-87.8,0c-1.2,0-2.5-0.1-3.6,0.2
		c-3,0.8-4.8,2.8-4.6,6c0.2,3,2,4.8,5,5.3c1.2,0.2,2.4,0.1,3.6,0.1C273.7,285.5,288.1,285.5,302.4,285.5z M175.2,285.5
		c15.2,0,30.4,0,45.5,0c4.3,0,6.8-2.3,6.7-5.8c0-3.4-2.5-5.7-6.5-5.7c-30.4,0-60.7-0.1-91.1,0.1c-1.7,0-4.1,0.8-5,2.1
		c-1,1.5-1.4,4.1-0.9,5.9c0.7,2.7,3.3,3.5,6.1,3.5C145.1,285.5,160.1,285.5,175.2,285.5z M302.9,181.3c13.3,0,26.5,0,39.8,0
		c2.3,0,4.6,0.1,6.9-0.1c3.2-0.3,5.5-2.6,5.4-5.7c-0.1-3.2-1.9-5.1-5-5.7c-0.9-0.2-1.9-0.1-2.9-0.1c-29.5,0-59,0-88.5,0
		c-1,0-2-0.1-2.9,0.1c-3,0.7-4.9,2.6-4.8,5.9c0.1,3.2,2,5.1,5.2,5.5c1.2,0.2,2.4,0.1,3.6,0.1C274,181.3,288.4,181.3,302.9,181.3z
		 M303.2,135c-12,0-24.1,0-36.1,0c-3.6,0-7.2-0.1-10.8,0.1c-3.4,0.2-5.6,2.8-5.5,6c0.1,3.1,2.3,5.2,5.6,5.5c1,0.1,1.9,0.1,2.9,0.1
		c29,0,58.1,0,87.1,0c1.2,0,2.4,0.1,3.6-0.1c3.2-0.5,5.4-3.3,4.9-6.4c-0.4-3.1-2.9-5-6.8-5C333.1,134.9,318.1,135,303.2,135z
		 M302.8,111.8c11,0,21.9,0,32.9,0c4.5,0,8.9,0.1,13.4-0.1c3.5-0.1,5.8-2.5,5.8-5.7c0-3.1-2.3-5.5-5.7-5.8c-0.8-0.1-1.7,0-2.5,0
		c-29.3,0-58.5,0-87.8,0c-1.1,0-2.2-0.1-3.2,0.1c-4.5,0.8-6.7,6.2-3.4,9.3c1.4,1.3,3.8,2,5.8,2C272.9,111.9,287.9,111.8,302.8,111.8
		z"/>
	<path d="M175.4,181.2c-13,0-26,0-39.1,0c-8.5,0-13-4.5-13-12.8c0-26.2,0-52.3,0-78.5c0-8.2,4.6-12.8,12.7-12.9
		c26.3,0,52.6,0,78.9,0c8.1,0,12.7,4.7,12.7,12.9c0,26.2,0,52.3,0,78.5c0,8.4-4.5,12.8-13,12.8C201.5,181.3,188.4,181.2,175.4,181.2
		z M204.1,158c0-19.2,0-38.4,0-57.6c-19.2,0-38.3,0-57.4,0c0,19.3,0,38.4,0,57.6C165.9,158,184.8,158,204.1,158z"/>
	<path d="M238.9,216c-35.4,0-70.9,0-106.3,0c-1.3,0-2.7,0.1-4-0.1c-3.2-0.4-5-2.2-5.3-5.4c-0.2-3,2-5.6,5.1-6
		c1.1-0.1,2.2-0.1,3.3-0.1c71.6,0,143.2,0,214.9,0c1.1,0,2.2-0.1,3.3,0.1c3.1,0.4,5.3,3,5.1,6c-0.2,3.2-2.1,5.1-5.2,5.4
		c-1.3,0.2-2.6,0.1-4,0.1C310.1,216,274.5,216,238.9,216z"/>
	<path d="M239.5,239.2c35.6,0,71.1,0,106.7,0c1.2,0,2.4-0.1,3.6,0.1c3.1,0.4,5.3,3,5,6c-0.3,3.2-2.1,5-5.3,5.4
		c-1.1,0.1-2.2,0.1-3.3,0.1c-71.5,0-143,0-214.5,0c-1.1,0-2.2,0.1-3.3-0.1c-3.2-0.4-5-2.3-5.2-5.5c-0.2-3,2-5.6,5.1-5.9
		c1.2-0.2,2.4-0.1,3.6-0.1C167.9,239.2,203.7,239.2,239.5,239.2z"/>
	<path d="M302.4,355c-14.3,0-28.7,0-43,0c-1.2,0-2.4,0.1-3.6-0.1c-3-0.4-4.8-2.2-5-5.3c-0.2-3.2,1.5-5.3,4.5-6.1
		c1.3-0.3,2.6-0.2,4-0.2c29,0,58.1,0,87.1,0c1.1,0,2.2-0.1,3.2,0.1c3.1,0.4,5.3,2.8,5.3,5.9c-0.1,3.1-2.2,5.4-5.5,5.6
		c-3.8,0.2-7.7,0.1-11.6,0.1C326,355,314.2,355,302.4,355z"/>
	<path d="M175.2,355c-15.2,0-30.4,0-45.5,0c-4,0-6.4-2.4-6.3-5.9c0.1-3.3,2.5-5.5,6.2-5.7c0.2,0,0.5,0,0.7,0c30.1,0,60.2,0,90.4,0
		c4.3,0,6.8,2.2,6.9,5.7c0,3.6-2.5,5.8-6.8,5.8C205.6,355,190.4,355,175.2,355z"/>
	<path d="M302.6,320.3c-15.2,0-30.4,0-45.5,0c-3,0-5.5-1.2-6-4.1c-0.3-1.9,0.6-4.6,1.9-6c1.2-1.2,3.7-1.4,5.7-1.4
		c23.3-0.1,46.5-0.1,69.8-0.1c6,0,12,0,18.1,0c5.7,0,8.3,1.8,8.4,5.7c0.1,4-2.6,5.9-8.5,5.9C331.8,320.3,317.2,320.3,302.6,320.3z"
		/>
	<path d="M175.2,320.3c-15.2,0-30.4,0-45.5,0c-2.8,0-5.3-1.1-5.9-3.8c-0.4-1.8,0.2-4.3,1.3-5.9c0.8-1.2,3.1-1.8,4.8-1.8
		c30.4-0.1,60.7-0.1,91.1-0.1c4,0,6.5,2.3,6.5,5.7c0.1,3.6-2.5,5.8-6.7,5.8C205.6,320.3,190.4,320.3,175.2,320.3z"/>
	<path d="M302.4,285.5c-14.3,0-28.7,0-43,0c-1.2,0-2.4,0.1-3.6-0.1c-3-0.4-4.8-2.3-5-5.3c-0.2-3.2,1.5-5.2,4.6-6
		c1.1-0.3,2.4-0.2,3.6-0.2c29.3,0,58.6,0,87.8,0c1,0,1.9-0.1,2.9,0.1c3.1,0.4,5.3,2.9,5.2,5.9c-0.1,3-2.3,5.4-5.5,5.6
		c-4.3,0.2-8.7,0.1-13,0.1C325.1,285.5,313.7,285.5,302.4,285.5z"/>
	<path d="M175.2,285.5c-15.1,0-30.1,0-45.2,0c-2.8,0-5.4-0.8-6.1-3.5c-0.5-1.8-0.1-4.4,0.9-5.9c0.9-1.3,3.3-2.1,5-2.1
		c30.4-0.1,60.7-0.1,91.1-0.1c4,0,6.5,2.3,6.5,5.7c0,3.6-2.5,5.8-6.7,5.8C205.6,285.5,190.4,285.5,175.2,285.5z"/>
	<path d="M302.9,181.3c-14.5,0-28.9,0-43.4,0c-1.2,0-2.4,0.1-3.6-0.1c-3.2-0.4-5-2.3-5.2-5.5c-0.1-3.3,1.8-5.1,4.8-5.9
		c0.9-0.2,1.9-0.1,2.9-0.1c29.5,0,59,0,88.5,0c1,0,2-0.1,2.9,0.1c3.1,0.6,4.9,2.5,5,5.7c0.1,3.1-2.1,5.4-5.4,5.7
		c-2.3,0.2-4.6,0.1-6.9,0.1C329.4,181.3,316.1,181.3,302.9,181.3z"/>
	<path d="M303.2,135c14.9,0,29.9,0,44.8,0c4,0,6.4,1.9,6.8,5c0.4,3.1-1.7,6-4.9,6.4c-1.2,0.2-2.4,0.1-3.6,0.1c-29,0-58.1,0-87.1,0
		c-1,0-1.9,0-2.9-0.1c-3.3-0.3-5.5-2.4-5.6-5.5c-0.1-3.2,2.1-5.8,5.5-6c3.6-0.2,7.2-0.1,10.8-0.1C279.1,135,291.1,135,303.2,135z"/>
	<path d="M302.8,111.8c-14.9,0-29.9,0.1-44.8-0.1c-2,0-4.4-0.7-5.8-2c-3.3-3.1-1.1-8.5,3.4-9.3c1.1-0.2,2.2-0.1,3.2-0.1
		c29.3,0,58.5,0,87.8,0c0.8,0,1.7,0,2.5,0c3.4,0.3,5.7,2.7,5.7,5.8c0,3.2-2.3,5.5-5.8,5.7c-4.5,0.1-8.9,0.1-13.4,0.1
		C324.7,111.8,313.8,111.8,302.8,111.8z"/>
	<path class="st6" d="M204.1,158c-19.2,0-38.2,0-57.4,0c0-19.2,0-38.3,0-57.6c19,0,38.1,0,57.4,0C204.1,119.6,204.1,138.8,204.1,158
		z"/>
</g>
</svg>
