<svg xmlns="http://www.w3.org/2000/svg" id="Layer_1" viewBox="0 0 150 150" width="150" height="150"><style>.st0{fill:#fff}.st1{fill:#333}</style><path d="M140.8 39c.7-.7 1.4-1.5 2.1-2.2L116 9.1c-.7.6-1.3 1.3-2 1.9C102.7 4 89.3 0 75 0 33.6 0 0 33.6 0 75s33.6 75 75 75 75-33.6 75-75c0-13-3.3-25.3-9.2-36z" class="st0"/><path d="M142.8 42.9c1.3-1.5 2.8-3.1 4.4-4.7l1.4-1.4-32.5-33.6-1.5 1.5c-1.5 1.5-2.9 2.9-4.3 4.1C99.7 3.2 87.7 0 75 0 33.6 0 0 33.6 0 75c0 2.1.1 4.2.3 6.3l.8.3c1.8.7 3.6 1.4 5.3 2.2.2.1.3.2.5.2-.4-3-.6-6-.6-9.1 0-9.3 1.8-18.3 5.4-26.8 3.5-8.2 8.4-15.5 14.7-21.9 6.3-6.3 13.7-11.3 21.9-14.7C56.7 8.1 65.7 6.2 75 6.2s18.3 1.8 26.8 5.4c1.1.5 2.3 1 3.4 1.5-7.7 6.1-13.4 8.4-17.1 9.2-5 1.1-7.4-.4-7.7-.6l-2.5-2.2-14.1 57.3 4.9 5.6 25.6-26 1.3 1.3-25.1 26.2 4.5 5.6 54-13.8 3.3-.8-2.2-2.5c-.2-.3-1.7-2.6-.6-7.7.8-3.6 3-9.1 8.8-16.6 3.6 8.5 5.4 17.5 5.4 26.8s-1.8 18.3-5.4 26.8c-3.5 8.2-8.4 15.5-14.7 21.9-6.3 6.3-13.7 11.3-21.9 14.7-8.5 3.6-17.5 5.4-26.8 5.4s-18.3-1.8-26.8-5.4c-8.2-3.5-15.5-8.4-21.9-14.7-6.3-6.3-11.3-13.7-14.7-21.9-.7-1.6-1.3-3.2-1.8-4.8-2.4-1.3-4.9-2.6-7.6-3.9 8.2 32.8 37.7 57 72.9 57 41.4 0 75-33.6 75-75 0-11.5-2.6-22.4-7.2-32.1zm-17.5 21.8c-.6 3.4-.3 6 .3 7.7l-49 12.5-.6-.7 25.5-26.5-7.1-7-25.5 25.6-.6-.7 12.1-49.3c1.7.5 4.2.9 7.7.2 8-1.4 17.4-7.3 27.9-17.5l26.9 27.7c-10.2 10.6-16.1 20-17.6 28z" class="st1"/><path d="M37.8 99.8h-1.1c-7.4 0-13-3.2-19.9-7.1-3.4-1.9-7.2-4.1-11.6-6.1-1.7-.8-3.4-1.5-5.1-2.1v4.4c1.1.5 2.3.9 3.4 1.4 4.3 1.9 7.9 4 11.3 5.9 5.8 3.3 11.1 6.3 17.3 7.3 1.5.2 3 .4 4.6.4H38c10.3-.4 20.4-5.9 30-16.2l-3-2.8c-9 9.5-18.1 14.5-27.2 14.9z" class="st1"/></svg>