<svg xmlns="http://www.w3.org/2000/svg" viewBox="867 1219 24 24" width="24" height="24"><defs><style>.cls-1{fill:none}.cls-2{fill:#fff}</style></defs><g id="ic_local_activity_black_24px" transform="translate(860 730)"><path id="Path_96" d="M0 0h24v24H0z" class="cls-1" transform="translate(7 489)"/><path id="Path_97" d="M20 12a2.006 2.006 0 0 1 2-2V6a2.006 2.006 0 0 0-2-2H4a2 2 0 0 0-1.99 2v4A2 2 0 0 1 2 14v4a2.006 2.006 0 0 0 2 2h16a2.006 2.006 0 0 0 2-2v-4a2.006 2.006 0 0 1-2-2zm-4.42 4.8L12 14.5l-3.58 2.3 1.08-4.12-3.29-2.69 4.24-.25L12 5.8l1.54 3.95 4.24.25-3.29 2.69 1.09 4.11z" class="cls-2" transform="translate(7 489)"/></g></svg>