<svg xmlns="http://www.w3.org/2000/svg" viewBox="871 770 24 24" width="24" height="24"><defs><style>.cls-1{fill:none}.cls-2{fill:#fff}</style></defs><g id="ic_card_travel_black_24px" transform="translate(871 770)"><path id="Path_321" d="M0 0h24v24H0z" class="cls-1"/><g id="Symbol_5_1"><path id="Path_322" d="M20 6h-3V4a1.993 1.993 0 0 0-2-2H9a1.993 1.993 0 0 0-2 2v2H4a1.993 1.993 0 0 0-2 2v11a1.993 1.993 0 0 0 2 2h16a1.993 1.993 0 0 0 2-2V8a1.993 1.993 0 0 0-2-2zM9 4h6v2H9zm11 15H4v-2h16zm0-5H4V8h3v2h2V8h6v2h2V8h3z" class="cls-2"/></g></g></svg>