<svg xmlns="http://www.w3.org/2000/svg" id="Layer_1" width="24" height="24" viewBox="0 0 24 24"><style>.st0{fill:#fff}</style><g id="ic_format_list_bulleted_black_24px" transform="translate(756 2230)"><path id="Path_427" d="M-752-2219.5c-.8 0-1.5.7-1.5 1.5s.7 1.5 1.5 1.5 1.5-.7 1.5-1.5-.7-1.5-1.5-1.5zm0-6c-.8 0-1.5.7-1.5 1.5s.7 1.5 1.5 1.5 1.5-.7 1.5-1.5-.7-1.5-1.5-1.5zm0 12c-.8 0-1.5.7-1.5 1.5s.7 1.5 1.5 1.5 1.5-.7 1.5-1.5-.7-1.5-1.5-1.5zm3 2.5h14v-2h-14v2zm0-6h14v-2h-14v2zm0-8v2h14v-2h-14z" class="st0"/></g></svg>