<svg xmlns="http://www.w3.org/2000/svg" id="Layer_1" viewBox="0 0 1000 1000" width="1000" height="1000"><style>.st0{fill:#231f20}.st1{fill:#303030}.st2{fill:none}.st3{fill:#596ab2}.st4{fill:#fff}.st5{fill:#413e38}.st6{fill:#596bb2}.st7{fill:#535353}.st8{fill:#8bd0d0}.st9{fill:#95999a}.st10{fill:#535453}</style><path d="M82.6 405.3h25.7v167.3h95.3v22.6h-121V405.3zm140.7 0h137.8v23.3H248.4v57.7h104.2v22H248.4v64.4H363v22.6H223.3v-190zm226.2 0h29l68.9 189.9h-28.2l-19.8-56.9H425l-20.6 56.9H378l71.5-189.9zm42.7 112.1L463 433.5l-30.4 83.9h59.6zm68.3-112.1L615 567l54-161.7h28.8l-69.3 189.9h-27.3L532 405.3h28.5z" class="st1"/><path d="M887.8 373.1l-11.7 32.2h41.3-29.8z" class="st2"/><path d="M908 326.7l-49.7 74.1 17.8 4.4-55.5 153.4-39-153.4h-30.3l-70.5 189.9h24.6l58.8-153.3 37.3 153.3h28.9l68.1-184.4 17.6 4.4-8.1-88.4zm-20.1 78.6h-11.8l19-28.4-7.2 28.4z" class="st3"/></svg>