<svg xmlns="http://www.w3.org/2000/svg" id="Layer_1" viewBox="0 0 1000 1000" width="1000" height="1000"><style>.st0{fill:#231f20}.st1{fill:#303030}.st2{fill:none}.st3{fill:#596ab2}.st4{fill:#fff}.st5{fill:#413e38}.st6{fill:#596bb2}.st7{fill:#535353}.st8{fill:#8bd0d0}.st9{fill:#95999a}.st10{fill:#535453}</style><circle cx="500" cy="500" r="471.3" class="st4"/><path d="M960.7 305.4c-25.2-59.5-61.2-113-107.1-158.9-45.9-45.9-99.4-82-158.9-107.1C633 13.2 567.5 0 500 0S367 13.2 305.4 39.3c-59.5 25.2-113 61.2-158.9 107.1-45.9 45.9-82 99.4-107.1 158.9C13.2 367 0 432.5 0 500s13.2 133 39.3 194.6c25.2 59.5 61.2 113 107.1 158.9 45.9 45.9 99.4 82 158.9 107.1C367 986.8 432.5 1000 500 1000s133-13.2 194.6-39.3c59.5-25.2 113-61.2 158.9-107.1 45.9-45.9 82-99.4 107.1-158.9C986.8 633 1000 567.5 1000 500s-13.2-133-39.3-194.6zm-52.9 366.8c-22.3 52.7-54.2 100-94.8 140.7s-88 72.6-140.7 94.8c-54.5 23.1-112.5 34.8-172.2 34.8s-117.7-11.7-172.2-34.8c-52.7-22.3-100-54.2-140.7-94.8s-72.6-88-94.8-140.7C69.2 617.7 57.5 559.8 57.5 500s11.7-117.7 34.8-172.2c22.3-52.7 54.2-100 94.8-140.7s88-72.6 140.7-94.8C382.3 69.2 440.2 57.5 500 57.5s117.7 11.7 172.2 34.8c52.7 22.3 100 54.2 140.7 94.8s72.6 88 94.8 140.7c23.1 54.5 34.8 112.5 34.8 172.2s-11.7 117.7-34.7 172.2z" class="st5"/><path d="M704 179.7L600.3 334.3l37.2 9.2-115.8 320.1-81.4-320.1h-63.2L230 739.7h51.2L404 420l77.8 319.7h60.3l142.2-384.6 36.8 9.1L704 179.7zm-41.8 163.8h-24.6l39.7-59.3-15.1 59.3z" class="st6"/></svg>