<svg xmlns="http://www.w3.org/2000/svg" id="Layer_1" viewBox="0 0 1000 1000" width="1000" height="1000"><style>.st0{fill:#231f20}.st1{fill:#303030}.st2{fill:none}.st3{fill:#596ab2}.st4{fill:#fff}.st5{fill:#413e38}.st6{fill:#596bb2}.st7{fill:#535353}.st8{fill:#8bd0d0}.st9{fill:#95999a}.st10{fill:#535453}</style><path d="M179.2 253.6h-34.8l-6.1 15.2h-9.5l27.6-68.7H167l27.7 68.7h-9.5l-6-15.2zm-32.3-7.6h29.8l-14.8-38.2-15 38.2zm87.7 17.2c-4.1 4.5-9.8 6.9-16.5 6.9-8.4 0-17.4-5.7-17.4-16.5 0-11.1 9-16.4 17.4-16.4 6.8 0 12.5 2.2 16.5 6.8v-9c0-6.7-5.4-10.5-12.6-10.5-6 0-10.8 2.2-15.2 6.9l-3.6-5.4c5.4-5.6 11.7-8.2 19.9-8.2 10.5 0 19.3 4.7 19.3 16.8v34.2h-7.7v-5.6zm0-14.3c-3-4.1-8.2-6.2-13.7-6.2-7.2 0-12.3 4.5-12.3 10.9 0 6.3 5 10.8 12.3 10.8 5.5 0 10.7-2.1 13.7-6.2v-9.3zm50-48.8h30.6c11.9 0 19.3 7.2 19.3 17.5 0 8.7-5.8 14.4-12.1 15.8 7.3 1.1 13.4 8.7 13.4 16.9 0 11-7.3 18.5-19.9 18.5h-31.3v-68.7zm29.2 29.8c7.7 0 11.8-4.7 11.8-11 0-6.2-4.1-11.1-11.8-11.1h-20.6v22.1h20.6zm.4 31.3c8 0 12.8-4.5 12.8-11.8 0-6.3-4.3-11.8-12.8-11.8h-21v23.7h21zm66 2c-4.1 4.5-9.8 6.9-16.5 6.9-8.4 0-17.4-5.7-17.4-16.5 0-11.1 9-16.4 17.4-16.4 6.8 0 12.5 2.2 16.5 6.8v-9c0-6.7-5.4-10.5-12.6-10.5-6 0-10.8 2.2-15.2 6.9l-3.6-5.4c5.4-5.6 11.7-8.2 19.9-8.2 10.5 0 19.3 4.7 19.3 16.8v34.2h-7.7v-5.6zm0-14.3c-3-4.1-8.2-6.2-13.7-6.2-7.2 0-12.3 4.5-12.3 10.9 0 6.3 5 10.8 12.3 10.8 5.5 0 10.7-2.1 13.7-6.2v-9.3zm47.3-14.4c0-21.1 15.6-35.5 35-35.5 12.5 0 20.9 5.9 26.4 13.6l-7.2 4c-3.9-5.8-11-10-19.2-10-14.7 0-26.2 11.5-26.2 27.9 0 16.3 11.4 27.9 26.2 27.9 8.1 0 15.2-4.1 19.2-10l7.3 4c-5.8 7.8-14 13.6-26.5 13.6-19.5.1-35-14.4-35-35.5zm94-16.7c9.1 0 14.4 3.7 18.2 8.7l-5.2 4.7c-3.3-4.5-7.5-6.5-12.7-6.5-10.6 0-17.2 8.1-17.2 19.2s6.6 19.3 17.2 19.3c5.1 0 9.4-2.1 12.7-6.5l5.2 4.7c-3.8 4.9-9.2 8.7-18.2 8.7-14.8 0-24.8-11.3-24.8-26.2 0-14.7 10-26.1 24.8-26.1zm55.9-17.7h23.5c21.3 0 35.2 14.9 35.2 34.4 0 19.6-13.9 34.3-35.2 34.3h-23.5v-68.7zm23.5 61.1c16.7 0 26.4-11.9 26.4-26.7 0-14.8-9.4-26.8-26.4-26.8H586v53.5h14.9zm84.4.2c-3.7 5-9.8 8.7-16.8 8.7-13 0-22.1-9.9-22.1-26.1 0-15.9 9.1-26.2 22.1-26.2 6.7 0 12.8 3.3 16.8 8.8v-26.5h7.7v68.7h-7.7v-7.4zm0-28.6c-2.8-4.3-8.8-8-14.9-8-10 0-16 8.2-16 19.3s6 19.2 16 19.2c6.2 0 12.2-3.5 14.9-7.8v-22.7zm50-32.7h45v7.6h-36.5v22.1h35.7v7.6h-35.7v23.7h36.5v7.6h-45v-68.6zm80 17.7c15 0 23.9 11.7 23.9 26.7v2h-40.3c.6 9.4 7.2 17.2 17.9 17.2 5.7 0 11.4-2.3 15.3-6.3l3.7 5c-4.9 4.9-11.6 7.6-19.8 7.6-14.7 0-25.3-10.6-25.3-26.2 0-14.3 10.3-26 24.6-26zm-16.4 23h32.7c-.1-7.4-5-16.6-16.4-16.6-10.7 0-15.9 9-16.3 16.6zM136 323.7h45v7.6h-36.5v22.1h35.7v7.6h-35.7v31.3H136v-68.6zm58.5 25.8h-8.2v-6.8h8.2v-3.8c0-10.3 5.8-16.2 14.4-16.2 2.9 0 5.6.5 7.5 1.8l-2 5.8c-1.2-.7-2.7-1.1-4.4-1.1-5 0-7.8 3.5-7.8 9.8v3.8h10.1v6.8h-10.1v42.9h-7.7v-43zm86.4-26.9c12.2 0 20.6 5.4 26.7 12.9l-6.8 4.2c-4.3-5.6-11.6-9.5-19.9-9.5-15 0-26.5 11.5-26.5 27.9 0 16.3 11.4 28 26.5 28 8.2 0 15-4 18.4-7.4v-14h-23.6v-7.6h32.1v24.8c-6.4 7.1-15.8 11.8-27 11.8-19.6 0-35.3-14.3-35.3-35.6s15.8-35.5 35.4-35.5zm44.4 76.8c4.1 4.9 9.1 6.8 16.2 6.8 8.2 0 16-4 16-14.9v-7.1c-3.6 5-9.7 8.9-16.7 8.9-13 0-22.1-9.7-22.1-25.7s9.1-25.9 22.1-25.9c6.7 0 12.7 3.3 16.7 8.8v-7.5h7.7V391c0 16.5-11.5 21.6-23.7 21.6-8.4 0-14.2-1.6-20.1-7.4l3.9-5.8zm32.1-43c-2.7-4.3-8.7-8-14.8-8-10 0-16 7.9-16 19 0 10.9 6 19 16 19 6.2 0 12.2-3.8 14.8-8.1v-21.9zm98.8 4.5H416v31.5h-8.5v-68.7h8.5v29.6h40.2v-29.6h8.5v68.7h-8.5v-31.5zm58-1.2c0-8.8-4.5-11.3-11.2-11.3-6 0-11.7 3.7-14.7 7.7v36.4h-7.7v-68.7h7.7V350c3.5-4.1 10.3-8.4 17.8-8.4 10.4 0 15.9 5 15.9 15.9v35.1h-7.7v-32.9zm50.1-36h8.5v68.7h-8.5v-68.7zm22.9 5.4c0-2.9 2.4-5.1 5.1-5.1 2.9 0 5.3 2.3 5.3 5.1 0 2.9-2.4 5.3-5.3 5.3-2.7-.1-5.1-2.4-5.1-5.3zm1.4 13.6h7.7v49.7h-7.7v-49.7zm47.5 36.5c3 3.6 7 6.8 13 6.8 8.4 0 13.8-5.9 13.8-14.4v-47.9h8.5v48c0 14.9-9.6 21.9-21.8 21.9-7.3 0-13.2-2.4-17.9-7.9l4.4-6.5zm58.9 18.1c0 9.8-5.3 15.3-14.6 15.3-2.2 0-3.9-.2-5.6-.7l1-6.5c1 .4 2.5.5 3.7.5 4.5 0 7.7-2.4 7.7-8.7v-54.6h7.7v54.7zm-9.1-68.2c0-2.9 2.4-5.1 5.2-5.1 2.9 0 5.3 2.3 5.3 5.1 0 2.9-2.4 5.3-5.3 5.3-2.8-.1-5.2-2.4-5.2-5.3zm66.8 32.4l-6.9 7.8v23.1h-8.5v-68.7h8.5v35.5l30.4-35.5h10.7l-28.6 32.6 31.1 36h-10.6l-26.1-30.8zm62.1 8.6l-8.2 8.1v14.2h-7.7v-68.7h7.7v45.4l26.2-26.5h9.8l-22 22.6 22.1 27.2h-9.9l-18-22.3zM136 447.3h8.5v61.1h31.9v7.6H136v-68.7zm52.2 0h7.7V516h-7.7v-68.7zM297 458.9L273.6 516h-3.5l-23.3-57.2V516h-8.5v-68.7h12.3l21.3 52.3 21.4-52.3h12.3V516H297v-57.1zm84.3 23.3c0-6.3-2.8-10.3-9.2-10.3-5.1 0-10.6 3.7-13.2 7.6V516h-7.7v-33.8c0-6.3-2.7-10.3-9.2-10.3-5 0-10.4 3.7-13.1 7.7V516h-7.7v-49.7h7.7v7.2c2.1-3.2 8.8-8.4 16.1-8.4 7.6 0 11.9 4.1 13.4 9.3 2.8-4.5 9.5-9.3 16.7-9.3 9.1 0 13.9 5 13.9 15V516h-7.7v-33.8zm58.6-21.6V516h-8.5v-68.7h8.8l39.6 54.3v-54.3h8.5V516H480l-40.1-55.4zm97.7 22.9c0-8.8-4.4-11.5-11.1-11.5-6.1 0-11.8 3.7-14.7 7.7V516H504v-49.7h7.7v7.2c3.5-4.1 10.3-8.4 17.7-8.4 10.4 0 15.9 5.3 15.9 16.1V516h-7.7v-32.5zm81.3-37.3c20.3 0 34.1 15.2 34.1 35.5s-13.8 35.5-34.1 35.5c-20.4 0-34.1-15.2-34.1-35.5.1-20.3 13.8-35.5 34.1-35.5zm0 7.6c-15.4 0-25.2 11.8-25.2 27.9 0 16 9.8 27.9 25.2 27.9 15.3 0 25.2-11.9 25.2-27.9.1-16-9.8-27.9-25.2-27.9zm44.3 37.3c0-14.4 9.5-26.1 24.6-26.1s24.6 11.6 24.6 26.1-9.5 26.2-24.6 26.2-24.6-11.8-24.6-26.2zm41.1 0c0-10.1-5.9-19.2-16.5-19.2s-16.6 9.1-16.6 19.2c0 10.2 6 19.3 16.6 19.3s16.5-9.1 16.5-19.3zm47.6-43.8h27.6c13.8 0 21.5 9.5 21.5 20.7s-7.9 20.7-21.5 20.7h-19.1V516h-8.5v-68.7zm26.6 7.6h-18v26.2h18c8.1 0 13.7-5.4 13.7-13.1s-5.6-13.1-13.7-13.1zm33.6 80.1v-68.7h7.7v7.4c3.6-5 9.8-8.7 16.8-8.7 13.1 0 22.1 9.9 22.1 26.1 0 16.1-9.1 26.2-22.1 26.2-6.8 0-12.8-3.2-16.8-8.8V535h-7.7zm22.5-63.1c-6.1 0-12.2 3.6-14.8 7.9v22.5c2.7 4.3 8.8 8 14.8 8 10 0 16-8.2 16-19.3 0-10.9-6-19.1-16-19.1zM192 630.7l6.5 7-6 5.2-6.6-7.1c-5.3 3.3-11.5 5.2-18.6 5.2-20.4 0-34.1-15.2-34.1-35.5s13.7-35.5 34.1-35.5c20.3 0 34.1 15.2 34.1 35.5 0 9.9-3.4 18.8-9.4 25.2zm-11.6-1l-9.8-10.6 6-5 9.7 10.4c4-4.8 6.3-11.5 6.3-19.2 0-16.1-9.9-27.9-25.2-27.9-15.4 0-25.2 11.8-25.2 27.9 0 16 9.8 27.9 25.2 27.9 4.9 0 9.3-1.2 13-3.5zm70 28.9v-26.5c-4 5.6-10 8.8-16.7 8.8-13.1 0-22.1-10.1-22.1-26.2 0-16.2 9.1-26.1 22.1-26.1 7 0 13.1 3.6 16.7 8.7v-7.4h7.7v68.7h-7.7zm0-55.1c-2.7-4.3-8.7-7.9-14.8-7.9-10 0-16 8.1-16 19.2s6 19.3 16 19.3c6.2 0 12.2-3.7 14.8-8v-22.6zm72.3 8.8H309v27.3h-8.5v-68.7h27.6c12.6 0 21.5 8 21.5 20.7 0 12.4-8.4 19.2-17.8 20l18.5 28h-10.1l-17.5-27.3zm4.3-33.8h-18v26.3h18c8.1 0 13.7-5.5 13.7-13.2s-5.5-13.1-13.7-13.1zm35.8 11.4h7.7v8c4-5.3 9.8-9.1 16.6-9.1v7.9c-.9-.2-1.9-.3-3.1-.3-4.7 0-11.2 3.9-13.5 7.9v35.2h-7.7v-49.6zm61.8 33.5c4.5 5 11.9 9.8 21.6 9.8 12.3 0 16.2-6.6 16.2-11.8 0-8.2-8.3-10.5-17.4-13-11-2.9-23.3-6-23.3-19.5 0-11.3 10.1-19.1 23.6-19.1 10.5 0 18.6 3.5 24.4 9.6l-5.2 6.3c-5.1-5.7-12.4-8.2-19.9-8.2-8.2 0-14.1 4.4-14.1 10.9 0 6.9 7.9 9 16.7 11.3 11.2 3 24 6.5 24 20.9 0 10-6.8 20.2-25.3 20.2-11.9 0-20.7-4.5-26.4-10.9l5.1-6.5zm58.8 4.1c3.3 3.8 9.6 7.1 16.4 7.1 7.6 0 11.7-3.4 11.7-8.2 0-5.5-6.1-7.2-12.8-8.9-8.4-2-18-4.2-18-14.5 0-7.7 6.7-14.3 18.5-14.3 8.4 0 14.4 3.2 18.4 7.2l-3.6 5.4c-3-3.6-8.4-6.3-14.8-6.3-6.8 0-11 3.1-11 7.5 0 4.8 5.7 6.4 12.2 7.9 8.7 2 18.6 4.4 18.6 15.4 0 8.3-6.7 15-19.6 15-8.1 0-15-2.5-20.1-7.8l4.1-5.5zm92.1-49h-21.7v-7.6h52.1v7.6H584v61.1h-8.5v-61.1zm42.9 50.7v-32.5h-8.2v-6.8h8.2v-13.6h7.7v13.6h10.1v6.8h-10.1v30.9c0 3.7 1.6 6.4 5 6.4 2.2 0 4.2-.9 5.3-2.1l2.3 5.8c-2 1.9-4.7 3.2-9.3 3.2-7.3 0-11-4.3-11-11.7zm55.6-58.3h8.5v41.8c0 12.6 6.8 20.5 19.5 20.5s19.5-7.9 19.5-20.5v-41.8h8.5v41.9c0 17.1-9.4 28-28 28s-28-11-28-27.9v-42zm105.4 61.7c-3.8 4.3-10.3 8.2-17.7 8.2-10.4 0-15.9-5-15.9-15.9v-35.1h7.7v32.8c0 8.8 4.4 11.3 11.1 11.3 6.1 0 11.8-3.5 14.7-7.5v-36.6h7.7v49.7h-7.7v-6.9zm-650.5 61.9h9.8l23.2 59.3 23.2-59.3h9.8l-27.7 68.7h-10.6l-27.7-68.7zm65.8 19h8.3l16.6 40.8 16.5-40.8h8.4l-20.7 49.7h-8.4l-20.7-49.7zm122.2-5.7l-15.1 55.4h-9.3l-19.6-68.7h9.5l15.2 57.3 15.8-57.3h7.1l15.8 57.3 15.1-57.3h9.5l-19.6 68.7H332l-15.1-55.4zm83.3 15.5l-13 40h-7.7l-15.9-49.7h8l12.2 39.7 13.1-39.7h6.6l13.1 39.7 12.2-39.7h8l-15.9 49.7h-7.7l-13-40zm97.9 10.7l-21.9 29.3h-10.4l26.8-35.2-25.2-33.5h10.4l20.4 27.5 20.3-27.5h10.4L503.8 728l26.7 35.3h-10.3L498.1 734zm58.6 8.8l-14.9 20.4h-8.9l19.1-25.5-18-24.2h9l13.8 19 13.8-19h9l-18 24.2 19.2 25.5h-9l-15.1-20.4zm79.7-8.6l-27.1-39.7h10l21.3 31.9 21.3-31.9h10l-27 39.7v29h-8.5v-29zm40.6 42.3c3.4 0 5.7-1.1 7.4-5.3l3.3-7.5-20.8-50.3h8.3l16.6 40.8 16.5-40.8h8.4l-24.9 59.8c-3 7.2-8 10-14.6 10.1-1.6 0-4.2-.3-5.7-.7l1.2-7c1.2.6 3.1.9 4.3.9zm71.6-20.4l38.6-54h-38.6v-7.6h49.5v7.1l-38.6 54h39.3v7.6h-50.3v-7.1zm60.7 1.1l27.4-37h-27.4v-6.8h37.5v5.9l-27.6 37.2h28v6.7h-37.9v-6z" class="st0"/></svg>