<svg xmlns="http://www.w3.org/2000/svg" id="Layer_1" viewBox="0 0 1000 1000" width="1000" height="1000"><style>.st0{fill:#231f20}.st1{fill:#303030}.st2{fill:none}.st3{fill:#596ab2}.st4{fill:#fff}.st5{fill:#413e38}.st6{fill:#596bb2}.st7{fill:#535353}.st8{fill:#8bd0d0}.st9{fill:#95999a}.st10{fill:#535453}</style><path d="M263.9 724.1H153.3L134 772.5h-30l87.6-218.1h33.7l88 218.1h-30.1l-19.3-48.4zm-102.7-24.2h94.5l-47.1-121.3-47.4 121.3zm278.3 54.6c-13.1 14.4-31.1 21.9-52.3 21.9-26.8 0-55.3-18-55.3-52.3 0-35.3 28.4-52 55.3-52 21.6 0 39.6 6.9 52.3 21.6v-28.4c0-21.3-17-33.4-39.9-33.4-19 0-34.3 6.9-48.4 21.9l-11.4-17c17-17.7 37.3-26.2 63.1-26.2 33.4 0 61.1 15 61.1 53.3v108.6h-24.5v-18zm0-45.1c-9.5-13.1-26.2-19.6-43.5-19.6-22.9 0-38.9 14.4-38.9 34.7 0 19.9 16 34.3 38.9 34.3 17.3 0 34-6.5 43.5-19.6v-29.8zm149.1 40.5l122.6-171.3H588.6v-24.2h157.3V577L623.2 748.3h124.9v24.2H588.6v-22.6zm192.6 3.6l87-117.4h-87v-21.6h119v18.6l-87.6 118h88.9v21.3H781.2v-18.9zM121.4 196.8h34.3c17.2 0 26.8 11.8 26.8 25.7s-9.9 25.7-26.8 25.7H132v33.9h-10.6v-85.3zm33 9.5H132v32.5h22.4c10.1 0 17-6.7 17-16.3s-6.9-16.2-17-16.2zm41.8 14h9.6v10c5-6.5 12.2-11.3 20.6-11.3v9.9c-1.2-.3-2.3-.4-3.8-.4-5.9 0-14 4.9-16.8 9.9v43.8h-9.6v-61.9zm38.6 30.9c0-17.9 11.8-32.4 30.6-32.4s30.6 14.5 30.6 32.4-11.8 32.5-30.6 32.5-30.6-14.6-30.6-32.5zm51.1 0c0-12.5-7.3-23.8-20.5-23.8s-20.6 11.3-20.6 23.8c0 12.7 7.4 23.9 20.6 23.9s20.5-11.2 20.5-23.9zm43.2 5.6l-18.6 25.3h-11l23.7-31.7-22.4-30.1H312l17.2 23.6 17.2-23.6h11.1L335 250.4l23.8 31.7h-11.1l-18.6-25.3zm39.1-53.4c0-3.6 2.9-6.4 6.4-6.4 3.6 0 6.5 2.8 6.5 6.4s-2.9 6.5-6.5 6.5c-3.5.1-6.4-2.9-6.4-6.5zm1.6 16.9h9.6v61.8h-9.6v-61.8zm103.5 19.9c0-7.8-3.5-12.8-11.4-12.8-6.4 0-13.2 4.6-16.4 9.5v45.3h-9.6v-42c0-7.8-3.3-12.8-11.4-12.8-6.3 0-12.9 4.6-16.3 9.6v45.2h-9.6v-61.8h9.6v9c2.6-4 10.9-10.5 20-10.5 9.5 0 14.8 5.1 16.6 11.5 3.5-5.6 11.8-11.5 20.7-11.5 11.3 0 17.3 6.3 17.3 18.7v44.7h-9.6v-42.1zm67.4 34.9c-5.1 5.6-12.2 8.6-20.5 8.6-10.5 0-21.6-7-21.6-20.5 0-13.8 11.1-20.4 21.6-20.4 8.4 0 15.5 2.7 20.5 8.4v-11.1c0-8.3-6.7-13.1-15.6-13.1-7.4 0-13.4 2.7-18.9 8.6l-4.5-6.7c6.7-6.9 14.6-10.2 24.7-10.2 13.1 0 23.9 5.9 23.9 20.9v42.5h-9.6v-7zm0-17.6c-3.7-5.1-10.2-7.7-17-7.7-9 0-15.2 5.6-15.2 13.6 0 7.8 6.3 13.4 15.2 13.4 6.8 0 13.3-2.6 17-7.7v-11.6zm72.9-44.2v68.9H603v-85.4h10.9l49.2 67.5v-67.5h10.6v85.4h-10.2l-49.9-68.9zm76 37.9c0-17.9 11.8-32.4 30.6-32.4s30.6 14.5 30.6 32.4-11.8 32.5-30.6 32.5-30.6-14.6-30.6-32.5zm51.1 0c0-12.5-7.3-23.8-20.5-23.8s-20.6 11.3-20.6 23.8c0 12.7 7.4 23.9 20.6 23.9s20.5-11.2 20.5-23.9zm16.5-30.9h10.4l20.6 50.7 20.5-50.7h10.5l-25.7 61.8H783l-25.8-61.8zm110.6 54.8c-5.1 5.6-12.2 8.6-20.5 8.6-10.5 0-21.6-7-21.6-20.5 0-13.8 11.1-20.4 21.6-20.4 8.4 0 15.5 2.7 20.5 8.4v-11.1c0-8.3-6.7-13.1-15.6-13.1-7.4 0-13.4 2.7-18.9 8.6l-4.5-6.7c6.7-6.9 14.6-10.2 24.7-10.2 13.1 0 23.9 5.9 23.9 20.9v42.5h-9.6v-7zm0-17.6c-3.7-5.1-10.2-7.7-17-7.7-9 0-15.2 5.6-15.2 13.6 0 7.8 6.3 13.4 15.2 13.4 6.8 0 13.3-2.6 17-7.7v-11.6zm-727 118.2h-13.3v26.5h-8.3v-66.7H146c12.2 0 20.9 7.8 20.9 20.1 0 12-8.2 18.6-17.3 19.4l18 27.2h-9.8l-17-26.5zm4.2-32.8h-17.5v25.5H145c7.9 0 13.3-5.3 13.3-12.8s-5.4-12.7-13.3-12.7zm52.7 9.8c14.6 0 23.2 11.4 23.2 25.9v1.9h-39.1c.6 9.1 7 16.7 17.4 16.7 5.5 0 11.1-2.2 14.9-6.1l3.6 4.9c-4.8 4.8-11.3 7.4-19.2 7.4-14.3 0-24.6-10.3-24.6-25.4 0-14 10-25.3 23.8-25.3zM181.8 375h31.7c-.1-7.2-4.9-16.1-15.9-16.1-10.3 0-15.4 8.7-15.8 16.1zm54.9 34c4 4.8 8.8 6.6 15.7 6.6 8 0 15.5-3.9 15.5-14.5v-6.9c-3.5 4.9-9.4 8.6-16.2 8.6-12.6 0-21.5-9.4-21.5-25 0-15.5 8.8-25.1 21.5-25.1 6.5 0 12.3 3.2 16.2 8.5v-7.3h7.5v46.9c0 16-11.2 21-23 21-8.2 0-13.8-1.6-19.5-7.2l3.8-5.6zm31.2-41.8c-2.6-4.2-8.4-7.8-14.4-7.8-9.7 0-15.5 7.7-15.5 18.4 0 10.6 5.8 18.4 15.5 18.4 6 0 11.8-3.7 14.4-7.9v-21.1zm55.1 28.2c-3.7 4.2-10 8-17.2 8-10.1 0-15.4-4.9-15.4-15.4v-34.1h7.5v31.8c0 8.5 4.3 11 10.8 11 5.9 0 11.5-3.4 14.3-7.3v-35.5h7.5v48.3H323v-6.8zm22.5-59.9h7.5v66.7h-7.5v-66.7zm52.7 61.2c-4 4.4-9.5 6.7-16 6.7-8.2 0-16.9-5.5-16.9-16 0-10.8 8.7-15.9 16.9-15.9 6.6 0 12.1 2.1 16 6.6v-8.7c0-6.5-5.2-10.2-12.2-10.2-5.8 0-10.5 2.1-14.8 6.7l-3.5-5.2c5.2-5.4 11.4-8 19.3-8 10.2 0 18.7 4.6 18.7 16.3v33.2h-7.5v-5.5zm0-13.8c-2.9-4-8-6-13.3-6-7 0-11.9 4.4-11.9 10.6 0 6.1 4.9 10.5 11.9 10.5 5.3 0 10.4-2 13.3-6v-9.1zm22.5-29h7.5v7.8c3.9-5.1 9.5-8.8 16.1-8.8v7.7c-.9-.2-1.8-.3-3-.3-4.6 0-10.9 3.8-13.1 7.7v34.2h-7.5v-48.3z" class="st0"/><path d="M950 50v900H50V50h900m50-50H0v1000h1000V0z" class="st0"/></svg>