<svg xmlns="http://www.w3.org/2000/svg" id="Layer_1" viewBox="0 0 1000 1000" width="1000" height="1000"><style>.st0{fill:#231f20}.st1{fill:#303030}.st2{fill:none}.st3{fill:#596ab2}.st4{fill:#fff}.st5{fill:#413e38}.st6{fill:#596bb2}.st7{fill:#535353}.st8{fill:#8bd0d0}.st9{fill:#95999a}.st10{fill:#535453}</style><path d="M251.6 733.2h-94.4l-21.2 59h-30.6l86.1-225.4h26l86.2 225.4h-30.5l-21.6-59zm-85.4-24.3h76.6l-38.4-105.4-38.2 105.4zm266.7 83.2c-1.7-3.3-3-9.2-4-17.6-13.3 13.8-29.2 20.7-47.7 20.7-16.5 0-30.1-4.7-40.6-14-10.6-9.3-15.9-21.2-15.9-35.5 0-17.4 6.6-31 19.9-40.6 13.3-9.6 31.9-14.5 56-14.5h27.9v-13.2c0-10-3-18-9-23.9-6-5.9-14.8-8.9-26.5-8.9-10.2 0-18.8 2.6-25.7 7.7-6.9 5.2-10.4 11.4-10.4 18.7h-28.8c0-8.4 3-16.4 8.9-24.2 5.9-7.8 14-14 24.1-18.5 10.2-4.5 21.3-6.8 33.5-6.8 19.3 0 34.4 4.8 45.4 14.5 10.9 9.6 16.6 22.9 17 39.9V753c0 15.4 2 27.6 5.9 36.7v2.5h-30zm-47.5-21.8c9 0 17.5-2.3 25.5-7s13.9-10.7 17.5-18.1v-34.4H406c-35.1 0-52.6 10.3-52.6 30.8 0 9 3 16 9 21.1 5.9 5.1 13.6 7.6 23 7.6zm221.8-2.5h128.9v24.3H572v-22.3L695.5 591H574v-24.3h157.1v21.7L607.2 767.8zm189.9 1h98v23.4h-133v-21.1l92.4-122.7h-91v-23.7h126.9V645l-93.3 123.8zM155.4 256H134v36.8h-12.1v-91H152c10.2 0 18.1 2.3 23.7 7 5.5 4.7 8.3 11.5 8.3 20.4 0 5.7-1.5 10.6-4.6 14.8-3.1 4.2-7.3 7.4-12.8 9.4L188 292v.8h-12.9L155.4 256zm-21.4-9.8h18.4c6 0 10.7-1.5 14.2-4.6 3.5-3.1 5.3-7.2 5.3-12.4 0-5.6-1.7-10-5-13-3.4-3-8.2-4.5-14.5-4.6H134v34.6zm61.9 12.2c0-6.6 1.3-12.6 3.9-17.9 2.6-5.3 6.2-9.4 10.9-12.2 4.6-2.9 9.9-4.3 15.9-4.3 9.2 0 16.7 3.2 22.3 9.6s8.5 14.9 8.5 25.4v.8c0 6.6-1.3 12.5-3.8 17.7-2.5 5.2-6.1 9.3-10.8 12.2-4.7 2.9-10.1 4.4-16.2 4.4-9.2 0-16.6-3.2-22.3-9.6s-8.5-14.8-8.5-25.3v-.8zm11.6 1.3c0 7.5 1.7 13.5 5.2 18.1 3.5 4.5 8.1 6.8 14 6.8s10.5-2.3 14-6.9c3.5-4.6 5.2-11.1 5.2-19.3 0-7.4-1.8-13.4-5.3-18s-8.2-6.9-14-6.9c-5.7 0-10.3 2.3-13.8 6.8s-5.3 11-5.3 19.4zm121.7 0c0 10.3-2.4 18.6-7.1 24.9-4.8 6.3-11.1 9.4-19.1 9.4-8.5 0-15.1-3-19.8-9.1l-.6 7.8H272v-96h11.6v35.8c4.7-5.8 11.1-8.7 19.3-8.7 8.2 0 14.7 3.1 19.3 9.3 4.7 6.2 7 14.7 7 25.5v1.1zm-11.5-1.3c0-7.9-1.5-14-4.6-18.2-3-4.3-7.4-6.4-13.1-6.4-7.6 0-13.1 3.5-16.4 10.6v29.2c3.5 7.1 9.1 10.6 16.6 10.6 5.5 0 9.9-2.1 12.9-6.4 3-4.3 4.6-10.8 4.6-19.4zm23 0c0-6.6 1.3-12.6 3.9-17.9 2.6-5.3 6.2-9.4 10.9-12.2 4.6-2.9 9.9-4.3 15.9-4.3 9.2 0 16.7 3.2 22.3 9.6s8.5 14.9 8.5 25.4v.8c0 6.6-1.3 12.5-3.8 17.7-2.5 5.2-6.1 9.3-10.8 12.2-4.7 2.9-10.1 4.4-16.2 4.4-9.2 0-16.6-3.2-22.3-9.6s-8.5-14.8-8.5-25.3v-.8zm11.7 1.3c0 7.5 1.7 13.5 5.2 18.1 3.5 4.5 8.1 6.8 14 6.8s10.5-2.3 14-6.9c3.5-4.6 5.2-11.1 5.2-19.3 0-7.4-1.8-13.4-5.3-18s-8.2-6.9-14-6.9c-5.7 0-10.3 2.3-13.8 6.8-3.6 4.5-5.3 11-5.3 19.4zm80.1-50.9v16.4h12.6v8.9h-12.6v42c0 2.7.6 4.7 1.7 6.1s3 2 5.8 2c1.3 0 3.2-.2 5.5-.8v9.3c-3 .8-6 1.2-8.9 1.2-5.2 0-9.1-1.6-11.7-4.7s-3.9-7.6-3.9-13.3V234h-12.3v-8.9H421v-16.4h11.5zm21.8 49.6c0-6.6 1.3-12.6 3.9-17.9 2.6-5.3 6.2-9.4 10.9-12.2 4.6-2.9 9.9-4.3 15.9-4.3 9.2 0 16.7 3.2 22.3 9.6s8.5 14.9 8.5 25.4v.8c0 6.6-1.3 12.5-3.8 17.7-2.5 5.2-6.1 9.3-10.8 12.2-4.7 2.9-10.1 4.4-16.2 4.4-9.2 0-16.6-3.2-22.3-9.6s-8.5-14.8-8.5-25.3v-.8zm11.6 1.3c0 7.5 1.7 13.5 5.2 18.1 3.5 4.5 8.1 6.8 14 6.8s10.5-2.3 14-6.9c3.5-4.6 5.2-11.1 5.2-19.3 0-7.4-1.8-13.4-5.3-18s-8.2-6.9-14-6.9c-5.7 0-10.3 2.3-13.8 6.8s-5.3 11-5.3 19.4zM145.7 384H129v28.8h-9.4v-71.1h23.5c8 0 14.2 1.8 18.5 5.5 4.3 3.6 6.5 9 6.5 15.9 0 4.4-1.2 8.3-3.6 11.6-2.4 3.3-5.7 5.7-10 7.4l16.7 30.2v.6h-10.1L145.7 384zm-16.7-7.6h14.4c4.7 0 8.4-1.2 11.1-3.6s4.1-5.6 4.1-9.7c0-4.4-1.3-7.8-3.9-10.1-2.6-2.3-6.4-3.5-11.4-3.6H129v27zm72.8 37.4c-7.2 0-13-2.4-17.5-7.1-4.5-4.7-6.7-11-6.7-18.9v-1.7c0-5.2 1-9.9 3-14s4.8-7.3 8.4-9.7c3.6-2.3 7.5-3.5 11.7-3.5 6.9 0 12.2 2.3 16 6.8 3.8 4.5 5.7 11 5.7 19.4v3.8h-35.8c.1 5.2 1.7 9.4 4.6 12.6 2.9 3.2 6.6 4.8 11.1 4.8 3.2 0 5.9-.7 8.1-2 2.2-1.3 4.2-3 5.8-5.2l5.5 4.3c-4.5 7-11.1 10.4-19.9 10.4zm-1.2-47.4c-3.6 0-6.7 1.3-9.2 4-2.5 2.7-4 6.4-4.6 11.2h26.5v-.7c-.3-4.6-1.5-8.1-3.7-10.7-2.2-2.5-5.2-3.8-9-3.8zm30.1 19.5c0-8.2 1.9-14.8 5.7-19.7 3.8-4.9 8.9-7.3 15.1-7.3 6.4 0 11.5 2.3 15.1 6.8l.4-5.9h8.3v51.6c0 6.8-2 12.2-6.1 16.2s-9.5 5.9-16.3 5.9c-3.8 0-7.5-.8-11.2-2.4s-6.4-3.9-8.3-6.7l4.7-5.4c3.9 4.8 8.6 7.2 14.2 7.2 4.4 0 7.8-1.2 10.3-3.7s3.7-6 3.7-10.4v-4.5c-3.6 4.2-8.5 6.2-14.8 6.2-6.2 0-11.2-2.5-15-7.5s-5.8-11.8-5.8-20.4zm9 1.1c0 6 1.2 10.6 3.7 14 2.4 3.4 5.9 5.1 10.3 5.1 5.7 0 9.9-2.6 12.5-7.8v-24.1c-2.8-5-6.9-7.6-12.5-7.6-4.4 0-7.8 1.7-10.3 5.1s-3.7 8.6-3.7 15.3zm81.8 20.6c-3.5 4.1-8.7 6.2-15.5 6.2-5.6 0-9.9-1.6-12.9-4.9s-4.4-8.1-4.5-14.5V360h9v34.1c0 8 3.3 12 9.8 12 6.9 0 11.5-2.6 13.8-7.7V360h9v52.8h-8.6l-.1-5.2zm32.4 5.2h-9v-75h9v75zm47 0c-.5-1-.9-2.9-1.3-5.6-4.2 4.4-9.2 6.5-15 6.5-5.2 0-9.5-1.5-12.8-4.4-3.3-2.9-5-6.7-5-11.2 0-5.5 2.1-9.8 6.3-12.8 4.2-3 10.1-4.6 17.7-4.6h8.8v-4.2c0-3.2-.9-5.7-2.8-7.5-1.9-1.9-4.7-2.8-8.3-2.8-3.2 0-5.9.8-8.1 2.4-2.2 1.6-3.3 3.6-3.3 5.9H368c0-2.6.9-5.2 2.8-7.6 1.9-2.5 4.4-4.4 7.6-5.8 3.2-1.4 6.7-2.1 10.6-2.1 6.1 0 10.9 1.5 14.3 4.6 3.5 3 5.2 7.2 5.4 12.6v24.3c0 4.9.6 8.7 1.9 11.6v.8h-9.7zm-15-6.9c2.8 0 5.5-.7 8.1-2.2s4.4-3.4 5.5-5.7v-10.8h-7.1c-11.1 0-16.6 3.2-16.6 9.7 0 2.8.9 5 2.8 6.6 1.9 1.6 4.4 2.4 7.3 2.4zm62.3-37.8c-1.4-.2-2.8-.3-4.4-.3-5.9 0-9.9 2.5-12.1 7.6v37.5h-9V360h8.8l.1 6.1c3-4.7 7.2-7.1 12.6-7.1 1.8 0 3.1.2 4 .7v8.4z" class="st0"/><path d="M950 50v900H50V50h900m50-50H0v1000h1000V0z" class="st0"/></svg>