<svg xmlns="http://www.w3.org/2000/svg" id="Layer_1" viewBox="0 0 1000 1000" width="1000" height="1000"><style>.st0{fill:#231f20}.st1{fill:#303030}.st2{fill:none}.st3{fill:#596ab2}.st4{fill:#fff}.st5{fill:#413e38}.st6{fill:#596bb2}.st7{fill:#535353}.st8{fill:#8bd0d0}.st9{fill:#95999a}.st10{fill:#535453}</style><path d="M176.4 257.6H146l-6.8 19h-9.9l27.7-72.5h8.4l27.7 72.5h-9.8l-6.9-19zm-27.5-7.8h24.7l-12.4-33.9-12.3 33.9zm85.8 26.8c-.5-1.1-1-3-1.3-5.7-4.3 4.5-9.4 6.7-15.3 6.7-5.3 0-9.7-1.5-13.1-4.5s-5.1-6.8-5.1-11.4c0-5.6 2.1-10 6.4-13.1s10.3-4.7 18-4.7h9v-4.2c0-3.2-1-5.8-2.9-7.7-1.9-1.9-4.8-2.9-8.5-2.9-3.3 0-6 .8-8.3 2.5s-3.3 3.7-3.3 6H201c0-2.7 1-5.3 2.9-7.8s4.5-4.5 7.8-6 6.9-2.2 10.8-2.2c6.2 0 11.1 1.6 14.6 4.7s5.3 7.4 5.5 12.8V264c0 4.9.6 8.9 1.9 11.8v.8h-9.8zm-15.3-7c2.9 0 5.6-.7 8.2-2.2s4.5-3.4 5.6-5.8v-11.1H226c-11.3 0-16.9 3.3-16.9 9.9 0 2.9 1 5.1 2.9 6.8 1.9 1.6 4.4 2.4 7.4 2.4zm64.2 7v-72.5h23.7c7.9 0 13.8 1.6 17.8 4.9 4 3.3 6 8.1 6 14.4 0 3.4-1 6.4-2.9 9-1.9 2.6-4.5 4.6-7.9 6.1 3.9 1.1 7 3.2 9.3 6.3 2.3 3.1 3.4 6.7 3.4 11 0 6.5-2.1 11.6-6.3 15.3-4.2 3.7-10.2 5.6-17.9 5.6h-25.2zm9.6-41.6h14.4c4.2 0 7.5-1 10-3.1s3.8-4.9 3.8-8.5c0-4-1.2-6.9-3.5-8.7-2.3-1.8-5.9-2.7-10.6-2.7h-14.1v23zm0 7.7v26.1H309c4.4 0 8-1.2 10.5-3.5 2.6-2.3 3.9-5.5 3.9-9.5 0-8.7-4.7-13.1-14.2-13.1h-16zm85.8 33.9c-.5-1.1-1-3-1.3-5.7-4.3 4.5-9.4 6.7-15.3 6.7-5.3 0-9.7-1.5-13.1-4.5s-5.1-6.8-5.1-11.4c0-5.6 2.1-10 6.4-13.1s10.3-4.7 18-4.7h9v-4.2c0-3.2-1-5.8-2.9-7.7-1.9-1.9-4.8-2.9-8.5-2.9-3.3 0-6 .8-8.3 2.5s-3.3 3.7-3.3 6h-9.3c0-2.7 1-5.3 2.9-7.8s4.5-4.5 7.8-6 6.9-2.2 10.8-2.2c6.2 0 11.1 1.6 14.6 4.7s5.3 7.4 5.5 12.8V264c0 4.9.6 8.9 1.9 11.8v.8H379zm-15.3-7c2.9 0 5.6-.7 8.2-2.2s4.5-3.4 5.6-5.8v-11.1h-7.2c-11.3 0-16.9 3.3-16.9 9.9 0 2.9 1 5.1 2.9 6.8 1.9 1.6 4.4 2.4 7.4 2.4zm117.5-16c-.9 7.7-3.7 13.6-8.5 17.8-4.8 4.2-11.1 6.3-19 6.3-8.6 0-15.4-3.1-20.6-9.2s-7.7-14.4-7.7-24.7v-7c0-6.7 1.2-12.7 3.6-17.8 2.4-5.1 5.8-9 10.2-11.8 4.4-2.7 9.5-4.1 15.3-4.1 7.7 0 13.9 2.2 18.5 6.5s7.4 10.3 8.1 17.9h-9.6c-.8-5.8-2.6-10-5.4-12.6s-6.6-3.9-11.6-3.9c-6.1 0-10.9 2.3-14.4 6.8S435 228.7 435 237v7c0 7.9 1.6 14.1 4.9 18.8s7.9 7 13.8 7c5.3 0 9.4-1.2 12.2-3.6 2.8-2.4 4.7-6.6 5.7-12.6h9.6zm33.2 16.5c3.3 0 6.2-1 8.6-3 2.5-2 3.8-4.5 4.1-7.5h8.7c-.2 3.1-1.2 6-3.2 8.8s-4.6 5-7.8 6.7c-3.3 1.7-6.7 2.5-10.4 2.5-7.3 0-13.2-2.4-17.5-7.3-4.3-4.9-6.5-11.6-6.5-20.1v-1.5c0-5.2 1-9.9 2.9-14s4.7-7.3 8.3-9.5c3.6-2.3 7.9-3.4 12.8-3.4 6 0 11.1 1.8 15.1 5.4s6.1 8.3 6.4 14.1h-8.7c-.3-3.5-1.6-6.4-4-8.6-2.4-2.2-5.3-3.4-8.8-3.4-4.7 0-8.3 1.7-10.9 5.1-2.6 3.4-3.9 8.2-3.9 14.6v1.7c0 6.2 1.3 11 3.8 14.3 2.6 3.4 6.3 5.1 11 5.1zm58.5 6.5v-72.5h20.5c6.3 0 11.9 1.4 16.7 4.2 4.8 2.8 8.6 6.8 11.2 11.9 2.6 5.1 4 11.1 4 17.7v4.6c0 6.8-1.3 12.8-4 18-2.6 5.1-6.4 9.1-11.3 11.9s-10.6 4.2-17.1 4.2h-20zm9.6-64.7v56.9h10.1c7.4 0 13.1-2.3 17.2-6.9 4.1-4.6 6.2-11.1 6.2-19.6v-4.2c0-8.2-1.9-14.6-5.8-19.2s-9.4-6.9-16.5-7h-11.2zm53.6 37.3c0-8.3 2-14.9 5.9-19.9 3.9-5 9-7.5 15.4-7.5 6.3 0 11.3 2.2 15 6.5v-28.1h9.2v76.5h-8.5l-.4-5.8c-3.7 4.5-8.8 6.8-15.4 6.8-6.2 0-11.3-2.6-15.3-7.7-3.9-5.1-5.9-11.8-5.9-20v-.8zm9.2 1.1c0 6.1 1.3 10.9 3.8 14.3 2.5 3.5 6 5.2 10.5 5.2 5.8 0 10.1-2.6 12.8-7.9v-24.8c-2.8-5.1-7-7.6-12.7-7.6-4.5 0-8 1.7-10.6 5.2-2.5 3.6-3.8 8.7-3.8 15.6zm118.3-7.2h-31.4v25.7h36.5v7.8h-46.1v-72.5h45.6v7.8h-36v23.4h31.4v7.8zm36.9 34.5c-7.3 0-13.2-2.4-17.8-7.2s-6.9-11.2-6.9-19.2v-1.7c0-5.3 1-10.1 3.1-14.3 2-4.2 4.9-7.5 8.6-9.9 3.7-2.4 7.6-3.6 11.9-3.6 7 0 12.5 2.3 16.3 6.9s5.8 11.2 5.8 19.8v3.8H785c.1 5.3 1.7 9.6 4.7 12.9 3 3.3 6.7 4.9 11.3 4.9 3.3 0 6-.7 8.3-2 2.3-1.3 4.2-3.1 5.9-5.3l5.6 4.4c-4.5 7-11.3 10.5-20.3 10.5zm-1.1-48.3c-3.7 0-6.8 1.4-9.4 4.1-2.5 2.7-4.1 6.5-4.7 11.4h27v-.8c-.3-4.7-1.5-8.3-3.8-10.9-2.2-2.5-5.3-3.8-9.1-3.8zM176.4 367H146v32h-9.6v-72.5h44.9v7.8h-35.4v24.9h30.4v7.8zm19.4 32v-46.8h-8.5v-7.1h8.5v-5.5c0-5.8 1.5-10.2 4.6-13.4 3.1-3.2 7.5-4.7 13.1-4.7 2.1 0 4.2.3 6.3.8l-.5 7.4c-1.6-.3-3.2-.4-5-.4-3 0-5.3.9-6.9 2.6-1.6 1.7-2.4 4.3-2.4 7.5v5.7h11.5v7.1H205V399h-9.2zm111.1-9.5c-2.5 3.5-5.9 6.2-10.3 7.9s-9.5 2.6-15.4 2.6-11.2-1.4-15.7-4.2c-4.6-2.8-8.1-6.7-10.6-11.8s-3.8-11-3.9-17.8v-6.3c0-10.9 2.5-19.4 7.6-25.4s12.3-9 21.5-9c7.6 0 13.7 1.9 18.3 5.8 4.6 3.9 7.4 9.4 8.5 16.5h-9.6c-1.8-9.6-7.5-14.4-17.1-14.4-6.4 0-11.3 2.3-14.6 6.8-3.3 4.5-5 11-5 19.6v5.9c0 8.1 1.9 14.6 5.6 19.4 3.7 4.8 8.7 7.2 15.1 7.2 3.6 0 6.7-.4 9.4-1.2 2.7-.8 4.9-2.1 6.7-4v-16.2h-16.8v-7.8h26.3v26.4zm12.4-17.9c0-8.4 1.9-15.1 5.8-20s9-7.4 15.4-7.4c6.6 0 11.7 2.3 15.4 7l.4-6h8.4v52.6c0 7-2.1 12.5-6.2 16.5s-9.7 6-16.7 6c-3.9 0-7.7-.8-11.4-2.5s-6.6-3.9-8.5-6.8l4.8-5.5c4 4.9 8.8 7.3 14.5 7.3 4.5 0 8-1.3 10.5-3.8s3.8-6.1 3.8-10.7v-4.6c-3.7 4.3-8.7 6.4-15.1 6.4-6.3 0-11.4-2.5-15.3-7.6-3.9-5.2-5.8-12.1-5.8-20.9zm9.2 1.1c0 6.1 1.2 10.8 3.7 14.3s6 5.2 10.5 5.2c5.8 0 10.1-2.6 12.8-7.9v-24.6c-2.8-5.1-7.1-7.7-12.7-7.7-4.5 0-8 1.7-10.5 5.2s-3.8 8.6-3.8 15.5zM461.1 399h-9.6v-33.5h-36.6V399h-9.6v-72.5h9.6v31.2h36.6v-31.2h9.6V399zm24.7-47.3c4.1-5 9.4-7.5 15.9-7.5 11.4 0 17.1 6.4 17.2 19.3V399h-9.2v-35.7c0-3.9-.9-6.8-2.7-8.6-1.7-1.9-4.5-2.8-8.1-2.8-3 0-5.6.8-7.9 2.4s-4 3.7-5.3 6.3V399h-9.2v-76.5h9.2v29.2zm84 47.3h-9.6v-72.5h9.6V399zm16.1-68.2c0-1.5.5-2.8 1.4-3.8.9-1 2.3-1.5 4.1-1.5s3.2.5 4.1 1.5c.9 1 1.4 2.3 1.4 3.8s-.5 2.7-1.4 3.7c-.9 1-2.3 1.5-4.1 1.5s-3.1-.5-4.1-1.5c-1-.9-1.4-2.2-1.4-3.7zm9.9 68.2h-9.2v-53.9h9.2V399zm71.8-72.5h9.6v51.3c0 6.9-2.1 12.4-6.2 16.3-4.2 3.9-9.7 5.9-16.7 5.9-7.2 0-12.8-1.8-16.8-5.5s-6-8.8-6-15.5h9.6c0 4.2 1.1 7.4 3.4 9.7s5.6 3.5 9.9 3.5c4 0 7.1-1.2 9.6-3.7 2.4-2.5 3.7-6 3.7-10.5v-51.5zm34 18.6v60.1c0 10.4-4.7 15.5-14.1 15.5-2 0-3.9-.3-5.6-.9v-7.3c1.1.3 2.5.4 4.2.4 2.1 0 3.6-.6 4.7-1.7s1.6-3 1.6-5.8V345h9.2zm-10.2-14.3c0-1.5.5-2.7 1.4-3.8.9-1 2.2-1.6 4-1.6 1.8 0 3.2.5 4.1 1.5.9 1 1.4 2.3 1.4 3.8s-.5 2.7-1.4 3.7c-.9 1-2.3 1.5-4.1 1.5s-3.1-.5-4-1.5-1.4-2.1-1.4-3.6zm70.2 34.5l-8.9 9.2V399h-9.6v-72.5h9.6v35.9l32.2-35.9h11.6l-28.5 32 30.8 40.5h-11.5l-25.7-33.7zm59.1 8.8l-5.8 6V399h-9.2v-76.5h9.2v46.3l4.9-5.9 16.8-17.7h11.2l-21 22.5 23.4 31.4h-10.8l-18.7-25zM146 513.6h34.4v7.8h-44v-72.5h9.6v64.7zm53.8 7.8h-9.2v-76.5h9.2v76.5zm53.8-72.5l23.7 59.2 23.7-59.2h12.4v72.5h-9.6v-28.2l.9-30.5-23.7 58.7h-7.3l-23.8-58.6.9 30.3v28.2h-9.6v-72.5h12.4zm83.9 18.6l.2 6c4-4.6 9.3-7 16-7 7.5 0 12.7 2.9 15.4 8.7 1.8-2.6 4.1-4.7 7-6.3s6.3-2.4 10.2-2.4c11.8 0 17.8 6.3 18 18.8v36.1h-9.2v-35.6c0-3.9-.9-6.7-2.6-8.6s-4.7-2.9-8.9-2.9c-3.4 0-6.3 1-8.5 3.1-2.3 2-3.6 4.8-3.9 8.2v35.8h-9.3v-35.3c0-7.8-3.8-11.8-11.5-11.8-6 0-10.2 2.6-12.4 7.7v39.3h-9.2v-53.9h8.7zm163.2 53.9h-9.6l-36.5-55.9v55.9H445v-72.5h9.6l36.6 56.1v-56.1h9.5v72.5zm24.2-53.9l.3 6.8c4.1-5.2 9.5-7.8 16.1-7.8 11.4 0 17.1 6.4 17.2 19.3v35.6h-9.2v-35.7c0-3.9-.9-6.8-2.7-8.6-1.7-1.9-4.5-2.8-8.1-2.8-3 0-5.6.8-7.9 2.4-2.3 1.6-4 3.7-5.3 6.3v38.4h-9.2v-53.9h8.8zm130.1 20c0 7.1-1.2 13.3-3.6 18.6s-5.8 9.3-10.2 12.1-9.5 4.2-15.3 4.2c-5.7 0-10.8-1.4-15.2-4.2-4.4-2.8-7.8-6.8-10.3-12-2.4-5.2-3.7-11.2-3.8-18.1v-5.2c0-7 1.2-13.1 3.6-18.5 2.4-5.3 5.9-9.4 10.3-12.3 4.4-2.8 9.5-4.3 15.2-4.3 5.8 0 10.9 1.4 15.4 4.2 4.4 2.8 7.8 6.9 10.2 12.2 2.4 5.3 3.6 11.5 3.6 18.6v4.7zm-9.5-4.7c0-8.6-1.7-15.2-5.2-19.8-3.5-4.6-8.3-6.9-14.5-6.9-6 0-10.8 2.3-14.3 6.9-3.5 4.6-5.3 11-5.4 19.2v5.3c0 8.3 1.8 14.9 5.3 19.6 3.5 4.8 8.3 7.1 14.5 7.1 6.2 0 11-2.2 14.3-6.7 3.4-4.5 5.1-10.9 5.2-19.3v-5.4zm19.9 11.2c0-5.3 1-10 3.1-14.2 2.1-4.2 5-7.5 8.7-9.8s7.9-3.4 12.7-3.4c7.3 0 13.3 2.5 17.8 7.6s6.8 11.8 6.8 20.3v.6c0 5.2-1 10-3 14.1s-4.9 7.4-8.6 9.7c-3.7 2.3-8 3.5-12.9 3.5-7.3 0-13.2-2.5-17.8-7.6-4.5-5.1-6.8-11.8-6.8-20.2v-.6zm9.3 1.1c0 6 1.4 10.8 4.2 14.4 2.8 3.6 6.5 5.4 11.1 5.4 4.7 0 8.4-1.8 11.2-5.5 2.8-3.7 4.1-8.8 4.1-15.4 0-5.9-1.4-10.7-4.2-14.4-2.8-3.7-6.5-5.5-11.2-5.5-4.5 0-8.2 1.8-11 5.4-2.8 3.7-4.2 8.8-4.2 15.6zm87.6-2.1v28.4h-9.6v-72.5h26.7c7.9 0 14.2 2 18.7 6.1s6.7 9.4 6.7 16.1c0 7-2.2 12.5-6.6 16.3-4.4 3.8-10.7 5.7-18.9 5.7h-17zm0-7.8h17.2c5.1 0 9-1.2 11.8-3.6 2.7-2.4 4.1-5.9 4.1-10.5 0-4.3-1.4-7.8-4.1-10.4-2.7-2.6-6.5-3.9-11.2-4h-17.7v28.5zm98.9 9.9c0 8.2-1.9 14.8-5.6 19.8-3.8 5-8.8 7.5-15.2 7.5-6.5 0-11.7-2.1-15.4-6.2v25.9h-9.2v-74.6h8.4l.4 6c3.8-4.6 9-7 15.6-7 6.5 0 11.6 2.4 15.4 7.3 3.8 4.9 5.7 11.7 5.7 20.4v.9zM852 494c0-6.1-1.3-10.9-3.9-14.4-2.6-3.5-6.1-5.3-10.7-5.3-5.6 0-9.8 2.5-12.6 7.4v25.7c2.8 4.9 7 7.4 12.7 7.4 4.4 0 7.9-1.8 10.5-5.3 2.7-3.4 4-8.6 4-15.5zM191.8 609.9c0 7-1.1 13-3.3 18.1s-5.3 9-9.4 11.9L192 650l-6.5 6-15.3-12.2c-2.4.6-4.9.9-7.6.9-5.7 0-10.8-1.4-15.2-4.2-4.4-2.8-7.8-6.8-10.3-12-2.4-5.2-3.7-11.2-3.8-18.1v-5.2c0-7 1.2-13.1 3.6-18.5s5.9-9.4 10.3-12.3c4.4-2.8 9.5-4.3 15.2-4.3 5.8 0 11 1.4 15.4 4.2 4.4 2.8 7.8 6.9 10.2 12.2 2.4 5.3 3.6 11.5 3.6 18.6v4.8zm-9.6-4.7c0-8.5-1.7-15.1-5.1-19.7-3.4-4.6-8.3-6.9-14.6-6.9-6 0-10.8 2.3-14.2 6.9-3.5 4.6-5.3 11-5.4 19.2v5.3c0 8.3 1.7 14.8 5.2 19.6s8.3 7.2 14.5 7.2 11-2.2 14.3-6.7c3.4-4.5 5.1-10.9 5.2-19.3v-5.6zm20.6 11.2c0-8.5 1.9-15.2 5.8-20.1s9.1-7.4 15.6-7.4c6.4 0 11.4 2.1 15.1 6.4l.4-5.4h8.5v74.6H239v-25.7c-3.7 4-8.7 6-14.8 6-6.5 0-11.7-2.5-15.6-7.6-3.9-5.1-5.8-11.8-5.8-20.1v-.7zm9.2 1.1c0 6.2 1.3 11 3.9 14.5 2.6 3.5 6.1 5.3 10.5 5.3 5.5 0 9.7-2.4 12.6-7.3v-26.4c-2.9-4.7-7.1-7.1-12.5-7.1-4.4 0-8 1.8-10.6 5.3-2.6 3.5-3.9 8.8-3.9 15.7zm104.3-3h-17v29.3h-9.6v-72.5h24c8.2 0 14.5 1.9 18.9 5.6s6.6 9.1 6.6 16.2c0 4.5-1.2 8.5-3.7 11.8-2.4 3.4-5.8 5.9-10.2 7.5l17 30.8v.6H332l-15.7-29.3zm-17-7.8H314c4.7 0 8.5-1.2 11.3-3.7 2.8-2.5 4.2-5.8 4.2-9.9 0-4.5-1.3-7.9-4-10.3-2.7-2.4-6.5-3.6-11.6-3.6h-14.6v27.5zm77.8-8.5c-1.4-.2-2.9-.3-4.5-.3-6 0-10.1 2.6-12.3 7.7v38.2h-9.2v-53.9h9l.1 6.2c3-4.8 7.3-7.2 12.8-7.2 1.8 0 3.2.2 4.1.7v8.6zm56.6 13.3c-8.2-2.4-14.2-5.3-17.9-8.7-3.7-3.4-5.6-7.7-5.6-12.7 0-5.7 2.3-10.4 6.8-14.2s10.5-5.6 17.8-5.6c5 0 9.4 1 13.3 2.9 3.9 1.9 6.9 4.6 9.1 8 2.1 3.4 3.2 7.1 3.2 11.1h-9.6c0-4.4-1.4-7.9-4.2-10.4-2.8-2.5-6.7-3.8-11.8-3.8-4.7 0-8.4 1-11 3.1-2.6 2.1-4 5-4 8.7 0 3 1.3 5.5 3.8 7.5s6.8 3.9 12.8 5.6c6 1.7 10.7 3.6 14.1 5.6 3.4 2 5.9 4.4 7.6 7.1 1.6 2.7 2.5 5.9 2.5 9.6 0 5.9-2.3 10.6-6.9 14.1-4.6 3.5-10.7 5.3-18.4 5.3-5 0-9.6-1-13.9-2.9-4.3-1.9-7.6-4.5-10-7.8-2.3-3.3-3.5-7.1-3.5-11.3h9.6c0 4.4 1.6 7.8 4.9 10.4 3.2 2.5 7.6 3.8 13 3.8 5 0 8.9-1 11.6-3.1 2.7-2.1 4-4.9 4-8.4s-1.2-6.3-3.7-8.2-7.1-3.8-13.6-5.7zm69 18c0-2.5-.9-4.4-2.8-5.8-1.9-1.4-5.1-2.6-9.8-3.6s-8.4-2.2-11.1-3.6c-2.7-1.4-4.8-3.1-6.1-5-1.3-1.9-2-4.2-2-6.9 0-4.4 1.9-8.2 5.6-11.2 3.7-3.1 8.5-4.6 14.3-4.6 6.1 0 11.1 1.6 14.9 4.7 3.8 3.2 5.7 7.2 5.7 12.1h-9.3c0-2.5-1.1-4.7-3.2-6.5-2.1-1.8-4.8-2.7-8.1-2.7-3.4 0-6 .7-7.9 2.2s-2.8 3.4-2.8 5.7c0 2.2.9 3.9 2.6 5 1.8 1.1 4.9 2.2 9.5 3.2s8.3 2.3 11.2 3.7c2.9 1.4 5 3.1 6.4 5.2 1.4 2 2.1 4.5 2.1 7.3 0 4.8-1.9 8.7-5.8 11.6-3.9 2.9-8.8 4.4-15 4.4-4.3 0-8.1-.8-11.5-2.3-3.3-1.5-5.9-3.7-7.8-6.4-1.9-2.7-2.8-5.7-2.8-8.9h9.2c.2 3.1 1.4 5.5 3.7 7.3 2.3 1.8 5.4 2.7 9.1 2.7 3.5 0 6.3-.7 8.4-2.1 2.3-1.2 3.3-3.1 3.3-5.5zm96.1-50.4h-23.3v64.7H566v-64.7h-23.3v-7.8h56.1v7.8zm21.8-2.2v13h10.1v7.1h-10.1v33.5c0 2.2.4 3.8 1.3 4.9s2.4 1.6 4.6 1.6c1.1 0 2.5-.2 4.4-.6v7.4c-2.4.7-4.8 1-7.1 1-4.1 0-7.2-1.2-9.3-3.7s-3.1-6-3.1-10.6v-33.4h-9.8V590h9.8v-13h9.2zm98.5-5.6v49.3c0 6.8-2.2 12.4-6.4 16.8-4.3 4.4-10.1 6.8-17.4 7.3l-2.5.1c-7.9 0-14.3-2.1-19-6.4-4.7-4.3-7.1-10.2-7.2-17.7v-49.4h9.5v49.1c0 5.2 1.4 9.3 4.3 12.2 2.9 2.9 7 4.4 12.4 4.4s9.6-1.4 12.4-4.3c2.9-2.9 4.3-7 4.3-12.2v-49.2h9.6zm46.9 67.2c-3.6 4.2-8.8 6.3-15.8 6.3-5.7 0-10.1-1.7-13.1-5s-4.5-8.3-4.6-14.8v-35.1h9.2v34.8c0 8.2 3.3 12.3 10 12.3 7 0 11.7-2.6 14-7.9v-39.2h9.2v53.9h-8.8l-.1-5.3zm-605.6 115l20.7-59.8h10.5l-26.9 72.5h-8.5l-26.8-72.5h10.4l20.6 59.8zm56.7.2l13.3-41.4h9.4l-19.3 53.9h-7L194 712.3h9.4l13.7 41.4zm73.9-10.3l1.4 9.6 2-8.6 14.3-50.6h8.1l14 50.6 2 8.8 1.5-9.8 11.3-49.6h9.6l-17.6 72.5H329l-15-52.9-1.1-5.5-1.1 5.5-15.5 52.8h-8.7L270 693.7h9.6l11.4 49.7zm121.1 10.1l10.4-41.2h9.2L416 766.2h-7.5l-13.1-40.8-12.8 40.8h-7.5l-15.6-53.9h9.2l10.6 40.3 12.6-40.3h7.4l12.8 41.2zm79.3-32l17.4-27.8h11.3l-22.9 36 23.5 36.6h-11.4L491.5 738l-17.9 28.3h-11.3l23.5-36.6-23-36H474l17.4 27.8zm57 10.5l12-19.7h10.8L553.4 739l18.2 27.2H561L548.5 746 536 766.2h-10.7l18.2-27.2-17.6-26.6h10.7l11.8 19.6zm81.2-1.9l18.9-36.4h10.9l-25 45.5v27h-9.6v-27l-25-45.5h11l18.8 36.4zm54.4 22.6l12.6-40.4h9.9l-21.7 62.2c-3.4 9-8.7 13.4-16 13.4l-1.7-.1-3.4-.6v-7.5l2.5.2c3.1 0 5.6-.6 7.3-1.9 1.7-1.3 3.2-3.6 4.3-6.9l2-5.5-19.2-53.3h10.1l13.3 40.4zm64.5 5.7H790v7.8h-52.8V759l39.7-57.5h-39.1v-7.8h50.6v7l-39.9 57.7zm61.1.3h31.5v7.5h-42.8v-6.8l29.7-39.5h-29.3v-7.6h40.8v6.5l-29.9 39.9z" class="st0"/></svg>