<svg xmlns="http://www.w3.org/2000/svg" id="Layer_1" viewBox="0 0 1000 1000" width="1000" height="1000"><style>.st0{fill:#231f20}.st1{fill:#303030}.st2{fill:none}.st3{fill:#596ab2}.st4{fill:#fff}.st5{fill:#413e38}.st6{fill:#596bb2}.st7{fill:#535353}.st8{fill:#8bd0d0}.st9{fill:#95999a}.st10{fill:#535453}</style><path d="M184.1 255.1h-28.9l-7.3 20.8h-9.5l26.8-72.6h9l26.8 72.6h-9.5l-7.4-20.8zm-26.2-7.7h23.5l-11.6-33.1h-.3l-11.6 33.1zm47.7 13c0-9.3 7.1-14.8 20.3-15.6l15.2-.9v-4.5c0-6.7-4.4-10.5-12.4-10.5-6.3 0-11 3.2-12 8.3h-8.4c.3-9.2 9.2-16.1 20.5-16.1 12.8 0 21.1 6.8 21.1 17.5v37.2h-8.3v-9.4h-.2c-3.1 6-9.9 9.9-17.5 9.9-11 .1-18.3-6.3-18.3-15.9zm35.5-5.2v-4.4l-14.2.9c-8.1.5-12.4 3.5-12.4 8.7 0 5 4.4 8.3 11.2 8.3 8.9.1 15.4-5.7 15.4-13.5zm46.1 20.7v-72.6h28.4c12.4 0 20.8 7.2 20.8 18.1 0 7.5-5.5 14.6-12.5 15.8v.4c9.9 1.3 16.2 8.2 16.2 17.9 0 12.8-9.2 20.4-24.6 20.4h-28.3zm9.1-41.3h14.5c10.7 0 16.5-4.3 16.5-12.1 0-7.2-4.9-11.2-13.7-11.2h-17.3v23.3zm17.9 33.3c10.9 0 16.6-4.4 16.6-12.8s-5.9-12.7-17.5-12.7h-17v25.5h17.9zm32.6-7.5c0-9.3 7.1-14.8 20.3-15.6l15.2-.9v-4.5c0-6.7-4.4-10.5-12.4-10.5-6.3 0-11 3.2-12 8.3h-8.4c.3-9.2 9.2-16.1 20.5-16.1 12.8 0 21.1 6.8 21.1 17.5v37.2h-8.3v-9.4h-.2c-3.1 6-9.9 9.9-17.5 9.9-11 .1-18.3-6.3-18.3-15.9zm35.5-5.2v-4.4l-14.2.9c-8.1.5-12.4 3.5-12.4 8.7 0 5 4.4 8.3 11.2 8.3 8.9.1 15.4-5.7 15.4-13.5zm43.3-15.7c0-22.8 12.8-37.5 32.7-37.5 15.8 0 27.8 9.6 30.1 24.1h-9.2c-2.3-9.5-10.6-15.7-21-15.7-14.2 0-23.4 11.5-23.4 29.1 0 17.8 9.1 29.2 23.4 29.2 10.7 0 18.3-5.1 20.9-14h9.2C485 269 474.2 277 458.2 277c-19.9.1-32.6-14.5-32.6-37.5zm108.6-.2c-1.1-5.8-5.9-10.4-14.1-10.4-9.5 0-15.9 7.8-15.9 19.8 0 12.3 6.5 19.8 16 19.8 7.5 0 12.6-3.5 14.1-10.1h8.6c-1.5 10.6-10.4 17.9-22.7 17.9-14.9 0-24.8-10.6-24.8-27.6 0-16.6 9.9-27.6 24.7-27.6 13.4 0 21.6 8.7 22.7 18.2h-8.6zm67.8-36c21.5 0 34.2 13.4 34.2 36.3s-12.7 36.3-34.2 36.3h-24.9v-72.6H602zm-15.9 64.4h15.2c16.4 0 25.6-10.1 25.6-28.1 0-18.2-9.1-28.2-25.6-28.2h-15.2v56.3zm57.6-18.9c0-16.5 9.6-27.6 23-27.6 7.7 0 14 3.4 17.3 9.3h.2v-30.3h8.8v75.7h-8.3v-9.2h-.2c-3.5 6.2-9.7 9.7-17.6 9.7-13.6 0-23.2-11.1-23.2-27.6zm8.9 0c0 12 6.3 19.8 15.8 19.8 9.4 0 15.8-8 15.8-19.8s-6.4-19.8-15.8-19.8c-9.5-.1-15.8 7.8-15.8 19.8zM776 275.9h-45v-72.6h45v8.1h-35.9v23.3h34v8h-34v24.9H776v8.3zm55.5-15.5c-1.5 9.3-10.9 16-22.5 16-15.2 0-24.8-10.6-24.8-27.4s9.7-27.8 24.4-27.8c14.5 0 23.5 10.2 23.5 26.6v3.4h-38.9v.5c0 10.3 6.3 17 16 17 6.8 0 12.1-3.2 13.6-8.3h8.7zm-38.3-16.2H823c-.2-9.2-6-15.3-14.6-15.3-8.4-.1-14.6 6.1-15.2 15.3zm-649 155.3v-72.6h44.1v8.1h-35v25h32.1v8h-32.1v31.4h-9.1zm56.1-47h-7.5v-7.2h7.5v-5c0-10 4.4-14.5 14.4-14.5 1.7 0 3.2.2 4.9.5v7.2c-1.2-.3-2.7-.4-4.1-.4-4.5 0-6.4 2.1-6.5 7.2v5h10.6v7.2H209v47h-8.8v-47zm85 48.2c-20.3 0-33.2-14.8-33.2-37.9 0-22.7 12.9-37.1 33.2-37.1 15.7 0 27.6 9.3 30.3 23.7h-9.5c-3-9.8-10.6-15.4-20.8-15.4-14.9 0-23.9 10.8-23.9 28.7 0 18.3 9.2 29.6 23.9 29.6 12.9 0 21.7-8.3 21.7-20.5v-1.3h-20.5v-7.9H316v6.9c.1 19.5-11.4 31.2-30.7 31.2zM326 404h9.1c1.8 5 7.2 8.3 14.1 8.3 9.5 0 15.2-5.5 15.2-13.7v-8.5h-.2c-3.4 5.9-9.8 9.3-17.4 9.3-13.7 0-22.9-10.9-22.9-27.3 0-16.5 9.2-27.4 23.1-27.4 7.6 0 14 3.4 17.7 9.3h.2v-8.8h8.3v53.1c0 12.9-9.5 21.5-24.4 21.5-11.8.1-21.3-6.6-22.8-15.8zm38.4-31.8c0-11.7-6.4-19.6-15.9-19.6s-15.6 7.7-15.6 19.6c0 11.8 6.2 19.5 15.6 19.5 9.4 0 15.9-7.9 15.9-19.5zm95.2 27.3v-33h-39.8v33h-9.1v-72.6h9.1v31.4h39.8v-31.4h9.1v72.6h-9.1zm22.6-75.8h8.8V354h.2c3.4-6.1 8.9-9.3 17.2-9.3 11.9 0 19.1 8 19.1 20.1v34.6h-8.8v-33c0-8.7-4.4-13.9-13-13.9-9.2 0-14.8 6.2-14.8 15.7v31.2h-8.8v-75.7zm82.6 75.8v-72.6h9.1v72.6h-9.1zm21.4-68.5c0-3.1 2.5-5.5 5.5-5.5 3.1 0 5.5 2.5 5.5 5.5s-2.5 5.5-5.5 5.5-5.5-2.5-5.5-5.5zm1.1 14.2h8.8v54.2h-8.8v-54.2zm51 37.2c.2 6.1 4.9 10.4 11.5 10.4 8 0 12.3-4.8 12.3-13.6v-52.3h9.1v52.4c0 13.8-7.9 21.9-21.3 21.9-12.1 0-20.5-7.7-20.5-18.8h8.9zm55 19.7c0 11-5.1 15.9-16.6 15.9h-1.6v-7.4h1.4c5.9 0 8.1-2.3 8.1-8.4v-57h8.8v56.9zm-9.9-71.1c0-3.1 2.5-5.5 5.5-5.5 3.1 0 5.5 2.5 5.5 5.5s-2.5 5.5-5.5 5.5c-2.9 0-5.5-2.5-5.5-5.5zm48.1 68.5v-72.6h9.1v35.4h.5l32-35.4h11.4L754.7 359l32.5 40.4h-11.6l-27.2-34-7.8 8.7v25.3h-9.1zm95.8-54.3H838l-23.7 23.4 24.4 30.8h-10.2L808.1 374l-5.1 4.8v20.6h-8.8v-75.7h8.8v45.8l24.3-24.3zm-639 177.9h-44.1v-72.6h9.1v64.4h35v8.2zm9.3-75.8h8.8V523h-8.8v-75.7zm110 75.8v-55.9h-.4l-23.1 55.4h-7.6l-23.1-55.4h-.4v55.9h-8.4v-72.6H255l25 60.6h.4l25-60.6H316v72.6h-8.4zm21.4-54.3h8.2v8.8h.2c2.6-5.8 8.3-9.3 15.4-9.3 7.3 0 12.8 3.7 15.2 10.3h.2c3.1-6.4 9.5-10.3 17-10.3 10.7 0 17.7 6.9 17.7 17.7v37h-8.8v-35c0-7.5-4.2-11.9-11.4-11.9s-12.4 5.4-12.4 12.8V523h-8.8v-36c0-6.5-4.5-10.9-11.3-10.9-7.2 0-12.6 5.7-12.6 13.3V523H329v-54.2zm111.3 54.3v-72.6h8.8l39.7 57h.5v-57h9v72.6h-8.8l-39.7-56.8h-.5v56.8h-9zm70.9-54.3h8.2v8.8h.2c3.4-6.1 8.8-9.3 17.2-9.3 11.9 0 18.8 7.6 18.8 20v34.8h-8.8v-33.2c0-8.9-4.1-13.7-12.7-13.7-8.9 0-14.3 6.1-14.3 15.4v31.5H511v-54.3zm145.9 18c0 23-12.9 37.5-33.4 37.5-20.6 0-33.4-14.4-33.4-37.5 0-23 12.9-37.5 33.4-37.5s33.4 14.5 33.4 37.5zm-57.6 0c0 17.9 9.3 29.1 24.1 29.1s24.1-11.3 24.1-29.1c0-17.9-9.3-29.2-24.1-29.2s-24.1 11.3-24.1 29.2zm65.1 9.2c0-16.8 9.8-27.6 25-27.6s25 10.8 25 27.6-9.8 27.6-25 27.6-25-10.9-25-27.6zm41.1 0c0-12.5-6-19.8-16.1-19.8s-16.1 7.4-16.1 19.8 6 19.8 16.1 19.8c10.1 0 16.1-7.4 16.1-19.8zm71.2-45.5c13.6 0 23.2 9.6 23.2 23.3 0 13.8-9.7 23.4-23.3 23.4h-18.3v25.9h-9.1v-72.6h27.5zm-18.3 38.6h16c10.4 0 16.3-5.7 16.3-15.3 0-9.6-5.9-15.2-16.3-15.2h-16v30.5zm100.1 6.9c0 16.5-9.4 27.6-23 27.6-7.7 0-13.9-3.4-17.3-9.3h-.2v26.9h-8.8v-72.3h8.3v8.8h.2c3.2-5.6 10.1-9.3 17.6-9.3 13.8-.1 23.2 11 23.2 27.6zm-8.9 0c0-12-6.3-19.8-15.9-19.8-9.4 0-15.7 8-15.7 19.8s6.4 19.8 15.7 19.8c9.5 0 15.9-7.8 15.9-19.8zM194.5 654.9l-6.7-9.3c-3.9 1.5-8.2 2.3-13 2.3-20.6 0-33.4-14.4-33.4-37.5s12.9-37.5 33.4-37.5 33.4 14.5 33.4 37.5c0 14-4.8 24.9-13.2 31.2l9.6 13.2h-10.1zm-12-16.5l-9.1-12.5h10.2l6.2 8.4c5.8-4.9 9.2-13.3 9.2-23.9 0-17.9-9.3-29.2-24.1-29.2s-24.1 11.3-24.1 29.2 9.3 29.1 24.1 29.1c2.7 0 5.3-.4 7.6-1.1zm74.1-37.2h.2v-8.8h8.3v72.3h-8.8v-26.9h-.2c-3.4 5.9-9.8 9.3-17.4 9.3-13.6 0-22.9-11.1-22.9-27.6 0-16.6 9.3-27.6 23.1-27.6 7.8 0 14.2 3.4 17.7 9.3zm-.3 18.4c0-11.7-6.5-19.8-15.9-19.8s-15.6 7.8-15.6 19.8c0 12.1 6.2 19.8 15.6 19.8s15.9-8.1 15.9-19.8zm55.4 27.1h-9.1v-72.6h27.7c14 0 23.1 8.5 23.1 21.6 0 10.1-5.5 18-14.6 20.8l16.8 30.1H345l-15.5-28.7h-17.9v28.8zm0-36.8h17.9c9.3 0 14.6-5 14.6-13.9 0-8.7-5.6-13.9-15-13.9h-17.5v27.8zm52.1-17.5h8.2v8.8h.2c1.6-5.7 6.8-9.3 13.1-9.3 1.6 0 2.9.2 3.6.3v8.6c-.7-.3-2.6-.5-4.8-.5-7 0-11.7 5.1-11.7 12.8v33.5h-8.8v-54.2zm64 34.3c.9 7.8 8.3 13 18.7 13 9.8 0 16.9-5.2 16.9-12.3 0-6.1-4.3-9.9-14-12.4l-9.3-2.4c-13.4-3.4-19.3-9.3-19.3-19.2 0-12.1 10.6-20.5 25.6-20.5 14.4 0 24.9 8.5 25.3 20.7h-9.1c-.8-7.8-7.1-12.6-16.5-12.6s-15.9 4.9-15.9 12c0 5.5 4 8.8 13.9 11.3l7.6 2c15 3.8 21.1 9.6 21.1 20 0 13.3-10.5 21.6-27.2 21.6-15.4 0-26.1-8.3-26.9-21.2h9.1zm73.6-34.7c11 0 19.4 6.6 19.7 15.5h-8.4c-.6-5.1-5-8.2-11.6-8.2-6.7 0-11.2 3.2-11.2 7.9 0 3.7 2.9 6.1 9.2 7.7l8.2 2.1c11 2.8 14.9 6.6 14.9 14.5 0 9.3-8.9 15.8-21.4 15.8-11.7 0-20.1-6.3-21-15.7h8.8c.9 5.5 5.4 8.5 12.8 8.5s12-3.1 12-7.9c0-3.8-2.3-5.8-8.4-7.4l-9.5-2.5c-9.5-2.5-14.1-7.2-14.1-14.5-.1-9.4 8.2-15.8 20-15.8zm74.9 54.7v-64.4h-23.4v-8.1h55.8v8.1h-23.4v64.4h-9zm52.5-66.5v12.2h10.6v7.2h-10.6v32.5c0 5 2.1 7.2 6.7 7.2 1.1 0 3.2-.2 3.8-.3v7.4c-1.1.3-3.6.5-5.6.5-9.8 0-13.6-4.1-13.6-14.5v-32.9h-7.5v-7.2h7.5v-12.2h8.7zm55.1 40.4c0 11 7.2 18.9 19.8 18.9 12.6 0 19.8-7.9 19.8-18.9v-46.5h9.1v47.1c0 15.5-10.8 26.7-28.8 26.7S675 636.7 675 621.2v-47.1h9.1v46.5zm105.8 26.1h-8.2v-9h-.2c-3.4 6.2-9 9.5-17.2 9.5-11.9 0-18.8-7.6-18.8-20v-34.8h8.8v33.2c0 8.9 4.2 13.7 12.7 13.7 8.9 0 14.3-6.1 14.3-15.4v-31.5h8.8v54.3zM165.2 770.3l-26.8-72.6h9.5l21.6 61.6h.3l21.6-61.6h9.5l-26.8 72.6h-8.9zm65.6 0h-8.9l-20-54.2h9.2l15.2 44.8h.2l15.2-44.8h9.1l-20 54.2zm76.4 0h-8.5l-19.8-72.6h9.5l14.5 59.2h.4l16.3-59.2h9.2l16.3 59.2h.4l14.5-59.2h9.5l-19.8 72.6h-8.6l-16.7-57.6h-.4l-16.8 57.6zm124 0h-8.9l-12.4-42.1h-.2l-12.4 42.1h-8.9L373.3 716h8.7l11 44.3h.2l12.4-44.3h8.4l12.4 44.3h.2l11-44.3h8.7l-15.1 54.3zm68.3-36.4v-.4l-24.4-35.9H486l19.4 29.2h.4l19.6-29.2h10.3l-25 36.3v.3l24.5 36h-10.9L505 741.3h-.4l-19.6 29h-10.3l24.8-36.4zm63.1 15.6l-13.2 20.8h-9.8l18.6-27.1L540 716h9.8l13.2 20.5h.2l13.1-20.5h9.8l-18.4 26.8 18.1 27.5H576l-13.1-20.8h-.3zm76.8 20.8V739l-25.8-41.3h10.3l19.8 32.6h.3l19.8-32.6h10.3L648.4 739v31.2h-9zm39.8 19.3v-7.4c1 .2 2.4.3 3.6.3 5 0 7.7-2.4 10-9l1.1-3.2-20.2-54.3h9.3l15.2 45.3h.2l15.2-45.3h9.2l-21.2 57.5c-4.6 12.6-9 16.3-18.6 16.3-1.1.1-2.8 0-3.8-.2zm74.4-25.8l41.4-57.6v-.4h-40v-8.1h51.4v6.4l-41.2 57.6v.4h42v8.1h-53.7v-6.4zm63.4.1l30.2-40.5v-.2H817V716h40v6.5l-30 40.3v.2h30.2v7.2H817v-6.3z" class="st0"/></svg>