<svg xmlns="http://www.w3.org/2000/svg" id="Layer_1" viewBox="0 0 1000 1000" width="1000" height="1000"><style>.st0{fill:#231f20}.st1{fill:#303030}.st2{fill:none}.st3{fill:#596ab2}.st4{fill:#fff}.st5{fill:#413e38}.st6{fill:#596bb2}.st7{fill:#535353}.st8{fill:#8bd0d0}.st9{fill:#95999a}.st10{fill:#535453}</style><path d="M950 50v900H50V50h900m50-50H0v1000h1000V0z" class="st0"/><path d="M143.9 264.1c1.1 10.1 10.6 16.7 23.9 16.7 12.6 0 21.7-6.6 21.7-15.8 0-7.9-5.5-12.7-18-15.9l-11.9-3.1c-17.1-4.4-24.8-11.9-24.8-24.6 0-15.5 13.5-26.3 32.9-26.3 18.5 0 31.9 11 32.4 26.6h-11.6c-1-10-9.1-16.1-21.2-16.1s-20.4 6.3-20.4 15.3c0 7 5.2 11.2 17.8 14.5l9.7 2.6c19.3 4.8 27.1 12.2 27.1 25.6 0 17-13.4 27.7-34.8 27.7-19.7 0-33.4-10.7-34.5-27.1h11.7zm71.1 25.5v-93h56.5V207h-44.9v32h41.2v10.3h-41.2v40.3H215zm112.9-33.3c0 14.1 9.2 24.2 25.3 24.2s25.3-10.2 25.3-24.2v-59.6h11.6V257c0 19.9-13.9 34.2-36.9 34.2s-36.9-14.3-36.9-34.2v-60.4h11.6v59.7zm80.3 33.3v-93h11.6v93h-11.6zm85.4 0V207h-30v-10.4h71.5V207h-30v82.6h-11.5zm96.1-19.8c-1.9 11.9-14 20.5-28.8 20.5-19.5 0-31.8-13.6-31.8-35.1s12.4-35.6 31.3-35.6c18.6 0 30.2 13.1 30.2 34.1v4.4h-49.9v.6c0 13.2 8.1 21.8 20.5 21.8 8.7 0 15.5-4.1 17.5-10.6h11zM540.6 249h38.2c-.3-11.8-7.7-19.7-18.7-19.7-10.8.1-18.7 8-19.5 19.7zm84.5 14l-17 26.6h-12.5l23.8-34.7-23.4-34.7h12.5l17 26.2h.3l16.8-26.2H655l-23.5 34.3 23.2 35.2h-12.5L625.4 263h-.3zm54.7-58.5v15.7h13.5v9.3h-13.5v41.7c0 6.4 2.7 9.3 8.6 9.3 1.4 0 4.1-.2 4.8-.3v9.5c-1.4.3-4.6.6-7.2.6-12.6 0-17.5-5.2-17.5-18.6v-42.2h-9.7v-9.3h9.7v-15.7h11.3zM143.2 409.6h-8.8v-70.5h26.9c13.6 0 22.5 8.3 22.5 21 0 9.8-5.3 17.4-14.2 20.2l16.3 29.2h-10.3l-15.1-27.9h-17.3v28zm0-35.6h17.3c9 0 14.2-4.9 14.2-13.5 0-8.4-5.5-13.5-14.6-13.5h-16.9v27zm93.9 20.6c-1.5 9-10.6 15.5-21.8 15.5-14.8 0-24.1-10.3-24.1-26.6s9.4-27 23.7-27c14.1 0 22.9 9.9 22.9 25.8v3.3H200v.5c0 10 6.2 16.5 15.5 16.5 6.6 0 11.7-3.1 13.2-8.1h8.4zM200 378.9h29c-.2-8.9-5.9-14.9-14.2-14.9-8.3 0-14.2 6-14.8 14.9zm46.2 35.1h8.8c1.7 4.9 7 8.1 13.7 8.1 9.2 0 14.8-5.3 14.8-13.3v-8.3h-.2c-3.3 5.7-9.5 9-16.9 9-13.3 0-22.3-10.6-22.3-26.5 0-16.1 8.9-26.6 22.5-26.6 7.4 0 13.6 3.3 17.1 9h.1V357h8.1v51.6c0 12.5-9.2 20.9-23.7 20.9-11.3 0-20.5-6.5-22-15.5zm37.3-30.9c0-11.3-6.2-19-15.5-19-9.2 0-15.2 7.5-15.2 19s6 18.9 15.2 18.9c9.2.1 15.5-7.6 15.5-18.9zm62.9 26.5h-8V401h-.2c-3.3 6.1-8.7 9.2-16.7 9.2-11.5 0-18.2-7.4-18.2-19.4V357h8.5v32.3c0 8.6 4.1 13.3 12.3 13.3 8.6 0 13.9-6 13.9-15V357h8.5v52.6zm12-73.5h8.5v73.5h-8.5v-73.5zm18.1 58.6c0-9 6.9-14.4 19.7-15.1l14.7-.9v-4.4c0-6.5-4.3-10.2-12.1-10.2-6.1 0-10.6 3.1-11.7 8.1h-8.2c.2-8.9 8.9-15.7 19.9-15.7 12.5 0 20.5 6.6 20.5 17v36.1h-8.1v-9.1h-.2c-3 5.9-9.6 9.6-16.9 9.6-10.5 0-17.6-6.1-17.6-15.4zm34.5-5.1v-4.2l-13.8.9c-7.9.5-12 3.4-12 8.4 0 4.9 4.2 8.1 10.9 8.1 8.6 0 14.9-5.6 14.9-13.2zm19.8-32.6h8v8.5h.2c1.6-5.5 6.6-9 12.7-9 1.5 0 2.8.1 3.5.3v8.3c-.7-.2-2.5-.5-4.6-.5-6.8 0-11.3 5-11.3 12.4v32.6h-8.5V357zM244 728.9h-91.6l-23.2 65.9H99l85-230.4h28.4l84.9 230.4h-30.2L244 728.9zm-83.2-24.4h74.7l-36.9-105.1h-1l-36.8 105.1zm151.5 41.3c0-29.5 22.7-46.9 64.5-49.5l48.2-2.9V679c0-21.4-14.1-33.2-39.4-33.2-20 0-34.8 10.2-38.2 26.5h-26.7c.8-29.1 29.1-51.3 65.1-51.3 40.7 0 66.9 21.7 66.9 55.6v118.2h-26.3V765h-.6c-9.7 19.2-31.3 31.5-55.4 31.5-34.9-.1-58.1-20.2-58.1-50.7zm112.8-16.4v-13.9l-45 2.9c-25.9 1.6-39.3 11-39.3 27.6 0 16 13.9 26.3 35.6 26.3 28.1 0 48.7-18.2 48.7-42.9zm139.7 45l131.4-183v-1.1h-127v-25.9h163.2v20.4l-130.8 183v1.1h133.5v25.9H564.8v-20.4zm201.1.3l96-128.5v-.5h-95.8v-23h127.1v20.6l-95.3 128.1v.5h95.8v23H765.9v-20.2z" class="st0"/></svg>