<svg xmlns="http://www.w3.org/2000/svg" id="Layer_1" viewBox="0 0 1000 1000" width="1000" height="1000"><style>.st0{fill:#231f20}.st1{fill:#303030}.st2{fill:none}.st3{fill:#596ab2}.st4{fill:#fff}.st5{fill:#413e38}.st6{fill:#596bb2}.st7{fill:#535353}.st8{fill:#8bd0d0}.st9{fill:#95999a}.st10{fill:#535453}</style><path d="M183.4 251.9h-27.2l-6.9 19.6h-9l25.2-68.3h8.4l25.2 68.3h-9l-6.7-19.6zm-24.6-7.3H181l-10.7-30.5h-.8l-10.7 30.5zm47.9 12.5c0-9.1 6.7-14.4 18.6-15.1l14.7-.9v-4.6c0-6.3-3.9-9.8-11.6-9.8-6.1 0-10.4 2.3-11.5 6.3h-8.2c1.1-8.2 9.1-13.6 20-13.6 12.5 0 19.4 6.4 19.4 17v35h-7.8v-7.5h-.8c-3.3 5.4-8.9 8.4-15.7 8.4-9.8 0-17.1-5.8-17.1-15.2zm33.3-4.7v-4.7l-13.7.9c-7.8.5-11.2 3.2-11.2 8.3 0 5.2 4.4 8.2 10.3 8.2 8.4.1 14.6-5.4 14.6-12.7zm51.7 19v-68.3h26.1c12.6 0 20.2 6.6 20.2 17.1 0 7.1-5.2 13.5-11.8 14.7v.8c9.3 1.2 15.2 7.6 15.2 16.6 0 12-8.6 19.2-23.2 19.2h-26.5zm8.5-38.8h13.6c10.3 0 15.6-3.7 15.6-10.9 0-7-4.9-11-13.4-11h-15.8v21.9zm16.8 31.3c10.3 0 15.7-4.2 15.7-12.1s-5.6-11.9-16.5-11.9h-16.1v24H317zm34.3-6.8c0-9.1 6.7-14.4 18.6-15.1l14.7-.9v-4.6c0-6.3-3.9-9.8-11.6-9.8-6.1 0-10.4 2.3-11.5 6.3h-8.2c1.1-8.2 9.1-13.6 20-13.6 12.5 0 19.4 6.4 19.4 17v35h-7.8v-7.5h-.8c-3.3 5.4-8.9 8.4-15.7 8.4-9.7 0-17.1-5.8-17.1-15.2zm33.4-4.7v-4.7l-13.7.9c-7.8.5-11.2 3.2-11.2 8.3 0 5.2 4.4 8.2 10.3 8.2 8.4.1 14.6-5.4 14.6-12.7zm49-15.1c0-22.1 11.6-35.8 30.1-35.8 14.4 0 25.6 9 27.7 22.2h-8.7c-2.3-8.8-9.6-14.4-19-14.4-13.1 0-21.4 10.8-21.4 27.9s8.2 27.9 21.4 27.9c9.5 0 16.8-4.9 18.9-12.8h8.7c-2.3 12.6-13.1 20.7-27.6 20.7-18.5.1-30.1-13.7-30.1-35.7zm105-1.3c-1.3-5.1-5.8-9.2-13.2-9.2-9.2 0-15 7.3-15 18.9 0 11.8 5.9 19.3 15 19.3 6.9 0 11.7-3.2 13.2-9h8.2c-1.5 9.4-9.1 16.3-21.4 16.3-14.3 0-23.4-10.4-23.4-26.6 0-15.9 9.1-26.2 23.4-26.2 12.4 0 20 7.4 21.4 16.5h-8.2zm72.1-32.9c20.3 0 32.3 12.6 32.3 34.1 0 21.6-11.9 34.2-32.3 34.2h-23.4v-68.3h23.4zm-14.9 60.7h14.4c15.3 0 24.1-9.8 24.1-26.4 0-16.7-9-26.6-24.1-26.6h-14.4v53zm58.3-17.9c0-16 8.5-26.4 21.5-26.4 7.1 0 13.1 3.4 16 9h.7v-28.3h8.1v71.3h-7.8v-8.1h-.7c-3.2 5.7-9.3 9-16.3 9-13.1-.1-21.5-10.4-21.5-26.5zm8.5 0c0 11.9 5.6 19.1 14.9 19.1s15-7.3 15-19.1c0-11.7-5.8-19.1-15-19.1-9.3 0-14.9 7.2-14.9 19.1zm124.4 25.5h-42.3v-68.3h42.3v7.7h-33.8v21.9h32.1v7.6h-32.1v23.5h33.8v7.6zm56.4-13.2c-2.5 8.8-10.3 14.1-21.5 14.1-14.2 0-23-10.2-23-26.4 0-16.1 9-26.5 23-26.5 13.8 0 22.2 9.8 22.2 25.7v3.1h-36.7v.4c.4 10.1 6.1 16.5 14.7 16.5 6.6 0 11-2.4 13.2-6.9h8.1zm-36.1-16.5h28.1c-.2-9-5.6-15-13.7-15s-13.7 6-14.4 15zM145.9 387.8v-68.3h41.5v7.7h-33v23.5h30.3v7.6h-30.3v29.6h-8.5zm57.9-44.2h-8.5v-6.8h8.5v-5c0-10.5 5.4-14.8 15.3-14.8 1.6 0 3 .1 5 .5v6.8c-1.1-.2-2.9-.4-4.5-.4-4.9 0-7.6 2.5-7.6 8.2v4.7h11.7v6.8H212v44.2h-8.1v-44.2zm88.4 45.9c-18.9 0-31-13.9-31-35.8 0-21.6 12.3-35.8 31-35.8 15.2 0 26.1 8.4 28.6 22h-8.7c-2.9-9.2-9.8-14.1-19.9-14.1-13.5 0-22.2 10.9-22.2 27.9 0 17.2 8.5 27.9 22.3 27.9 12.2 0 20.5-7.8 20.5-19.4v-1.7h-19.2V353h27.7v8.3c-.1 17-11.6 28.2-29.1 28.2zm42.7 4h8.6c.9 4.2 5.4 6.9 12.8 6.9 9.1 0 14.6-4.5 14.6-12v-10h-.8c-3.2 5.6-9 8.8-16 8.8-13.2 0-21.4-10.2-21.4-25.5S341 336 354.1 336c7.2 0 13.5 3.5 16.4 9h.8v-8.1h7.8v52c0 11.4-8.8 18.7-22.7 18.7-12.5-.1-20.3-5.7-21.5-14.1zm36.1-31.9c0-11.1-5.7-18.3-15.2-18.3s-14.8 7.2-14.8 18.3 5.3 18.3 14.8 18.3 15.2-7.2 15.2-18.3zm97.8 26.2v-31.1h-37.5v31.1h-8.5v-68.3h8.5v29.6h37.5v-29.6h8.5v68.3h-8.5zm25.4-71.3h8.1v28.3h.8c2.6-5.6 7.9-9 15.7-9 10.8 0 17.6 6.9 17.6 18.9v33.1h-8.1v-31.1c0-9-4.1-13.5-11.8-13.5-9.1 0-14.2 5.8-14.2 14.4v30.2h-8.1v-71.3zm85.5 71.3v-68.3h8.5v68.3h-8.5zm23.5-67.1c0-3.1 2.6-5.7 5.7-5.7s5.7 2.6 5.7 5.7-2.6 5.7-5.7 5.7-5.7-2.5-5.7-5.7zm1.6 16.1h8.1v51.1h-8.1v-51.1zm56 35.1c.2 5.7 4.5 9.7 11 9.7 7.3 0 11.4-4.5 11.4-12.8v-49.3h8.5v49.3c0 13-7.5 20.7-19.9 20.7-11.5 0-19.5-7.1-19.5-17.6h8.5zm55.6 18.5c0 10.5-4.9 15-15.6 15h-1.4v-7h1.2c5.8 0 7.7-2.3 7.7-7.9v-53.7h8.1v53.6zm-9.7-69.7c0-3.1 2.6-5.7 5.7-5.7s5.7 2.6 5.7 5.7-2.6 5.7-5.7 5.7c-3.2 0-5.7-2.5-5.7-5.7zm53.7 67.1v-68.3h8.5v33.2h.8l29.9-33.2h10.7L783 349l29.8 38.8h-11l-24.7-32.9-8.2 9v23.9h-8.5zm94.4-51h10l-22 21.9 23.4 29.2h-10.4L836.7 364l-4.9 4.5v19.4h-8.1v-71.3h8.1v42.6h.8l22.2-22.4zM187.4 504.2h-41.5v-68.3h8.5v60.7h33v7.6zm13-71.3h8.1v71.3h-8.1v-71.3zm111.8 71.3V452h-.6L290 503.8h-7.2l-21.6-51.7h-.6v52.2h-8V436h9.9l23.4 56.6h.8l23.4-56.6h9.9v68.3h-7.8zm24.3-51h7.8v8.1h.8c2.3-5.7 7.4-9 14.3-9s11.7 3.6 14.1 9h.8c2.7-5.4 8.6-9 15.6-9 10.4 0 16.2 6 16.2 16.7v35.3H398v-33.4c0-7.5-3.6-11.2-10.8-11.2-7.1 0-11.8 5.3-11.8 11.8v32.8h-8.1v-34.7c0-6.1-4.2-9.9-10.7-9.9-6.7 0-11.8 5.8-11.8 13v31.6h-8.1v-51.1zm112.8 51v-68.3h8.3l37.1 53.2h.8v-53.2h8.4v68.3h-8.3l-37.1-53h-.8v53h-8.4zm71-51h7.8v8.1h.8c2.6-5.6 7.5-9 15.3-9 11.5 0 17.9 6.8 17.9 18.9v33.1H554v-31.1c0-9.2-3.9-13.5-12-13.5s-13.4 5.4-13.4 14.4v30.2h-8.1v-51.1zm145 16.9c0 21.8-11.7 35.8-31.3 35.8s-31.4-13.9-31.4-35.8c0-22 12.1-35.8 31.4-35.8 19.5 0 31.3 13.8 31.3 35.8zm-53.9 0c0 17 8.4 27.9 22.6 27.9 14 0 22.5-11 22.5-27.9 0-17.1-8.5-27.9-22.5-27.9-13.9 0-22.6 10.8-22.6 27.9zm65.1 8.6c0-16.4 9-26.4 23.5-26.4s23.5 10 23.5 26.4-9 26.4-23.5 26.4-23.5-10-23.5-26.4zm38.6 0c0-12.1-5.4-19.1-15.1-19.1s-15.1 7-15.1 19.1c0 12.1 5.4 19.1 15.1 19.1s15.1-7 15.1-19.1zm75.5-42.8c12.9 0 21.9 9.1 21.9 22.1 0 12.8-9.1 21.8-22 21.8h-17.2v24.4h-8.5v-68.3h25.8zm-17.3 36.4h15.1c9.7 0 15.3-5.2 15.3-14.3 0-9.4-5.4-14.5-15.3-14.5h-15.1v28.8zm98.4 6.4c0 16-8.5 26.4-21.5 26.4-7.3 0-13.2-3.2-16-8.6h-.8v24.7h-8.1v-68.1h7.8v8.5h.8c3.3-5.9 9.4-9.4 16.3-9.4 13 .1 21.5 10.5 21.5 26.5zm-8.5 0c0-11.9-5.6-19.1-14.9-19.1-9.2 0-15.1 7.3-15.1 19.1 0 11.7 5.8 19.1 15 19.1 9.5 0 15-7.1 15-19.1zM192.9 628.4l-6-8.2c-3.6 1.4-7.8 2.1-12.2 2.1-19.5 0-31.4-13.6-31.4-35.8 0-22.1 12.1-35.8 31.4-35.8 19.2 0 31.3 13.8 31.3 35.8 0 13.6-4.4 24.2-12.1 29.8l8.7 12h-9.7zm-10.9-15l-9-12.3h9.7l6.2 8.2c5.4-4.3 8.3-12.4 8.3-22.8 0-17.1-8.7-27.9-22.5-27.9-13.9 0-22.6 10.8-22.6 27.9 0 17.2 8.7 27.9 22.7 27.9 2.4 0 4.8-.3 7.2-1zm72.8-35.3h.8v-8.5h7.9v68.1h-8.2V613h-.8c-3.3 5.6-8.8 8.6-16 8.6-13 0-21.4-10.3-21.4-26.4 0-16 8.4-26.4 21.4-26.4 6.9-.1 13.2 3.6 16.3 9.3zm.6 17c0-11.7-5.8-19.1-15.1-19.1s-14.8 7.2-14.8 19.1c0 12 5.5 19.1 14.8 19.1s15.1-7.3 15.1-19.1zm60.3 25.5h-8.5v-68.3h26.1c13.2 0 21.8 8.1 21.8 20.4 0 9.5-5.2 16.9-13.7 19.6l15.8 28.4h-10l-14.6-27h-16.8v26.9zm0-34.6h16.8c8.8 0 13.7-4.7 13.7-13.1 0-8.2-5.3-13.1-14.1-13.1h-16.4V586zm53.8-16.4h7.8v7.6h.8c1.5-5 7.4-8.5 14.2-8.5 1.3 0 3 .1 4.1.2v8.1c-.7-.2-3.6-.5-5.2-.5-7.8 0-13.4 5.2-13.4 12.4v31.6h-8.1v-50.9zm70.7 33.2c1 7.2 7.9 11.7 17.6 11.7 9.2 0 16-5 16-11.7 0-5.8-4.3-9.5-13.7-11.9l-8.8-2.3c-12.4-3.1-17.7-8.7-17.7-18.4 0-11.6 9.7-19.5 24.2-19.5 13.2 0 23.1 7.9 23.8 18.9H473c-1.2-7-7-11.2-15.5-11.2-9.1 0-15.1 4.5-15.1 11.5 0 5.4 3.7 8.4 13.2 10.8l7.2 1.9c14.2 3.6 19.8 9 19.8 19.1 0 12.6-9.9 20.6-25.5 20.6-14.5 0-24.5-7.7-25.4-19.5h8.5zm73.3-34.1c10.7 0 18.1 5.3 19.2 13.7h-8.1c-1.1-4.1-5.1-6.8-11.2-6.8s-10.8 3.1-10.8 7.6c0 3.5 2.8 5.7 8.9 7.2l7.9 1.9c9.6 2.3 14.3 6.5 14.3 13.8 0 9.1-8.9 15.4-20.5 15.4-11.4 0-19.2-5.4-20.1-13.9h8.4c1.4 4.3 5.4 7.1 12 7.1 6.9 0 11.8-3.3 11.8-8 0-3.5-2.7-5.9-8.1-7.2l-8.8-2.1c-9.6-2.3-13.9-6.4-13.9-13.8-.1-8.5 8.1-14.9 19-14.9zm79.1 51.9V560h-22v-7.7h52.6v7.7h-22v60.7h-8.6zm54.2-64.2v13.2h11.4v6.8h-11.4v28.9c0 6 2.3 8.6 7.6 8.6 1.5 0 2.3 0 3.8-.2v6.9c-1.6.3-3.2.5-4.8.5-10.5 0-14.7-3.9-14.7-13.6v-31h-8.2v-6.8h8.2v-13.2h8.1zm60.9 40.2c0 10.3 6.8 17.8 18.6 17.8s18.6-7.5 18.6-17.8v-44.3h8.5v44.9c0 14.6-10.2 25.1-27.1 25.1-17 0-27.1-10.5-27.1-25.1v-44.9h8.5v44.3zm103.6 24h-7.8v-8h-.8c-2.6 5.7-8 8.9-15.8 8.9-11.5 0-17.4-6.8-17.4-18.9v-33.1h8.1v31.1c0 9.2 3.4 13.5 11.6 13.5 9 0 13.9-5.4 13.9-14.3v-30.2h8.1v51zM165.6 737l-25.2-68.3h9l20.1 57.3h.8l20.1-57.3h9L174.1 737h-8.5zm66 0h-8.3l-19-51h8.7l14 42.1h.8l14-42.1h8.7l-18.9 51zm80.4 0h-8.1l-18.6-68.3h8.9l13.6 55.6h.6l15.3-55.6h8.6l15.3 55.6h.6l13.6-55.6h8.9L352 737h-8l-15.7-53.9h-.6L312 737zm119.1 0h-8.3l-11.4-39.5h-.8L399.3 737H391l-14.3-51h8.2l10 40.8h.8l11.4-40.8h7.8l11.4 40.8h.8l10-40.8h8.2l-14.2 51zm72.6-34.3l-23.1-34h10.3l18 27.2h.8l18.3-27.2h9.7L513.9 703l23.2 34h-10.2L509 710h-.8L490 737h-9.7l23.4-34.3zm63.1 15.1L554.7 737h-9.2l17.5-25.5-17.7-25.5h9.7l12.1 19h.8l12-19h9.2l-17.3 25.2 17.6 25.9h-9.7l-12.1-19.3h-.8zm80.9 19.2v-29.4l-24.2-38.9h9.7l18.4 30.4h.8l18.4-30.4h9.7l-24.2 38.9V737h-8.6zm41.2 18.2v-7c1 .2 2.3.2 3.4.2 4.7 0 7.2-2.2 9.4-8.4l.9-3-18.9-51h8.8l14 42h.8l14-42h8.7l-20 54.2c-4.4 11.8-8.4 15.3-17.5 15.3-1 0-2.5-.1-3.6-.3zm78.5-24.2l38.7-53.9v-.8h-37.4v-7.7h48.4v6.1l-38.5 53.9v.8h39.3v7.7h-50.5V731zm63.8.1l29.5-37.5v-.8h-29.4V686h39.1v6.1l-29.3 37.4v.8h29.5v6.8h-39.3v-6z" class="st0"/></svg>