<svg xmlns="http://www.w3.org/2000/svg" id="Layer_1" viewBox="0 0 150 150" width="150" height="150"><style>.st0{fill:#fff}.st1{fill:#333}</style><circle cx="75" cy="75" r="75" class="st0"/><path d="M107.2 98.3c0-3.8-2.5-6.9-6.2-7.7-1.3-.3-2.7-.2-4.1-.1-.7 0-1.3.1-1.9.1h-.6l-.4-.7c-2.2-4.8-6-6.5-11.6-5.2l-.8.2-.3-.8c-2.1-5.5-6.2-7.5-12.7-6.3l-1.2.2V66.1c0-4 0-8.2-.2-12.3-.3-4-4-7.2-8.6-7.3h-.2c-4.1 0-7.8 3-8.4 6.8-.3 1.9-.3 4-.3 6 0 13.3 0 27.1-.1 40.6v.8c0 .3-.1.6-.1 1v2.8l-1.8-2.1c-.2-.2-.3-.4-.4-.5-.3-.3-.5-.5-.7-.9-.4-.6-.8-1.3-1.2-1.9-1-1.5-1.9-3.1-2.7-4.8-1.6-2.7-4.2-4.6-7.1-5.2-.7-.1-1.4-.2-2.1-.2-2.1 0-4.2.7-5.9 1.9-2.9 2.2-3.5 4.8-1.8 7.9 3.9 7.4 7.7 14.7 11.6 22.1 3.9 7.4 7.8 14.8 11.6 22.1.3.5.5.8.7 1.1l2.8-3.6c-.1-.1-.1-.2-.1-.4-7.4-14-15-28.3-22.4-42.1-.5-1-1-2-.6-3 .4-.9 1.3-1.4 2.6-1.8 2.4-.7 4.8.3 6.1 2.3.6.9 1 1.8 1.5 2.6.5.9.9 1.7 1.5 2.5 1.1 1.7 2.2 3.3 3.2 4.6 1.3 1.7 3.7 2.2 5.9 1.4 2.1-.8 3.3-2.4 3.3-4.8V77.8s.3-17.2.2-22.3c0-1.6.7-2.9 2-3.8 1.4-.9 3.2-1.1 4.8-.5 1.7.7 2.6 2.1 2.6 4.3v36.6c0 .9.2 2.5 1.9 2.6.9.1 2-.3 2.1-1.4.2-2 .4-4.3.2-6.5-.2-1.9.5-3.5 2-4.4 1.6-1 3.8-1.1 5.5-.1 1.5.8 2.3 2.2 2.3 4.1v11c0 .8.3 1.5.9 1.8.5.3 1.1.4 1.8.1.9-.3 1.3-.8 1.4-1.7v-2.2c0-.8 0-1.5.1-2.3.1-1.6.7-3 1.8-3.8 1.1-.8 2.6-1 4.3-.5 1.8.5 2.8 1.9 2.8 3.8v8.5c0 .8.1 1.3.3 1.6.5.8 1.2 1.2 2 1.1 1-.2 1.5-.6 1.7-1.5.2-1.2.2-2.3.2-3.6 0-2.6 1.7-4.4 4.1-4.4 2.6 0 4.7 1.8 4.7 4.1v20.4c-.1 5.1-.5 10.2-.9 14.7-.1 1.2-.4 2.5-.8 3.9-.3.7-.6 1.5-1.2 2.2l3.2 2.8c1.4-1.5 2.2-3.5 2.5-5.9.8-5.3 1.2-10.1 1.3-14.5.2-6 .1-12 .1-17.9-.2-1.8-.2-3.8-.2-5.8z" class="st1"/><path d="M75 6c38 0 69 31 69 69s-31 69-69 69S6 113 6 75 37 6 75 6m0-6C33.6 0 0 33.6 0 75s33.6 75 75 75 75-33.6 75-75S116.4 0 75 0z" class="st1"/><path d="M86 38.7c-5.7-10.4-16.4-16.6-27.9-16.6-2 0-4.1.2-6.2.6-14.7 3-25.1 15.6-25.4 30.7C26.3 65 32.9 76 42.9 81.3v-2.9c.1-.7-.2-1.2-.9-1.7-7.3-5.4-11.3-12.6-11.8-21.5-.3-6.7 1.4-12.7 5.2-17.7 8.9-12.1 24.2-15.3 37.3-7.7C84.4 36.5 89.5 52 84.1 64.3c-.8 2-2 3.9-3.1 5.8-.3.5-.7 1.1-1 1.6.5.3.9.7 1.4 1l1.2.9c8.2-9.8 9.6-23.5 3.4-34.9z" class="st1"/><path d="M58.8 33.3h-.7c-5.5 0-10.5 2.1-14.4 5.9-4 3.9-6.1 9.2-6.1 14.8.1 5.1 2 9.9 5.3 13.5 0-1.1 0-2.2.1-3.2 0-1.5-.1-3.4-.9-5.1-1-2.2-1.3-4.7-.8-7.7 1.2-6.9 5.1-11.7 11.5-13.8s12.3-.8 17.2 3.9c5 4.9 6.4 10.9 4.1 17.4-.8 2.1-.8 4.1-.8 6.3v2.1c2.9-3 4.9-7.4 5.2-12 .4-5.5-1.3-10.8-4.9-14.9-3.6-4.4-9.1-7-14.8-7.2z" class="st1"/></svg>